<?xml version="1.0" encoding="UTF-8" standalone="no"?>
<!DOCTYPE svg PUBLIC "-//W3C//DTD SVG 1.1//EN"
"http://www.w3.org/Graphics/SVG/1.1/DTD/svg11.dtd">
<svg viewBox="0 0 909 1286" version="1.1" xmlns="http://www.w3.org/2000/svg" xmlns:xlink="http://www.w3.org/1999/xlink">
<defs>
<clipPath id="c0_13"><path d="M96.4,1201.4v-15.5h33v15.5Z" /></clipPath>
<style type="text/css"><![CDATA[
.g0_13{
fill: none;
stroke: #000000;
stroke-width: 4.201389;
stroke-linecap: butt;
stroke-linejoin: round;
}
.g1_13{
fill: #5EB28E;
fill-opacity: 0.6;
}
.g2_13{
fill: #FFFFFF;
}
.g3_13{
fill: #16AAD3;
}
.g4_13{
}
]]></style>
</defs>
<path d="M841.2,1171.7H796.5" class="g0_13" />
<path fill-rule="evenodd" d="M111.9,1174c-11.5,0,-20.8,9.3,-20.8,20.8c0,11.5,9.3,20.8,20.8,20.8c11.5,0,20.8,-9.3,20.8,-20.8c0,-11.5,-9.3,-20.8,-20.8,-20.8Z" class="g1_13" />
<path d="M116.9,1199.3c0,.1,.2,.3,.4,.3q1.9,0,1.9,0c.1,0,.3,-.2,.3,-.3q0,-.7,0,-.7q0,-.1,0,-.1q0,-7.1,0,-7.1q0,-.1,0,-.1q0,-.7,0,-.7c0,-.2,-.2,-.4,-.3,-.4q-1.9,0,-1.9,0c-.2,0,-.4,.2,-.4,.4q0,.5,0,.5q0,7.6,0,7.6v.6Z" class="g2_13" />
<g clip-path="url(#c0_13)">
<path d="M115.7,1195.4q0,-4.8,0,-4.8c0,-.2,-.1,-.4,-.3,-.4q-2,0,-2,0c-.1,0,-.2,.2,-.2,.4q0,4.4,0,4.4c0,1.7,-1,2.5,-2,2.4c-1,.1,-2,-.7,-1.9,-2.4q0,-4.4,0,-4.4c0,-.2,-.1,-.4,-.3,-.4q-1.9,0,-1.9,0c-.2,0,-.3,.2,-.3,.4q0,3.6,0,3.6c-.4,-2.4,-2.6,-4.2,-5.2,-4.2c-2.9,0,-5.2,2.2,-5.2,5c0,2.7,2.3,4.9,5.2,4.9c.2,0,.8,0,.9,0q2.1,1.4,2.1,1.4c.2,.1,.4,.1,.4,-.2q0,-2.4,0,-2.4c.9,-.7,1.6,-1.8,1.8,-3.1c.1,2.9,2.3,4.3,4.4,4.2c2.2,.1,4.5,-1.4,4.5,-4.4Zm-14.1,2.2c-1.5,0,-2.8,-1.2,-2.8,-2.6c0,-1.5,1.3,-2.7,2.8,-2.7c1.5,0,2.8,1.2,2.8,2.7c0,1.4,-1.3,2.6,-2.8,2.6Z" class="g2_13" />
</g>
<path d="M118.2,1186.7c-.8,0,-1.4,.6,-1.4,1.4c0,.7,.6,1.3,1.4,1.3c.8,0,1.4,-.6,1.4,-1.3c0,-.8,-.6,-1.4,-1.4,-1.4Z" class="g2_13" />
<path d="M129.3,1199q-3.4,-4.4,-3.4,-4.4q3,-3.8,3,-3.8c.1,-.1,.1,-.5,-.1,-.6c-.5,0,-1.3,0,-2.2,0c-.1,0,-.2,.1,-.4,.3q-2.9,3.7,-2.9,3.7c0,-2.7,0,-5.4,0,-8c0,-.2,-.2,-.2,-.3,-.1c-.7,.4,-1.3,.9,-2,1.3c-.2,.1,-.2,.3,-.2,.5q0,.6,0,.6q0,.7,0,.7q0,.1,0,.1q0,9.2,0,9.2q0,.1,0,.1q0,.7,0,.7c0,.1,.1,.3,.2,.3q2,0,2,0c.1,0,.3,-.2,.3,-.3q0,-.6,0,-.6q0,-3.5,0,-3.5q3.2,4.2,3.2,4.2c.1,.2,.2,.2,.4,.2c.8,0,1.8,0,2.2,0c.3,-.1,.3,-.5,.2,-.6Z" class="g2_13" />
<path fill-rule="evenodd" d="M344.2,211.4H646.4v-.9H344.2v.9Z" class="g3_13" />
<path fill-rule="evenodd" d="M88,187.9H218.4v-4.5H88v4.5Z" class="g4_13" />
<path fill-rule="evenodd" d="M218.4,187.9H223v-4.5h-4.6v4.5Z" class="g4_13" />
<path fill-rule="evenodd" d="M223,187.9H335.6v-4.5H223v4.5Z" class="g4_13" />
<path fill-rule="evenodd" d="M335.6,187.9h4.6v-4.5h-4.6v4.5Z" class="g4_13" />
<path fill-rule="evenodd" d="M340.2,187.9h506v-4.5h-506v4.5Z" class="g4_13" />
<path fill-rule="evenodd" d="M86.9,222.4H218.4v-.7H86.9v.7Z" class="g4_13" />
<path fill-rule="evenodd" d="M217.3,222.4h.7v-.7h-.7v.7Z" class="g4_13" />
<path fill-rule="evenodd" d="M218,222.4H335.6v-.7H218v.7Z" class="g4_13" />
<path fill-rule="evenodd" d="M334.5,222.4h.7v-.7h-.7v.7Z" class="g4_13" />
<path fill-rule="evenodd" d="M335.2,222.4h511v-.7h-511v.7Z" class="g4_13" />
<path fill-rule="evenodd" d="M344.2,518.2H752.6v-.9H344.2v.9Z" class="g3_13" />
<path fill-rule="evenodd" d="M88,494.7H218.4v-4.6H88v4.6Z" class="g4_13" />
<path fill-rule="evenodd" d="M218.4,494.7H223v-4.6h-4.6v4.6Z" class="g4_13" />
<path fill-rule="evenodd" d="M223,494.7H335.6v-4.6H223v4.6Z" class="g4_13" />
<path fill-rule="evenodd" d="M335.6,494.7h4.6v-4.6h-4.6v4.6Z" class="g4_13" />
<path fill-rule="evenodd" d="M340.2,494.7h506v-4.6h-506v4.6Z" class="g4_13" />
<path fill-rule="evenodd" d="M86.9,529.4H218.4v-.8H86.9v.8Z" class="g4_13" />
<path fill-rule="evenodd" d="M217.3,529.4h.7v-.8h-.7v.8Z" class="g4_13" />
<path fill-rule="evenodd" d="M218,529.4H335.6v-.8H218v.8Z" class="g4_13" />
<path fill-rule="evenodd" d="M334.5,529.4h.7v-.8h-.7v.8Z" class="g4_13" />
<path fill-rule="evenodd" d="M335.2,529.4h511v-.8h-511v.8Z" class="g4_13" />
<path fill-rule="evenodd" d="M344.2,825.1H664.9v-.9H344.2v.9Z" class="g3_13" />
<path fill-rule="evenodd" d="M88,801.6H218.4v-4.5H88v4.5Z" class="g4_13" />
<path fill-rule="evenodd" d="M218.4,801.6H223v-4.5h-4.6v4.5Z" class="g4_13" />
<path fill-rule="evenodd" d="M223,801.6H335.6v-4.5H223v4.5Z" class="g4_13" />
<path fill-rule="evenodd" d="M335.6,801.6h4.6v-4.5h-4.6v4.5Z" class="g4_13" />
<path fill-rule="evenodd" d="M340.2,801.6h506v-4.5h-506v4.5Z" class="g4_13" />
<path fill-rule="evenodd" d="M86.9,836.1H218.4v-.7H86.9v.7Z" class="g4_13" />
<path fill-rule="evenodd" d="M217.3,836.1h.7v-.7h-.7v.7Z" class="g4_13" />
<path fill-rule="evenodd" d="M218,836.1H335.6v-.7H218v.7Z" class="g4_13" />
<path fill-rule="evenodd" d="M334.5,836.1h.7v-.7h-.7v.7Z" class="g4_13" />
<path fill-rule="evenodd" d="M335.2,836.1h511v-.7h-511v.7Z" class="g4_13" />
<path fill-rule="evenodd" d="M344.2,1132.1H545.3v-1H344.2v1Z" class="g3_13" />
<path fill-rule="evenodd" d="M88,1108.6H218.4V1104H88v4.6Z" class="g4_13" />
<path fill-rule="evenodd" d="M218.4,1108.6H223V1104h-4.6v4.6Z" class="g4_13" />
<path fill-rule="evenodd" d="M223,1108.6H335.6V1104H223v4.6Z" class="g4_13" />
<path fill-rule="evenodd" d="M335.6,1108.6h4.6V1104h-4.6v4.6Z" class="g4_13" />
<path fill-rule="evenodd" d="M340.2,1108.6h506V1104h-506v4.6Z" class="g4_13" />
<path fill-rule="evenodd" d="M86.9,1143H218.4v-.7H86.9v.7Z" class="g4_13" />
<path fill-rule="evenodd" d="M217.3,1143h.7v-.7h-.7v.7Z" class="g4_13" />
<path fill-rule="evenodd" d="M218,1143H335.6v-.7H218v.7Z" class="g4_13" />
<path fill-rule="evenodd" d="M334.5,1143h.7v-.7h-.7v.7Z" class="g4_13" />
<path fill-rule="evenodd" d="M335.2,1143h511v-.7h-511v.7Z" class="g4_13" />
</svg>