<?xml version="1.0" encoding="UTF-8" standalone="no"?>
<!DOCTYPE svg PUBLIC "-//W3C//DTD SVG 1.1//EN"
"http://www.w3.org/Graphics/SVG/1.1/DTD/svg11.dtd">
<svg viewBox="0 0 909 1286" version="1.1" xmlns="http://www.w3.org/2000/svg" xmlns:xlink="http://www.w3.org/1999/xlink">
<defs>
<clipPath id="c0_64"><path d="M96.4,1201.4v-15.5h33v15.5Z" /></clipPath>
<style type="text/css"><![CDATA[
.g0_64{
fill: none;
stroke: #000000;
stroke-width: 4.201389;
stroke-linecap: butt;
stroke-linejoin: round;
}
.g1_64{
fill: #5EB28E;
fill-opacity: 0.6;
}
.g2_64{
fill: #FFFFFF;
}
.g3_64{
}
]]></style>
</defs>
<path d="M841.2,1171.7H796.5" class="g0_64" />
<path fill-rule="evenodd" d="M111.9,1174c-11.5,0,-20.8,9.3,-20.8,20.8c0,11.5,9.3,20.8,20.8,20.8c11.5,0,20.8,-9.3,20.8,-20.8c0,-11.5,-9.3,-20.8,-20.8,-20.8Z" class="g1_64" />
<path d="M116.9,1199.3c0,.1,.2,.3,.4,.3q1.9,0,1.9,0c.1,0,.3,-.2,.3,-.3q0,-.7,0,-.7q0,-.1,0,-.1q0,-7.1,0,-7.1q0,-.1,0,-.1q0,-.7,0,-.7c0,-.2,-.2,-.4,-.3,-.4q-1.9,0,-1.9,0c-.2,0,-.4,.2,-.4,.4q0,.5,0,.5q0,7.6,0,7.6v.6Z" class="g2_64" />
<g clip-path="url(#c0_64)">
<path d="M115.7,1195.4q0,-4.8,0,-4.8c0,-.2,-.1,-.4,-.3,-.4q-2,0,-2,0c-.1,0,-.2,.2,-.2,.4q0,4.4,0,4.4c0,1.7,-1,2.5,-2,2.4c-1,.1,-2,-.7,-1.9,-2.4q0,-4.4,0,-4.4c0,-.2,-.1,-.4,-.3,-.4q-1.9,0,-1.9,0c-.2,0,-.3,.2,-.3,.4q0,3.6,0,3.6c-.4,-2.4,-2.6,-4.2,-5.2,-4.2c-2.9,0,-5.2,2.2,-5.2,5c0,2.7,2.3,4.9,5.2,4.9c.2,0,.8,0,.9,0q2.1,1.4,2.1,1.4c.2,.1,.4,.1,.4,-.2q0,-2.4,0,-2.4c.9,-.7,1.6,-1.8,1.8,-3.1c.1,2.9,2.3,4.3,4.4,4.2c2.2,.1,4.5,-1.4,4.5,-4.4Zm-14.1,2.2c-1.5,0,-2.8,-1.2,-2.8,-2.6c0,-1.5,1.3,-2.7,2.8,-2.7c1.5,0,2.8,1.2,2.8,2.7c0,1.4,-1.3,2.6,-2.8,2.6Z" class="g2_64" />
</g>
<path d="M118.2,1186.7c-.8,0,-1.4,.6,-1.4,1.4c0,.7,.6,1.3,1.4,1.3c.8,0,1.4,-.6,1.4,-1.3c0,-.8,-.6,-1.4,-1.4,-1.4Z" class="g2_64" />
<path d="M129.3,1199q-3.4,-4.4,-3.4,-4.4q3,-3.8,3,-3.8c.1,-.1,.1,-.5,-.1,-.6c-.5,0,-1.3,0,-2.2,0c-.1,0,-.2,.1,-.4,.3q-2.9,3.7,-2.9,3.7c0,-2.7,0,-5.4,0,-8c0,-.2,-.2,-.2,-.3,-.1c-.7,.4,-1.3,.9,-2,1.3c-.2,.1,-.2,.3,-.2,.5q0,.6,0,.6q0,.7,0,.7q0,.1,0,.1q0,9.2,0,9.2q0,.1,0,.1q0,.7,0,.7c0,.1,.1,.3,.2,.3q2,0,2,0c.1,0,.3,-.2,.3,-.3q0,-.6,0,-.6q0,-3.5,0,-3.5q3.2,4.2,3.2,4.2c.1,.2,.2,.2,.4,.2c.8,0,1.8,0,2.2,0c.3,-.1,.3,-.5,.2,-.6Z" class="g2_64" />
<path fill-rule="evenodd" d="M88,107.6H284.8V103H88v4.6Z" class="g3_64" />
<path fill-rule="evenodd" d="M284.8,107.6h4.6V103h-4.6v4.6Z" class="g3_64" />
<path fill-rule="evenodd" d="M289.4,107.6H391.3V103H289.4v4.6Z" class="g3_64" />
<path fill-rule="evenodd" d="M391.3,107.6h4.6V103h-4.6v4.6Z" class="g3_64" />
<path fill-rule="evenodd" d="M393.7,107.6h4.6V103h-4.6v4.6Z" class="g3_64" />
<path fill-rule="evenodd" d="M398.3,107.6H846.2V103H398.3v4.6Z" class="g3_64" />
<path fill-rule="evenodd" d="M88,209.8H284.8V209H88v.8Z" class="g3_64" />
<path fill-rule="evenodd" d="M284.8,209.8h.7V209h-.7v.8Z" class="g3_64" />
<path fill-rule="evenodd" d="M285.5,209.8H391.3V209H285.5v.8Z" class="g3_64" />
<path fill-rule="evenodd" d="M391.3,209.8h.7V209h-.7v.8Z" class="g3_64" />
<path fill-rule="evenodd" d="M392,209.8H846.2V209H392v.8Z" class="g3_64" />
<path fill-rule="evenodd" d="M86.9,244.2H284.8v-.7H86.9v.7Z" class="g3_64" />
<path fill-rule="evenodd" d="M283.6,244.2h.8v-.7h-.8v.7Z" class="g3_64" />
<path fill-rule="evenodd" d="M284.4,244.2H391.3v-.7H284.4v.7Z" class="g3_64" />
<path fill-rule="evenodd" d="M390.2,244.2h.7v-.7h-.7v.7Z" class="g3_64" />
<path fill-rule="evenodd" d="M390.9,244.2H846.2v-.7H390.9v.7Z" class="g3_64" />
<path fill-rule="evenodd" d="M88,412H284.8v-4.6H88V412Z" class="g3_64" />
<path fill-rule="evenodd" d="M284.8,412h4.6v-4.6h-4.6V412Z" class="g3_64" />
<path fill-rule="evenodd" d="M289.4,412H393.7v-4.6H289.4V412Z" class="g3_64" />
<path fill-rule="evenodd" d="M393.7,412h4.6v-4.6h-4.6V412Z" class="g3_64" />
<path fill-rule="evenodd" d="M398.3,412H846.2v-4.6H398.3V412Z" class="g3_64" />
<path fill-rule="evenodd" d="M88,446.5H284.8v-.7H88v.7Z" class="g3_64" />
<path fill-rule="evenodd" d="M284.8,446.5h.7v-.7h-.7v.7Z" class="g3_64" />
<path fill-rule="evenodd" d="M285.5,446.5H393.7v-.7H285.5v.7Z" class="g3_64" />
<path fill-rule="evenodd" d="M393.7,446.5h.7v-.7h-.7v.7Z" class="g3_64" />
<path fill-rule="evenodd" d="M394.4,446.5H846.2v-.7H394.4v.7Z" class="g3_64" />
<path fill-rule="evenodd" d="M88,481.1H284.8v-.7H88v.7Z" class="g3_64" />
<path fill-rule="evenodd" d="M284.8,481.1h.7v-.7h-.7v.7Z" class="g3_64" />
<path fill-rule="evenodd" d="M285.5,481.1H393.7v-.7H285.5v.7Z" class="g3_64" />
<path fill-rule="evenodd" d="M393.7,481.1h.7v-.7h-.7v.7Z" class="g3_64" />
<path fill-rule="evenodd" d="M394.4,481.1H846.2v-.7H394.4v.7Z" class="g3_64" />
<path fill-rule="evenodd" d="M88,515.6H284.8v-.7H88v.7Z" class="g3_64" />
<path fill-rule="evenodd" d="M284.8,515.6h.7v-.7h-.7v.7Z" class="g3_64" />
<path fill-rule="evenodd" d="M285.5,515.6H393.7v-.7H285.5v.7Z" class="g3_64" />
<path fill-rule="evenodd" d="M393.7,515.6h.7v-.7h-.7v.7Z" class="g3_64" />
<path fill-rule="evenodd" d="M394.4,515.6H846.2v-.7H394.4v.7Z" class="g3_64" />
<path fill-rule="evenodd" d="M88,550.1H284.8v-.8H88v.8Z" class="g3_64" />
<path fill-rule="evenodd" d="M284.8,550.1h.7v-.8h-.7v.8Z" class="g3_64" />
<path fill-rule="evenodd" d="M285.5,550.1H393.7v-.8H285.5v.8Z" class="g3_64" />
<path fill-rule="evenodd" d="M393.7,550.1h.7v-.8h-.7v.8Z" class="g3_64" />
<path fill-rule="evenodd" d="M394.4,550.1H846.2v-.8H394.4v.8Z" class="g3_64" />
<path fill-rule="evenodd" d="M88,584.5H284.8v-.7H88v.7Z" class="g3_64" />
<path fill-rule="evenodd" d="M284.8,584.5h.7v-.7h-.7v.7Z" class="g3_64" />
<path fill-rule="evenodd" d="M285.5,584.5H393.7v-.7H285.5v.7Z" class="g3_64" />
<path fill-rule="evenodd" d="M393.7,584.5h.7v-.7h-.7v.7Z" class="g3_64" />
<path fill-rule="evenodd" d="M394.4,584.5H846.2v-.7H394.4v.7Z" class="g3_64" />
<path fill-rule="evenodd" d="M88,619.2H284.8v-.7H88v.7Z" class="g3_64" />
<path fill-rule="evenodd" d="M284.8,619.2h.7v-.7h-.7v.7Z" class="g3_64" />
<path fill-rule="evenodd" d="M285.5,619.2H393.7v-.7H285.5v.7Z" class="g3_64" />
<path fill-rule="evenodd" d="M393.7,619.2h.7v-.7h-.7v.7Z" class="g3_64" />
<path fill-rule="evenodd" d="M394.4,619.2H846.2v-.7H394.4v.7Z" class="g3_64" />
<path fill-rule="evenodd" d="M88,653.7H284.8v-.8H88v.8Z" class="g3_64" />
<path fill-rule="evenodd" d="M284.8,653.7h.7v-.8h-.7v.8Z" class="g3_64" />
<path fill-rule="evenodd" d="M285.5,653.7H393.7v-.8H285.5v.8Z" class="g3_64" />
<path fill-rule="evenodd" d="M393.7,653.7h.7v-.8h-.7v.8Z" class="g3_64" />
<path fill-rule="evenodd" d="M394.4,653.7H846.2v-.8H394.4v.8Z" class="g3_64" />
<path fill-rule="evenodd" d="M88,688.1H284.8v-.7H88v.7Z" class="g3_64" />
<path fill-rule="evenodd" d="M284.8,688.1h.7v-.7h-.7v.7Z" class="g3_64" />
<path fill-rule="evenodd" d="M285.5,688.1H393.7v-.7H285.5v.7Z" class="g3_64" />
<path fill-rule="evenodd" d="M393.7,688.1h.7v-.7h-.7v.7Z" class="g3_64" />
<path fill-rule="evenodd" d="M394.4,688.1H846.2v-.7H394.4v.7Z" class="g3_64" />
<path fill-rule="evenodd" d="M88,764.2H284.8v-.7H88v.7Z" class="g3_64" />
<path fill-rule="evenodd" d="M284.8,764.2h.7v-.7h-.7v.7Z" class="g3_64" />
<path fill-rule="evenodd" d="M285.5,764.2H393.7v-.7H285.5v.7Z" class="g3_64" />
<path fill-rule="evenodd" d="M393.7,764.2h.7v-.7h-.7v.7Z" class="g3_64" />
<path fill-rule="evenodd" d="M394.4,764.2H846.2v-.7H394.4v.7Z" class="g3_64" />
<path fill-rule="evenodd" d="M88,798.7H284.8V798H88v.7Z" class="g3_64" />
<path fill-rule="evenodd" d="M284.8,798.7h.7V798h-.7v.7Z" class="g3_64" />
<path fill-rule="evenodd" d="M285.5,798.7H393.7V798H285.5v.7Z" class="g3_64" />
<path fill-rule="evenodd" d="M393.7,798.7h.7V798h-.7v.7Z" class="g3_64" />
<path fill-rule="evenodd" d="M394.4,798.7H846.2V798H394.4v.7Z" class="g3_64" />
<path fill-rule="evenodd" d="M88,833.2H284.8v-.8H88v.8Z" class="g3_64" />
<path fill-rule="evenodd" d="M284.8,833.2h.7v-.8h-.7v.8Z" class="g3_64" />
<path fill-rule="evenodd" d="M285.5,833.2H393.7v-.8H285.5v.8Z" class="g3_64" />
<path fill-rule="evenodd" d="M393.7,833.2h.7v-.8h-.7v.8Z" class="g3_64" />
<path fill-rule="evenodd" d="M394.4,833.2H846.2v-.8H394.4v.8Z" class="g3_64" />
<path fill-rule="evenodd" d="M88,888.4H284.8v-.8H88v.8Z" class="g3_64" />
<path fill-rule="evenodd" d="M284.8,888.4h.7v-.8h-.7v.8Z" class="g3_64" />
<path fill-rule="evenodd" d="M285.5,888.4H393.7v-.8H285.5v.8Z" class="g3_64" />
<path fill-rule="evenodd" d="M393.7,888.4h.7v-.8h-.7v.8Z" class="g3_64" />
<path fill-rule="evenodd" d="M394.4,888.4H846.2v-.8H394.4v.8Z" class="g3_64" />
<path fill-rule="evenodd" d="M88,923H284.8v-.7H88v.7Z" class="g3_64" />
<path fill-rule="evenodd" d="M284.8,923h.7v-.7h-.7v.7Z" class="g3_64" />
<path fill-rule="evenodd" d="M285.5,923H393.7v-.7H285.5v.7Z" class="g3_64" />
<path fill-rule="evenodd" d="M393.7,923h.7v-.7h-.7v.7Z" class="g3_64" />
<path fill-rule="evenodd" d="M394.4,923H846.2v-.7H394.4v.7Z" class="g3_64" />
<path fill-rule="evenodd" d="M88,957.5H284.8v-.8H88v.8Z" class="g3_64" />
<path fill-rule="evenodd" d="M284.8,957.5h.7v-.8h-.7v.8Z" class="g3_64" />
<path fill-rule="evenodd" d="M285.5,957.5H393.7v-.8H285.5v.8Z" class="g3_64" />
<path fill-rule="evenodd" d="M393.7,957.5h.7v-.8h-.7v.8Z" class="g3_64" />
<path fill-rule="evenodd" d="M394.4,957.5H846.2v-.8H394.4v.8Z" class="g3_64" />
<path fill-rule="evenodd" d="M86.9,1025.7H284.8v-.7H86.9v.7Z" class="g3_64" />
<path fill-rule="evenodd" d="M283.6,1025.7h.8v-.7h-.8v.7Z" class="g3_64" />
<path fill-rule="evenodd" d="M284.4,1025.7H393.7v-.7H284.4v.7Z" class="g3_64" />
<path fill-rule="evenodd" d="M392.6,1025.7h.7v-.7h-.7v.7Z" class="g3_64" />
<path fill-rule="evenodd" d="M393.3,1025.7H846.2v-.7H393.3v.7Z" class="g3_64" />
</svg>