<?xml version="1.0" encoding="UTF-8" standalone="no"?>
<!DOCTYPE svg PUBLIC "-//W3C//DTD SVG 1.1//EN"
"http://www.w3.org/Graphics/SVG/1.1/DTD/svg11.dtd">
<svg viewBox="0 0 909 1286" version="1.1" xmlns="http://www.w3.org/2000/svg" xmlns:xlink="http://www.w3.org/1999/xlink">
<defs>
<clipPath id="c0_1"><path d="M86.7,241.4V170.1H357.2v71.3Z" /></clipPath>
<clipPath id="c1_1"><path d="M110.1,1033.5V985H210.2v48.5Z" /></clipPath>
<style type="text/css"><![CDATA[
.g0_1{
fill: #5EB28E;
fill-opacity: 0.30196;
}
.g1_1{
fill: #467BAB;
}
.g2_1{
fill: #636466;
}
.g3_1{
fill: #5EB28E;
}
.g4_1{
fill: none;
stroke: #000000;
stroke-width: 10.694445;
stroke-linecap: butt;
stroke-linejoin: round;
}
.g5_1{
fill: #FFFFFF;
}
]]></style>
</defs>
<image preserveAspectRatio="none" x="285" y="803" width="758" height="694" xlink:href="img/1.png" />
<image preserveAspectRatio="none" x="-77" y="-114" width="1187" height="578" xlink:href="img/2.png" />
<path fill-rule="evenodd" d="M279.9,289.7L-307.8,632.8L279.9,976L867.7,632.8Z" class="g0_1" />
<g clip-path="url(#c0_1)">
<path fill-rule="evenodd" d="M214.4,196.3c0,7.8,-6.4,14.2,-14.4,14.2c-7.7,0,-14.1,-6.4,-14.1,-14.2c0,-7.7,6.4,-14.1,14.1,-14.1c8,0,14.4,6.4,14.4,14.1ZM131.6,194q0,25.1,0,25.1c0,.9,-.9,1.5,-1.7,1.5q-9.1,0,-9.1,0c-.8,0,-1.5,-.6,-1.5,-1.5q0,-24.2,0,-24.2c0,-16.2,-20.6,-16.4,-20.3,0q0,5.8,0,5.8q15.8,0,15.8,0c2.2,0,1.5,1.4,.9,2.5c-1.1,2,-2.4,3,-3.2,4.9c-1.5,2.2,-1.3,2.8,-4.1,2.8q-9.4,0,-9.4,0q0,8,0,8c0,.6,-.9,1.7,-1.8,1.7q-9,0,-9,0c-.8,0,-1.5,-1.1,-1.5,-1.7q0,-24.7,0,-24.7c.2,-30.7,44.7,-31.6,44.9,-.2Zm24.7,6.7q-11,0,-11,0q0,-4.4,0,-4.4c0,-3.8,-.4,-7.5,1.7,-10.7c1.8,-2.8,5,-4.3,8,-4.3c1.5,0,3,.5,4.5,1.1c2.3,1.3,4.1,3.6,4.7,6.2c1.5,5.4,-.9,12.1,-7.9,12.1Zm19.3,-11.9c-1.5,-9.8,-9,-16.9,-18.9,-17.8c-.7,0,-1.1,0,-1.7,0c-6,-.2,-12.7,2.2,-16.8,7.1c-2.5,3.4,-4.5,8.2,-4.5,15.2q0,.3,0,.3q0,16.3,0,16.3q0,6,0,6c0,1.1,0,2.1,0,3c0,.8,.7,1.7,1.7,1.7q8.2,0,8.2,0c.9,0,1.9,-.9,1.9,-1.7c0,-3,0,-5.2,0,-8q11.8,0,11.8,0c1.7,3,3.2,5.4,5,8.4c.6,1.1,1.3,1.3,1.9,1.1c3.4,0,6,.2,8.4,0c1.9,0,2.8,-1.1,1.9,-2.8c-1.7,-3.7,-3.4,-7.5,-5.2,-11.2c2.4,-1.9,4.1,-4.5,5.2,-7.3c1.5,12.9,12.2,23,25.5,23c1.1,0,3.9,0,4.8,-.2q10.2,7.3,10.2,7.3c1.1,.6,2,.4,2,-.9q0,-12.4,0,-12.4c4.1,-3.4,6.9,-8.2,8.1,-13.5q0,16.5,0,16.5c0,.6,.7,1.7,1.8,1.7q8.8,0,8.8,0c.8,0,1.7,-1.1,1.7,-1.7q0,-8,0,-8q9.6,0,9.6,0c2.6,0,2.6,-.6,3.9,-2.8c1.1,-1.9,2.1,-2.9,3.2,-4.9c.7,-1.1,1.3,-2.5,-.8,-2.5q-15.9,0,-15.9,0q0,-5.8,0,-5.8c0,-16.4,20.4,-16.2,20.4,0q0,24.2,0,24.2c0,.9,.6,1.5,1.5,1.5q9,0,9,0c1.1,0,1.7,-.6,1.7,-1.5Q270,194,270,194c-.2,-30.3,-41.9,-30.5,-44.6,-2.6C223,179.6,212.5,170.6,200,170.6c-11.5,0,-21.2,7.7,-24.4,18.2Z" class="g1_1" />
</g>
<path fill-rule="evenodd" d="M226.7,230.3q0,10.3,0,10.3c.4,.4,1.4,.4,1.7,0q0,-10.3,0,-10.3q4,0,4,0c.3,-.2,.3,-1.1,0,-1.3q-9.6,0,-9.6,0c-.2,.2,-.2,1.1,0,1.3q3.9,0,3.9,0Zm123.8,1.5c0,-.9,.6,-1.5,2.3,-1.5c2,0,3.5,1.3,3.5,1.3c.4,-.3,.8,-.7,.8,-1.1c0,0,-1.5,-1.7,-4.3,-1.7c-3,0,-4.3,1.3,-4.3,3.2c0,3.4,6.7,3.4,6.7,6c0,.8,-.9,1.5,-2.6,1.5c-2.1,0,-3.4,-1.1,-3.4,-1.1c-.4,0,-.9,.4,-.9,1.1c0,0,1.5,1.7,4.3,1.7c3,0,4.5,-1.5,4.5,-3.4c0,-3.7,-6.6,-3.7,-6.6,-6Zm-11.6,9q7.1,0,7.1,0c.2,-.2,.2,-1.1,0,-1.3q-5.6,0,-5.6,0q0,-4.1,0,-4.1q5.1,0,5.1,0c.3,-.2,.3,-1.1,0,-1.3q-5.1,0,-5.1,0q0,-3.6,0,-3.6q5.6,0,5.6,0c.2,-.4,.2,-1.3,0,-1.5q-7.1,0,-7.1,0q0,11.8,0,11.8Zm-5.2,0c.5,.4,1.5,.4,1.7,0q0,-11.6,0,-11.6c-.2,-.4,-1.2,-.4,-1.7,0q0,11.6,0,11.6ZM319.1,235c0,3.4,2.2,6.2,6.3,6.2c3,0,4.7,-1.3,4.7,-1.3q.2,0,.2,0q0,-5.6,0,-5.6q-6,0,-6,0c-.2,.3,-.2,1.3,0,1.5q4.3,0,4.3,0q0,3.3,0,3.3c-.9,.2,-1.7,.4,-3.2,.4c-2.8,0,-4.3,-1.9,-4.3,-4.5c0,-2.8,1.7,-4.7,4.3,-4.7c2.3,0,3.6,1.3,3.6,1.3c.7,0,1.1,-.7,1.1,-1.1c0,0,-1.5,-1.7,-4.7,-1.7c-3.7,0,-6.3,2.5,-6.3,6.2Zm-7.7,6.2c4.1,0,6,-2.8,6,-6.2c0,-3.7,-1.9,-6.2,-6,-6.2q0,1.5,0,1.5c2.8,0,4.3,1.9,4.3,4.7c0,2.6,-1.5,4.5,-4.3,4.5q0,1.7,0,1.7Zm-6,-6.2c0,-3.7,2.2,-6.2,6,-6.2q0,1.5,0,1.5c-2.6,0,-4.3,1.9,-4.3,4.7c0,2.6,1.7,4.5,4.3,4.5q0,1.7,0,1.7c-3.8,0,-6,-2.8,-6,-6.2Zm-8.6,5.8q7.7,0,7.7,0c.5,-.2,.5,-1.1,0,-1.3q-6,0,-6,0q0,-10.3,0,-10.3c-.2,-.4,-1.5,-.4,-1.7,0q0,11.6,0,11.6Zm-8.4,.4c3.9,0,6.1,-2.8,6.1,-6.2c0,-3.7,-2.2,-6.2,-6.1,-6.2q0,1.5,0,1.5c2.6,0,4.1,1.9,4.1,4.7c0,2.6,-1.5,4.5,-4.1,4.5q0,1.7,0,1.7ZM282.2,235c0,-3.7,2.4,-6.2,6.2,-6.2q0,1.5,0,1.5c-2.7,0,-4.2,1.9,-4.2,4.7c0,2.6,1.5,4.5,4.2,4.5q0,1.7,0,1.7c-4,0,-6.2,-2.8,-6.2,-6.2Zm-2.1,-5.8c-.4,-.4,-1.5,-.4,-1.7,0q0,8.4,0,8.4q-7.1,-8.4,-7.1,-8.4c-.2,-.4,-.9,-.4,-1.1,0q0,11.6,0,11.6c.4,.4,1.5,.4,1.7,0q0,-8.2,0,-8.2q6.9,8.2,6.9,8.2c.2,.4,.9,.4,1.3,0q0,-11.6,0,-11.6Zm-15.3,4.9q-6,0,-6,0q0,-4.9,0,-4.9c-.4,-.4,-1.5,-.4,-1.7,0q0,11.6,0,11.6c.2,.4,1.3,.4,1.7,0q0,-5.4,0,-5.4q6,0,6,0q0,5.4,0,5.4c.3,.4,1.5,.4,1.8,0q0,-11.6,0,-11.6c-.3,-.4,-1.5,-.4,-1.8,0q0,4.9,0,4.9Zm-20.8,.7c0,3.6,2.2,6.2,6,6.2c3.3,0,4.6,-1.5,4.6,-1.5c0,-.7,-.5,-1.3,-.9,-1.3c0,0,-1.1,1.3,-3.4,1.3c-3,0,-4.3,-1.9,-4.3,-4.7c0,-2.6,1.3,-4.5,4.3,-4.5c1.9,0,3.4,1.3,3.4,1.3c.4,0,.9,-.7,.9,-1.3c0,0,-1.3,-1.8,-4.6,-1.8c-3.8,0,-6,2.8,-6,6.3Zm-9.2,6q7.3,0,7.3,0c.2,-.2,.2,-1.1,0,-1.3q-5.6,0,-5.6,0q0,-4.1,0,-4.1q5,0,5,0c.4,-.2,.4,-1.1,0,-1.5q-5,0,-5,0q0,-3.6,0,-3.6q5.6,0,5.6,0c.2,-.2,.2,-1.1,0,-1.3q-7.3,0,-7.3,0v11.8Z" class="g2_1" />
<path fill-rule="evenodd" d="M160.7,942.6c-39.8,0,-72.2,32.4,-72.2,72.2c0,39.9,32.4,72.2,72.2,72.2c39.9,0,72.2,-32.3,72.2,-72.2c0,-39.8,-32.3,-72.2,-72.2,-72.2Z" class="g3_1" />
<path d="M88.5,542.7H316.6" class="g4_1" />
<path d="M172.3,1026.8c0,.5,.4,1,1,1q5.8,0,5.8,0c.5,0,.9,-.5,.9,-1q0,-2.1,0,-2.1q0,-.2,0,-.2q0,-.2,0,-.2q0,-22.2,0,-22.2q0,-.2,0,-.2q0,-.2,0,-.2q0,-2.1,0,-2.1c0,-.5,-.4,-1,-.9,-1q-5.8,0,-5.8,0c-.6,0,-1,.5,-1,1q0,1.8,0,1.8q0,23.6,0,23.6v1.8Z" class="g5_1" />
<g clip-path="url(#c1_1)">
<path d="M168.5,1014.9q.2,-15.3,.2,-15.3c0,-.5,-.5,-1,-1.2,-1q-5.8,0,-5.8,0c-.5,0,-.8,.5,-.8,1q0,13.8,0,13.8c.1,5.3,-2.8,7.8,-5.8,7.6q-.2,0,-.2,0c-3,.2,-6,-2.3,-5.8,-7.6q0,-13.8,0,-13.8c0,-.5,-.3,-1,-.8,-1q-5.8,0,-5.8,0c-.7,0,-1,.5,-1,1q0,11.4,0,11.4c-1.2,-7.4,-7.8,-13.3,-15.6,-13.3c-8.8,0,-15.8,7,-15.8,15.7c0,8.6,7,15.6,15.8,15.6c.6,0,2.3,0,2.8,0q6.3,4.3,6.3,4.3c.6,.3,1.1,.2,1.1,-.7q0,-7.4,0,-7.4c2.9,-2.4,4.9,-5.7,5.4,-9.8c.3,8.9,6.9,13.4,13.4,13.2q.2,0,.2,0c6.6,.2,13.4,-4.4,13.4,-13.7Zm-42.6,6.8c-4.7,0,-8.5,-3.7,-8.5,-8.3c0,-4.7,3.8,-8.3,8.5,-8.3c4.6,0,8.4,3.6,8.4,8.3c0,4.6,-3.8,8.3,-8.4,8.3Z" class="g5_1" />
</g>
<path d="M176.1,987.5c-2.4,0,-4.3,1.8,-4.3,4.3c0,2.3,1.9,4.1,4.3,4.1c2.4,0,4.4,-1.8,4.4,-4.1c0,-2.5,-2,-4.3,-4.4,-4.3Z" class="g5_1" />
<path d="M209.7,1026.2q-10.3,-13.8,-10.3,-13.8q9.1,-12,9.1,-12c.5,-.5,.3,-1.7,-.3,-1.8c-1.5,0,-4,0,-6.5,0c-.5,0,-.8,.1,-1.2,.7q-8.9,11.7,-8.9,11.7c0,-8.4,0,-17.1,0,-25c0,-.7,-.5,-.7,-1,-.5c-2,1.3,-3.8,2.8,-5.8,4.1c-.7,.5,-.9,1,-.9,1.7q0,1.8,0,1.8q0,2.3,0,2.3q0,.2,0,.2q0,28.9,0,28.9q0,.2,0,.2q0,2.1,0,2.1c0,.5,.4,1,.9,1q5.8,0,5.8,0c.5,0,1,-.5,1,-1q0,-1.8,0,-1.8q0,-10.8,0,-10.8q9.8,13,9.8,13c.3,.6,.6,.6,1.1,.6c2.5,0,5.3,0,6.8,0c.7,-.2,.9,-1.3,.4,-1.6Z" class="g5_1" />
</svg>