<?xml version="1.0" encoding="UTF-8" standalone="no"?>
<!DOCTYPE svg PUBLIC "-//W3C//DTD SVG 1.1//EN"
"http://www.w3.org/Graphics/SVG/1.1/DTD/svg11.dtd">
<svg viewBox="0 0 909 1286" version="1.1" xmlns="http://www.w3.org/2000/svg" xmlns:xlink="http://www.w3.org/1999/xlink">
<defs>
<clipPath id="c0_68"><path d="M96.4,1201.4v-15.5h33v15.5Z" /></clipPath>
<style type="text/css"><![CDATA[
.g0_68{
fill: none;
stroke: #000000;
stroke-width: 4.201389;
stroke-linecap: butt;
stroke-linejoin: round;
}
.g1_68{
fill: #5EB28E;
fill-opacity: 0.6;
}
.g2_68{
fill: #FFFFFF;
}
.g3_68{
}
]]></style>
</defs>
<path d="M841.2,1171.7H796.5" class="g0_68" />
<path fill-rule="evenodd" d="M111.9,1174c-11.5,0,-20.8,9.3,-20.8,20.8c0,11.5,9.3,20.8,20.8,20.8c11.5,0,20.8,-9.3,20.8,-20.8c0,-11.5,-9.3,-20.8,-20.8,-20.8Z" class="g1_68" />
<path d="M116.9,1199.3c0,.1,.2,.3,.4,.3q1.9,0,1.9,0c.1,0,.3,-.2,.3,-.3q0,-.7,0,-.7q0,-.1,0,-.1q0,-7.1,0,-7.1q0,-.1,0,-.1q0,-.7,0,-.7c0,-.2,-.2,-.4,-.3,-.4q-1.9,0,-1.9,0c-.2,0,-.4,.2,-.4,.4q0,.5,0,.5q0,7.6,0,7.6v.6Z" class="g2_68" />
<g clip-path="url(#c0_68)">
<path d="M115.7,1195.4q0,-4.8,0,-4.8c0,-.2,-.1,-.4,-.3,-.4q-2,0,-2,0c-.1,0,-.2,.2,-.2,.4q0,4.4,0,4.4c0,1.7,-1,2.5,-2,2.4c-1,.1,-2,-.7,-1.9,-2.4q0,-4.4,0,-4.4c0,-.2,-.1,-.4,-.3,-.4q-1.9,0,-1.9,0c-.2,0,-.3,.2,-.3,.4q0,3.6,0,3.6c-.4,-2.4,-2.6,-4.2,-5.2,-4.2c-2.9,0,-5.2,2.2,-5.2,5c0,2.7,2.3,4.9,5.2,4.9c.2,0,.8,0,.9,0q2.1,1.4,2.1,1.4c.2,.1,.4,.1,.4,-.2q0,-2.4,0,-2.4c.9,-.7,1.6,-1.8,1.8,-3.1c.1,2.9,2.3,4.3,4.4,4.2c2.2,.1,4.5,-1.4,4.5,-4.4Zm-14.1,2.2c-1.5,0,-2.8,-1.2,-2.8,-2.6c0,-1.5,1.3,-2.7,2.8,-2.7c1.5,0,2.8,1.2,2.8,2.7c0,1.4,-1.3,2.6,-2.8,2.6Z" class="g2_68" />
</g>
<path d="M118.2,1186.7c-.8,0,-1.4,.6,-1.4,1.4c0,.7,.6,1.3,1.4,1.3c.8,0,1.4,-.6,1.4,-1.3c0,-.8,-.6,-1.4,-1.4,-1.4Z" class="g2_68" />
<path d="M129.3,1199q-3.4,-4.4,-3.4,-4.4q3,-3.8,3,-3.8c.1,-.1,.1,-.5,-.1,-.6c-.5,0,-1.3,0,-2.2,0c-.1,0,-.2,.1,-.4,.3q-2.9,3.7,-2.9,3.7c0,-2.7,0,-5.4,0,-8c0,-.2,-.2,-.2,-.3,-.1c-.7,.4,-1.3,.9,-2,1.3c-.2,.1,-.2,.3,-.2,.5q0,.6,0,.6q0,.7,0,.7q0,.1,0,.1q0,9.2,0,9.2q0,.1,0,.1q0,.7,0,.7c0,.1,.1,.3,.2,.3q2,0,2,0c.1,0,.3,-.2,.3,-.3q0,-.6,0,-.6q0,-3.5,0,-3.5q3.2,4.2,3.2,4.2c.1,.2,.2,.2,.4,.2c.8,0,1.8,0,2.2,0c.3,-.1,.3,-.5,.2,-.6Z" class="g2_68" />
<path fill-rule="evenodd" d="M88,107.6H284.6V103H88v4.6Z" class="g3_68" />
<path fill-rule="evenodd" d="M284.6,107.6h4.6V103h-4.6v4.6Z" class="g3_68" />
<path fill-rule="evenodd" d="M289.2,107.6H393.3V103H289.2v4.6Z" class="g3_68" />
<path fill-rule="evenodd" d="M393.3,107.6h4.6V103h-4.6v4.6Z" class="g3_68" />
<path fill-rule="evenodd" d="M397.9,107.6H846.2V103H397.9v4.6Z" class="g3_68" />
<path fill-rule="evenodd" d="M88,138.4H284.6v-.7H88v.7Z" class="g3_68" />
<path fill-rule="evenodd" d="M284.6,138.4h.7v-.7h-.7v.7Z" class="g3_68" />
<path fill-rule="evenodd" d="M285.3,138.4h108v-.7h-108v.7Z" class="g3_68" />
<path fill-rule="evenodd" d="M393.3,138.4h.8v-.7h-.8v.7Z" class="g3_68" />
<path fill-rule="evenodd" d="M394.1,138.4H846.2v-.7H394.1v.7Z" class="g3_68" />
<path fill-rule="evenodd" d="M88,240.4H284.6v-.8H88v.8Z" class="g3_68" />
<path fill-rule="evenodd" d="M284.6,240.4h.7v-.8h-.7v.8Z" class="g3_68" />
<path fill-rule="evenodd" d="M285.3,240.4h108v-.8h-108v.8Z" class="g3_68" />
<path fill-rule="evenodd" d="M393.3,240.4h.8v-.8h-.8v.8Z" class="g3_68" />
<path fill-rule="evenodd" d="M394.1,240.4H846.2v-.8H394.1v.8Z" class="g3_68" />
<path fill-rule="evenodd" d="M88,274.8H284.6v-.7H88v.7Z" class="g3_68" />
<path fill-rule="evenodd" d="M284.6,274.8h.7v-.7h-.7v.7Z" class="g3_68" />
<path fill-rule="evenodd" d="M285.3,274.8h108v-.7h-108v.7Z" class="g3_68" />
<path fill-rule="evenodd" d="M393.3,274.8h.8v-.7h-.8v.7Z" class="g3_68" />
<path fill-rule="evenodd" d="M394.1,274.8H846.2v-.7H394.1v.7Z" class="g3_68" />
<path fill-rule="evenodd" d="M88,309.5H284.6v-.7H88v.7Z" class="g3_68" />
<path fill-rule="evenodd" d="M284.6,309.5h.7v-.7h-.7v.7Z" class="g3_68" />
<path fill-rule="evenodd" d="M285.3,309.5h108v-.7h-108v.7Z" class="g3_68" />
<path fill-rule="evenodd" d="M393.3,309.5h.8v-.7h-.8v.7Z" class="g3_68" />
<path fill-rule="evenodd" d="M394.1,309.5H846.2v-.7H394.1v.7Z" class="g3_68" />
<path fill-rule="evenodd" d="M88,344H284.6v-.8H88v.8Z" class="g3_68" />
<path fill-rule="evenodd" d="M284.6,344h.7v-.8h-.7v.8Z" class="g3_68" />
<path fill-rule="evenodd" d="M285.3,344h108v-.8h-108v.8Z" class="g3_68" />
<path fill-rule="evenodd" d="M393.3,344h.8v-.8h-.8v.8Z" class="g3_68" />
<path fill-rule="evenodd" d="M394.1,344H846.2v-.8H394.1v.8Z" class="g3_68" />
<path fill-rule="evenodd" d="M88,378.4H284.6v-.7H88v.7Z" class="g3_68" />
<path fill-rule="evenodd" d="M284.6,378.4h.7v-.7h-.7v.7Z" class="g3_68" />
<path fill-rule="evenodd" d="M285.3,378.4h108v-.7h-108v.7Z" class="g3_68" />
<path fill-rule="evenodd" d="M393.3,378.4h.8v-.7h-.8v.7Z" class="g3_68" />
<path fill-rule="evenodd" d="M394.1,378.4H846.2v-.7H394.1v.7Z" class="g3_68" />
<path fill-rule="evenodd" d="M88,412.9H284.6v-.7H88v.7Z" class="g3_68" />
<path fill-rule="evenodd" d="M284.6,412.9h.7v-.7h-.7v.7Z" class="g3_68" />
<path fill-rule="evenodd" d="M285.3,412.9h108v-.7h-108v.7Z" class="g3_68" />
<path fill-rule="evenodd" d="M393.3,412.9h.8v-.7h-.8v.7Z" class="g3_68" />
<path fill-rule="evenodd" d="M394.1,412.9H846.2v-.7H394.1v.7Z" class="g3_68" />
<path fill-rule="evenodd" d="M88,447.4H284.6v-.7H88v.7Z" class="g3_68" />
<path fill-rule="evenodd" d="M284.6,447.4h.7v-.7h-.7v.7Z" class="g3_68" />
<path fill-rule="evenodd" d="M285.3,447.4h108v-.7h-108v.7Z" class="g3_68" />
<path fill-rule="evenodd" d="M393.3,447.4h.8v-.7h-.8v.7Z" class="g3_68" />
<path fill-rule="evenodd" d="M394.1,447.4H846.2v-.7H394.1v.7Z" class="g3_68" />
<path fill-rule="evenodd" d="M88,482.1H284.6v-.8H88v.8Z" class="g3_68" />
<path fill-rule="evenodd" d="M284.6,482.1h.7v-.8h-.7v.8Z" class="g3_68" />
<path fill-rule="evenodd" d="M285.3,482.1h108v-.8h-108v.8Z" class="g3_68" />
<path fill-rule="evenodd" d="M393.3,482.1h.8v-.8h-.8v.8Z" class="g3_68" />
<path fill-rule="evenodd" d="M394.1,482.1H846.2v-.8H394.1v.8Z" class="g3_68" />
<path fill-rule="evenodd" d="M88,516.5H284.6v-.7H88v.7Z" class="g3_68" />
<path fill-rule="evenodd" d="M284.6,516.5h.7v-.7h-.7v.7Z" class="g3_68" />
<path fill-rule="evenodd" d="M285.3,516.5h108v-.7h-108v.7Z" class="g3_68" />
<path fill-rule="evenodd" d="M393.3,516.5h.8v-.7h-.8v.7Z" class="g3_68" />
<path fill-rule="evenodd" d="M394.1,516.5H846.2v-.7H394.1v.7Z" class="g3_68" />
<path fill-rule="evenodd" d="M88,551H284.6v-.7H88v.7Z" class="g3_68" />
<path fill-rule="evenodd" d="M284.6,551h.7v-.7h-.7v.7Z" class="g3_68" />
<path fill-rule="evenodd" d="M285.3,551h108v-.7h-108v.7Z" class="g3_68" />
<path fill-rule="evenodd" d="M393.3,551h.8v-.7h-.8v.7Z" class="g3_68" />
<path fill-rule="evenodd" d="M394.1,551H846.2v-.7H394.1v.7Z" class="g3_68" />
<path fill-rule="evenodd" d="M88,585.5H284.6v-.8H88v.8Z" class="g3_68" />
<path fill-rule="evenodd" d="M284.6,585.5h.7v-.8h-.7v.8Z" class="g3_68" />
<path fill-rule="evenodd" d="M285.3,585.5h108v-.8h-108v.8Z" class="g3_68" />
<path fill-rule="evenodd" d="M393.3,585.5h.8v-.8h-.8v.8Z" class="g3_68" />
<path fill-rule="evenodd" d="M394.1,585.5H846.2v-.8H394.1v.8Z" class="g3_68" />
<path fill-rule="evenodd" d="M88,619.9H284.6v-.7H88v.7Z" class="g3_68" />
<path fill-rule="evenodd" d="M284.6,619.9h.7v-.7h-.7v.7Z" class="g3_68" />
<path fill-rule="evenodd" d="M285.3,619.9h108v-.7h-108v.7Z" class="g3_68" />
<path fill-rule="evenodd" d="M393.3,619.9h.8v-.7h-.8v.7Z" class="g3_68" />
<path fill-rule="evenodd" d="M394.1,619.9H846.2v-.7H394.1v.7Z" class="g3_68" />
<path fill-rule="evenodd" d="M88,654.6H284.6v-.8H88v.8Z" class="g3_68" />
<path fill-rule="evenodd" d="M284.6,654.6h.7v-.8h-.7v.8Z" class="g3_68" />
<path fill-rule="evenodd" d="M285.3,654.6h108v-.8h-108v.8Z" class="g3_68" />
<path fill-rule="evenodd" d="M393.3,654.6h.8v-.8h-.8v.8Z" class="g3_68" />
<path fill-rule="evenodd" d="M394.1,654.6H846.2v-.8H394.1v.8Z" class="g3_68" />
<path fill-rule="evenodd" d="M88,689H284.6v-.7H88v.7Z" class="g3_68" />
<path fill-rule="evenodd" d="M284.6,689h.7v-.7h-.7v.7Z" class="g3_68" />
<path fill-rule="evenodd" d="M285.3,689h108v-.7h-108v.7Z" class="g3_68" />
<path fill-rule="evenodd" d="M393.3,689h.8v-.7h-.8v.7Z" class="g3_68" />
<path fill-rule="evenodd" d="M394.1,689H846.2v-.7H394.1v.7Z" class="g3_68" />
<path fill-rule="evenodd" d="M88,785.9H284.6v-.8H88v.8Z" class="g3_68" />
<path fill-rule="evenodd" d="M284.6,785.9h.7v-.8h-.7v.8Z" class="g3_68" />
<path fill-rule="evenodd" d="M285.3,785.9h108v-.8h-108v.8Z" class="g3_68" />
<path fill-rule="evenodd" d="M393.3,785.9h.8v-.8h-.8v.8Z" class="g3_68" />
<path fill-rule="evenodd" d="M394.1,785.9H846.2v-.8H394.1v.8Z" class="g3_68" />
<path fill-rule="evenodd" d="M88,861.8H284.6V861H88v.8Z" class="g3_68" />
<path fill-rule="evenodd" d="M284.6,861.8h.7V861h-.7v.8Z" class="g3_68" />
<path fill-rule="evenodd" d="M285.3,861.8h108V861h-108v.8Z" class="g3_68" />
<path fill-rule="evenodd" d="M393.3,861.8h.8V861h-.8v.8Z" class="g3_68" />
<path fill-rule="evenodd" d="M394.1,861.8H846.2V861H394.1v.8Z" class="g3_68" />
<path fill-rule="evenodd" d="M86.9,1062.4H284.6v-.7H86.9v.7Z" class="g3_68" />
<path fill-rule="evenodd" d="M283.5,1062.4h.7v-.7h-.7v.7Z" class="g3_68" />
<path fill-rule="evenodd" d="M284.2,1062.4H393.3v-.7H284.2v.7Z" class="g3_68" />
<path fill-rule="evenodd" d="M392.2,1062.4h.8v-.7h-.8v.7Z" class="g3_68" />
<path fill-rule="evenodd" d="M393,1062.4H846.2v-.7H393v.7Z" class="g3_68" />
</svg>