<?xml version="1.0" encoding="UTF-8" standalone="no"?>
<!DOCTYPE svg PUBLIC "-//W3C//DTD SVG 1.1//EN"
"http://www.w3.org/Graphics/SVG/1.1/DTD/svg11.dtd">
<svg viewBox="0 0 909 1286" version="1.1" xmlns="http://www.w3.org/2000/svg" xmlns:xlink="http://www.w3.org/1999/xlink">
<defs>
<clipPath id="c0_8"><path d="M96.4,1201.4v-15.5h33v15.5Z" /></clipPath>
<style type="text/css"><![CDATA[
.g0_8{
fill: none;
stroke: #000000;
stroke-width: 4.201389;
stroke-linecap: butt;
stroke-linejoin: round;
}
.g1_8{
fill: #5EB28E;
fill-opacity: 0.6;
}
.g2_8{
fill: #FFFFFF;
}
.g3_8{
}
.g4_8{
fill: #F1F1F1;
}
]]></style>
</defs>
<path d="M841.2,1171.7H796.5" class="g0_8" />
<path fill-rule="evenodd" d="M111.9,1174c-11.5,0,-20.8,9.3,-20.8,20.8c0,11.5,9.3,20.8,20.8,20.8c11.5,0,20.8,-9.3,20.8,-20.8c0,-11.5,-9.3,-20.8,-20.8,-20.8Z" class="g1_8" />
<path d="M116.9,1199.3c0,.1,.2,.3,.4,.3q1.9,0,1.9,0c.1,0,.3,-.2,.3,-.3q0,-.7,0,-.7q0,-.1,0,-.1q0,-7.1,0,-7.1q0,-.1,0,-.1q0,-.7,0,-.7c0,-.2,-.2,-.4,-.3,-.4q-1.9,0,-1.9,0c-.2,0,-.4,.2,-.4,.4q0,.5,0,.5q0,7.6,0,7.6v.6Z" class="g2_8" />
<g clip-path="url(#c0_8)">
<path d="M115.7,1195.4q0,-4.8,0,-4.8c0,-.2,-.1,-.4,-.3,-.4q-2,0,-2,0c-.1,0,-.2,.2,-.2,.4q0,4.4,0,4.4c0,1.7,-1,2.5,-2,2.4c-1,.1,-2,-.7,-1.9,-2.4q0,-4.4,0,-4.4c0,-.2,-.1,-.4,-.3,-.4q-1.9,0,-1.9,0c-.2,0,-.3,.2,-.3,.4q0,3.6,0,3.6c-.4,-2.4,-2.6,-4.2,-5.2,-4.2c-2.9,0,-5.2,2.2,-5.2,5c0,2.7,2.3,4.9,5.2,4.9c.2,0,.8,0,.9,0q2.1,1.4,2.1,1.4c.2,.1,.4,.1,.4,-.2q0,-2.4,0,-2.4c.9,-.7,1.6,-1.8,1.8,-3.1c.1,2.9,2.3,4.3,4.4,4.2c2.2,.1,4.5,-1.4,4.5,-4.4Zm-14.1,2.2c-1.5,0,-2.8,-1.2,-2.8,-2.6c0,-1.5,1.3,-2.7,2.8,-2.7c1.5,0,2.8,1.2,2.8,2.7c0,1.4,-1.3,2.6,-2.8,2.6Z" class="g2_8" />
</g>
<path d="M118.2,1186.7c-.8,0,-1.4,.6,-1.4,1.4c0,.7,.6,1.3,1.4,1.3c.8,0,1.4,-.6,1.4,-1.3c0,-.8,-.6,-1.4,-1.4,-1.4Z" class="g2_8" />
<path d="M129.3,1199q-3.4,-4.4,-3.4,-4.4q3,-3.8,3,-3.8c.1,-.1,.1,-.5,-.1,-.6c-.5,0,-1.3,0,-2.2,0c-.1,0,-.2,.1,-.4,.3q-2.9,3.7,-2.9,3.7c0,-2.7,0,-5.4,0,-8c0,-.2,-.2,-.2,-.3,-.1c-.7,.4,-1.3,.9,-2,1.3c-.2,.1,-.2,.3,-.2,.5q0,.6,0,.6q0,.7,0,.7q0,.1,0,.1q0,9.2,0,9.2q0,.1,0,.1q0,.7,0,.7c0,.1,.1,.3,.2,.3q2,0,2,0c.1,0,.3,-.2,.3,-.3q0,-.6,0,-.6q0,-3.5,0,-3.5q3.2,4.2,3.2,4.2c.1,.2,.2,.2,.4,.2c.8,0,1.8,0,2.2,0c.3,-.1,.3,-.5,.2,-.6Z" class="g2_8" />
<path fill-rule="evenodd" d="M88,131.8H261.3v-4.6H88v4.6Z" class="g3_8" />
<path fill-rule="evenodd" d="M261.3,131.8h4.6v-4.6h-4.6v4.6Z" class="g3_8" />
<path fill-rule="evenodd" d="M265.9,131.8H434.6v-4.6H265.9v4.6Z" class="g3_8" />
<path fill-rule="evenodd" d="M88,162.5H261.3v-.8H88v.8Z" class="g3_8" />
<path fill-rule="evenodd" d="M261.3,162.5h.7v-.8h-.7v.8Z" class="g3_8" />
<path fill-rule="evenodd" d="M262,162.5H434.6v-.8H262v.8Z" class="g3_8" />
<path fill-rule="evenodd" d="M88,197.1H261.3v-.7H88v.7Z" class="g3_8" />
<path fill-rule="evenodd" d="M261.3,197.1h.7v-.7h-.7v.7Z" class="g3_8" />
<path fill-rule="evenodd" d="M262,197.1H434.6v-.7H262v.7Z" class="g3_8" />
<path fill-rule="evenodd" d="M88,231.6H261.3v-.8H88v.8Z" class="g3_8" />
<path fill-rule="evenodd" d="M261.3,231.6h.7v-.8h-.7v.8Z" class="g3_8" />
<path fill-rule="evenodd" d="M262,231.6H434.6v-.8H262v.8Z" class="g3_8" />
<path fill-rule="evenodd" d="M88,266H261.3v-.7H88v.7Z" class="g3_8" />
<path fill-rule="evenodd" d="M261.3,266h.7v-.7h-.7v.7Z" class="g3_8" />
<path fill-rule="evenodd" d="M262,266H434.6v-.7H262v.7Z" class="g3_8" />
<path fill-rule="evenodd" d="M88,300.5H261.3v-.7H88v.7Z" class="g3_8" />
<path fill-rule="evenodd" d="M261.3,300.5h.7v-.7h-.7v.7Z" class="g3_8" />
<path fill-rule="evenodd" d="M262,300.5H434.6v-.7H262v.7Z" class="g3_8" />
<path fill-rule="evenodd" d="M88,335H261.3v-.8H88v.8Z" class="g3_8" />
<path fill-rule="evenodd" d="M261.3,335h.7v-.8h-.7v.8Z" class="g3_8" />
<path fill-rule="evenodd" d="M262,335H434.6v-.8H262v.8Z" class="g3_8" />
<path fill-rule="evenodd" d="M88,369.6H261.3v-.7H88v.7Z" class="g3_8" />
<path fill-rule="evenodd" d="M261.3,369.6h.7v-.7h-.7v.7Z" class="g3_8" />
<path fill-rule="evenodd" d="M262,369.6H434.6v-.7H262v.7Z" class="g3_8" />
<path fill-rule="evenodd" d="M88,404.1H261.3v-.7H88v.7Z" class="g3_8" />
<path fill-rule="evenodd" d="M261.3,404.1h.7v-.7h-.7v.7Z" class="g3_8" />
<path fill-rule="evenodd" d="M262,404.1H434.6v-.7H262v.7Z" class="g3_8" />
<path fill-rule="evenodd" d="M88,438.6H261.3v-.7H88v.7Z" class="g3_8" />
<path fill-rule="evenodd" d="M261.3,438.6h.7v-.7h-.7v.7Z" class="g3_8" />
<path fill-rule="evenodd" d="M262,438.6H434.6v-.7H262v.7Z" class="g3_8" />
<path fill-rule="evenodd" d="M88,473.1H261.3v-.8H88v.8Z" class="g3_8" />
<path fill-rule="evenodd" d="M261.3,473.1h.7v-.8h-.7v.8Z" class="g3_8" />
<path fill-rule="evenodd" d="M262,473.1H434.6v-.8H262v.8Z" class="g3_8" />
<path fill-rule="evenodd" d="M88,507.5H261.3v-.7H88v.7Z" class="g3_8" />
<path fill-rule="evenodd" d="M261.3,507.5h.7v-.7h-.7v.7Z" class="g3_8" />
<path fill-rule="evenodd" d="M262,507.5H434.6v-.7H262v.7Z" class="g3_8" />
<path fill-rule="evenodd" d="M86.9,542.2H261.3v-.7H86.9v.7Z" class="g3_8" />
<path fill-rule="evenodd" d="M260.2,542.2h.7v-.7h-.7v.7Z" class="g3_8" />
<path fill-rule="evenodd" d="M260.9,542.2H434.6v-.7H260.9v.7Z" class="g3_8" />
<path fill-rule="evenodd" d="M493.3,131.8H666.6v-4.6H493.3v4.6Z" class="g3_8" />
<path fill-rule="evenodd" d="M666.6,131.8h4.6v-4.6h-4.6v4.6Z" class="g3_8" />
<path fill-rule="evenodd" d="M671.2,131.8H839.8v-4.6H671.2v4.6Z" class="g3_8" />
<path fill-rule="evenodd" d="M493.3,183.4H666.6v-.8H493.3v.8Z" class="g3_8" />
<path fill-rule="evenodd" d="M666.6,183.4h.7v-.8h-.7v.8Z" class="g3_8" />
<path fill-rule="evenodd" d="M667.3,183.4H839.8v-.8H667.3v.8Z" class="g3_8" />
<path fill-rule="evenodd" d="M493.3,238.5H666.6v-.7H493.3v.7Z" class="g3_8" />
<path fill-rule="evenodd" d="M666.6,238.5h.7v-.7h-.7v.7Z" class="g3_8" />
<path fill-rule="evenodd" d="M667.3,238.5H839.8v-.7H667.3v.7Z" class="g3_8" />
<path fill-rule="evenodd" d="M493.3,293.7H666.6V293H493.3v.7Z" class="g3_8" />
<path fill-rule="evenodd" d="M666.6,293.7h.7V293h-.7v.7Z" class="g3_8" />
<path fill-rule="evenodd" d="M667.3,293.7H839.8V293H667.3v.7Z" class="g3_8" />
<path fill-rule="evenodd" d="M493.3,349.1H666.6v-.7H493.3v.7Z" class="g3_8" />
<path fill-rule="evenodd" d="M666.6,349.1h.7v-.7h-.7v.7Z" class="g3_8" />
<path fill-rule="evenodd" d="M667.3,349.1H839.8v-.7H667.3v.7Z" class="g3_8" />
<path fill-rule="evenodd" d="M493.3,404.3H666.6v-.8H493.3v.8Z" class="g3_8" />
<path fill-rule="evenodd" d="M666.6,404.3h.7v-.8h-.7v.8Z" class="g3_8" />
<path fill-rule="evenodd" d="M667.3,404.3H839.8v-.8H667.3v.8Z" class="g3_8" />
<path fill-rule="evenodd" d="M493.3,459.7H666.6V459H493.3v.7Z" class="g3_8" />
<path fill-rule="evenodd" d="M666.6,459.7h.7V459h-.7v.7Z" class="g3_8" />
<path fill-rule="evenodd" d="M667.3,459.7H839.8V459H667.3v.7Z" class="g3_8" />
<path fill-rule="evenodd" d="M492.2,514.9H666.6v-.8H492.2v.8Z" class="g3_8" />
<path fill-rule="evenodd" d="M665.5,514.9h.7v-.8h-.7v.8Z" class="g3_8" />
<path fill-rule="evenodd" d="M666.2,514.9H839.8v-.8H666.2v.8Z" class="g3_8" />
<path fill-rule="evenodd" d="M133.7,652.4H845.9V628H133.7v24.4Z" class="g4_8" />
<path fill-rule="evenodd" d="M124.5,628h9.2v-9.2h-9.2V628Z" class="g4_8" />
<path fill-rule="evenodd" d="M124.5,628h9.2v-9.2h-9.2V628Z" class="g4_8" />
<path fill-rule="evenodd" d="M133.7,628H845.9v-9.2H133.7V628Z" class="g4_8" />
<path fill-rule="evenodd" d="M124.5,652.4h9.2V628h-9.2v24.4Z" class="g4_8" />
<path fill-rule="evenodd" d="M133.7,675.3H845.9V652.4H133.7v22.9Z" class="g4_8" />
<path fill-rule="evenodd" d="M124.5,675.3h9.2V652.4h-9.2v22.9Z" class="g4_8" />
<path fill-rule="evenodd" d="M133.7,698.2H845.9V675.3H133.7v22.9Z" class="g4_8" />
<path fill-rule="evenodd" d="M124.5,698.2h9.2V675.3h-9.2v22.9Z" class="g4_8" />
<path fill-rule="evenodd" d="M133.7,721.2H845.9v-23H133.7v23Z" class="g4_8" />
<path fill-rule="evenodd" d="M124.5,721.2h9.2v-23h-9.2v23Z" class="g4_8" />
<path fill-rule="evenodd" d="M133.7,744.1H845.9V721.2H133.7v22.9Z" class="g4_8" />
<path fill-rule="evenodd" d="M124.5,744.1h9.2V721.2h-9.2v22.9Z" class="g4_8" />
<path fill-rule="evenodd" d="M133.7,767H845.9V744.1H133.7V767Z" class="g4_8" />
<path fill-rule="evenodd" d="M124.5,767h9.2V744.1h-9.2V767Z" class="g4_8" />
<path fill-rule="evenodd" d="M133.7,789.9H845.9V767H133.7v22.9Z" class="g4_8" />
<path fill-rule="evenodd" d="M124.5,789.9h9.2V767h-9.2v22.9Z" class="g4_8" />
<path fill-rule="evenodd" d="M133.7,812.8H845.9V789.9H133.7v22.9Z" class="g4_8" />
<path fill-rule="evenodd" d="M124.5,812.8h9.2V789.9h-9.2v22.9Z" class="g4_8" />
<path fill-rule="evenodd" d="M133.7,835.7H845.9V812.8H133.7v22.9Z" class="g4_8" />
<path fill-rule="evenodd" d="M124.5,835.7h9.2V812.8h-9.2v22.9Z" class="g4_8" />
<path fill-rule="evenodd" d="M133.7,858.7H845.9v-23H133.7v23Z" class="g4_8" />
<path fill-rule="evenodd" d="M124.5,858.7h9.2v-23h-9.2v23Z" class="g4_8" />
<path fill-rule="evenodd" d="M133.7,881.6H845.9V858.7H133.7v22.9Z" class="g4_8" />
<path fill-rule="evenodd" d="M124.5,881.6h9.2V858.7h-9.2v22.9Z" class="g4_8" />
<path fill-rule="evenodd" d="M133.7,904.5H845.9V881.6H133.7v22.9Z" class="g4_8" />
<path fill-rule="evenodd" d="M124.5,904.5h9.2V881.6h-9.2v22.9Z" class="g4_8" />
<path fill-rule="evenodd" d="M133.7,927.4H845.9V904.5H133.7v22.9Z" class="g4_8" />
<path fill-rule="evenodd" d="M124.5,927.4h9.2V904.5h-9.2v22.9Z" class="g4_8" />
<path fill-rule="evenodd" d="M133.7,950.3H845.9V927.4H133.7v22.9Z" class="g4_8" />
<path fill-rule="evenodd" d="M124.5,950.3h9.2V927.4h-9.2v22.9Z" class="g4_8" />
<path fill-rule="evenodd" d="M133.7,973.2H845.9V950.3H133.7v22.9Z" class="g4_8" />
<path fill-rule="evenodd" d="M124.5,973.2h9.2V950.3h-9.2v22.9Z" class="g4_8" />
<path fill-rule="evenodd" d="M133.7,997.9H845.9V973.2H133.7v24.7Z" class="g4_8" />
<path fill-rule="evenodd" d="M124.5,1007h9.2v-9.1h-9.2v9.1Z" class="g4_8" />
<path fill-rule="evenodd" d="M124.5,1007h9.2v-9.1h-9.2v9.1Z" class="g4_8" />
<path fill-rule="evenodd" d="M133.7,1007H845.9v-9.1H133.7v9.1Z" class="g4_8" />
<path fill-rule="evenodd" d="M124.5,997.9h9.2V973.2h-9.2v24.7Z" class="g4_8" />
</svg>