<?xml version="1.0" encoding="UTF-8" standalone="no"?>
<!DOCTYPE svg PUBLIC "-//W3C//DTD SVG 1.1//EN"
"http://www.w3.org/Graphics/SVG/1.1/DTD/svg11.dtd">
<svg viewBox="0 0 909 1286" version="1.1" xmlns="http://www.w3.org/2000/svg" xmlns:xlink="http://www.w3.org/1999/xlink">
<defs>
<clipPath id="c0_81"><path d="M96.4,1201.4v-15.5h33v15.5Z" /></clipPath>
<style type="text/css"><![CDATA[
.g0_81{
fill: none;
stroke: #000000;
stroke-width: 4.201389;
stroke-linecap: butt;
stroke-linejoin: round;
}
.g1_81{
fill: #5EB28E;
fill-opacity: 0.6;
}
.g2_81{
fill: #FFFFFF;
}
.g3_81{
}
.g4_81{
fill: #16AAD3;
}
]]></style>
</defs>
<path d="M841.2,1171.7H796.5" class="g0_81" />
<path fill-rule="evenodd" d="M111.9,1174c-11.5,0,-20.8,9.3,-20.8,20.8c0,11.5,9.3,20.8,20.8,20.8c11.5,0,20.8,-9.3,20.8,-20.8c0,-11.5,-9.3,-20.8,-20.8,-20.8Z" class="g1_81" />
<path d="M116.9,1199.3c0,.1,.2,.3,.4,.3q1.9,0,1.9,0c.1,0,.3,-.2,.3,-.3q0,-.7,0,-.7q0,-.1,0,-.1q0,-7.1,0,-7.1q0,-.1,0,-.1q0,-.7,0,-.7c0,-.2,-.2,-.4,-.3,-.4q-1.9,0,-1.9,0c-.2,0,-.4,.2,-.4,.4q0,.5,0,.5q0,7.6,0,7.6v.6Z" class="g2_81" />
<g clip-path="url(#c0_81)">
<path d="M115.7,1195.4q0,-4.8,0,-4.8c0,-.2,-.1,-.4,-.3,-.4q-2,0,-2,0c-.1,0,-.2,.2,-.2,.4q0,4.4,0,4.4c0,1.7,-1,2.5,-2,2.4c-1,.1,-2,-.7,-1.9,-2.4q0,-4.4,0,-4.4c0,-.2,-.1,-.4,-.3,-.4q-1.9,0,-1.9,0c-.2,0,-.3,.2,-.3,.4q0,3.6,0,3.6c-.4,-2.4,-2.6,-4.2,-5.2,-4.2c-2.9,0,-5.2,2.2,-5.2,5c0,2.7,2.3,4.9,5.2,4.9c.2,0,.8,0,.9,0q2.1,1.4,2.1,1.4c.2,.1,.4,.1,.4,-.2q0,-2.4,0,-2.4c.9,-.7,1.6,-1.8,1.8,-3.1c.1,2.9,2.3,4.3,4.4,4.2c2.2,.1,4.5,-1.4,4.5,-4.4Zm-14.1,2.2c-1.5,0,-2.8,-1.2,-2.8,-2.6c0,-1.5,1.3,-2.7,2.8,-2.7c1.5,0,2.8,1.2,2.8,2.7c0,1.4,-1.3,2.6,-2.8,2.6Z" class="g2_81" />
</g>
<path d="M118.2,1186.7c-.8,0,-1.4,.6,-1.4,1.4c0,.7,.6,1.3,1.4,1.3c.8,0,1.4,-.6,1.4,-1.3c0,-.8,-.6,-1.4,-1.4,-1.4Z" class="g2_81" />
<path d="M129.3,1199q-3.4,-4.4,-3.4,-4.4q3,-3.8,3,-3.8c.1,-.1,.1,-.5,-.1,-.6c-.5,0,-1.3,0,-2.2,0c-.1,0,-.2,.1,-.4,.3q-2.9,3.7,-2.9,3.7c0,-2.7,0,-5.4,0,-8c0,-.2,-.2,-.2,-.3,-.1c-.7,.4,-1.3,.9,-2,1.3c-.2,.1,-.2,.3,-.2,.5q0,.6,0,.6q0,.7,0,.7q0,.1,0,.1q0,9.2,0,9.2q0,.1,0,.1q0,.7,0,.7c0,.1,.1,.3,.2,.3q2,0,2,0c.1,0,.3,-.2,.3,-.3q0,-.6,0,-.6q0,-3.5,0,-3.5q3.2,4.2,3.2,4.2c.1,.2,.2,.2,.4,.2c.8,0,1.8,0,2.2,0c.3,-.1,.3,-.5,.2,-.6Z" class="g2_81" />
<path fill-rule="evenodd" d="M88,233.8H284.8v-4.6H88v4.6Z" class="g3_81" />
<path fill-rule="evenodd" d="M284.8,233.8h4.6v-4.6h-4.6v4.6Z" class="g3_81" />
<path fill-rule="evenodd" d="M289.4,233.8H393.7v-4.6H289.4v4.6Z" class="g3_81" />
<path fill-rule="evenodd" d="M393.7,233.8h4.6v-4.6h-4.6v4.6Z" class="g3_81" />
<path fill-rule="evenodd" d="M398.3,233.8H856.7v-4.6H398.3v4.6Z" class="g3_81" />
<path fill-rule="evenodd" d="M88,268.2H284.8v-.7H88v.7Z" class="g3_81" />
<path fill-rule="evenodd" d="M284.8,268.2h.7v-.7h-.7v.7Z" class="g3_81" />
<path fill-rule="evenodd" d="M285.5,268.2H393.7v-.7H285.5v.7Z" class="g3_81" />
<path fill-rule="evenodd" d="M393.7,268.2h.7v-.7h-.7v.7Z" class="g3_81" />
<path fill-rule="evenodd" d="M394.4,268.2H856.7v-.7H394.4v.7Z" class="g3_81" />
<path fill-rule="evenodd" d="M88,746.6H284.8v-.7H88v.7Z" class="g3_81" />
<path fill-rule="evenodd" d="M284.8,746.6h.7v-.7h-.7v.7Z" class="g3_81" />
<path fill-rule="evenodd" d="M285.5,746.6H393.7v-.7H285.5v.7Z" class="g3_81" />
<path fill-rule="evenodd" d="M393.7,746.6h.7v-.7h-.7v.7Z" class="g3_81" />
<path fill-rule="evenodd" d="M394.4,746.6H856.7v-.7H394.4v.7Z" class="g3_81" />
<path fill-rule="evenodd" d="M402.3,804.8h84.9v-1H402.3v1Z" class="g4_81" />
<path fill-rule="evenodd" d="M88,781.1H284.8v-.7H88v.7Z" class="g3_81" />
<path fill-rule="evenodd" d="M284.8,781.1h.7v-.7h-.7v.7Z" class="g3_81" />
<path fill-rule="evenodd" d="M285.5,781.1H393.7v-.7H285.5v.7Z" class="g3_81" />
<path fill-rule="evenodd" d="M393.7,781.1h.7v-.7h-.7v.7Z" class="g3_81" />
<path fill-rule="evenodd" d="M394.4,781.1H856.7v-.7H394.4v.7Z" class="g3_81" />
<path fill-rule="evenodd" d="M88,815.8H284.8V815H88v.8Z" class="g3_81" />
<path fill-rule="evenodd" d="M284.8,815.8h.7V815h-.7v.8Z" class="g3_81" />
<path fill-rule="evenodd" d="M285.5,815.8H393.7V815H285.5v.8Z" class="g3_81" />
<path fill-rule="evenodd" d="M393.7,815.8h.7V815h-.7v.8Z" class="g3_81" />
<path fill-rule="evenodd" d="M394.4,815.8H856.7V815H394.4v.8Z" class="g3_81" />
<path fill-rule="evenodd" d="M88,850.2H284.8v-.7H88v.7Z" class="g3_81" />
<path fill-rule="evenodd" d="M284.8,850.2h.7v-.7h-.7v.7Z" class="g3_81" />
<path fill-rule="evenodd" d="M285.5,850.2H393.7v-.7H285.5v.7Z" class="g3_81" />
<path fill-rule="evenodd" d="M393.7,850.2h.7v-.7h-.7v.7Z" class="g3_81" />
<path fill-rule="evenodd" d="M394.4,850.2H856.7v-.7H394.4v.7Z" class="g3_81" />
<path fill-rule="evenodd" d="M88,884.7H284.8V884H88v.7Z" class="g3_81" />
<path fill-rule="evenodd" d="M284.8,884.7h.7V884h-.7v.7Z" class="g3_81" />
<path fill-rule="evenodd" d="M285.5,884.7H393.7V884H285.5v.7Z" class="g3_81" />
<path fill-rule="evenodd" d="M393.7,884.7h.7V884h-.7v.7Z" class="g3_81" />
<path fill-rule="evenodd" d="M394.4,884.7H856.7V884H394.4v.7Z" class="g3_81" />
<path fill-rule="evenodd" d="M88,919.2H284.8v-.8H88v.8Z" class="g3_81" />
<path fill-rule="evenodd" d="M284.8,919.2h.7v-.8h-.7v.8Z" class="g3_81" />
<path fill-rule="evenodd" d="M285.5,919.2H393.7v-.8H285.5v.8Z" class="g3_81" />
<path fill-rule="evenodd" d="M393.7,919.2h.7v-.8h-.7v.8Z" class="g3_81" />
<path fill-rule="evenodd" d="M394.4,919.2H856.7v-.8H394.4v.8Z" class="g3_81" />
<path fill-rule="evenodd" d="M88,953.6H284.8v-.7H88v.7Z" class="g3_81" />
<path fill-rule="evenodd" d="M284.8,953.6h.7v-.7h-.7v.7Z" class="g3_81" />
<path fill-rule="evenodd" d="M285.5,953.6H393.7v-.7H285.5v.7Z" class="g3_81" />
<path fill-rule="evenodd" d="M393.7,953.6h.7v-.7h-.7v.7Z" class="g3_81" />
<path fill-rule="evenodd" d="M394.4,953.6H856.7v-.7H394.4v.7Z" class="g3_81" />
<path fill-rule="evenodd" d="M88,988.3H284.8v-.8H88v.8Z" class="g3_81" />
<path fill-rule="evenodd" d="M284.8,988.3h.7v-.8h-.7v.8Z" class="g3_81" />
<path fill-rule="evenodd" d="M285.5,988.3H393.7v-.8H285.5v.8Z" class="g3_81" />
<path fill-rule="evenodd" d="M393.7,988.3h.7v-.8h-.7v.8Z" class="g3_81" />
<path fill-rule="evenodd" d="M394.4,988.3H856.7v-.8H394.4v.8Z" class="g3_81" />
<path fill-rule="evenodd" d="M88,1022.8H284.8v-.7H88v.7Z" class="g3_81" />
<path fill-rule="evenodd" d="M284.8,1022.8h.7v-.7h-.7v.7Z" class="g3_81" />
<path fill-rule="evenodd" d="M285.5,1022.8H393.7v-.7H285.5v.7Z" class="g3_81" />
<path fill-rule="evenodd" d="M393.7,1022.8h.7v-.7h-.7v.7Z" class="g3_81" />
<path fill-rule="evenodd" d="M394.4,1022.8H856.7v-.7H394.4v.7Z" class="g3_81" />
<path fill-rule="evenodd" d="M88,1057.3H284.8v-.8H88v.8Z" class="g3_81" />
<path fill-rule="evenodd" d="M284.8,1057.3h.7v-.8h-.7v.8Z" class="g3_81" />
<path fill-rule="evenodd" d="M285.5,1057.3H393.7v-.8H285.5v.8Z" class="g3_81" />
<path fill-rule="evenodd" d="M393.7,1057.3h.7v-.8h-.7v.8Z" class="g3_81" />
<path fill-rule="evenodd" d="M394.4,1057.3H856.7v-.8H394.4v.8Z" class="g3_81" />
<path fill-rule="evenodd" d="M88,1091.7H284.8v-.7H88v.7Z" class="g3_81" />
<path fill-rule="evenodd" d="M284.8,1091.7h.7v-.7h-.7v.7Z" class="g3_81" />
<path fill-rule="evenodd" d="M285.5,1091.7H393.7v-.7H285.5v.7Z" class="g3_81" />
<path fill-rule="evenodd" d="M393.7,1091.7h.7v-.7h-.7v.7Z" class="g3_81" />
<path fill-rule="evenodd" d="M394.4,1091.7H856.7v-.7H394.4v.7Z" class="g3_81" />
<path fill-rule="evenodd" d="M86.9,1126.4H284.8v-.8H86.9v.8Z" class="g3_81" />
<path fill-rule="evenodd" d="M283.6,1126.4h.8v-.8h-.8v.8Z" class="g3_81" />
<path fill-rule="evenodd" d="M284.4,1126.4H393.7v-.8H284.4v.8Z" class="g3_81" />
<path fill-rule="evenodd" d="M392.6,1126.4h.7v-.8h-.7v.8Z" class="g3_81" />
<path fill-rule="evenodd" d="M393.3,1126.4H856.7v-.8H393.3v.8Z" class="g3_81" />
</svg>