<?xml version="1.0" encoding="UTF-8" standalone="no"?>
<!DOCTYPE svg PUBLIC "-//W3C//DTD SVG 1.1//EN"
"http://www.w3.org/Graphics/SVG/1.1/DTD/svg11.dtd">
<svg viewBox="0 0 909 1286" version="1.1" xmlns="http://www.w3.org/2000/svg" xmlns:xlink="http://www.w3.org/1999/xlink">
<defs>
<clipPath id="c0_48"><path d="M96.4,1201.4v-15.5h33v15.5Z" /></clipPath>
<style type="text/css"><![CDATA[
.g0_48{
fill: none;
stroke: #000000;
stroke-width: 4.201389;
stroke-linecap: butt;
stroke-linejoin: round;
}
.g1_48{
fill: #5EB28E;
fill-opacity: 0.6;
}
.g2_48{
fill: #FFFFFF;
}
.g3_48{
fill: #16AAD3;
}
.g4_48{
}
]]></style>
</defs>
<path d="M841.2,1171.7H796.5" class="g0_48" />
<path fill-rule="evenodd" d="M111.9,1174c-11.5,0,-20.8,9.3,-20.8,20.8c0,11.5,9.3,20.8,20.8,20.8c11.5,0,20.8,-9.3,20.8,-20.8c0,-11.5,-9.3,-20.8,-20.8,-20.8Z" class="g1_48" />
<path d="M116.9,1199.3c0,.1,.2,.3,.4,.3q1.9,0,1.9,0c.1,0,.3,-.2,.3,-.3q0,-.7,0,-.7q0,-.1,0,-.1q0,-7.1,0,-7.1q0,-.1,0,-.1q0,-.7,0,-.7c0,-.2,-.2,-.4,-.3,-.4q-1.9,0,-1.9,0c-.2,0,-.4,.2,-.4,.4q0,.5,0,.5q0,7.6,0,7.6v.6Z" class="g2_48" />
<g clip-path="url(#c0_48)">
<path d="M115.7,1195.4q0,-4.8,0,-4.8c0,-.2,-.1,-.4,-.3,-.4q-2,0,-2,0c-.1,0,-.2,.2,-.2,.4q0,4.4,0,4.4c0,1.7,-1,2.5,-2,2.4c-1,.1,-2,-.7,-1.9,-2.4q0,-4.4,0,-4.4c0,-.2,-.1,-.4,-.3,-.4q-1.9,0,-1.9,0c-.2,0,-.3,.2,-.3,.4q0,3.6,0,3.6c-.4,-2.4,-2.6,-4.2,-5.2,-4.2c-2.9,0,-5.2,2.2,-5.2,5c0,2.7,2.3,4.9,5.2,4.9c.2,0,.8,0,.9,0q2.1,1.4,2.1,1.4c.2,.1,.4,.1,.4,-.2q0,-2.4,0,-2.4c.9,-.7,1.6,-1.8,1.8,-3.1c.1,2.9,2.3,4.3,4.4,4.2c2.2,.1,4.5,-1.4,4.5,-4.4Zm-14.1,2.2c-1.5,0,-2.8,-1.2,-2.8,-2.6c0,-1.5,1.3,-2.7,2.8,-2.7c1.5,0,2.8,1.2,2.8,2.7c0,1.4,-1.3,2.6,-2.8,2.6Z" class="g2_48" />
</g>
<path d="M118.2,1186.7c-.8,0,-1.4,.6,-1.4,1.4c0,.7,.6,1.3,1.4,1.3c.8,0,1.4,-.6,1.4,-1.3c0,-.8,-.6,-1.4,-1.4,-1.4Z" class="g2_48" />
<path d="M129.3,1199q-3.4,-4.4,-3.4,-4.4q3,-3.8,3,-3.8c.1,-.1,.1,-.5,-.1,-.6c-.5,0,-1.3,0,-2.2,0c-.1,0,-.2,.1,-.4,.3q-2.9,3.7,-2.9,3.7c0,-2.7,0,-5.4,0,-8c0,-.2,-.2,-.2,-.3,-.1c-.7,.4,-1.3,.9,-2,1.3c-.2,.1,-.2,.3,-.2,.5q0,.6,0,.6q0,.7,0,.7q0,.1,0,.1q0,9.2,0,9.2q0,.1,0,.1q0,.7,0,.7c0,.1,.1,.3,.2,.3q2,0,2,0c.1,0,.3,-.2,.3,-.3q0,-.6,0,-.6q0,-3.5,0,-3.5q3.2,4.2,3.2,4.2c.1,.2,.2,.2,.4,.2c.8,0,1.8,0,2.2,0c.3,-.1,.3,-.5,.2,-.6Z" class="g2_48" />
<path fill-rule="evenodd" d="M391.5,334.1h51.3v-1H391.5v1Z" class="g3_48" />
<path fill-rule="evenodd" d="M88,1024.4H283.3v-4.5H88v4.5Z" class="g4_48" />
<path fill-rule="evenodd" d="M283.3,1024.4h4.6v-4.5h-4.6v4.5Z" class="g4_48" />
<path fill-rule="evenodd" d="M287.9,1024.4H505.6v-4.5H287.9v4.5Z" class="g4_48" />
<path fill-rule="evenodd" d="M505.6,1024.4h4.5v-4.5h-4.5v4.5Z" class="g4_48" />
<path fill-rule="evenodd" d="M510.1,1024.4H846.2v-4.5H510.1v4.5Z" class="g4_48" />
<path fill-rule="evenodd" d="M88,1058.9H283.3v-.7H88v.7Z" class="g4_48" />
<path fill-rule="evenodd" d="M283.3,1058.9h.7v-.7h-.7v.7Z" class="g4_48" />
<path fill-rule="evenodd" d="M284,1058.9H505.6v-.7H284v.7Z" class="g4_48" />
<path fill-rule="evenodd" d="M505.6,1058.9h.7v-.7h-.7v.7Z" class="g4_48" />
<path fill-rule="evenodd" d="M506.3,1058.9H846.2v-.7H506.3v.7Z" class="g4_48" />
<path fill-rule="evenodd" d="M88,1093.6H283.3v-.8H88v.8Z" class="g4_48" />
<path fill-rule="evenodd" d="M283.3,1093.6h.7v-.8h-.7v.8Z" class="g4_48" />
<path fill-rule="evenodd" d="M284,1093.6H505.6v-.8H284v.8Z" class="g4_48" />
<path fill-rule="evenodd" d="M505.6,1093.6h.7v-.8h-.7v.8Z" class="g4_48" />
<path fill-rule="evenodd" d="M506.3,1093.6H846.2v-.8H506.3v.8Z" class="g4_48" />
<path fill-rule="evenodd" d="M86.9,1128H283.3v-.7H86.9v.7Z" class="g4_48" />
<path fill-rule="evenodd" d="M282.2,1128h.7v-.7h-.7v.7Z" class="g4_48" />
<path fill-rule="evenodd" d="M282.9,1128H505.6v-.7H282.9v.7Z" class="g4_48" />
<path fill-rule="evenodd" d="M504.5,1128h.7v-.7h-.7v.7Z" class="g4_48" />
<path fill-rule="evenodd" d="M505.2,1128h341v-.7h-341v.7Z" class="g4_48" />
</svg>