<?xml version="1.0" encoding="UTF-8" standalone="no"?>
<!DOCTYPE svg PUBLIC "-//W3C//DTD SVG 1.1//EN"
"http://www.w3.org/Graphics/SVG/1.1/DTD/svg11.dtd">
<svg viewBox="0 0 909 1286" version="1.1" xmlns="http://www.w3.org/2000/svg" xmlns:xlink="http://www.w3.org/1999/xlink">
<defs>
<clipPath id="c0_41"><path d="M96.4,1201.4v-15.5h33v15.5Z" /></clipPath>
<style type="text/css"><![CDATA[
.g0_41{
fill: none;
stroke: #000000;
stroke-width: 4.201389;
stroke-linecap: butt;
stroke-linejoin: round;
}
.g1_41{
fill: #5EB28E;
fill-opacity: 0.6;
}
.g2_41{
fill: #FFFFFF;
}
.g3_41{
}
.g4_41{
fill: #16AAD3;
}
]]></style>
</defs>
<path d="M841.2,1171.7H796.5" class="g0_41" />
<path fill-rule="evenodd" d="M111.9,1174c-11.5,0,-20.8,9.3,-20.8,20.8c0,11.5,9.3,20.8,20.8,20.8c11.5,0,20.8,-9.3,20.8,-20.8c0,-11.5,-9.3,-20.8,-20.8,-20.8Z" class="g1_41" />
<path d="M116.9,1199.3c0,.1,.2,.3,.4,.3q1.9,0,1.9,0c.1,0,.3,-.2,.3,-.3q0,-.7,0,-.7q0,-.1,0,-.1q0,-7.1,0,-7.1q0,-.1,0,-.1q0,-.7,0,-.7c0,-.2,-.2,-.4,-.3,-.4q-1.9,0,-1.9,0c-.2,0,-.4,.2,-.4,.4q0,.5,0,.5q0,7.6,0,7.6v.6Z" class="g2_41" />
<g clip-path="url(#c0_41)">
<path d="M115.7,1195.4q0,-4.8,0,-4.8c0,-.2,-.1,-.4,-.3,-.4q-2,0,-2,0c-.1,0,-.2,.2,-.2,.4q0,4.4,0,4.4c0,1.7,-1,2.5,-2,2.4c-1,.1,-2,-.7,-1.9,-2.4q0,-4.4,0,-4.4c0,-.2,-.1,-.4,-.3,-.4q-1.9,0,-1.9,0c-.2,0,-.3,.2,-.3,.4q0,3.6,0,3.6c-.4,-2.4,-2.6,-4.2,-5.2,-4.2c-2.9,0,-5.2,2.2,-5.2,5c0,2.7,2.3,4.9,5.2,4.9c.2,0,.8,0,.9,0q2.1,1.4,2.1,1.4c.2,.1,.4,.1,.4,-.2q0,-2.4,0,-2.4c.9,-.7,1.6,-1.8,1.8,-3.1c.1,2.9,2.3,4.3,4.4,4.2c2.2,.1,4.5,-1.4,4.5,-4.4Zm-14.1,2.2c-1.5,0,-2.8,-1.2,-2.8,-2.6c0,-1.5,1.3,-2.7,2.8,-2.7c1.5,0,2.8,1.2,2.8,2.7c0,1.4,-1.3,2.6,-2.8,2.6Z" class="g2_41" />
</g>
<path d="M118.2,1186.7c-.8,0,-1.4,.6,-1.4,1.4c0,.7,.6,1.3,1.4,1.3c.8,0,1.4,-.6,1.4,-1.3c0,-.8,-.6,-1.4,-1.4,-1.4Z" class="g2_41" />
<path d="M129.3,1199q-3.4,-4.4,-3.4,-4.4q3,-3.8,3,-3.8c.1,-.1,.1,-.5,-.1,-.6c-.5,0,-1.3,0,-2.2,0c-.1,0,-.2,.1,-.4,.3q-2.9,3.7,-2.9,3.7c0,-2.7,0,-5.4,0,-8c0,-.2,-.2,-.2,-.3,-.1c-.7,.4,-1.3,.9,-2,1.3c-.2,.1,-.2,.3,-.2,.5q0,.6,0,.6q0,.7,0,.7q0,.1,0,.1q0,9.2,0,9.2q0,.1,0,.1q0,.7,0,.7c0,.1,.1,.3,.2,.3q2,0,2,0c.1,0,.3,-.2,.3,-.3q0,-.6,0,-.6q0,-3.5,0,-3.5q3.2,4.2,3.2,4.2c.1,.2,.2,.2,.4,.2c.8,0,1.8,0,2.2,0c.3,-.1,.3,-.5,.2,-.6Z" class="g2_41" />
<path fill-rule="evenodd" d="M88,105.8h24.2v-4.6H88v4.6Z" class="g3_41" />
<path fill-rule="evenodd" d="M112.2,105.8h4.6v-4.6h-4.6v4.6Z" class="g3_41" />
<path fill-rule="evenodd" d="M116.8,105.8H238.2v-4.6H116.8v4.6Z" class="g3_41" />
<path fill-rule="evenodd" d="M238.2,105.8h4.6v-4.6h-4.6v4.6Z" class="g3_41" />
<path fill-rule="evenodd" d="M242.8,105.8h53v-4.6h-53v4.6Z" class="g3_41" />
<path fill-rule="evenodd" d="M295.8,105.8h4.6v-4.6h-4.6v4.6Z" class="g3_41" />
<path fill-rule="evenodd" d="M300.4,105.8H845v-4.6H300.4v4.6Z" class="g3_41" />
<path fill-rule="evenodd" d="M88,157.3h24.2v-.7H88v.7Z" class="g3_41" />
<path fill-rule="evenodd" d="M112.2,157.3h.8v-.7h-.8v.7Z" class="g3_41" />
<path fill-rule="evenodd" d="M113,157.3H238.2v-.7H113v.7Z" class="g3_41" />
<path fill-rule="evenodd" d="M238.2,157.3h.7v-.7h-.7v.7Z" class="g3_41" />
<path fill-rule="evenodd" d="M238.9,157.3h56.9v-.7H238.9v.7Z" class="g3_41" />
<path fill-rule="evenodd" d="M295.8,157.3h.7v-.7h-.7v.7Z" class="g3_41" />
<path fill-rule="evenodd" d="M296.5,157.3H845v-.7H296.5v.7Z" class="g3_41" />
<path fill-rule="evenodd" d="M88,212.5h24.2v-.7H88v.7Z" class="g3_41" />
<path fill-rule="evenodd" d="M112.2,212.5h.8v-.7h-.8v.7Z" class="g3_41" />
<path fill-rule="evenodd" d="M113,212.5H238.2v-.7H113v.7Z" class="g3_41" />
<path fill-rule="evenodd" d="M238.2,212.5h.7v-.7h-.7v.7Z" class="g3_41" />
<path fill-rule="evenodd" d="M238.9,212.5h56.9v-.7H238.9v.7Z" class="g3_41" />
<path fill-rule="evenodd" d="M295.8,212.5h.7v-.7h-.7v.7Z" class="g3_41" />
<path fill-rule="evenodd" d="M296.5,212.5H845v-.7H296.5v.7Z" class="g3_41" />
<path fill-rule="evenodd" d="M88,267.9h24.2v-.8H88v.8Z" class="g3_41" />
<path fill-rule="evenodd" d="M112.2,267.9h.8v-.8h-.8v.8Z" class="g3_41" />
<path fill-rule="evenodd" d="M113,267.9H238.2v-.8H113v.8Z" class="g3_41" />
<path fill-rule="evenodd" d="M238.2,267.9h.7v-.8h-.7v.8Z" class="g3_41" />
<path fill-rule="evenodd" d="M238.9,267.9h56.9v-.8H238.9v.8Z" class="g3_41" />
<path fill-rule="evenodd" d="M295.8,267.9h.7v-.8h-.7v.8Z" class="g3_41" />
<path fill-rule="evenodd" d="M296.5,267.9H845v-.8H296.5v.8Z" class="g3_41" />
<path fill-rule="evenodd" d="M88,323.1h24.2v-.8H88v.8Z" class="g3_41" />
<path fill-rule="evenodd" d="M112.2,323.1h.8v-.8h-.8v.8Z" class="g3_41" />
<path fill-rule="evenodd" d="M113,323.1H238.2v-.8H113v.8Z" class="g3_41" />
<path fill-rule="evenodd" d="M238.2,323.1h.7v-.8h-.7v.8Z" class="g3_41" />
<path fill-rule="evenodd" d="M238.9,323.1h56.9v-.8H238.9v.8Z" class="g3_41" />
<path fill-rule="evenodd" d="M295.8,323.1h.7v-.8h-.7v.8Z" class="g3_41" />
<path fill-rule="evenodd" d="M296.5,323.1H845v-.8H296.5v.8Z" class="g3_41" />
<path fill-rule="evenodd" d="M88,357.5h24.2v-.7H88v.7Z" class="g3_41" />
<path fill-rule="evenodd" d="M112.2,357.5h.8v-.7h-.8v.7Z" class="g3_41" />
<path fill-rule="evenodd" d="M113,357.5H238.2v-.7H113v.7Z" class="g3_41" />
<path fill-rule="evenodd" d="M238.2,357.5h.7v-.7h-.7v.7Z" class="g3_41" />
<path fill-rule="evenodd" d="M238.9,357.5h56.9v-.7H238.9v.7Z" class="g3_41" />
<path fill-rule="evenodd" d="M295.8,357.5h.7v-.7h-.7v.7Z" class="g3_41" />
<path fill-rule="evenodd" d="M296.5,357.5H845v-.7H296.5v.7Z" class="g3_41" />
<path fill-rule="evenodd" d="M88,392h24.2v-.7H88v.7Z" class="g3_41" />
<path fill-rule="evenodd" d="M112.2,392h.8v-.7h-.8v.7Z" class="g3_41" />
<path fill-rule="evenodd" d="M113,392H238.2v-.7H113v.7Z" class="g3_41" />
<path fill-rule="evenodd" d="M238.2,392h.7v-.7h-.7v.7Z" class="g3_41" />
<path fill-rule="evenodd" d="M238.9,392h56.9v-.7H238.9v.7Z" class="g3_41" />
<path fill-rule="evenodd" d="M295.8,392h.7v-.7h-.7v.7Z" class="g3_41" />
<path fill-rule="evenodd" d="M296.5,392H845v-.7H296.5v.7Z" class="g3_41" />
<path fill-rule="evenodd" d="M88,447.4h24.2v-.7H88v.7Z" class="g3_41" />
<path fill-rule="evenodd" d="M112.2,447.4h.8v-.7h-.8v.7Z" class="g3_41" />
<path fill-rule="evenodd" d="M113,447.4H238.2v-.7H113v.7Z" class="g3_41" />
<path fill-rule="evenodd" d="M238.2,447.4h.7v-.7h-.7v.7Z" class="g3_41" />
<path fill-rule="evenodd" d="M238.9,447.4h56.9v-.7H238.9v.7Z" class="g3_41" />
<path fill-rule="evenodd" d="M295.8,447.4h.7v-.7h-.7v.7Z" class="g3_41" />
<path fill-rule="evenodd" d="M296.5,447.4H845v-.7H296.5v.7Z" class="g3_41" />
<path fill-rule="evenodd" d="M88,481.9h24.2v-.8H88v.8Z" class="g3_41" />
<path fill-rule="evenodd" d="M112.2,481.9h.8v-.8h-.8v.8Z" class="g3_41" />
<path fill-rule="evenodd" d="M113,481.9H238.2v-.8H113v.8Z" class="g3_41" />
<path fill-rule="evenodd" d="M238.2,481.9h.7v-.8h-.7v.8Z" class="g3_41" />
<path fill-rule="evenodd" d="M238.9,481.9h56.9v-.8H238.9v.8Z" class="g3_41" />
<path fill-rule="evenodd" d="M295.8,481.9h.7v-.8h-.7v.8Z" class="g3_41" />
<path fill-rule="evenodd" d="M296.5,481.9H845v-.8H296.5v.8Z" class="g3_41" />
<path fill-rule="evenodd" d="M88,558h24.2v-.8H88v.8Z" class="g3_41" />
<path fill-rule="evenodd" d="M112.2,558h.8v-.8h-.8v.8Z" class="g3_41" />
<path fill-rule="evenodd" d="M113,558H238.2v-.8H113v.8Z" class="g3_41" />
<path fill-rule="evenodd" d="M238.2,558h.7v-.8h-.7v.8Z" class="g3_41" />
<path fill-rule="evenodd" d="M238.9,558h56.9v-.8H238.9v.8Z" class="g3_41" />
<path fill-rule="evenodd" d="M295.8,558h.7v-.8h-.7v.8Z" class="g3_41" />
<path fill-rule="evenodd" d="M296.5,558H845v-.8H296.5v.8Z" class="g3_41" />
<path fill-rule="evenodd" d="M86.9,634h25.3v-.7H86.9v.7Z" class="g3_41" />
<path fill-rule="evenodd" d="M111.1,634h.8v-.7h-.8v.7Z" class="g3_41" />
<path fill-rule="evenodd" d="M111.9,634H238.2v-.7H111.9v.7Z" class="g3_41" />
<path fill-rule="evenodd" d="M237.1,634h.7v-.7h-.7v.7Z" class="g3_41" />
<path fill-rule="evenodd" d="M237.8,634h58v-.7h-58v.7Z" class="g3_41" />
<path fill-rule="evenodd" d="M294.7,634h.7v-.7h-.7v.7Z" class="g3_41" />
<path fill-rule="evenodd" d="M295.4,634H845v-.7H295.4v.7Z" class="g3_41" />
<path fill-rule="evenodd" d="M108.9,697.5h4.6V672.4h-4.6v25.1Z" class="g3_41" />
<path fill-rule="evenodd" d="M108.9,721.5h4.6v-24h-4.6v24Z" class="g3_41" />
<path fill-rule="evenodd" d="M108.9,745.7h4.6V721.5h-4.6v24.2Z" class="g3_41" />
<path fill-rule="evenodd" d="M416.1,1087.5h43.6v-.9H416.1v.9Z" class="g4_41" />
</svg>