<?xml version="1.0" encoding="UTF-8" standalone="no"?>
<!DOCTYPE svg PUBLIC "-//W3C//DTD SVG 1.1//EN"
"http://www.w3.org/Graphics/SVG/1.1/DTD/svg11.dtd">
<svg viewBox="0 0 909 1286" version="1.1" xmlns="http://www.w3.org/2000/svg" xmlns:xlink="http://www.w3.org/1999/xlink">
<defs>
<clipPath id="c0_54"><path d="M96.4,1201.4v-15.5h33v15.5Z" /></clipPath>
<style type="text/css"><![CDATA[
.g0_54{
fill: none;
stroke: #000000;
stroke-width: 4.201389;
stroke-linecap: butt;
stroke-linejoin: round;
}
.g1_54{
fill: #5EB28E;
fill-opacity: 0.6;
}
.g2_54{
fill: #FFFFFF;
}
.g3_54{
}
.g4_54{
fill: #F1F1F1;
}
.g5_54{
fill: #16AAD3;
}
]]></style>
</defs>
<path d="M841.2,1171.7H796.5" class="g0_54" />
<path fill-rule="evenodd" d="M111.9,1174c-11.5,0,-20.8,9.3,-20.8,20.8c0,11.5,9.3,20.8,20.8,20.8c11.5,0,20.8,-9.3,20.8,-20.8c0,-11.5,-9.3,-20.8,-20.8,-20.8Z" class="g1_54" />
<path d="M116.9,1199.3c0,.1,.2,.3,.4,.3q1.9,0,1.9,0c.1,0,.3,-.2,.3,-.3q0,-.7,0,-.7q0,-.1,0,-.1q0,-7.1,0,-7.1q0,-.1,0,-.1q0,-.7,0,-.7c0,-.2,-.2,-.4,-.3,-.4q-1.9,0,-1.9,0c-.2,0,-.4,.2,-.4,.4q0,.5,0,.5q0,7.6,0,7.6v.6Z" class="g2_54" />
<g clip-path="url(#c0_54)">
<path d="M115.7,1195.4q0,-4.8,0,-4.8c0,-.2,-.1,-.4,-.3,-.4q-2,0,-2,0c-.1,0,-.2,.2,-.2,.4q0,4.4,0,4.4c0,1.7,-1,2.5,-2,2.4c-1,.1,-2,-.7,-1.9,-2.4q0,-4.4,0,-4.4c0,-.2,-.1,-.4,-.3,-.4q-1.9,0,-1.9,0c-.2,0,-.3,.2,-.3,.4q0,3.6,0,3.6c-.4,-2.4,-2.6,-4.2,-5.2,-4.2c-2.9,0,-5.2,2.2,-5.2,5c0,2.7,2.3,4.9,5.2,4.9c.2,0,.8,0,.9,0q2.1,1.4,2.1,1.4c.2,.1,.4,.1,.4,-.2q0,-2.4,0,-2.4c.9,-.7,1.6,-1.8,1.8,-3.1c.1,2.9,2.3,4.3,4.4,4.2c2.2,.1,4.5,-1.4,4.5,-4.4Zm-14.1,2.2c-1.5,0,-2.8,-1.2,-2.8,-2.6c0,-1.5,1.3,-2.7,2.8,-2.7c1.5,0,2.8,1.2,2.8,2.7c0,1.4,-1.3,2.6,-2.8,2.6Z" class="g2_54" />
</g>
<path d="M118.2,1186.7c-.8,0,-1.4,.6,-1.4,1.4c0,.7,.6,1.3,1.4,1.3c.8,0,1.4,-.6,1.4,-1.3c0,-.8,-.6,-1.4,-1.4,-1.4Z" class="g2_54" />
<path d="M129.3,1199q-3.4,-4.4,-3.4,-4.4q3,-3.8,3,-3.8c.1,-.1,.1,-.5,-.1,-.6c-.5,0,-1.3,0,-2.2,0c-.1,0,-.2,.1,-.4,.3q-2.9,3.7,-2.9,3.7c0,-2.7,0,-5.4,0,-8c0,-.2,-.2,-.2,-.3,-.1c-.7,.4,-1.3,.9,-2,1.3c-.2,.1,-.2,.3,-.2,.5q0,.6,0,.6q0,.7,0,.7q0,.1,0,.1q0,9.2,0,9.2q0,.1,0,.1q0,.7,0,.7c0,.1,.1,.3,.2,.3q2,0,2,0c.1,0,.3,-.2,.3,-.3q0,-.6,0,-.6q0,-3.5,0,-3.5q3.2,4.2,3.2,4.2c.1,.2,.2,.2,.4,.2c.8,0,1.8,0,2.2,0c.3,-.1,.3,-.5,.2,-.6Z" class="g2_54" />
<path fill-rule="evenodd" d="M88,306.9H315.6v-4.6H88v4.6Z" class="g3_54" />
<path fill-rule="evenodd" d="M315.6,306.9h4.6v-4.6h-4.6v4.6Z" class="g3_54" />
<path fill-rule="evenodd" d="M320.2,306.9H434.8v-4.6H320.2v4.6Z" class="g3_54" />
<path fill-rule="evenodd" d="M434.8,306.9h4.5v-4.6h-4.5v4.6Z" class="g3_54" />
<path fill-rule="evenodd" d="M439.3,306.9H846.2v-4.6H439.3v4.6Z" class="g3_54" />
<path fill-rule="evenodd" d="M88,341.4H315.6v-.7H88v.7Z" class="g3_54" />
<path fill-rule="evenodd" d="M315.6,341.4h.7v-.7h-.7v.7Z" class="g3_54" />
<path fill-rule="evenodd" d="M316.3,341.4H434.8v-.7H316.3v.7Z" class="g3_54" />
<path fill-rule="evenodd" d="M434.8,341.4h.7v-.7h-.7v.7Z" class="g3_54" />
<path fill-rule="evenodd" d="M435.5,341.4H846.2v-.7H435.5v.7Z" class="g3_54" />
<path fill-rule="evenodd" d="M88,375.9H315.6v-.8H88v.8Z" class="g3_54" />
<path fill-rule="evenodd" d="M315.6,375.9h.7v-.8h-.7v.8Z" class="g3_54" />
<path fill-rule="evenodd" d="M316.3,375.9H434.8v-.8H316.3v.8Z" class="g3_54" />
<path fill-rule="evenodd" d="M434.8,375.9h.7v-.8h-.7v.8Z" class="g3_54" />
<path fill-rule="evenodd" d="M435.5,375.9H846.2v-.8H435.5v.8Z" class="g3_54" />
<path fill-rule="evenodd" d="M88,410.3H315.6v-.7H88v.7Z" class="g3_54" />
<path fill-rule="evenodd" d="M315.6,410.3h.7v-.7h-.7v.7Z" class="g3_54" />
<path fill-rule="evenodd" d="M316.3,410.3H434.8v-.7H316.3v.7Z" class="g3_54" />
<path fill-rule="evenodd" d="M434.8,410.3h.7v-.7h-.7v.7Z" class="g3_54" />
<path fill-rule="evenodd" d="M435.5,410.3H846.2v-.7H435.5v.7Z" class="g3_54" />
<path fill-rule="evenodd" d="M88,445H315.6v-.7H88v.7Z" class="g3_54" />
<path fill-rule="evenodd" d="M315.6,445h.7v-.7h-.7v.7Z" class="g3_54" />
<path fill-rule="evenodd" d="M316.3,445H434.8v-.7H316.3v.7Z" class="g3_54" />
<path fill-rule="evenodd" d="M434.8,445h.7v-.7h-.7v.7Z" class="g3_54" />
<path fill-rule="evenodd" d="M435.5,445H846.2v-.7H435.5v.7Z" class="g3_54" />
<path fill-rule="evenodd" d="M86.9,479.5H315.6v-.7H86.9v.7Z" class="g3_54" />
<path fill-rule="evenodd" d="M314.5,479.5h.7v-.7h-.7v.7Z" class="g3_54" />
<path fill-rule="evenodd" d="M315.2,479.5H434.8v-.7H315.2v.7Z" class="g3_54" />
<path fill-rule="evenodd" d="M433.7,479.5h.7v-.7h-.7v.7Z" class="g3_54" />
<path fill-rule="evenodd" d="M434.4,479.5H846.2v-.7H434.4v.7Z" class="g3_54" />
<path fill-rule="evenodd" d="M133.7,589.9H845.9V565.3H133.7v24.6Z" class="g4_54" />
<path fill-rule="evenodd" d="M124.5,565.3h9.2v-9.2h-9.2v9.2Z" class="g4_54" />
<path fill-rule="evenodd" d="M124.5,565.3h9.2v-9.2h-9.2v9.2Z" class="g4_54" />
<path fill-rule="evenodd" d="M133.7,565.3H845.9v-9.2H133.7v9.2Z" class="g4_54" />
<path fill-rule="evenodd" d="M124.5,589.9h9.2V565.3h-9.2v24.6Z" class="g4_54" />
<path fill-rule="evenodd" d="M133.7,612.8H845.9V589.9H133.7v22.9Z" class="g4_54" />
<path fill-rule="evenodd" d="M124.5,612.8h9.2V589.9h-9.2v22.9Z" class="g4_54" />
<path fill-rule="evenodd" d="M133.7,635.7H845.9V612.8H133.7v22.9Z" class="g4_54" />
<path fill-rule="evenodd" d="M124.5,635.7h9.2V612.8h-9.2v22.9Z" class="g4_54" />
<path fill-rule="evenodd" d="M133.7,658.6H845.9V635.7H133.7v22.9Z" class="g4_54" />
<path fill-rule="evenodd" d="M124.5,658.6h9.2V635.7h-9.2v22.9Z" class="g4_54" />
<path fill-rule="evenodd" d="M133.7,681.5H845.9V658.6H133.7v22.9Z" class="g4_54" />
<path fill-rule="evenodd" d="M124.5,681.5h9.2V658.6h-9.2v22.9Z" class="g4_54" />
<path fill-rule="evenodd" d="M133.7,704.4H845.9V681.5H133.7v22.9Z" class="g4_54" />
<path fill-rule="evenodd" d="M124.5,704.4h9.2V681.5h-9.2v22.9Z" class="g4_54" />
<path fill-rule="evenodd" d="M133.7,728.9H845.9V704.4H133.7v24.5Z" class="g4_54" />
<path fill-rule="evenodd" d="M124.5,738h9.2v-9.1h-9.2V738Z" class="g4_54" />
<path fill-rule="evenodd" d="M124.5,738h9.2v-9.1h-9.2V738Z" class="g4_54" />
<path fill-rule="evenodd" d="M133.7,738H845.9v-9.1H133.7V738Z" class="g4_54" />
<path fill-rule="evenodd" d="M124.5,728.9h9.2V704.4h-9.2v24.5Z" class="g4_54" />
<path fill-rule="evenodd" d="M301.7,792.8h53.5v-.9H301.7v.9Z" class="g5_54" />
<path fill-rule="evenodd" d="M365.3,792.8h97.5v-.9H365.3v.9Z" class="g5_54" />
<path fill-rule="evenodd" d="M88,944.1H304.6v-4.6H88v4.6Z" class="g3_54" />
<path fill-rule="evenodd" d="M304.6,944.1h4.6v-4.6h-4.6v4.6Z" class="g3_54" />
<path fill-rule="evenodd" d="M309.2,944.1H423.8v-4.6H309.2v4.6Z" class="g3_54" />
<path fill-rule="evenodd" d="M423.8,944.1h4.5v-4.6h-4.5v4.6Z" class="g3_54" />
<path fill-rule="evenodd" d="M428.3,944.1H846.2v-4.6H428.3v4.6Z" class="g3_54" />
<path fill-rule="evenodd" d="M88,978.6H304.6v-.8H88v.8Z" class="g3_54" />
<path fill-rule="evenodd" d="M304.6,978.6h.7v-.8h-.7v.8Z" class="g3_54" />
<path fill-rule="evenodd" d="M305.3,978.6H423.8v-.8H305.3v.8Z" class="g3_54" />
<path fill-rule="evenodd" d="M423.8,978.6h.7v-.8h-.7v.8Z" class="g3_54" />
<path fill-rule="evenodd" d="M424.5,978.6H846.2v-.8H424.5v.8Z" class="g3_54" />
<path fill-rule="evenodd" d="M88,1013.1H304.6v-.8H88v.8Z" class="g3_54" />
<path fill-rule="evenodd" d="M304.6,1013.1h.7v-.8h-.7v.8Z" class="g3_54" />
<path fill-rule="evenodd" d="M305.3,1013.1H423.8v-.8H305.3v.8Z" class="g3_54" />
<path fill-rule="evenodd" d="M423.8,1013.1h.7v-.8h-.7v.8Z" class="g3_54" />
<path fill-rule="evenodd" d="M424.5,1013.1H846.2v-.8H424.5v.8Z" class="g3_54" />
<path fill-rule="evenodd" d="M88,1047.5H304.6v-.7H88v.7Z" class="g3_54" />
<path fill-rule="evenodd" d="M304.6,1047.5h.7v-.7h-.7v.7Z" class="g3_54" />
<path fill-rule="evenodd" d="M305.3,1047.5H423.8v-.7H305.3v.7Z" class="g3_54" />
<path fill-rule="evenodd" d="M423.8,1047.5h.7v-.7h-.7v.7Z" class="g3_54" />
<path fill-rule="evenodd" d="M424.5,1047.5H846.2v-.7H424.5v.7Z" class="g3_54" />
<path fill-rule="evenodd" d="M86.9,1082.2H304.6v-.7H86.9v.7Z" class="g3_54" />
<path fill-rule="evenodd" d="M303.5,1082.2h.7v-.7h-.7v.7Z" class="g3_54" />
<path fill-rule="evenodd" d="M304.2,1082.2H423.8v-.7H304.2v.7Z" class="g3_54" />
<path fill-rule="evenodd" d="M422.7,1082.2h.7v-.7h-.7v.7Z" class="g3_54" />
<path fill-rule="evenodd" d="M423.4,1082.2H846.2v-.7H423.4v.7Z" class="g3_54" />
<path fill-rule="evenodd" d="M301.7,1137h53.5v-.9H301.7v.9Z" class="g5_54" />
<path fill-rule="evenodd" d="M365.3,1137h91.8v-.9H365.3v.9Z" class="g5_54" />
</svg>