<?xml version="1.0" encoding="UTF-8" standalone="no"?>
<!DOCTYPE svg PUBLIC "-//W3C//DTD SVG 1.1//EN"
"http://www.w3.org/Graphics/SVG/1.1/DTD/svg11.dtd">
<svg viewBox="0 0 909 1286" version="1.1" xmlns="http://www.w3.org/2000/svg" xmlns:xlink="http://www.w3.org/1999/xlink">
<defs>
<style type="text/css"><![CDATA[
.g0_10{
fill: #F8F8F8;
}
.g1_10{
fill: #D3D3D3;
}
]]></style>
</defs>
<image preserveAspectRatio="none" x="130" y="1222" width="83" height="28" xlink:href="img/1.png" />
<path fill-rule="evenodd" d="M163.6,206.5H847V180.8H163.6v25.7Z" class="g0_10" />
<path fill-rule="evenodd" d="M160.3,180.8H847v-.7H160.3v.7Z" class="g1_10" />
<path fill-rule="evenodd" d="M847,180.8h.7v-.7H847v.7Z" class="g1_10" />
<path fill-rule="evenodd" d="M847,180.8h.7v-.7H847v.7Z" class="g1_10" />
<path fill-rule="evenodd" d="M160.3,206.5h3.3V180.8h-3.3v25.7Z" class="g1_10" />
<path fill-rule="evenodd" d="M847,206.5h.7V180.8H847v25.7Z" class="g1_10" />
<path fill-rule="evenodd" d="M163.6,223H847V206.5H163.6V223Z" class="g0_10" />
<path fill-rule="evenodd" d="M160.3,223h3.3V206.5h-3.3V223Z" class="g1_10" />
<path fill-rule="evenodd" d="M847,223h.7V206.5H847V223Z" class="g1_10" />
<path fill-rule="evenodd" d="M163.6,239.5H847V223H163.6v16.5Z" class="g0_10" />
<path fill-rule="evenodd" d="M160.3,239.5h3.3V223h-3.3v16.5Z" class="g1_10" />
<path fill-rule="evenodd" d="M847,239.5h.7V223H847v16.5Z" class="g1_10" />
<path fill-rule="evenodd" d="M163.6,255.8H847V239.5H163.6v16.3Z" class="g0_10" />
<path fill-rule="evenodd" d="M160.3,255.8h3.3V239.5h-3.3v16.3Z" class="g1_10" />
<path fill-rule="evenodd" d="M847,255.8h.7V239.5H847v16.3Z" class="g1_10" />
<path fill-rule="evenodd" d="M163.6,272.3H847V255.8H163.6v16.5Z" class="g0_10" />
<path fill-rule="evenodd" d="M160.3,272.3h3.3V255.8h-3.3v16.5Z" class="g1_10" />
<path fill-rule="evenodd" d="M847,272.3h.7V255.8H847v16.5Z" class="g1_10" />
<path fill-rule="evenodd" d="M163.6,288.8H847V272.3H163.6v16.5Z" class="g0_10" />
<path fill-rule="evenodd" d="M160.3,288.8h3.3V272.3h-3.3v16.5Z" class="g1_10" />
<path fill-rule="evenodd" d="M847,288.8h.7V272.3H847v16.5Z" class="g1_10" />
<path fill-rule="evenodd" d="M163.6,305.3H847V288.8H163.6v16.5Z" class="g0_10" />
<path fill-rule="evenodd" d="M160.3,305.3h3.3V288.8h-3.3v16.5Z" class="g1_10" />
<path fill-rule="evenodd" d="M847,305.3h.7V288.8H847v16.5Z" class="g1_10" />
<path fill-rule="evenodd" d="M163.6,321.8H847V305.3H163.6v16.5Z" class="g0_10" />
<path fill-rule="evenodd" d="M160.3,321.8h3.3V305.3h-3.3v16.5Z" class="g1_10" />
<path fill-rule="evenodd" d="M847,321.8h.7V305.3H847v16.5Z" class="g1_10" />
<path fill-rule="evenodd" d="M163.6,338.3H847V321.8H163.6v16.5Z" class="g0_10" />
<path fill-rule="evenodd" d="M160.3,338.3h3.3V321.8h-3.3v16.5Z" class="g1_10" />
<path fill-rule="evenodd" d="M847,338.3h.7V321.8H847v16.5Z" class="g1_10" />
<path fill-rule="evenodd" d="M163.6,354.6H847V338.3H163.6v16.3Z" class="g0_10" />
<path fill-rule="evenodd" d="M160.3,354.6h3.3V338.3h-3.3v16.3Z" class="g1_10" />
<path fill-rule="evenodd" d="M847,354.6h.7V338.3H847v16.3Z" class="g1_10" />
<path fill-rule="evenodd" d="M163.6,371.1H847V354.6H163.6v16.5Z" class="g0_10" />
<path fill-rule="evenodd" d="M160.3,371.1h3.3V354.6h-3.3v16.5Z" class="g1_10" />
<path fill-rule="evenodd" d="M847,371.1h.7V354.6H847v16.5Z" class="g1_10" />
<path fill-rule="evenodd" d="M163.6,387.6H847V371.1H163.6v16.5Z" class="g0_10" />
<path fill-rule="evenodd" d="M160.3,387.6h3.3V371.1h-3.3v16.5Z" class="g1_10" />
<path fill-rule="evenodd" d="M847,387.6h.7V371.1H847v16.5Z" class="g1_10" />
<path fill-rule="evenodd" d="M163.6,404.1H847V387.6H163.6v16.5Z" class="g0_10" />
<path fill-rule="evenodd" d="M160.3,404.1h3.3V387.6h-3.3v16.5Z" class="g1_10" />
<path fill-rule="evenodd" d="M847,404.1h.7V387.6H847v16.5Z" class="g1_10" />
<path fill-rule="evenodd" d="M163.6,420.6H847V404.1H163.6v16.5Z" class="g0_10" />
<path fill-rule="evenodd" d="M160.3,420.6h3.3V404.1h-3.3v16.5Z" class="g1_10" />
<path fill-rule="evenodd" d="M847,420.6h.7V404.1H847v16.5Z" class="g1_10" />
<path fill-rule="evenodd" d="M163.6,437.1H847V420.6H163.6v16.5Z" class="g0_10" />
<path fill-rule="evenodd" d="M160.3,437.1h3.3V420.6h-3.3v16.5Z" class="g1_10" />
<path fill-rule="evenodd" d="M847,437.1h.7V420.6H847v16.5Z" class="g1_10" />
<path fill-rule="evenodd" d="M163.6,453.5H847V437.1H163.6v16.4Z" class="g0_10" />
<path fill-rule="evenodd" d="M160.3,453.5h3.3V437.1h-3.3v16.4Z" class="g1_10" />
<path fill-rule="evenodd" d="M847,453.5h.7V437.1H847v16.4Z" class="g1_10" />
<path fill-rule="evenodd" d="M163.6,470H847V453.5H163.6V470Z" class="g0_10" />
<path fill-rule="evenodd" d="M160.3,470h3.3V453.5h-3.3V470Z" class="g1_10" />
<path fill-rule="evenodd" d="M847,470h.7V453.5H847V470Z" class="g1_10" />
<path fill-rule="evenodd" d="M163.6,486.5H847V470H163.6v16.5Z" class="g0_10" />
<path fill-rule="evenodd" d="M160.3,486.5h3.3V470h-3.3v16.5Z" class="g1_10" />
<path fill-rule="evenodd" d="M847,486.5h.7V470H847v16.5Z" class="g1_10" />
<path fill-rule="evenodd" d="M163.6,503H847V486.5H163.6V503Z" class="g0_10" />
<path fill-rule="evenodd" d="M160.3,503h3.3V486.5h-3.3V503Z" class="g1_10" />
<path fill-rule="evenodd" d="M847,503h.7V486.5H847V503Z" class="g1_10" />
<path fill-rule="evenodd" d="M163.6,519.5H847V503H163.6v16.5Z" class="g0_10" />
<path fill-rule="evenodd" d="M160.3,519.5h3.3V503h-3.3v16.5Z" class="g1_10" />
<path fill-rule="evenodd" d="M847,519.5h.7V503H847v16.5Z" class="g1_10" />
<path fill-rule="evenodd" d="M163.6,536H847V519.5H163.6V536Z" class="g0_10" />
<path fill-rule="evenodd" d="M160.3,536h3.3V519.5h-3.3V536Z" class="g1_10" />
<path fill-rule="evenodd" d="M847,536h.7V519.5H847V536Z" class="g1_10" />
<path fill-rule="evenodd" d="M163.6,552.3H847V536H163.6v16.3Z" class="g0_10" />
<path fill-rule="evenodd" d="M160.3,552.3h3.3V536h-3.3v16.3Z" class="g1_10" />
<path fill-rule="evenodd" d="M847,552.3h.7V536H847v16.3Z" class="g1_10" />
<path fill-rule="evenodd" d="M163.6,568.8H847V552.3H163.6v16.5Z" class="g0_10" />
<path fill-rule="evenodd" d="M160.3,568.8h3.3V552.3h-3.3v16.5Z" class="g1_10" />
<path fill-rule="evenodd" d="M847,568.8h.7V552.3H847v16.5Z" class="g1_10" />
<path fill-rule="evenodd" d="M163.6,594.4H847V568.8H163.6v25.6Z" class="g0_10" />
<path fill-rule="evenodd" d="M160.3,595.2H847v-.8H160.3v.8Z" class="g1_10" />
<path fill-rule="evenodd" d="M847,595.2h.7v-.8H847v.8Z" class="g1_10" />
<path fill-rule="evenodd" d="M847,595.2h.7v-.8H847v.8Z" class="g1_10" />
<path fill-rule="evenodd" d="M160.3,594.4h3.3V568.8h-3.3v25.6Z" class="g1_10" />
<path fill-rule="evenodd" d="M847,594.4h.7V568.8H847v25.6Z" class="g1_10" />
<image preserveAspectRatio="none" x="130" y="719" width="682" height="466" xlink:href="img/2.png" />
</svg>