<?xml version="1.0" encoding="UTF-8" standalone="no"?>
<!DOCTYPE svg PUBLIC "-//W3C//DTD SVG 1.1//EN"
"http://www.w3.org/Graphics/SVG/1.1/DTD/svg11.dtd">
<svg viewBox="0 0 909 1286" version="1.1" xmlns="http://www.w3.org/2000/svg" xmlns:xlink="http://www.w3.org/1999/xlink">
<defs>
<style type="text/css"><![CDATA[
.g0_8{
fill: #F8F8F8;
}
.g1_8{
fill: #D3D3D3;
}
]]></style>
</defs>
<image preserveAspectRatio="none" x="130" y="1222" width="83" height="28" xlink:href="img/1.png" />
<path fill-rule="evenodd" d="M163.6,113.1H847V87.3H163.6v25.8Z" class="g0_8" />
<path fill-rule="evenodd" d="M160.3,87.3H847v-.8H160.3v.8Z" class="g1_8" />
<path fill-rule="evenodd" d="M847,87.3h.7v-.8H847v.8Z" class="g1_8" />
<path fill-rule="evenodd" d="M847,87.3h.7v-.8H847v.8Z" class="g1_8" />
<path fill-rule="evenodd" d="M160.3,113.1h3.3V87.3h-3.3v25.8Z" class="g1_8" />
<path fill-rule="evenodd" d="M847,113.1h.7V87.3H847v25.8Z" class="g1_8" />
<path fill-rule="evenodd" d="M163.6,129.4H847V113.1H163.6v16.3Z" class="g0_8" />
<path fill-rule="evenodd" d="M160.3,129.4h3.3V113.1h-3.3v16.3Z" class="g1_8" />
<path fill-rule="evenodd" d="M847,129.4h.7V113.1H847v16.3Z" class="g1_8" />
<path fill-rule="evenodd" d="M163.6,146H847V129.4H163.6V146Z" class="g0_8" />
<path fill-rule="evenodd" d="M160.3,146h3.3V129.4h-3.3V146Z" class="g1_8" />
<path fill-rule="evenodd" d="M847,146h.7V129.4H847V146Z" class="g1_8" />
<path fill-rule="evenodd" d="M163.6,162.5H847V146H163.6v16.5Z" class="g0_8" />
<path fill-rule="evenodd" d="M160.3,162.5h3.3V146h-3.3v16.5Z" class="g1_8" />
<path fill-rule="evenodd" d="M847,162.5h.7V146H847v16.5Z" class="g1_8" />
<path fill-rule="evenodd" d="M163.6,179H847V162.5H163.6V179Z" class="g0_8" />
<path fill-rule="evenodd" d="M160.3,179h3.3V162.5h-3.3V179Z" class="g1_8" />
<path fill-rule="evenodd" d="M847,179h.7V162.5H847V179Z" class="g1_8" />
<path fill-rule="evenodd" d="M163.6,195.5H847V179H163.6v16.5Z" class="g0_8" />
<path fill-rule="evenodd" d="M160.3,195.5h3.3V179h-3.3v16.5Z" class="g1_8" />
<path fill-rule="evenodd" d="M847,195.5h.7V179H847v16.5Z" class="g1_8" />
<path fill-rule="evenodd" d="M163.6,212H847V195.5H163.6V212Z" class="g0_8" />
<path fill-rule="evenodd" d="M160.3,212h3.3V195.5h-3.3V212Z" class="g1_8" />
<path fill-rule="evenodd" d="M847,212h.7V195.5H847V212Z" class="g1_8" />
<path fill-rule="evenodd" d="M163.6,228.3H847V212H163.6v16.3Z" class="g0_8" />
<path fill-rule="evenodd" d="M160.3,228.3h3.3V212h-3.3v16.3Z" class="g1_8" />
<path fill-rule="evenodd" d="M847,228.3h.7V212H847v16.3Z" class="g1_8" />
<path fill-rule="evenodd" d="M163.6,244.8H847V228.3H163.6v16.5Z" class="g0_8" />
<path fill-rule="evenodd" d="M160.3,244.8h3.3V228.3h-3.3v16.5Z" class="g1_8" />
<path fill-rule="evenodd" d="M847,244.8h.7V228.3H847v16.5Z" class="g1_8" />
<path fill-rule="evenodd" d="M163.6,261.3H847V244.8H163.6v16.5Z" class="g0_8" />
<path fill-rule="evenodd" d="M160.3,261.3h3.3V244.8h-3.3v16.5Z" class="g1_8" />
<path fill-rule="evenodd" d="M847,261.3h.7V244.8H847v16.5Z" class="g1_8" />
<path fill-rule="evenodd" d="M163.6,277.8H847V261.3H163.6v16.5Z" class="g0_8" />
<path fill-rule="evenodd" d="M160.3,277.8h3.3V261.3h-3.3v16.5Z" class="g1_8" />
<path fill-rule="evenodd" d="M847,277.8h.7V261.3H847v16.5Z" class="g1_8" />
<path fill-rule="evenodd" d="M163.6,294.3H847V277.8H163.6v16.5Z" class="g0_8" />
<path fill-rule="evenodd" d="M160.3,294.3h3.3V277.8h-3.3v16.5Z" class="g1_8" />
<path fill-rule="evenodd" d="M847,294.3h.7V277.8H847v16.5Z" class="g1_8" />
<path fill-rule="evenodd" d="M163.6,310.8H847V294.3H163.6v16.5Z" class="g0_8" />
<path fill-rule="evenodd" d="M160.3,310.8h3.3V294.3h-3.3v16.5Z" class="g1_8" />
<path fill-rule="evenodd" d="M847,310.8h.7V294.3H847v16.5Z" class="g1_8" />
<path fill-rule="evenodd" d="M163.6,327.1H847V310.8H163.6v16.3Z" class="g0_8" />
<path fill-rule="evenodd" d="M160.3,327.1h3.3V310.8h-3.3v16.3Z" class="g1_8" />
<path fill-rule="evenodd" d="M847,327.1h.7V310.8H847v16.3Z" class="g1_8" />
<path fill-rule="evenodd" d="M163.6,343.6H847V327.1H163.6v16.5Z" class="g0_8" />
<path fill-rule="evenodd" d="M160.3,343.6h3.3V327.1h-3.3v16.5Z" class="g1_8" />
<path fill-rule="evenodd" d="M847,343.6h.7V327.1H847v16.5Z" class="g1_8" />
<path fill-rule="evenodd" d="M163.6,360.1H847V343.6H163.6v16.5Z" class="g0_8" />
<path fill-rule="evenodd" d="M160.3,360.1h3.3V343.6h-3.3v16.5Z" class="g1_8" />
<path fill-rule="evenodd" d="M847,360.1h.7V343.6H847v16.5Z" class="g1_8" />
<path fill-rule="evenodd" d="M163.6,385.8H847V360.1H163.6v25.7Z" class="g0_8" />
<path fill-rule="evenodd" d="M160.3,386.5H847v-.7H160.3v.7Z" class="g1_8" />
<path fill-rule="evenodd" d="M847,386.5h.7v-.7H847v.7Z" class="g1_8" />
<path fill-rule="evenodd" d="M847,386.5h.7v-.7H847v.7Z" class="g1_8" />
<path fill-rule="evenodd" d="M160.3,385.8h3.3V360.1h-3.3v25.7Z" class="g1_8" />
<path fill-rule="evenodd" d="M847,385.8h.7V360.1H847v25.7Z" class="g1_8" />
<path fill-rule="evenodd" d="M127.8,519.8H847v-.3H127.8v.3Z" class="g1_8" />
<image preserveAspectRatio="none" x="130" y="560" width="246" height="17" xlink:href="img/2.png" />
<path fill-rule="evenodd" d="M163.6,767.7H847V742.1H163.6v25.6Z" class="g0_8" />
<path fill-rule="evenodd" d="M160.3,742.1H847v-.8H160.3v.8Z" class="g1_8" />
<path fill-rule="evenodd" d="M847,742.1h.7v-.8H847v.8Z" class="g1_8" />
<path fill-rule="evenodd" d="M847,742.1h.7v-.8H847v.8Z" class="g1_8" />
<path fill-rule="evenodd" d="M160.3,767.7h3.3V742.1h-3.3v25.6Z" class="g1_8" />
<path fill-rule="evenodd" d="M847,767.7h.7V742.1H847v25.6Z" class="g1_8" />
<path fill-rule="evenodd" d="M163.6,784.2H847V767.7H163.6v16.5Z" class="g0_8" />
<path fill-rule="evenodd" d="M160.3,784.2h3.3V767.7h-3.3v16.5Z" class="g1_8" />
<path fill-rule="evenodd" d="M847,784.2h.7V767.7H847v16.5Z" class="g1_8" />
<path fill-rule="evenodd" d="M163.6,800.7H847V784.2H163.6v16.5Z" class="g0_8" />
<path fill-rule="evenodd" d="M160.3,800.7h3.3V784.2h-3.3v16.5Z" class="g1_8" />
<path fill-rule="evenodd" d="M847,800.7h.7V784.2H847v16.5Z" class="g1_8" />
<path fill-rule="evenodd" d="M163.6,817.2H847V800.7H163.6v16.5Z" class="g0_8" />
<path fill-rule="evenodd" d="M160.3,817.2h3.3V800.7h-3.3v16.5Z" class="g1_8" />
<path fill-rule="evenodd" d="M847,817.2h.7V800.7H847v16.5Z" class="g1_8" />
<path fill-rule="evenodd" d="M163.6,833.7H847V817.2H163.6v16.5Z" class="g0_8" />
<path fill-rule="evenodd" d="M160.3,833.7h3.3V817.2h-3.3v16.5Z" class="g1_8" />
<path fill-rule="evenodd" d="M847,833.7h.7V817.2H847v16.5Z" class="g1_8" />
<path fill-rule="evenodd" d="M163.6,850H847V833.7H163.6V850Z" class="g0_8" />
<path fill-rule="evenodd" d="M160.3,850h3.3V833.7h-3.3V850Z" class="g1_8" />
<path fill-rule="evenodd" d="M847,850h.7V833.7H847V850Z" class="g1_8" />
<path fill-rule="evenodd" d="M163.6,866.5H847V850H163.6v16.5Z" class="g0_8" />
<path fill-rule="evenodd" d="M160.3,866.5h3.3V850h-3.3v16.5Z" class="g1_8" />
<path fill-rule="evenodd" d="M847,866.5h.7V850H847v16.5Z" class="g1_8" />
<path fill-rule="evenodd" d="M163.6,883H847V866.5H163.6V883Z" class="g0_8" />
<path fill-rule="evenodd" d="M160.3,883h3.3V866.5h-3.3V883Z" class="g1_8" />
<path fill-rule="evenodd" d="M847,883h.7V866.5H847V883Z" class="g1_8" />
<path fill-rule="evenodd" d="M163.6,899.5H847V883H163.6v16.5Z" class="g0_8" />
<path fill-rule="evenodd" d="M160.3,899.5h3.3V883h-3.3v16.5Z" class="g1_8" />
<path fill-rule="evenodd" d="M847,899.5h.7V883H847v16.5Z" class="g1_8" />
<path fill-rule="evenodd" d="M163.6,916H847V899.5H163.6V916Z" class="g0_8" />
<path fill-rule="evenodd" d="M160.3,916h3.3V899.5h-3.3V916Z" class="g1_8" />
<path fill-rule="evenodd" d="M847,916h.7V899.5H847V916Z" class="g1_8" />
<path fill-rule="evenodd" d="M163.6,932.5H847V916H163.6v16.5Z" class="g0_8" />
<path fill-rule="evenodd" d="M160.3,932.5h3.3V916h-3.3v16.5Z" class="g1_8" />
<path fill-rule="evenodd" d="M847,932.5h.7V916H847v16.5Z" class="g1_8" />
<path fill-rule="evenodd" d="M163.6,948.9H847V932.5H163.6v16.4Z" class="g0_8" />
<path fill-rule="evenodd" d="M160.3,948.9h3.3V932.5h-3.3v16.4Z" class="g1_8" />
<path fill-rule="evenodd" d="M847,948.9h.7V932.5H847v16.4Z" class="g1_8" />
<path fill-rule="evenodd" d="M163.6,965.4H847V948.9H163.6v16.5Z" class="g0_8" />
<path fill-rule="evenodd" d="M160.3,965.4h3.3V948.9h-3.3v16.5Z" class="g1_8" />
<path fill-rule="evenodd" d="M847,965.4h.7V948.9H847v16.5Z" class="g1_8" />
<path fill-rule="evenodd" d="M163.6,981.9H847V965.4H163.6v16.5Z" class="g0_8" />
<path fill-rule="evenodd" d="M160.3,981.9h3.3V965.4h-3.3v16.5Z" class="g1_8" />
<path fill-rule="evenodd" d="M847,981.9h.7V965.4H847v16.5Z" class="g1_8" />
<path fill-rule="evenodd" d="M163.6,998.4H847V981.9H163.6v16.5Z" class="g0_8" />
<path fill-rule="evenodd" d="M160.3,998.4h3.3V981.9h-3.3v16.5Z" class="g1_8" />
<path fill-rule="evenodd" d="M847,998.4h.7V981.9H847v16.5Z" class="g1_8" />
<path fill-rule="evenodd" d="M163.6,1014.9H847V998.4H163.6v16.5Z" class="g0_8" />
<path fill-rule="evenodd" d="M160.3,1014.9h3.3V998.4h-3.3v16.5Z" class="g1_8" />
<path fill-rule="evenodd" d="M847,1014.9h.7V998.4H847v16.5Z" class="g1_8" />
<path fill-rule="evenodd" d="M163.6,1031.4H847v-16.5H163.6v16.5Z" class="g0_8" />
<path fill-rule="evenodd" d="M160.3,1031.4h3.3v-16.5h-3.3v16.5Z" class="g1_8" />
<path fill-rule="evenodd" d="M847,1031.4h.7v-16.5H847v16.5Z" class="g1_8" />
<path fill-rule="evenodd" d="M163.6,1047.7H847v-16.3H163.6v16.3Z" class="g0_8" />
<path fill-rule="evenodd" d="M160.3,1047.7h3.3v-16.3h-3.3v16.3Z" class="g1_8" />
<path fill-rule="evenodd" d="M847,1047.7h.7v-16.3H847v16.3Z" class="g1_8" />
<path fill-rule="evenodd" d="M163.6,1064.2H847v-16.5H163.6v16.5Z" class="g0_8" />
<path fill-rule="evenodd" d="M160.3,1064.2h3.3v-16.5h-3.3v16.5Z" class="g1_8" />
<path fill-rule="evenodd" d="M847,1064.2h.7v-16.5H847v16.5Z" class="g1_8" />
<path fill-rule="evenodd" d="M163.6,1080.7H847v-16.5H163.6v16.5Z" class="g0_8" />
<path fill-rule="evenodd" d="M160.3,1080.7h3.3v-16.5h-3.3v16.5Z" class="g1_8" />
<path fill-rule="evenodd" d="M847,1080.7h.7v-16.5H847v16.5Z" class="g1_8" />
<path fill-rule="evenodd" d="M163.6,1097.2H847v-16.5H163.6v16.5Z" class="g0_8" />
<path fill-rule="evenodd" d="M160.3,1097.2h3.3v-16.5h-3.3v16.5Z" class="g1_8" />
<path fill-rule="evenodd" d="M847,1097.2h.7v-16.5H847v16.5Z" class="g1_8" />
<path fill-rule="evenodd" d="M163.6,1113.7H847v-16.5H163.6v16.5Z" class="g0_8" />
<path fill-rule="evenodd" d="M160.3,1113.7h3.3v-16.5h-3.3v16.5Z" class="g1_8" />
<path fill-rule="evenodd" d="M847,1113.7h.7v-16.5H847v16.5Z" class="g1_8" />
<path fill-rule="evenodd" d="M163.6,1130.2H847v-16.5H163.6v16.5Z" class="g0_8" />
<path fill-rule="evenodd" d="M160.3,1130.2h3.3v-16.5h-3.3v16.5Z" class="g1_8" />
<path fill-rule="evenodd" d="M847,1130.2h.7v-16.5H847v16.5Z" class="g1_8" />
<path fill-rule="evenodd" d="M163.6,1146.7H847v-16.5H163.6v16.5Z" class="g0_8" />
<path fill-rule="evenodd" d="M160.3,1146.7h3.3v-16.5h-3.3v16.5Z" class="g1_8" />
<path fill-rule="evenodd" d="M847,1146.7h.7v-16.5H847v16.5Z" class="g1_8" />
<path fill-rule="evenodd" d="M163.6,1163H847v-16.3H163.6V1163Z" class="g0_8" />
<path fill-rule="evenodd" d="M160.3,1163h3.3v-16.3h-3.3V1163Z" class="g1_8" />
<path fill-rule="evenodd" d="M847,1163h.7v-16.3H847V1163Z" class="g1_8" />
<path fill-rule="evenodd" d="M163.6,1179.5H847V1163H163.6v16.5Z" class="g0_8" />
<path fill-rule="evenodd" d="M160.3,1179.5h3.3V1163h-3.3v16.5Z" class="g1_8" />
<path fill-rule="evenodd" d="M847,1179.5h.7V1163H847v16.5Z" class="g1_8" />
<path fill-rule="evenodd" d="M163.6,1205.2H847v-25.7H163.6v25.7Z" class="g0_8" />
<path fill-rule="evenodd" d="M160.3,1205.9H847v-.7H160.3v.7Z" class="g1_8" />
<path fill-rule="evenodd" d="M847,1205.9h.7v-.7H847v.7Z" class="g1_8" />
<path fill-rule="evenodd" d="M847,1205.9h.7v-.7H847v.7Z" class="g1_8" />
<path fill-rule="evenodd" d="M160.3,1205.2h3.3v-25.7h-3.3v25.7Z" class="g1_8" />
<path fill-rule="evenodd" d="M847,1205.2h.7v-25.7H847v25.7Z" class="g1_8" />
</svg>