<?xml version="1.0" encoding="UTF-8" standalone="no"?>
<!DOCTYPE svg PUBLIC "-//W3C//DTD SVG 1.1//EN"
"http://www.w3.org/Graphics/SVG/1.1/DTD/svg11.dtd">
<svg viewBox="0 0 909 1286" version="1.1" xmlns="http://www.w3.org/2000/svg" xmlns:xlink="http://www.w3.org/1999/xlink">
<defs>
<clipPath id="c0_55"><path d="M96.4,1201.4v-15.5h33v15.5Z" /></clipPath>
<style type="text/css"><![CDATA[
.g0_55{
fill: none;
stroke: #000000;
stroke-width: 4.201389;
stroke-linecap: butt;
stroke-linejoin: round;
}
.g1_55{
fill: #5EB28E;
fill-opacity: 0.6;
}
.g2_55{
fill: #FFFFFF;
}
.g3_55{
}
.g4_55{
fill: #16AAD3;
}
]]></style>
</defs>
<path d="M841.2,1171.7H796.5" class="g0_55" />
<path fill-rule="evenodd" d="M111.9,1174c-11.5,0,-20.8,9.3,-20.8,20.8c0,11.5,9.3,20.8,20.8,20.8c11.5,0,20.8,-9.3,20.8,-20.8c0,-11.5,-9.3,-20.8,-20.8,-20.8Z" class="g1_55" />
<path d="M116.9,1199.3c0,.1,.2,.3,.4,.3q1.9,0,1.9,0c.1,0,.3,-.2,.3,-.3q0,-.7,0,-.7q0,-.1,0,-.1q0,-7.1,0,-7.1q0,-.1,0,-.1q0,-.7,0,-.7c0,-.2,-.2,-.4,-.3,-.4q-1.9,0,-1.9,0c-.2,0,-.4,.2,-.4,.4q0,.5,0,.5q0,7.6,0,7.6v.6Z" class="g2_55" />
<g clip-path="url(#c0_55)">
<path d="M115.7,1195.4q0,-4.8,0,-4.8c0,-.2,-.1,-.4,-.3,-.4q-2,0,-2,0c-.1,0,-.2,.2,-.2,.4q0,4.4,0,4.4c0,1.7,-1,2.5,-2,2.4c-1,.1,-2,-.7,-1.9,-2.4q0,-4.4,0,-4.4c0,-.2,-.1,-.4,-.3,-.4q-1.9,0,-1.9,0c-.2,0,-.3,.2,-.3,.4q0,3.6,0,3.6c-.4,-2.4,-2.6,-4.2,-5.2,-4.2c-2.9,0,-5.2,2.2,-5.2,5c0,2.7,2.3,4.9,5.2,4.9c.2,0,.8,0,.9,0q2.1,1.4,2.1,1.4c.2,.1,.4,.1,.4,-.2q0,-2.4,0,-2.4c.9,-.7,1.6,-1.8,1.8,-3.1c.1,2.9,2.3,4.3,4.4,4.2c2.2,.1,4.5,-1.4,4.5,-4.4Zm-14.1,2.2c-1.5,0,-2.8,-1.2,-2.8,-2.6c0,-1.5,1.3,-2.7,2.8,-2.7c1.5,0,2.8,1.2,2.8,2.7c0,1.4,-1.3,2.6,-2.8,2.6Z" class="g2_55" />
</g>
<path d="M118.2,1186.7c-.8,0,-1.4,.6,-1.4,1.4c0,.7,.6,1.3,1.4,1.3c.8,0,1.4,-.6,1.4,-1.3c0,-.8,-.6,-1.4,-1.4,-1.4Z" class="g2_55" />
<path d="M129.3,1199q-3.4,-4.4,-3.4,-4.4q3,-3.8,3,-3.8c.1,-.1,.1,-.5,-.1,-.6c-.5,0,-1.3,0,-2.2,0c-.1,0,-.2,.1,-.4,.3q-2.9,3.7,-2.9,3.7c0,-2.7,0,-5.4,0,-8c0,-.2,-.2,-.2,-.3,-.1c-.7,.4,-1.3,.9,-2,1.3c-.2,.1,-.2,.3,-.2,.5q0,.6,0,.6q0,.7,0,.7q0,.1,0,.1q0,9.2,0,9.2q0,.1,0,.1q0,.7,0,.7c0,.1,.1,.3,.2,.3q2,0,2,0c.1,0,.3,-.2,.3,-.3q0,-.6,0,-.6q0,-3.5,0,-3.5q3.2,4.2,3.2,4.2c.1,.2,.2,.2,.4,.2c.8,0,1.8,0,2.2,0c.3,-.1,.3,-.5,.2,-.6Z" class="g2_55" />
<path fill-rule="evenodd" d="M88,192.3H361.4v-4.5H88v4.5Z" class="g3_55" />
<path fill-rule="evenodd" d="M361.4,192.3H366v-4.5h-4.6v4.5Z" class="g3_55" />
<path fill-rule="evenodd" d="M366,192.3h70.4v-4.5H366v4.5Z" class="g3_55" />
<path fill-rule="evenodd" d="M436.4,192.3H441v-4.5h-4.6v4.5Z" class="g3_55" />
<path fill-rule="evenodd" d="M441,192.3H846.2v-4.5H441v4.5Z" class="g3_55" />
<path fill-rule="evenodd" d="M445.2,250.3H590.6v-.9H445.2v.9Z" class="g4_55" />
<path fill-rule="evenodd" d="M88,226.8H361.4v-.7H88v.7Z" class="g3_55" />
<path fill-rule="evenodd" d="M361.4,226.8h.8v-.7h-.8v.7Z" class="g3_55" />
<path fill-rule="evenodd" d="M362.2,226.8h74.2v-.7H362.2v.7Z" class="g3_55" />
<path fill-rule="evenodd" d="M436.4,226.8h.7v-.7h-.7v.7Z" class="g3_55" />
<path fill-rule="evenodd" d="M437.1,226.8H846.2v-.7H437.1v.7Z" class="g3_55" />
<path fill-rule="evenodd" d="M88,261.3H361.4v-.8H88v.8Z" class="g3_55" />
<path fill-rule="evenodd" d="M361.4,261.3h.8v-.8h-.8v.8Z" class="g3_55" />
<path fill-rule="evenodd" d="M362.2,261.3h74.2v-.8H362.2v.8Z" class="g3_55" />
<path fill-rule="evenodd" d="M436.4,261.3h.7v-.8h-.7v.8Z" class="g3_55" />
<path fill-rule="evenodd" d="M437.1,261.3H846.2v-.8H437.1v.8Z" class="g3_55" />
<path fill-rule="evenodd" d="M88,295.9H361.4v-.7H88v.7Z" class="g3_55" />
<path fill-rule="evenodd" d="M361.4,295.9h.8v-.7h-.8v.7Z" class="g3_55" />
<path fill-rule="evenodd" d="M362.2,295.9h74.2v-.7H362.2v.7Z" class="g3_55" />
<path fill-rule="evenodd" d="M436.4,295.9h.7v-.7h-.7v.7Z" class="g3_55" />
<path fill-rule="evenodd" d="M437.1,295.9H846.2v-.7H437.1v.7Z" class="g3_55" />
<path fill-rule="evenodd" d="M88,330.4H361.4v-.7H88v.7Z" class="g3_55" />
<path fill-rule="evenodd" d="M361.4,330.4h.8v-.7h-.8v.7Z" class="g3_55" />
<path fill-rule="evenodd" d="M362.2,330.4h74.2v-.7H362.2v.7Z" class="g3_55" />
<path fill-rule="evenodd" d="M436.4,330.4h.7v-.7h-.7v.7Z" class="g3_55" />
<path fill-rule="evenodd" d="M437.1,330.4H846.2v-.7H437.1v.7Z" class="g3_55" />
<path fill-rule="evenodd" d="M88,364.9H361.4v-.8H88v.8Z" class="g3_55" />
<path fill-rule="evenodd" d="M361.4,364.9h.8v-.8h-.8v.8Z" class="g3_55" />
<path fill-rule="evenodd" d="M362.2,364.9h74.2v-.8H362.2v.8Z" class="g3_55" />
<path fill-rule="evenodd" d="M436.4,364.9h.7v-.8h-.7v.8Z" class="g3_55" />
<path fill-rule="evenodd" d="M437.1,364.9H846.2v-.8H437.1v.8Z" class="g3_55" />
<path fill-rule="evenodd" d="M88,399.3H361.4v-.7H88v.7Z" class="g3_55" />
<path fill-rule="evenodd" d="M361.4,399.3h.8v-.7h-.8v.7Z" class="g3_55" />
<path fill-rule="evenodd" d="M362.2,399.3h74.2v-.7H362.2v.7Z" class="g3_55" />
<path fill-rule="evenodd" d="M436.4,399.3h.7v-.7h-.7v.7Z" class="g3_55" />
<path fill-rule="evenodd" d="M437.1,399.3H846.2v-.7H437.1v.7Z" class="g3_55" />
<path fill-rule="evenodd" d="M88,433.8H361.4v-.7H88v.7Z" class="g3_55" />
<path fill-rule="evenodd" d="M361.4,433.8h.8v-.7h-.8v.7Z" class="g3_55" />
<path fill-rule="evenodd" d="M362.2,433.8h74.2v-.7H362.2v.7Z" class="g3_55" />
<path fill-rule="evenodd" d="M436.4,433.8h.7v-.7h-.7v.7Z" class="g3_55" />
<path fill-rule="evenodd" d="M437.1,433.8H846.2v-.7H437.1v.7Z" class="g3_55" />
<path fill-rule="evenodd" d="M88,468.5H361.4v-.7H88v.7Z" class="g3_55" />
<path fill-rule="evenodd" d="M361.4,468.5h.8v-.7h-.8v.7Z" class="g3_55" />
<path fill-rule="evenodd" d="M362.2,468.5h74.2v-.7H362.2v.7Z" class="g3_55" />
<path fill-rule="evenodd" d="M436.4,468.5h.7v-.7h-.7v.7Z" class="g3_55" />
<path fill-rule="evenodd" d="M437.1,468.5H846.2v-.7H437.1v.7Z" class="g3_55" />
<path fill-rule="evenodd" d="M88,503H361.4v-.8H88v.8Z" class="g3_55" />
<path fill-rule="evenodd" d="M361.4,503h.8v-.8h-.8v.8Z" class="g3_55" />
<path fill-rule="evenodd" d="M362.2,503h74.2v-.8H362.2v.8Z" class="g3_55" />
<path fill-rule="evenodd" d="M436.4,503h.7v-.8h-.7v.8Z" class="g3_55" />
<path fill-rule="evenodd" d="M437.1,503H846.2v-.8H437.1v.8Z" class="g3_55" />
<path fill-rule="evenodd" d="M88,537.4H361.4v-.7H88v.7Z" class="g3_55" />
<path fill-rule="evenodd" d="M361.4,537.4h.8v-.7h-.8v.7Z" class="g3_55" />
<path fill-rule="evenodd" d="M362.2,537.4h74.2v-.7H362.2v.7Z" class="g3_55" />
<path fill-rule="evenodd" d="M436.4,537.4h.7v-.7h-.7v.7Z" class="g3_55" />
<path fill-rule="evenodd" d="M437.1,537.4H846.2v-.7H437.1v.7Z" class="g3_55" />
<path fill-rule="evenodd" d="M88,571.9H361.4v-.7H88v.7Z" class="g3_55" />
<path fill-rule="evenodd" d="M361.4,571.9h.8v-.7h-.8v.7Z" class="g3_55" />
<path fill-rule="evenodd" d="M362.2,571.9h74.2v-.7H362.2v.7Z" class="g3_55" />
<path fill-rule="evenodd" d="M436.4,571.9h.7v-.7h-.7v.7Z" class="g3_55" />
<path fill-rule="evenodd" d="M437.1,571.9H846.2v-.7H437.1v.7Z" class="g3_55" />
<path fill-rule="evenodd" d="M88,606.5H361.4v-.7H88v.7Z" class="g3_55" />
<path fill-rule="evenodd" d="M361.4,606.5h.8v-.7h-.8v.7Z" class="g3_55" />
<path fill-rule="evenodd" d="M362.2,606.5h74.2v-.7H362.2v.7Z" class="g3_55" />
<path fill-rule="evenodd" d="M436.4,606.5h.7v-.7h-.7v.7Z" class="g3_55" />
<path fill-rule="evenodd" d="M437.1,606.5H846.2v-.7H437.1v.7Z" class="g3_55" />
<path fill-rule="evenodd" d="M88,641H361.4v-.7H88v.7Z" class="g3_55" />
<path fill-rule="evenodd" d="M361.4,641h.8v-.7h-.8v.7Z" class="g3_55" />
<path fill-rule="evenodd" d="M362.2,641h74.2v-.7H362.2v.7Z" class="g3_55" />
<path fill-rule="evenodd" d="M436.4,641h.7v-.7h-.7v.7Z" class="g3_55" />
<path fill-rule="evenodd" d="M437.1,641H846.2v-.7H437.1v.7Z" class="g3_55" />
<path fill-rule="evenodd" d="M445.2,698.9h84.9V698H445.2v.9Z" class="g4_55" />
<path fill-rule="evenodd" d="M88,675.5H361.4v-.8H88v.8Z" class="g3_55" />
<path fill-rule="evenodd" d="M361.4,675.5h.8v-.8h-.8v.8Z" class="g3_55" />
<path fill-rule="evenodd" d="M362.2,675.5h74.2v-.8H362.2v.8Z" class="g3_55" />
<path fill-rule="evenodd" d="M436.4,675.5h.7v-.8h-.7v.8Z" class="g3_55" />
<path fill-rule="evenodd" d="M437.1,675.5H846.2v-.8H437.1v.8Z" class="g3_55" />
<path fill-rule="evenodd" d="M88,710H361.4v-.8H88v.8Z" class="g3_55" />
<path fill-rule="evenodd" d="M361.4,710h.8v-.8h-.8v.8Z" class="g3_55" />
<path fill-rule="evenodd" d="M362.2,710h74.2v-.8H362.2v.8Z" class="g3_55" />
<path fill-rule="evenodd" d="M436.4,710h.7v-.8h-.7v.8Z" class="g3_55" />
<path fill-rule="evenodd" d="M437.1,710H846.2v-.8H437.1v.8Z" class="g3_55" />
<path fill-rule="evenodd" d="M88,795.2H361.4v-.7H88v.7Z" class="g3_55" />
<path fill-rule="evenodd" d="M361.4,795.2h.8v-.7h-.8v.7Z" class="g3_55" />
<path fill-rule="evenodd" d="M362.2,795.2h74.2v-.7H362.2v.7Z" class="g3_55" />
<path fill-rule="evenodd" d="M436.4,795.2h.7v-.7h-.7v.7Z" class="g3_55" />
<path fill-rule="evenodd" d="M437.1,795.2H846.2v-.7H437.1v.7Z" class="g3_55" />
<path fill-rule="evenodd" d="M88,829.7H361.4V829H88v.7Z" class="g3_55" />
<path fill-rule="evenodd" d="M361.4,829.7h.8V829h-.8v.7Z" class="g3_55" />
<path fill-rule="evenodd" d="M362.2,829.7h74.2V829H362.2v.7Z" class="g3_55" />
<path fill-rule="evenodd" d="M436.4,829.7h.7V829h-.7v.7Z" class="g3_55" />
<path fill-rule="evenodd" d="M437.1,829.7H846.2V829H437.1v.7Z" class="g3_55" />
<path fill-rule="evenodd" d="M88,864.2H361.4v-.8H88v.8Z" class="g3_55" />
<path fill-rule="evenodd" d="M361.4,864.2h.8v-.8h-.8v.8Z" class="g3_55" />
<path fill-rule="evenodd" d="M362.2,864.2h74.2v-.8H362.2v.8Z" class="g3_55" />
<path fill-rule="evenodd" d="M436.4,864.2h.7v-.8h-.7v.8Z" class="g3_55" />
<path fill-rule="evenodd" d="M437.1,864.2H846.2v-.8H437.1v.8Z" class="g3_55" />
<path fill-rule="evenodd" d="M86.9,898.6H361.4v-.7H86.9v.7Z" class="g3_55" />
<path fill-rule="evenodd" d="M360.3,898.6h.8v-.7h-.8v.7Z" class="g3_55" />
<path fill-rule="evenodd" d="M361.1,898.6h75.3v-.7H361.1v.7Z" class="g3_55" />
<path fill-rule="evenodd" d="M435.3,898.6h.7v-.7h-.7v.7Z" class="g3_55" />
<path fill-rule="evenodd" d="M436,898.6H846.2v-.7H436v.7Z" class="g3_55" />
<path fill-rule="evenodd" d="M88,1066.4H361.4v-4.6H88v4.6Z" class="g3_55" />
<path fill-rule="evenodd" d="M361.4,1066.4H366v-4.6h-4.6v4.6Z" class="g3_55" />
<path fill-rule="evenodd" d="M366,1066.4h66v-4.6H366v4.6Z" class="g3_55" />
<path fill-rule="evenodd" d="M432,1066.4h4.6v-4.6H432v4.6Z" class="g3_55" />
<path fill-rule="evenodd" d="M436.6,1066.4H846.2v-4.6H436.6v4.6Z" class="g3_55" />
<path fill-rule="evenodd" d="M88,1100.9H361.4v-.7H88v.7Z" class="g3_55" />
<path fill-rule="evenodd" d="M361.4,1100.9h.8v-.7h-.8v.7Z" class="g3_55" />
<path fill-rule="evenodd" d="M362.2,1100.9H432v-.7H362.2v.7Z" class="g3_55" />
<path fill-rule="evenodd" d="M432,1100.9h.7v-.7H432v.7Z" class="g3_55" />
<path fill-rule="evenodd" d="M432.7,1100.9H846.2v-.7H432.7v.7Z" class="g3_55" />
<path fill-rule="evenodd" d="M86.9,1135.5H361.4v-.7H86.9v.7Z" class="g3_55" />
<path fill-rule="evenodd" d="M360.3,1135.5h.8v-.7h-.8v.7Z" class="g3_55" />
<path fill-rule="evenodd" d="M361.1,1135.5H432v-.7H361.1v.7Z" class="g3_55" />
<path fill-rule="evenodd" d="M430.9,1135.5h.7v-.7h-.7v.7Z" class="g3_55" />
<path fill-rule="evenodd" d="M431.6,1135.5H846.2v-.7H431.6v.7Z" class="g3_55" />
</svg>