<svg width="80px" height="80px" viewBox="0 0 80 80" version="1.1" xmlns="http://www.w3.org/2000/svg" xmlns:xlink="http://www.w3.org/1999/xlink">
    <defs>
        <linearGradient x1="50%" y1="2.04081633%" x2="50%" y2="97.4489796%" id="linearGradient-1">
            <stop stop-color="#07CCFF" offset="0%"></stop>
            <stop stop-color="#71E2FF" offset="100%"></stop>
        </linearGradient>
        <polygon id="path-2" points="0 80 80 80 80 0 0 0"></polygon>
    </defs>
    <g id="Page-1" stroke="none" stroke-width="1" fill="none" fill-rule="evenodd">
        <g id="vod-vivod-deneg">
            <g id="Page-1">
                <g id="Group-3" fill="url(#linearGradient-1)">
                    <path d="M80.0004,39.9998 C80.0004,62.0918 62.0914,79.9998 40.0004,79.9998 C17.9084,79.9998 0.0004,62.0918 0.0004,39.9998 C0.0004,17.9088 17.9084,-0.0002 40.0004,-0.0002 C62.0914,-0.0002 80.0004,17.9088 80.0004,39.9998" id="Fill-1"></path>
                </g>
                <mask id="mask-3" fill="white">
                    <use xlink:href="#path-2"></use>
                </mask>
                <g id="Clip-5"></g>
                <polygon id="Stroke-4" stroke="#FFFFFF" stroke-width="2" stroke-linecap="round" stroke-linejoin="round" mask="url(#mask-3)" points="19.345 59.805 60.655 59.805 60.655 37.609 19.345 37.609"></polygon>
                <path d="M40.0004,42.3402 C36.4714,42.3402 33.6104,45.1912 33.6104,48.7072 C33.6104,52.2242 36.4714,55.0742 40.0004,55.0742 C43.5284,55.0742 46.3894,52.2242 46.3894,48.7072 C46.3894,45.1912 43.5284,42.3402 40.0004,42.3402 M40.0004,44.3402 C42.4204,44.3402 44.3894,46.2992 44.3894,48.7072 C44.3894,51.1152 42.4204,53.0742 40.0004,53.0742 C37.5794,53.0742 35.6104,51.1152 35.6104,48.7072 C35.6104,46.2992 37.5794,44.3402 40.0004,44.3402" id="Fill-6" fill="#FFFFFF" mask="url(#mask-3)"></path>
                <path d="M53.7612,41.7327 L45.3532,41.7327 L45.4582,41.7327 L26.2392,41.7327 C26.2392,41.7327 26.2392,43.8017 23.7222,44.2547 L23.7222,53.1597 C26.2392,53.6127 26.2392,55.6827 26.2392,55.6827 L53.7612,55.6827 C53.7612,55.6827 53.7612,53.6127 56.2782,53.1597 L56.2782,44.2547 C53.7612,43.8017 53.7612,41.7327 53.7612,41.7327 M52.2942,43.7327 C52.6802,44.4597 53.3082,45.1797 54.2782,45.6797 L54.2782,51.7347 C53.3082,52.2347 52.6802,52.9557 52.2942,53.6827 L27.7052,53.6827 C27.3202,52.9557 26.6922,52.2347 25.7222,51.7347 L25.7222,45.6797 C26.6922,45.1797 27.3202,44.4597 27.7052,43.7327 L45.3532,43.7327 L52.2942,43.7327 M28.2392,41.7327 L28.2432,41.7327 L28.2392,41.7327" id="Fill-7" fill="#FFFFFF" mask="url(#mask-3)"></path>
                <polygon id="Stroke-8" stroke="#FFFFFF" stroke-width="2" stroke-linecap="round" stroke-linejoin="round" mask="url(#mask-3)" points="33.3051 32.2948 33.3051 26.6698 37.0751 26.6698 30.4791 16.1948 24.0751 26.7178 27.2271 26.7178 27.2271 32.2928"></polygon>
                <polygon id="Stroke-9" stroke="#FFFFFF" stroke-width="2" stroke-linecap="round" stroke-linejoin="round" mask="url(#mask-3)" points="52.1567 16.1947 52.1567 21.8187 55.9267 21.8187 49.3307 32.2947 42.9267 21.7707 46.0787 21.7707 46.0787 16.1967"></polygon>
            </g>
        </g>
    </g>
</svg>
