<svg width="80px" height="80px" viewBox="0 0 80 80" version="1.1" xmlns="http://www.w3.org/2000/svg" xmlns:xlink="http://www.w3.org/1999/xlink">
    <defs>
        <linearGradient x1="50%" y1="2.04081633%" x2="50%" y2="97.4489796%" id="linearGradient-1">
            <stop stop-color="#07CCFF" offset="0%"></stop>
            <stop stop-color="#71E2FF" offset="100%"></stop>
        </linearGradient>
    </defs>
    <g id="Page-1" stroke="none" stroke-width="1" fill="none" fill-rule="evenodd">
        <g id="start">
            <g id="Page-1">
                <g id="Group-3" fill="url(#linearGradient-1)">
                    <path d="M79.9996,39.9999 C79.9996,62.0909 62.0916,79.9999 39.9996,79.9999 C17.9086,79.9999 -0.0004,62.0909 -0.0004,39.9999 C-0.0004,17.9089 17.9086,-0.0001 39.9996,-0.0001 C62.0916,-0.0001 79.9996,17.9089 79.9996,39.9999" id="Fill-1"></path>
                </g>
                <path d="M48.8239,42.0507 C49.9399,42.1287 51.0929,42.2467 52.2789,42.4337 C52.2789,42.4337 54.4199,50.6457 49.0689,56.9277 C49.0689,56.9277 46.9209,53.7217 45.8959,50.4157" id="Stroke-4" stroke="#FFFFFF" stroke-width="2" stroke-linecap="round" stroke-linejoin="round"></path>
                <path d="M31.1432,42.0668 C30.0802,42.1448 28.8052,42.2628 27.7202,42.4338 C27.7202,42.4338 25.5812,50.6458 30.9312,56.9278 C30.9312,56.9278 33.1252,53.5658 34.1652,50.2938" id="Stroke-6" stroke="#FFFFFF" stroke-width="2" stroke-linecap="round" stroke-linejoin="round"></path>
                <path d="M47.5016,26.4496 C45.2116,19.0596 40.6396,13.7236 39.9986,12.9996 L39.9176,12.9996 C39.2756,13.7236 34.7046,19.0596 32.4136,26.4496 C29.9476,34.4066 31.1576,44.4466 32.4136,49.9426 C32.4136,49.9426 34.9026,50.5456 39.9176,50.6436 L39.9176,50.6456 C39.9316,50.6456 39.9426,50.6446 39.9576,50.6446 C39.9726,50.6446 39.9836,50.6456 39.9986,50.6456 L39.9986,50.6436 C45.0126,50.5456 47.5016,49.9426 47.5016,49.9426 C48.7586,44.4466 49.9686,34.4066 47.5016,26.4496 Z" id="Stroke-8" stroke="#FFFFFF" stroke-width="2" stroke-linecap="round" stroke-linejoin="round"></path>
                <path d="M45.4723,33.8017 C45.4723,36.8467 43.0033,39.3157 39.9573,39.3157 C36.9123,39.3157 34.4443,36.8467 34.4443,33.8017 C34.4443,30.7567 36.9123,28.2877 39.9573,28.2877 C43.0033,28.2877 45.4723,30.7567 45.4723,33.8017 Z" id="Stroke-10" stroke="#FFFFFF" stroke-width="2" stroke-linecap="round" stroke-linejoin="round"></path>
                <path d="M43.1871,60.2323 C43.5281,59.4723 43.7971,58.7423 43.7971,57.9433 C43.7971,55.8233 42.0791,54.1043 39.9581,54.1043 C37.8371,54.1043 36.1191,55.8233 36.1191,57.9433 C36.1191,58.5613 36.4881,59.7373 36.7481,60.2533 C36.7481,60.2533 39.5151,66.0943 39.9111,66.9053 C39.9091,66.9453 39.9071,66.9903 39.9041,66.9973 C39.9011,67.0073 39.9121,66.9863 39.9311,66.9473 C39.9501,66.9863 39.9611,67.0073 39.9581,66.9973 C39.9561,66.9903 39.9541,66.9453 39.9511,66.9053 C40.2851,66.2203 42.5341,61.6883 43.1871,60.2323 Z" id="Stroke-12" stroke="#FFFFFF" stroke-width="2" stroke-linecap="round" stroke-linejoin="round"></path>
            </g>
        </g>
    </g>
</svg>
