<?xml version="1.0" encoding="UTF-8" standalone="no"?>
<!DOCTYPE svg PUBLIC "-//W3C//DTD SVG 1.1//EN"
"http://www.w3.org/Graphics/SVG/1.1/DTD/svg11.dtd">
<svg viewBox="0 0 909 1286" version="1.1" xmlns="http://www.w3.org/2000/svg" xmlns:xlink="http://www.w3.org/1999/xlink">
<defs>
<clipPath id="c0_16"><path d="M96.3,1222.9v-15.4h33.1v15.4Z" /></clipPath>
<style type="text/css"><![CDATA[
.g0_16{
fill: none;
stroke: #000000;
stroke-width: 4.201389;
stroke-linecap: butt;
stroke-linejoin: round;
}
.g1_16{
fill: #5EB28E;
fill-opacity: 0.6;
}
.g2_16{
fill: #FFFFFF;
}
.g3_16{
fill: #F1F1F1;
}
]]></style>
</defs>
<path d="M840.5,1191.5H795.8" class="g0_16" />
<path fill-rule="evenodd" d="M111.8,1193.5c-11.5,0,-20.8,9.3,-20.8,20.8c0,11.5,9.3,20.8,20.8,20.8c11.5,0,20.8,-9.3,20.8,-20.8c0,-11.5,-9.3,-20.8,-20.8,-20.8Z" class="g1_16" />
<path d="M116.9,1220.8c0,.2,.1,.3,.3,.3q1.9,0,1.9,0c.2,0,.3,-.1,.3,-.3q0,-.7,0,-.7q0,-.1,0,-.1q0,-7.1,0,-7.1q0,-.1,0,-.1q0,-.7,0,-.7c0,-.2,-.1,-.3,-.3,-.3q-1.9,0,-1.9,0c-.2,0,-.3,.1,-.3,.3q0,.6,0,.6q0,7.5,0,7.5v.6Z" class="g2_16" />
<g clip-path="url(#c0_16)">
<path d="M115.6,1217q.1,-4.9,.1,-4.9c0,-.2,-.2,-.3,-.4,-.3q-1.9,0,-1.9,0c-.2,0,-.3,.1,-.3,.3q0,4.4,0,4.4c0,1.7,-.9,2.5,-1.9,2.4q-.1,0,-.1,0c-1,.1,-2,-.7,-1.9,-2.4q0,-4.4,0,-4.4c0,-.2,-.1,-.3,-.3,-.3q-1.9,0,-1.9,0c-.2,0,-.3,.1,-.3,.3q0,3.7,0,3.7c-.4,-2.4,-2.6,-4.3,-5.2,-4.3c-2.9,0,-5.2,2.3,-5.2,5c0,2.8,2.3,5,5.2,5c.3,0,.8,0,1,0q2.1,1.4,2.1,1.4c.2,.1,.3,0,.3,-.2q0,-2.4,0,-2.4c1,-.8,1.6,-1.8,1.8,-3.2c.1,2.9,2.3,4.3,4.4,4.3q.1,0,.1,0c2.2,0,4.4,-1.4,4.4,-4.4Zm-14.1,2.2c-1.5,0,-2.7,-1.2,-2.7,-2.7c0,-1.5,1.2,-2.6,2.7,-2.6c1.6,0,2.8,1.1,2.8,2.6c0,1.5,-1.2,2.7,-2.8,2.7Z" class="g2_16" />
</g>
<path d="M118.1,1208.2c-.8,0,-1.4,.6,-1.4,1.4c0,.8,.6,1.3,1.4,1.3c.8,0,1.5,-.5,1.5,-1.3c0,-.8,-.7,-1.4,-1.5,-1.4Z" class="g2_16" />
<path d="M129.2,1220.6q-3.4,-4.4,-3.4,-4.4q3,-3.8,3,-3.8c.2,-.2,.1,-.6,-.1,-.6c-.5,0,-1.3,0,-2.1,0c-.2,0,-.3,0,-.4,.2q-3,3.8,-3,3.8c0,-2.7,0,-5.5,0,-8c0,-.3,-.2,-.3,-.3,-.2c-.7,.4,-1.3,.9,-1.9,1.3c-.2,.2,-.3,.3,-.3,.6q0,.5,0,.5q0,.8,0,.8q0,9.3,0,9.3q0,.7,0,.7c0,.2,.1,.3,.3,.3q1.9,0,1.9,0c.1,0,.3,-.1,.3,-.3q0,-.6,0,-.6q0,-3.4,0,-3.4q3.2,4.1,3.2,4.1c.2,.2,.3,.2,.4,.2c.8,0,1.8,0,2.3,0c.2,0,.2,-.4,.1,-.5Z" class="g2_16" />
<path fill-rule="evenodd" d="M133.7,451.8H846V427.2H133.7v24.6Z" class="g3_16" />
<path fill-rule="evenodd" d="M124.5,427.2h9.2v-9.1h-9.2v9.1Z" class="g3_16" />
<path fill-rule="evenodd" d="M124.5,427.2h9.2v-9.1h-9.2v9.1Z" class="g3_16" />
<path fill-rule="evenodd" d="M133.7,427.2H846v-9.1H133.7v9.1Z" class="g3_16" />
<path fill-rule="evenodd" d="M124.5,451.8h9.2V427.2h-9.2v24.6Z" class="g3_16" />
<path fill-rule="evenodd" d="M133.7,474.7H846V451.8H133.7v22.9Z" class="g3_16" />
<path fill-rule="evenodd" d="M124.5,474.7h9.2V451.8h-9.2v22.9Z" class="g3_16" />
<path fill-rule="evenodd" d="M133.7,497.6H846V474.7H133.7v22.9Z" class="g3_16" />
<path fill-rule="evenodd" d="M124.5,497.6h9.2V474.7h-9.2v22.9Z" class="g3_16" />
<path fill-rule="evenodd" d="M133.7,520.6H846v-23H133.7v23Z" class="g3_16" />
<path fill-rule="evenodd" d="M124.5,520.6h9.2v-23h-9.2v23Z" class="g3_16" />
<path fill-rule="evenodd" d="M133.7,543.5H846V520.6H133.7v22.9Z" class="g3_16" />
<path fill-rule="evenodd" d="M124.5,543.5h9.2V520.6h-9.2v22.9Z" class="g3_16" />
<path fill-rule="evenodd" d="M133.7,566.4H846V543.5H133.7v22.9Z" class="g3_16" />
<path fill-rule="evenodd" d="M124.5,566.4h9.2V543.5h-9.2v22.9Z" class="g3_16" />
<path fill-rule="evenodd" d="M133.7,589.3H846V566.4H133.7v22.9Z" class="g3_16" />
<path fill-rule="evenodd" d="M124.5,589.3h9.2V566.4h-9.2v22.9Z" class="g3_16" />
<path fill-rule="evenodd" d="M133.7,612.2H846V589.3H133.7v22.9Z" class="g3_16" />
<path fill-rule="evenodd" d="M124.5,612.2h9.2V589.3h-9.2v22.9Z" class="g3_16" />
<path fill-rule="evenodd" d="M133.7,635.1H846V612.2H133.7v22.9Z" class="g3_16" />
<path fill-rule="evenodd" d="M124.5,635.1h9.2V612.2h-9.2v22.9Z" class="g3_16" />
<path fill-rule="evenodd" d="M133.7,658.1H846v-23H133.7v23Z" class="g3_16" />
<path fill-rule="evenodd" d="M124.5,658.1h9.2v-23h-9.2v23Z" class="g3_16" />
<path fill-rule="evenodd" d="M133.7,681H846V658.1H133.7V681Z" class="g3_16" />
<path fill-rule="evenodd" d="M124.5,681h9.2V658.1h-9.2V681Z" class="g3_16" />
<path fill-rule="evenodd" d="M133.7,703.9H846V681H133.7v22.9Z" class="g3_16" />
<path fill-rule="evenodd" d="M124.5,703.9h9.2V681h-9.2v22.9Z" class="g3_16" />
<path fill-rule="evenodd" d="M133.7,726.8H846V703.9H133.7v22.9Z" class="g3_16" />
<path fill-rule="evenodd" d="M124.5,726.8h9.2V703.9h-9.2v22.9Z" class="g3_16" />
<path fill-rule="evenodd" d="M133.7,749.8H846v-23H133.7v23Z" class="g3_16" />
<path fill-rule="evenodd" d="M124.5,749.8h9.2v-23h-9.2v23Z" class="g3_16" />
<path fill-rule="evenodd" d="M133.7,772.7H846V749.8H133.7v22.9Z" class="g3_16" />
<path fill-rule="evenodd" d="M124.5,772.7h9.2V749.8h-9.2v22.9Z" class="g3_16" />
<path fill-rule="evenodd" d="M133.7,795.6H846V772.7H133.7v22.9Z" class="g3_16" />
<path fill-rule="evenodd" d="M124.5,795.6h9.2V772.7h-9.2v22.9Z" class="g3_16" />
<path fill-rule="evenodd" d="M133.7,818.5H846V795.6H133.7v22.9Z" class="g3_16" />
<path fill-rule="evenodd" d="M124.5,818.5h9.2V795.6h-9.2v22.9Z" class="g3_16" />
<path fill-rule="evenodd" d="M133.7,841.4H846V818.5H133.7v22.9Z" class="g3_16" />
<path fill-rule="evenodd" d="M124.5,841.4h9.2V818.5h-9.2v22.9Z" class="g3_16" />
<path fill-rule="evenodd" d="M133.7,864.3H846V841.4H133.7v22.9Z" class="g3_16" />
<path fill-rule="evenodd" d="M124.5,864.3h9.2V841.4h-9.2v22.9Z" class="g3_16" />
<path fill-rule="evenodd" d="M133.7,887.3H846v-23H133.7v23Z" class="g3_16" />
<path fill-rule="evenodd" d="M124.5,887.3h9.2v-23h-9.2v23Z" class="g3_16" />
<path fill-rule="evenodd" d="M133.7,911.6H846V887.3H133.7v24.3Z" class="g3_16" />
<path fill-rule="evenodd" d="M124.5,920.8h9.2v-9.2h-9.2v9.2Z" class="g3_16" />
<path fill-rule="evenodd" d="M124.5,920.8h9.2v-9.2h-9.2v9.2Z" class="g3_16" />
<path fill-rule="evenodd" d="M133.7,920.8H846v-9.2H133.7v9.2Z" class="g3_16" />
<path fill-rule="evenodd" d="M124.5,911.6h9.2V887.3h-9.2v24.3Z" class="g3_16" />
</svg>