<?xml version="1.0" encoding="UTF-8" standalone="no"?>
<!DOCTYPE svg PUBLIC "-//W3C//DTD SVG 1.1//EN"
"http://www.w3.org/Graphics/SVG/1.1/DTD/svg11.dtd">
<svg viewBox="0 0 909 1286" version="1.1" xmlns="http://www.w3.org/2000/svg" xmlns:xlink="http://www.w3.org/1999/xlink">
<defs>
<clipPath id="c0_24"><path d="M96.4,1201.4v-15.5h33v15.5Z" /></clipPath>
<style type="text/css"><![CDATA[
.g0_24{
fill: none;
stroke: #000000;
stroke-width: 4.201389;
stroke-linecap: butt;
stroke-linejoin: round;
}
.g1_24{
fill: #5EB28E;
fill-opacity: 0.6;
}
.g2_24{
fill: #FFFFFF;
}
.g3_24{
}
.g4_24{
fill: #16AAD3;
}
]]></style>
</defs>
<path d="M841.2,1171.7H796.5" class="g0_24" />
<path fill-rule="evenodd" d="M111.9,1174c-11.5,0,-20.8,9.3,-20.8,20.8c0,11.5,9.3,20.8,20.8,20.8c11.5,0,20.8,-9.3,20.8,-20.8c0,-11.5,-9.3,-20.8,-20.8,-20.8Z" class="g1_24" />
<path d="M116.9,1199.3c0,.1,.2,.3,.4,.3q1.9,0,1.9,0c.1,0,.3,-.2,.3,-.3q0,-.7,0,-.7q0,-.1,0,-.1q0,-7.1,0,-7.1q0,-.1,0,-.1q0,-.7,0,-.7c0,-.2,-.2,-.4,-.3,-.4q-1.9,0,-1.9,0c-.2,0,-.4,.2,-.4,.4q0,.5,0,.5q0,7.6,0,7.6v.6Z" class="g2_24" />
<g clip-path="url(#c0_24)">
<path d="M115.7,1195.4q0,-4.8,0,-4.8c0,-.2,-.1,-.4,-.3,-.4q-2,0,-2,0c-.1,0,-.2,.2,-.2,.4q0,4.4,0,4.4c0,1.7,-1,2.5,-2,2.4c-1,.1,-2,-.7,-1.9,-2.4q0,-4.4,0,-4.4c0,-.2,-.1,-.4,-.3,-.4q-1.9,0,-1.9,0c-.2,0,-.3,.2,-.3,.4q0,3.6,0,3.6c-.4,-2.4,-2.6,-4.2,-5.2,-4.2c-2.9,0,-5.2,2.2,-5.2,5c0,2.7,2.3,4.9,5.2,4.9c.2,0,.8,0,.9,0q2.1,1.4,2.1,1.4c.2,.1,.4,.1,.4,-.2q0,-2.4,0,-2.4c.9,-.7,1.6,-1.8,1.8,-3.1c.1,2.9,2.3,4.3,4.4,4.2c2.2,.1,4.5,-1.4,4.5,-4.4Zm-14.1,2.2c-1.5,0,-2.8,-1.2,-2.8,-2.6c0,-1.5,1.3,-2.7,2.8,-2.7c1.5,0,2.8,1.2,2.8,2.7c0,1.4,-1.3,2.6,-2.8,2.6Z" class="g2_24" />
</g>
<path d="M118.2,1186.7c-.8,0,-1.4,.6,-1.4,1.4c0,.7,.6,1.3,1.4,1.3c.8,0,1.4,-.6,1.4,-1.3c0,-.8,-.6,-1.4,-1.4,-1.4Z" class="g2_24" />
<path d="M129.3,1199q-3.4,-4.4,-3.4,-4.4q3,-3.8,3,-3.8c.1,-.1,.1,-.5,-.1,-.6c-.5,0,-1.3,0,-2.2,0c-.1,0,-.2,.1,-.4,.3q-2.9,3.7,-2.9,3.7c0,-2.7,0,-5.4,0,-8c0,-.2,-.2,-.2,-.3,-.1c-.7,.4,-1.3,.9,-2,1.3c-.2,.1,-.2,.3,-.2,.5q0,.6,0,.6q0,.7,0,.7q0,.1,0,.1q0,9.2,0,9.2q0,.1,0,.1q0,.7,0,.7c0,.1,.1,.3,.2,.3q2,0,2,0c.1,0,.3,-.2,.3,-.3q0,-.6,0,-.6q0,-3.5,0,-3.5q3.2,4.2,3.2,4.2c.1,.2,.2,.2,.4,.2c.8,0,1.8,0,2.2,0c.3,-.1,.3,-.5,.2,-.6Z" class="g2_24" />
<path fill-rule="evenodd" d="M88,172.5H342.9V168H88v4.5Z" class="g3_24" />
<path fill-rule="evenodd" d="M342.9,172.5h4.6V168h-4.6v4.5Z" class="g3_24" />
<path fill-rule="evenodd" d="M347.5,172.5h75.2V168H347.5v4.5Z" class="g3_24" />
<path fill-rule="evenodd" d="M422.7,172.5h4.5V168h-4.5v4.5Z" class="g3_24" />
<path fill-rule="evenodd" d="M427.2,172.5h419V168h-419v4.5Z" class="g3_24" />
<path fill-rule="evenodd" d="M88,207H342.9v-.7H88v.7Z" class="g3_24" />
<path fill-rule="evenodd" d="M342.9,207h.7v-.7h-.7v.7Z" class="g3_24" />
<path fill-rule="evenodd" d="M343.6,207h79.1v-.7H343.6v.7Z" class="g3_24" />
<path fill-rule="evenodd" d="M422.7,207h.7v-.7h-.7v.7Z" class="g3_24" />
<path fill-rule="evenodd" d="M423.4,207H846.2v-.7H423.4v.7Z" class="g3_24" />
<path fill-rule="evenodd" d="M88,262.4H342.9v-.8H88v.8Z" class="g3_24" />
<path fill-rule="evenodd" d="M342.9,262.4h.7v-.8h-.7v.8Z" class="g3_24" />
<path fill-rule="evenodd" d="M343.6,262.4h79.1v-.8H343.6v.8Z" class="g3_24" />
<path fill-rule="evenodd" d="M422.7,262.4h.7v-.8h-.7v.8Z" class="g3_24" />
<path fill-rule="evenodd" d="M423.4,262.4H846.2v-.8H423.4v.8Z" class="g3_24" />
<path fill-rule="evenodd" d="M88,317.6H342.9v-.8H88v.8Z" class="g3_24" />
<path fill-rule="evenodd" d="M342.9,317.6h.7v-.8h-.7v.8Z" class="g3_24" />
<path fill-rule="evenodd" d="M343.6,317.6h79.1v-.8H343.6v.8Z" class="g3_24" />
<path fill-rule="evenodd" d="M422.7,317.6h.7v-.8h-.7v.8Z" class="g3_24" />
<path fill-rule="evenodd" d="M423.4,317.6H846.2v-.8H423.4v.8Z" class="g3_24" />
<path fill-rule="evenodd" d="M88,352.2H342.9v-.7H88v.7Z" class="g3_24" />
<path fill-rule="evenodd" d="M342.9,352.2h.7v-.7h-.7v.7Z" class="g3_24" />
<path fill-rule="evenodd" d="M343.6,352.2h79.1v-.7H343.6v.7Z" class="g3_24" />
<path fill-rule="evenodd" d="M422.7,352.2h.7v-.7h-.7v.7Z" class="g3_24" />
<path fill-rule="evenodd" d="M423.4,352.2H846.2v-.7H423.4v.7Z" class="g3_24" />
<path fill-rule="evenodd" d="M88,386.7H342.9v-.8H88v.8Z" class="g3_24" />
<path fill-rule="evenodd" d="M342.9,386.7h.7v-.8h-.7v.8Z" class="g3_24" />
<path fill-rule="evenodd" d="M343.6,386.7h79.1v-.8H343.6v.8Z" class="g3_24" />
<path fill-rule="evenodd" d="M422.7,386.7h.7v-.8h-.7v.8Z" class="g3_24" />
<path fill-rule="evenodd" d="M423.4,386.7H846.2v-.8H423.4v.8Z" class="g3_24" />
<path fill-rule="evenodd" d="M88,421.1H342.9v-.7H88v.7Z" class="g3_24" />
<path fill-rule="evenodd" d="M342.9,421.1h.7v-.7h-.7v.7Z" class="g3_24" />
<path fill-rule="evenodd" d="M343.6,421.1h79.1v-.7H343.6v.7Z" class="g3_24" />
<path fill-rule="evenodd" d="M422.7,421.1h.7v-.7h-.7v.7Z" class="g3_24" />
<path fill-rule="evenodd" d="M423.4,421.1H846.2v-.7H423.4v.7Z" class="g3_24" />
<path fill-rule="evenodd" d="M86.9,455.7h256v-.8H86.9v.8Z" class="g3_24" />
<path fill-rule="evenodd" d="M341.8,455.7h.7v-.8h-.7v.8Z" class="g3_24" />
<path fill-rule="evenodd" d="M342.5,455.7h80.2v-.8H342.5v.8Z" class="g3_24" />
<path fill-rule="evenodd" d="M421.6,455.7h.7v-.8h-.7v.8Z" class="g3_24" />
<path fill-rule="evenodd" d="M422.3,455.7H846.2v-.8H422.3v.8Z" class="g3_24" />
<path fill-rule="evenodd" d="M440.3,637.3H664.2v-.9H440.3v.9Z" class="g4_24" />
<path fill-rule="evenodd" d="M88,979.8H338.9v-4.5H88v4.5Z" class="g3_24" />
<path fill-rule="evenodd" d="M338.9,979.8h4.6v-4.5h-4.6v4.5Z" class="g3_24" />
<path fill-rule="evenodd" d="M343.5,979.8h77.1v-4.5H343.5v4.5Z" class="g3_24" />
<path fill-rule="evenodd" d="M420.6,979.8h4.6v-4.5h-4.6v4.5Z" class="g3_24" />
<path fill-rule="evenodd" d="M425.2,979.8h421v-4.5h-421v4.5Z" class="g3_24" />
<path fill-rule="evenodd" d="M88,1014.4H338.9v-.8H88v.8Z" class="g3_24" />
<path fill-rule="evenodd" d="M338.9,1014.4h.7v-.8h-.7v.8Z" class="g3_24" />
<path fill-rule="evenodd" d="M339.6,1014.4h81v-.8h-81v.8Z" class="g3_24" />
<path fill-rule="evenodd" d="M420.6,1014.4h.8v-.8h-.8v.8Z" class="g3_24" />
<path fill-rule="evenodd" d="M421.4,1014.4H846.2v-.8H421.4v.8Z" class="g3_24" />
<path fill-rule="evenodd" d="M88,1048.8H338.9v-.7H88v.7Z" class="g3_24" />
<path fill-rule="evenodd" d="M338.9,1048.8h.7v-.7h-.7v.7Z" class="g3_24" />
<path fill-rule="evenodd" d="M339.6,1048.8h81v-.7h-81v.7Z" class="g3_24" />
<path fill-rule="evenodd" d="M420.6,1048.8h.8v-.7h-.8v.7Z" class="g3_24" />
<path fill-rule="evenodd" d="M421.4,1048.8H846.2v-.7H421.4v.7Z" class="g3_24" />
<path fill-rule="evenodd" d="M88,1083.3H338.9v-.7H88v.7Z" class="g3_24" />
<path fill-rule="evenodd" d="M338.9,1083.3h.7v-.7h-.7v.7Z" class="g3_24" />
<path fill-rule="evenodd" d="M339.6,1083.3h81v-.7h-81v.7Z" class="g3_24" />
<path fill-rule="evenodd" d="M420.6,1083.3h.8v-.7h-.8v.7Z" class="g3_24" />
<path fill-rule="evenodd" d="M421.4,1083.3H846.2v-.7H421.4v.7Z" class="g3_24" />
<path fill-rule="evenodd" d="M86.9,1117.9h252v-.7H86.9v.7Z" class="g3_24" />
<path fill-rule="evenodd" d="M337.8,1117.9h.7v-.7h-.7v.7Z" class="g3_24" />
<path fill-rule="evenodd" d="M338.5,1117.9h82.1v-.7H338.5v.7Z" class="g3_24" />
<path fill-rule="evenodd" d="M419.5,1117.9h.8v-.7h-.8v.7Z" class="g3_24" />
<path fill-rule="evenodd" d="M420.3,1117.9H846.2v-.7H420.3v.7Z" class="g3_24" />
</svg>