<?xml version="1.0" encoding="UTF-8" standalone="no"?>
<!DOCTYPE svg PUBLIC "-//W3C//DTD SVG 1.1//EN"
"http://www.w3.org/Graphics/SVG/1.1/DTD/svg11.dtd">
<svg viewBox="0 0 909 1286" version="1.1" xmlns="http://www.w3.org/2000/svg" xmlns:xlink="http://www.w3.org/1999/xlink">
<defs>
<style type="text/css"><![CDATA[
.g0_11{
fill: #D3D3D3;
}
.g1_11{
fill: #F8F8F8;
}
]]></style>
</defs>
<image preserveAspectRatio="none" x="130" y="1222" width="83" height="28" xlink:href="img/1.png" />
<path fill-rule="evenodd" d="M127.8,117.3H847V117H127.8v.3Z" class="g0_11" />
<path fill-rule="evenodd" d="M163.6,206.1H847V180.4H163.6v25.7Z" class="g1_11" />
<path fill-rule="evenodd" d="M160.3,180.4H847v-.7H160.3v.7Z" class="g0_11" />
<path fill-rule="evenodd" d="M847,180.4h.7v-.7H847v.7Z" class="g0_11" />
<path fill-rule="evenodd" d="M847,180.4h.7v-.7H847v.7Z" class="g0_11" />
<path fill-rule="evenodd" d="M160.3,206.1h3.3V180.4h-3.3v25.7Z" class="g0_11" />
<path fill-rule="evenodd" d="M847,206.1h.7V180.4H847v25.7Z" class="g0_11" />
<path fill-rule="evenodd" d="M163.6,222.6H847V206.1H163.6v16.5Z" class="g1_11" />
<path fill-rule="evenodd" d="M160.3,222.6h3.3V206.1h-3.3v16.5Z" class="g0_11" />
<path fill-rule="evenodd" d="M847,222.6h.7V206.1H847v16.5Z" class="g0_11" />
<path fill-rule="evenodd" d="M163.6,238.9H847V222.6H163.6v16.3Z" class="g1_11" />
<path fill-rule="evenodd" d="M160.3,238.9h3.3V222.6h-3.3v16.3Z" class="g0_11" />
<path fill-rule="evenodd" d="M847,238.9h.7V222.6H847v16.3Z" class="g0_11" />
<path fill-rule="evenodd" d="M163.6,255.4H847V238.9H163.6v16.5Z" class="g1_11" />
<path fill-rule="evenodd" d="M160.3,255.4h3.3V238.9h-3.3v16.5Z" class="g0_11" />
<path fill-rule="evenodd" d="M847,255.4h.7V238.9H847v16.5Z" class="g0_11" />
<path fill-rule="evenodd" d="M163.6,271.9H847V255.4H163.6v16.5Z" class="g1_11" />
<path fill-rule="evenodd" d="M160.3,271.9h3.3V255.4h-3.3v16.5Z" class="g0_11" />
<path fill-rule="evenodd" d="M847,271.9h.7V255.4H847v16.5Z" class="g0_11" />
<path fill-rule="evenodd" d="M163.6,288.4H847V271.9H163.6v16.5Z" class="g1_11" />
<path fill-rule="evenodd" d="M160.3,288.4h3.3V271.9h-3.3v16.5Z" class="g0_11" />
<path fill-rule="evenodd" d="M847,288.4h.7V271.9H847v16.5Z" class="g0_11" />
<path fill-rule="evenodd" d="M163.6,304.9H847V288.4H163.6v16.5Z" class="g1_11" />
<path fill-rule="evenodd" d="M160.3,304.9h3.3V288.4h-3.3v16.5Z" class="g0_11" />
<path fill-rule="evenodd" d="M847,304.9h.7V288.4H847v16.5Z" class="g0_11" />
<path fill-rule="evenodd" d="M163.6,321.4H847V304.9H163.6v16.5Z" class="g1_11" />
<path fill-rule="evenodd" d="M160.3,321.4h3.3V304.9h-3.3v16.5Z" class="g0_11" />
<path fill-rule="evenodd" d="M847,321.4h.7V304.9H847v16.5Z" class="g0_11" />
<path fill-rule="evenodd" d="M163.6,337.7H847V321.4H163.6v16.3Z" class="g1_11" />
<path fill-rule="evenodd" d="M160.3,337.7h3.3V321.4h-3.3v16.3Z" class="g0_11" />
<path fill-rule="evenodd" d="M847,337.7h.7V321.4H847v16.3Z" class="g0_11" />
<path fill-rule="evenodd" d="M163.6,354.2H847V337.7H163.6v16.5Z" class="g1_11" />
<path fill-rule="evenodd" d="M160.3,354.2h3.3V337.7h-3.3v16.5Z" class="g0_11" />
<path fill-rule="evenodd" d="M847,354.2h.7V337.7H847v16.5Z" class="g0_11" />
<path fill-rule="evenodd" d="M163.6,370.7H847V354.2H163.6v16.5Z" class="g1_11" />
<path fill-rule="evenodd" d="M160.3,370.7h3.3V354.2h-3.3v16.5Z" class="g0_11" />
<path fill-rule="evenodd" d="M847,370.7h.7V354.2H847v16.5Z" class="g0_11" />
<path fill-rule="evenodd" d="M163.6,387.2H847V370.7H163.6v16.5Z" class="g1_11" />
<path fill-rule="evenodd" d="M160.3,387.2h3.3V370.7h-3.3v16.5Z" class="g0_11" />
<path fill-rule="evenodd" d="M847,387.2h.7V370.7H847v16.5Z" class="g0_11" />
<path fill-rule="evenodd" d="M163.6,403.7H847V387.2H163.6v16.5Z" class="g1_11" />
<path fill-rule="evenodd" d="M160.3,403.7h3.3V387.2h-3.3v16.5Z" class="g0_11" />
<path fill-rule="evenodd" d="M847,403.7h.7V387.2H847v16.5Z" class="g0_11" />
<path fill-rule="evenodd" d="M163.6,420.3H847V403.7H163.6v16.6Z" class="g1_11" />
<path fill-rule="evenodd" d="M160.3,420.3h3.3V403.7h-3.3v16.6Z" class="g0_11" />
<path fill-rule="evenodd" d="M847,420.3h.7V403.7H847v16.6Z" class="g0_11" />
<path fill-rule="evenodd" d="M163.6,436.6H847V420.3H163.6v16.3Z" class="g1_11" />
<path fill-rule="evenodd" d="M160.3,436.6h3.3V420.3h-3.3v16.3Z" class="g0_11" />
<path fill-rule="evenodd" d="M847,436.6h.7V420.3H847v16.3Z" class="g0_11" />
<path fill-rule="evenodd" d="M163.6,453.1H847V436.6H163.6v16.5Z" class="g1_11" />
<path fill-rule="evenodd" d="M160.3,453.1h3.3V436.6h-3.3v16.5Z" class="g0_11" />
<path fill-rule="evenodd" d="M847,453.1h.7V436.6H847v16.5Z" class="g0_11" />
<path fill-rule="evenodd" d="M163.6,469.6H847V453.1H163.6v16.5Z" class="g1_11" />
<path fill-rule="evenodd" d="M160.3,469.6h3.3V453.1h-3.3v16.5Z" class="g0_11" />
<path fill-rule="evenodd" d="M847,469.6h.7V453.1H847v16.5Z" class="g0_11" />
<path fill-rule="evenodd" d="M163.6,486.1H847V469.6H163.6v16.5Z" class="g1_11" />
<path fill-rule="evenodd" d="M160.3,486.1h3.3V469.6h-3.3v16.5Z" class="g0_11" />
<path fill-rule="evenodd" d="M847,486.1h.7V469.6H847v16.5Z" class="g0_11" />
<path fill-rule="evenodd" d="M163.6,502.6H847V486.1H163.6v16.5Z" class="g1_11" />
<path fill-rule="evenodd" d="M160.3,502.6h3.3V486.1h-3.3v16.5Z" class="g0_11" />
<path fill-rule="evenodd" d="M847,502.6h.7V486.1H847v16.5Z" class="g0_11" />
<path fill-rule="evenodd" d="M163.6,519.1H847V502.6H163.6v16.5Z" class="g1_11" />
<path fill-rule="evenodd" d="M160.3,519.1h3.3V502.6h-3.3v16.5Z" class="g0_11" />
<path fill-rule="evenodd" d="M847,519.1h.7V502.6H847v16.5Z" class="g0_11" />
<path fill-rule="evenodd" d="M163.6,535.4H847V519.1H163.6v16.3Z" class="g1_11" />
<path fill-rule="evenodd" d="M160.3,535.4h3.3V519.1h-3.3v16.3Z" class="g0_11" />
<path fill-rule="evenodd" d="M847,535.4h.7V519.1H847v16.3Z" class="g0_11" />
<path fill-rule="evenodd" d="M163.6,551.9H847V535.4H163.6v16.5Z" class="g1_11" />
<path fill-rule="evenodd" d="M160.3,551.9h3.3V535.4h-3.3v16.5Z" class="g0_11" />
<path fill-rule="evenodd" d="M847,551.9h.7V535.4H847v16.5Z" class="g0_11" />
<path fill-rule="evenodd" d="M163.6,568.4H847V551.9H163.6v16.5Z" class="g1_11" />
<path fill-rule="evenodd" d="M160.3,568.4h3.3V551.9h-3.3v16.5Z" class="g0_11" />
<path fill-rule="evenodd" d="M847,568.4h.7V551.9H847v16.5Z" class="g0_11" />
<path fill-rule="evenodd" d="M163.6,584.9H847V568.4H163.6v16.5Z" class="g1_11" />
<path fill-rule="evenodd" d="M160.3,584.9h3.3V568.4h-3.3v16.5Z" class="g0_11" />
<path fill-rule="evenodd" d="M847,584.9h.7V568.4H847v16.5Z" class="g0_11" />
<path fill-rule="evenodd" d="M163.6,601.4H847V584.9H163.6v16.5Z" class="g1_11" />
<path fill-rule="evenodd" d="M160.3,601.4h3.3V584.9h-3.3v16.5Z" class="g0_11" />
<path fill-rule="evenodd" d="M847,601.4h.7V584.9H847v16.5Z" class="g0_11" />
<path fill-rule="evenodd" d="M163.6,617.9H847V601.4H163.6v16.5Z" class="g1_11" />
<path fill-rule="evenodd" d="M160.3,617.9h3.3V601.4h-3.3v16.5Z" class="g0_11" />
<path fill-rule="evenodd" d="M847,617.9h.7V601.4H847v16.5Z" class="g0_11" />
<path fill-rule="evenodd" d="M163.6,634.2H847V617.9H163.6v16.3Z" class="g1_11" />
<path fill-rule="evenodd" d="M160.3,634.2h3.3V617.9h-3.3v16.3Z" class="g0_11" />
<path fill-rule="evenodd" d="M847,634.2h.7V617.9H847v16.3Z" class="g0_11" />
<path fill-rule="evenodd" d="M163.6,650.7H847V634.2H163.6v16.5Z" class="g1_11" />
<path fill-rule="evenodd" d="M160.3,650.7h3.3V634.2h-3.3v16.5Z" class="g0_11" />
<path fill-rule="evenodd" d="M847,650.7h.7V634.2H847v16.5Z" class="g0_11" />
<path fill-rule="evenodd" d="M163.6,667.2H847V650.7H163.6v16.5Z" class="g1_11" />
<path fill-rule="evenodd" d="M160.3,667.2h3.3V650.7h-3.3v16.5Z" class="g0_11" />
<path fill-rule="evenodd" d="M847,667.2h.7V650.7H847v16.5Z" class="g0_11" />
<path fill-rule="evenodd" d="M163.6,683.7H847V667.2H163.6v16.5Z" class="g1_11" />
<path fill-rule="evenodd" d="M160.3,683.7h3.3V667.2h-3.3v16.5Z" class="g0_11" />
<path fill-rule="evenodd" d="M847,683.7h.7V667.2H847v16.5Z" class="g0_11" />
<path fill-rule="evenodd" d="M163.6,700.2H847V683.7H163.6v16.5Z" class="g1_11" />
<path fill-rule="evenodd" d="M160.3,700.2h3.3V683.7h-3.3v16.5Z" class="g0_11" />
<path fill-rule="evenodd" d="M847,700.2h.7V683.7H847v16.5Z" class="g0_11" />
<path fill-rule="evenodd" d="M163.6,716.8H847V700.2H163.6v16.6Z" class="g1_11" />
<path fill-rule="evenodd" d="M160.3,716.8h3.3V700.2h-3.3v16.6Z" class="g0_11" />
<path fill-rule="evenodd" d="M847,716.8h.7V700.2H847v16.6Z" class="g0_11" />
<path fill-rule="evenodd" d="M163.6,733.1H847V716.8H163.6v16.3Z" class="g1_11" />
<path fill-rule="evenodd" d="M160.3,733.1h3.3V716.8h-3.3v16.3Z" class="g0_11" />
<path fill-rule="evenodd" d="M847,733.1h.7V716.8H847v16.3Z" class="g0_11" />
<path fill-rule="evenodd" d="M163.6,749.6H847V733.1H163.6v16.5Z" class="g1_11" />
<path fill-rule="evenodd" d="M160.3,749.6h3.3V733.1h-3.3v16.5Z" class="g0_11" />
<path fill-rule="evenodd" d="M847,749.6h.7V733.1H847v16.5Z" class="g0_11" />
<path fill-rule="evenodd" d="M163.6,766.1H847V749.6H163.6v16.5Z" class="g1_11" />
<path fill-rule="evenodd" d="M160.3,766.1h3.3V749.6h-3.3v16.5Z" class="g0_11" />
<path fill-rule="evenodd" d="M847,766.1h.7V749.6H847v16.5Z" class="g0_11" />
<path fill-rule="evenodd" d="M163.6,791.7H847V766.1H163.6v25.6Z" class="g1_11" />
<path fill-rule="evenodd" d="M160.3,792.5H847v-.8H160.3v.8Z" class="g0_11" />
<path fill-rule="evenodd" d="M847,792.5h.7v-.8H847v.8Z" class="g0_11" />
<path fill-rule="evenodd" d="M847,792.5h.7v-.8H847v.8Z" class="g0_11" />
<path fill-rule="evenodd" d="M160.3,791.7h3.3V766.1h-3.3v25.6Z" class="g0_11" />
<path fill-rule="evenodd" d="M847,791.7h.7V766.1H847v25.6Z" class="g0_11" />
</svg>