<?xml version="1.0" encoding="UTF-8" standalone="no"?>
<!DOCTYPE svg PUBLIC "-//W3C//DTD SVG 1.1//EN"
"http://www.w3.org/Graphics/SVG/1.1/DTD/svg11.dtd">
<svg viewBox="0 0 909 1286" version="1.1" xmlns="http://www.w3.org/2000/svg" xmlns:xlink="http://www.w3.org/1999/xlink">
<defs>
<clipPath id="c0_58"><path d="M96.4,1201.4v-15.5h33v15.5Z" /></clipPath>
<style type="text/css"><![CDATA[
.g0_58{
fill: none;
stroke: #000000;
stroke-width: 4.201389;
stroke-linecap: butt;
stroke-linejoin: round;
}
.g1_58{
fill: #5EB28E;
fill-opacity: 0.6;
}
.g2_58{
fill: #FFFFFF;
}
.g3_58{
}
.g4_58{
fill: #16AAD3;
}
]]></style>
</defs>
<path d="M841.2,1171.7H796.5" class="g0_58" />
<path fill-rule="evenodd" d="M111.9,1174c-11.5,0,-20.8,9.3,-20.8,20.8c0,11.5,9.3,20.8,20.8,20.8c11.5,0,20.8,-9.3,20.8,-20.8c0,-11.5,-9.3,-20.8,-20.8,-20.8Z" class="g1_58" />
<path d="M116.9,1199.3c0,.1,.2,.3,.4,.3q1.9,0,1.9,0c.1,0,.3,-.2,.3,-.3q0,-.7,0,-.7q0,-.1,0,-.1q0,-7.1,0,-7.1q0,-.1,0,-.1q0,-.7,0,-.7c0,-.2,-.2,-.4,-.3,-.4q-1.9,0,-1.9,0c-.2,0,-.4,.2,-.4,.4q0,.5,0,.5q0,7.6,0,7.6v.6Z" class="g2_58" />
<g clip-path="url(#c0_58)">
<path d="M115.7,1195.4q0,-4.8,0,-4.8c0,-.2,-.1,-.4,-.3,-.4q-2,0,-2,0c-.1,0,-.2,.2,-.2,.4q0,4.4,0,4.4c0,1.7,-1,2.5,-2,2.4c-1,.1,-2,-.7,-1.9,-2.4q0,-4.4,0,-4.4c0,-.2,-.1,-.4,-.3,-.4q-1.9,0,-1.9,0c-.2,0,-.3,.2,-.3,.4q0,3.6,0,3.6c-.4,-2.4,-2.6,-4.2,-5.2,-4.2c-2.9,0,-5.2,2.2,-5.2,5c0,2.7,2.3,4.9,5.2,4.9c.2,0,.8,0,.9,0q2.1,1.4,2.1,1.4c.2,.1,.4,.1,.4,-.2q0,-2.4,0,-2.4c.9,-.7,1.6,-1.8,1.8,-3.1c.1,2.9,2.3,4.3,4.4,4.2c2.2,.1,4.5,-1.4,4.5,-4.4Zm-14.1,2.2c-1.5,0,-2.8,-1.2,-2.8,-2.6c0,-1.5,1.3,-2.7,2.8,-2.7c1.5,0,2.8,1.2,2.8,2.7c0,1.4,-1.3,2.6,-2.8,2.6Z" class="g2_58" />
</g>
<path d="M118.2,1186.7c-.8,0,-1.4,.6,-1.4,1.4c0,.7,.6,1.3,1.4,1.3c.8,0,1.4,-.6,1.4,-1.3c0,-.8,-.6,-1.4,-1.4,-1.4Z" class="g2_58" />
<path d="M129.3,1199q-3.4,-4.4,-3.4,-4.4q3,-3.8,3,-3.8c.1,-.1,.1,-.5,-.1,-.6c-.5,0,-1.3,0,-2.2,0c-.1,0,-.2,.1,-.4,.3q-2.9,3.7,-2.9,3.7c0,-2.7,0,-5.4,0,-8c0,-.2,-.2,-.2,-.3,-.1c-.7,.4,-1.3,.9,-2,1.3c-.2,.1,-.2,.3,-.2,.5q0,.6,0,.6q0,.7,0,.7q0,.1,0,.1q0,9.2,0,9.2q0,.1,0,.1q0,.7,0,.7c0,.1,.1,.3,.2,.3q2,0,2,0c.1,0,.3,-.2,.3,-.3q0,-.6,0,-.6q0,-3.5,0,-3.5q3.2,4.2,3.2,4.2c.1,.2,.2,.2,.4,.2c.8,0,1.8,0,2.2,0c.3,-.1,.3,-.5,.2,-.6Z" class="g2_58" />
<path fill-rule="evenodd" d="M88,107.6H361.4V103H88v4.6Z" class="g3_58" />
<path fill-rule="evenodd" d="M361.4,107.6H366V103h-4.6v4.6Z" class="g3_58" />
<path fill-rule="evenodd" d="M366,107.6h66V103H366v4.6Z" class="g3_58" />
<path fill-rule="evenodd" d="M432,107.6h4.6V103H432v4.6Z" class="g3_58" />
<path fill-rule="evenodd" d="M436.6,107.6H846.2V103H436.6v4.6Z" class="g3_58" />
<path fill-rule="evenodd" d="M88,717.3H361.4v-.7H88v.7Z" class="g3_58" />
<path fill-rule="evenodd" d="M361.4,717.3h.8v-.7h-.8v.7Z" class="g3_58" />
<path fill-rule="evenodd" d="M362.2,717.3H432v-.7H362.2v.7Z" class="g3_58" />
<path fill-rule="evenodd" d="M432,717.3h.7v-.7H432v.7Z" class="g3_58" />
<path fill-rule="evenodd" d="M432.7,717.3H846.2v-.7H432.7v.7Z" class="g3_58" />
<path fill-rule="evenodd" d="M440.6,775.4h84.9v-.9H440.6v.9Z" class="g4_58" />
<path fill-rule="evenodd" d="M88,751.8H361.4V751H88v.8Z" class="g3_58" />
<path fill-rule="evenodd" d="M361.4,751.8h.8V751h-.8v.8Z" class="g3_58" />
<path fill-rule="evenodd" d="M362.2,751.8H432V751H362.2v.8Z" class="g3_58" />
<path fill-rule="evenodd" d="M432,751.8h.7V751H432v.8Z" class="g3_58" />
<path fill-rule="evenodd" d="M432.7,751.8H846.2V751H432.7v.8Z" class="g3_58" />
<path fill-rule="evenodd" d="M88,786.4H361.4v-.7H88v.7Z" class="g3_58" />
<path fill-rule="evenodd" d="M361.4,786.4h.8v-.7h-.8v.7Z" class="g3_58" />
<path fill-rule="evenodd" d="M362.2,786.4H432v-.7H362.2v.7Z" class="g3_58" />
<path fill-rule="evenodd" d="M432,786.4h.7v-.7H432v.7Z" class="g3_58" />
<path fill-rule="evenodd" d="M432.7,786.4H846.2v-.7H432.7v.7Z" class="g3_58" />
<path fill-rule="evenodd" d="M88,820.9H361.4v-.7H88v.7Z" class="g3_58" />
<path fill-rule="evenodd" d="M361.4,820.9h.8v-.7h-.8v.7Z" class="g3_58" />
<path fill-rule="evenodd" d="M362.2,820.9H432v-.7H362.2v.7Z" class="g3_58" />
<path fill-rule="evenodd" d="M432,820.9h.7v-.7H432v.7Z" class="g3_58" />
<path fill-rule="evenodd" d="M432.7,820.9H846.2v-.7H432.7v.7Z" class="g3_58" />
<path fill-rule="evenodd" d="M88,876.1H361.4v-.8H88v.8Z" class="g3_58" />
<path fill-rule="evenodd" d="M361.4,876.1h.8v-.8h-.8v.8Z" class="g3_58" />
<path fill-rule="evenodd" d="M362.2,876.1H432v-.8H362.2v.8Z" class="g3_58" />
<path fill-rule="evenodd" d="M432,876.1h.7v-.8H432v.8Z" class="g3_58" />
<path fill-rule="evenodd" d="M432.7,876.1H846.2v-.8H432.7v.8Z" class="g3_58" />
<path fill-rule="evenodd" d="M88,910.7H361.4V910H88v.7Z" class="g3_58" />
<path fill-rule="evenodd" d="M361.4,910.7h.8V910h-.8v.7Z" class="g3_58" />
<path fill-rule="evenodd" d="M362.2,910.7H432V910H362.2v.7Z" class="g3_58" />
<path fill-rule="evenodd" d="M432,910.7h.7V910H432v.7Z" class="g3_58" />
<path fill-rule="evenodd" d="M432.7,910.7H846.2V910H432.7v.7Z" class="g3_58" />
<path fill-rule="evenodd" d="M88,945.2H361.4v-.7H88v.7Z" class="g3_58" />
<path fill-rule="evenodd" d="M361.4,945.2h.8v-.7h-.8v.7Z" class="g3_58" />
<path fill-rule="evenodd" d="M362.2,945.2H432v-.7H362.2v.7Z" class="g3_58" />
<path fill-rule="evenodd" d="M432,945.2h.7v-.7H432v.7Z" class="g3_58" />
<path fill-rule="evenodd" d="M432.7,945.2H846.2v-.7H432.7v.7Z" class="g3_58" />
<path fill-rule="evenodd" d="M88,979.7H361.4v-.8H88v.8Z" class="g3_58" />
<path fill-rule="evenodd" d="M361.4,979.7h.8v-.8h-.8v.8Z" class="g3_58" />
<path fill-rule="evenodd" d="M362.2,979.7H432v-.8H362.2v.8Z" class="g3_58" />
<path fill-rule="evenodd" d="M432,979.7h.7v-.8H432v.8Z" class="g3_58" />
<path fill-rule="evenodd" d="M432.7,979.7H846.2v-.8H432.7v.8Z" class="g3_58" />
<path fill-rule="evenodd" d="M88,1014.2H361.4v-.8H88v.8Z" class="g3_58" />
<path fill-rule="evenodd" d="M361.4,1014.2h.8v-.8h-.8v.8Z" class="g3_58" />
<path fill-rule="evenodd" d="M362.2,1014.2H432v-.8H362.2v.8Z" class="g3_58" />
<path fill-rule="evenodd" d="M432,1014.2h.7v-.8H432v.8Z" class="g3_58" />
<path fill-rule="evenodd" d="M432.7,1014.2H846.2v-.8H432.7v.8Z" class="g3_58" />
<path fill-rule="evenodd" d="M88,1048.6H361.4v-.7H88v.7Z" class="g3_58" />
<path fill-rule="evenodd" d="M361.4,1048.6h.8v-.7h-.8v.7Z" class="g3_58" />
<path fill-rule="evenodd" d="M362.2,1048.6H432v-.7H362.2v.7Z" class="g3_58" />
<path fill-rule="evenodd" d="M432,1048.6h.7v-.7H432v.7Z" class="g3_58" />
<path fill-rule="evenodd" d="M432.7,1048.6H846.2v-.7H432.7v.7Z" class="g3_58" />
<path fill-rule="evenodd" d="M88,1083.3H361.4v-.7H88v.7Z" class="g3_58" />
<path fill-rule="evenodd" d="M361.4,1083.3h.8v-.7h-.8v.7Z" class="g3_58" />
<path fill-rule="evenodd" d="M362.2,1083.3H432v-.7H362.2v.7Z" class="g3_58" />
<path fill-rule="evenodd" d="M432,1083.3h.7v-.7H432v.7Z" class="g3_58" />
<path fill-rule="evenodd" d="M432.7,1083.3H846.2v-.7H432.7v.7Z" class="g3_58" />
<path fill-rule="evenodd" d="M86.9,1117.8H361.4v-.8H86.9v.8Z" class="g3_58" />
<path fill-rule="evenodd" d="M360.3,1117.8h.8v-.8h-.8v.8Z" class="g3_58" />
<path fill-rule="evenodd" d="M361.1,1117.8H432v-.8H361.1v.8Z" class="g3_58" />
<path fill-rule="evenodd" d="M430.9,1117.8h.7v-.8h-.7v.8Z" class="g3_58" />
<path fill-rule="evenodd" d="M431.6,1117.8H846.2v-.8H431.6v.8Z" class="g3_58" />
</svg>