<?xml version="1.0" encoding="UTF-8" standalone="no"?>
<!DOCTYPE svg PUBLIC "-//W3C//DTD SVG 1.1//EN"
"http://www.w3.org/Graphics/SVG/1.1/DTD/svg11.dtd">
<svg viewBox="0 0 909 1286" version="1.1" xmlns="http://www.w3.org/2000/svg" xmlns:xlink="http://www.w3.org/1999/xlink">
<defs>
<clipPath id="c0_82"><path d="M96.4,1201.4v-15.5h33v15.5Z" /></clipPath>
<style type="text/css"><![CDATA[
.g0_82{
fill: none;
stroke: #000000;
stroke-width: 4.201389;
stroke-linecap: butt;
stroke-linejoin: round;
}
.g1_82{
fill: #5EB28E;
fill-opacity: 0.6;
}
.g2_82{
fill: #FFFFFF;
}
.g3_82{
}
.g4_82{
fill: #16AAD3;
}
]]></style>
</defs>
<path d="M841.2,1171.7H796.5" class="g0_82" />
<path fill-rule="evenodd" d="M111.9,1174c-11.5,0,-20.8,9.3,-20.8,20.8c0,11.5,9.3,20.8,20.8,20.8c11.5,0,20.8,-9.3,20.8,-20.8c0,-11.5,-9.3,-20.8,-20.8,-20.8Z" class="g1_82" />
<path d="M116.9,1199.3c0,.1,.2,.3,.4,.3q1.9,0,1.9,0c.1,0,.3,-.2,.3,-.3q0,-.7,0,-.7q0,-.1,0,-.1q0,-7.1,0,-7.1q0,-.1,0,-.1q0,-.7,0,-.7c0,-.2,-.2,-.4,-.3,-.4q-1.9,0,-1.9,0c-.2,0,-.4,.2,-.4,.4q0,.5,0,.5q0,7.6,0,7.6v.6Z" class="g2_82" />
<g clip-path="url(#c0_82)">
<path d="M115.7,1195.4q0,-4.8,0,-4.8c0,-.2,-.1,-.4,-.3,-.4q-2,0,-2,0c-.1,0,-.2,.2,-.2,.4q0,4.4,0,4.4c0,1.7,-1,2.5,-2,2.4c-1,.1,-2,-.7,-1.9,-2.4q0,-4.4,0,-4.4c0,-.2,-.1,-.4,-.3,-.4q-1.9,0,-1.9,0c-.2,0,-.3,.2,-.3,.4q0,3.6,0,3.6c-.4,-2.4,-2.6,-4.2,-5.2,-4.2c-2.9,0,-5.2,2.2,-5.2,5c0,2.7,2.3,4.9,5.2,4.9c.2,0,.8,0,.9,0q2.1,1.4,2.1,1.4c.2,.1,.4,.1,.4,-.2q0,-2.4,0,-2.4c.9,-.7,1.6,-1.8,1.8,-3.1c.1,2.9,2.3,4.3,4.4,4.2c2.2,.1,4.5,-1.4,4.5,-4.4Zm-14.1,2.2c-1.5,0,-2.8,-1.2,-2.8,-2.6c0,-1.5,1.3,-2.7,2.8,-2.7c1.5,0,2.8,1.2,2.8,2.7c0,1.4,-1.3,2.6,-2.8,2.6Z" class="g2_82" />
</g>
<path d="M118.2,1186.7c-.8,0,-1.4,.6,-1.4,1.4c0,.7,.6,1.3,1.4,1.3c.8,0,1.4,-.6,1.4,-1.3c0,-.8,-.6,-1.4,-1.4,-1.4Z" class="g2_82" />
<path d="M129.3,1199q-3.4,-4.4,-3.4,-4.4q3,-3.8,3,-3.8c.1,-.1,.1,-.5,-.1,-.6c-.5,0,-1.3,0,-2.2,0c-.1,0,-.2,.1,-.4,.3q-2.9,3.7,-2.9,3.7c0,-2.7,0,-5.4,0,-8c0,-.2,-.2,-.2,-.3,-.1c-.7,.4,-1.3,.9,-2,1.3c-.2,.1,-.2,.3,-.2,.5q0,.6,0,.6q0,.7,0,.7q0,.1,0,.1q0,9.2,0,9.2q0,.1,0,.1q0,.7,0,.7c0,.1,.1,.3,.2,.3q2,0,2,0c.1,0,.3,-.2,.3,-.3q0,-.6,0,-.6q0,-3.5,0,-3.5q3.2,4.2,3.2,4.2c.1,.2,.2,.2,.4,.2c.8,0,1.8,0,2.2,0c.3,-.1,.3,-.5,.2,-.6Z" class="g2_82" />
<path fill-rule="evenodd" d="M88,107.6H284.8V103H88v4.6Z" class="g3_82" />
<path fill-rule="evenodd" d="M284.8,107.6h4.6V103h-4.6v4.6Z" class="g3_82" />
<path fill-rule="evenodd" d="M289.4,107.6H393.7V103H289.4v4.6Z" class="g3_82" />
<path fill-rule="evenodd" d="M393.7,107.6h4.6V103h-4.6v4.6Z" class="g3_82" />
<path fill-rule="evenodd" d="M398.3,107.6H856.7V103H398.3v4.6Z" class="g3_82" />
<path fill-rule="evenodd" d="M88,138.4H284.8v-.7H88v.7Z" class="g3_82" />
<path fill-rule="evenodd" d="M284.8,138.4h.7v-.7h-.7v.7Z" class="g3_82" />
<path fill-rule="evenodd" d="M285.5,138.4H393.7v-.7H285.5v.7Z" class="g3_82" />
<path fill-rule="evenodd" d="M393.7,138.4h.7v-.7h-.7v.7Z" class="g3_82" />
<path fill-rule="evenodd" d="M394.4,138.4H856.7v-.7H394.4v.7Z" class="g3_82" />
<path fill-rule="evenodd" d="M88,172.9H284.8v-.7H88v.7Z" class="g3_82" />
<path fill-rule="evenodd" d="M284.8,172.9h.7v-.7h-.7v.7Z" class="g3_82" />
<path fill-rule="evenodd" d="M285.5,172.9H393.7v-.7H285.5v.7Z" class="g3_82" />
<path fill-rule="evenodd" d="M393.7,172.9h.7v-.7h-.7v.7Z" class="g3_82" />
<path fill-rule="evenodd" d="M394.4,172.9H856.7v-.7H394.4v.7Z" class="g3_82" />
<path fill-rule="evenodd" d="M88,207.4H284.8v-.8H88v.8Z" class="g3_82" />
<path fill-rule="evenodd" d="M284.8,207.4h.7v-.8h-.7v.8Z" class="g3_82" />
<path fill-rule="evenodd" d="M285.5,207.4H393.7v-.8H285.5v.8Z" class="g3_82" />
<path fill-rule="evenodd" d="M393.7,207.4h.7v-.8h-.7v.8Z" class="g3_82" />
<path fill-rule="evenodd" d="M394.4,207.4H856.7v-.8H394.4v.8Z" class="g3_82" />
<path fill-rule="evenodd" d="M88,241.8H284.8v-.7H88v.7Z" class="g3_82" />
<path fill-rule="evenodd" d="M284.8,241.8h.7v-.7h-.7v.7Z" class="g3_82" />
<path fill-rule="evenodd" d="M285.5,241.8H393.7v-.7H285.5v.7Z" class="g3_82" />
<path fill-rule="evenodd" d="M393.7,241.8h.7v-.7h-.7v.7Z" class="g3_82" />
<path fill-rule="evenodd" d="M394.4,241.8H856.7v-.7H394.4v.7Z" class="g3_82" />
<path fill-rule="evenodd" d="M88,276.5H284.8v-.7H88v.7Z" class="g3_82" />
<path fill-rule="evenodd" d="M284.8,276.5h.7v-.7h-.7v.7Z" class="g3_82" />
<path fill-rule="evenodd" d="M285.5,276.5H393.7v-.7H285.5v.7Z" class="g3_82" />
<path fill-rule="evenodd" d="M393.7,276.5h.7v-.7h-.7v.7Z" class="g3_82" />
<path fill-rule="evenodd" d="M394.4,276.5H856.7v-.7H394.4v.7Z" class="g3_82" />
<path fill-rule="evenodd" d="M88,331.7H284.8v-.8H88v.8Z" class="g3_82" />
<path fill-rule="evenodd" d="M284.8,331.7h.7v-.8h-.7v.8Z" class="g3_82" />
<path fill-rule="evenodd" d="M285.5,331.7H393.7v-.8H285.5v.8Z" class="g3_82" />
<path fill-rule="evenodd" d="M393.7,331.7h.7v-.8h-.7v.8Z" class="g3_82" />
<path fill-rule="evenodd" d="M394.4,331.7H856.7v-.8H394.4v.8Z" class="g3_82" />
<path fill-rule="evenodd" d="M88,433.7H284.8v-.8H88v.8Z" class="g3_82" />
<path fill-rule="evenodd" d="M284.8,433.7h.7v-.8h-.7v.8Z" class="g3_82" />
<path fill-rule="evenodd" d="M285.5,433.7H393.7v-.8H285.5v.8Z" class="g3_82" />
<path fill-rule="evenodd" d="M393.7,433.7h.7v-.8h-.7v.8Z" class="g3_82" />
<path fill-rule="evenodd" d="M394.4,433.7H856.7v-.8H394.4v.8Z" class="g3_82" />
<path fill-rule="evenodd" d="M402.3,533.2h88.6v-.9H402.3v.9Z" class="g4_82" />
<path fill-rule="evenodd" d="M88,509.7H284.8V509H88v.7Z" class="g3_82" />
<path fill-rule="evenodd" d="M284.8,509.7h.7V509h-.7v.7Z" class="g3_82" />
<path fill-rule="evenodd" d="M285.5,509.7H393.7V509H285.5v.7Z" class="g3_82" />
<path fill-rule="evenodd" d="M393.7,509.7h.7V509h-.7v.7Z" class="g3_82" />
<path fill-rule="evenodd" d="M394.4,509.7H856.7V509H394.4v.7Z" class="g3_82" />
<path fill-rule="evenodd" d="M86.9,544.2H284.8v-.7H86.9v.7Z" class="g3_82" />
<path fill-rule="evenodd" d="M283.6,544.2h.8v-.7h-.8v.7Z" class="g3_82" />
<path fill-rule="evenodd" d="M284.4,544.2H393.7v-.7H284.4v.7Z" class="g3_82" />
<path fill-rule="evenodd" d="M392.6,544.2h.7v-.7h-.7v.7Z" class="g3_82" />
<path fill-rule="evenodd" d="M393.3,544.2H856.7v-.7H393.3v.7Z" class="g3_82" />
<path fill-rule="evenodd" d="M88,777.8H284.8v-4.6H88v4.6Z" class="g3_82" />
<path fill-rule="evenodd" d="M284.8,777.8h4.6v-4.6h-4.6v4.6Z" class="g3_82" />
<path fill-rule="evenodd" d="M289.4,777.8H393.7v-4.6H289.4v4.6Z" class="g3_82" />
<path fill-rule="evenodd" d="M393.7,777.8h4.6v-4.6h-4.6v4.6Z" class="g3_82" />
<path fill-rule="evenodd" d="M398.3,777.8H846.2v-4.6H398.3v4.6Z" class="g3_82" />
<path fill-rule="evenodd" d="M88,812.3H284.8v-.8H88v.8Z" class="g3_82" />
<path fill-rule="evenodd" d="M284.8,812.3h.7v-.8h-.7v.8Z" class="g3_82" />
<path fill-rule="evenodd" d="M285.5,812.3H393.7v-.8H285.5v.8Z" class="g3_82" />
<path fill-rule="evenodd" d="M393.7,812.3h.7v-.8h-.7v.8Z" class="g3_82" />
<path fill-rule="evenodd" d="M394.4,812.3H846.2v-.8H394.4v.8Z" class="g3_82" />
<path fill-rule="evenodd" d="M88,846.7H284.8V846H88v.7Z" class="g3_82" />
<path fill-rule="evenodd" d="M284.8,846.7h.7V846h-.7v.7Z" class="g3_82" />
<path fill-rule="evenodd" d="M285.5,846.7H393.7V846H285.5v.7Z" class="g3_82" />
<path fill-rule="evenodd" d="M393.7,846.7h.7V846h-.7v.7Z" class="g3_82" />
<path fill-rule="evenodd" d="M394.4,846.7H846.2V846H394.4v.7Z" class="g3_82" />
<path fill-rule="evenodd" d="M88,881.4H284.8v-.7H88v.7Z" class="g3_82" />
<path fill-rule="evenodd" d="M284.8,881.4h.7v-.7h-.7v.7Z" class="g3_82" />
<path fill-rule="evenodd" d="M285.5,881.4H393.7v-.7H285.5v.7Z" class="g3_82" />
<path fill-rule="evenodd" d="M393.7,881.4h.7v-.7h-.7v.7Z" class="g3_82" />
<path fill-rule="evenodd" d="M394.4,881.4H846.2v-.7H394.4v.7Z" class="g3_82" />
<path fill-rule="evenodd" d="M88,915.9H284.8v-.8H88v.8Z" class="g3_82" />
<path fill-rule="evenodd" d="M284.8,915.9h.7v-.8h-.7v.8Z" class="g3_82" />
<path fill-rule="evenodd" d="M285.5,915.9H393.7v-.8H285.5v.8Z" class="g3_82" />
<path fill-rule="evenodd" d="M393.7,915.9h.7v-.8h-.7v.8Z" class="g3_82" />
<path fill-rule="evenodd" d="M394.4,915.9H846.2v-.8H394.4v.8Z" class="g3_82" />
<path fill-rule="evenodd" d="M88,950.3H284.8v-.7H88v.7Z" class="g3_82" />
<path fill-rule="evenodd" d="M284.8,950.3h.7v-.7h-.7v.7Z" class="g3_82" />
<path fill-rule="evenodd" d="M285.5,950.3H393.7v-.7H285.5v.7Z" class="g3_82" />
<path fill-rule="evenodd" d="M393.7,950.3h.7v-.7h-.7v.7Z" class="g3_82" />
<path fill-rule="evenodd" d="M394.4,950.3H846.2v-.7H394.4v.7Z" class="g3_82" />
<path fill-rule="evenodd" d="M88,984.8H284.8v-.7H88v.7Z" class="g3_82" />
<path fill-rule="evenodd" d="M284.8,984.8h.7v-.7h-.7v.7Z" class="g3_82" />
<path fill-rule="evenodd" d="M285.5,984.8H393.7v-.7H285.5v.7Z" class="g3_82" />
<path fill-rule="evenodd" d="M393.7,984.8h.7v-.7h-.7v.7Z" class="g3_82" />
<path fill-rule="evenodd" d="M394.4,984.8H846.2v-.7H394.4v.7Z" class="g3_82" />
<path fill-rule="evenodd" d="M88,1019.3H284.8v-.7H88v.7Z" class="g3_82" />
<path fill-rule="evenodd" d="M284.8,1019.3h.7v-.7h-.7v.7Z" class="g3_82" />
<path fill-rule="evenodd" d="M285.5,1019.3H393.7v-.7H285.5v.7Z" class="g3_82" />
<path fill-rule="evenodd" d="M393.7,1019.3h.7v-.7h-.7v.7Z" class="g3_82" />
<path fill-rule="evenodd" d="M394.4,1019.3H846.2v-.7H394.4v.7Z" class="g3_82" />
<path fill-rule="evenodd" d="M88,1054H284.8v-.8H88v.8Z" class="g3_82" />
<path fill-rule="evenodd" d="M284.8,1054h.7v-.8h-.7v.8Z" class="g3_82" />
<path fill-rule="evenodd" d="M285.5,1054H393.7v-.8H285.5v.8Z" class="g3_82" />
<path fill-rule="evenodd" d="M393.7,1054h.7v-.8h-.7v.8Z" class="g3_82" />
<path fill-rule="evenodd" d="M394.4,1054H846.2v-.8H394.4v.8Z" class="g3_82" />
<path fill-rule="evenodd" d="M88,1088.4H284.8v-.7H88v.7Z" class="g3_82" />
<path fill-rule="evenodd" d="M284.8,1088.4h.7v-.7h-.7v.7Z" class="g3_82" />
<path fill-rule="evenodd" d="M285.5,1088.4H393.7v-.7H285.5v.7Z" class="g3_82" />
<path fill-rule="evenodd" d="M393.7,1088.4h.7v-.7h-.7v.7Z" class="g3_82" />
<path fill-rule="evenodd" d="M394.4,1088.4H846.2v-.7H394.4v.7Z" class="g3_82" />
<path fill-rule="evenodd" d="M86.9,1122.9H284.8v-.7H86.9v.7Z" class="g3_82" />
<path fill-rule="evenodd" d="M283.6,1122.9h.8v-.7h-.8v.7Z" class="g3_82" />
<path fill-rule="evenodd" d="M284.4,1122.9H393.7v-.7H284.4v.7Z" class="g3_82" />
<path fill-rule="evenodd" d="M392.6,1122.9h.7v-.7h-.7v.7Z" class="g3_82" />
<path fill-rule="evenodd" d="M393.3,1122.9H846.2v-.7H393.3v.7Z" class="g3_82" />
</svg>