<?xml version="1.0" encoding="UTF-8" standalone="no"?>
<!DOCTYPE svg PUBLIC "-//W3C//DTD SVG 1.1//EN"
"http://www.w3.org/Graphics/SVG/1.1/DTD/svg11.dtd">
<svg viewBox="0 0 909 1286" version="1.1" xmlns="http://www.w3.org/2000/svg" xmlns:xlink="http://www.w3.org/1999/xlink">
<defs>
<clipPath id="c0_36"><path d="M96.4,1201.4v-15.5h33v15.5Z" /></clipPath>
<style type="text/css"><![CDATA[
.g0_36{
fill: none;
stroke: #000000;
stroke-width: 4.201389;
stroke-linecap: butt;
stroke-linejoin: round;
}
.g1_36{
fill: #5EB28E;
fill-opacity: 0.6;
}
.g2_36{
fill: #FFFFFF;
}
.g3_36{
}
]]></style>
</defs>
<path d="M841.2,1171.7H796.5" class="g0_36" />
<path fill-rule="evenodd" d="M111.9,1174c-11.5,0,-20.8,9.3,-20.8,20.8c0,11.5,9.3,20.8,20.8,20.8c11.5,0,20.8,-9.3,20.8,-20.8c0,-11.5,-9.3,-20.8,-20.8,-20.8Z" class="g1_36" />
<path d="M116.9,1199.3c0,.1,.2,.3,.4,.3q1.9,0,1.9,0c.1,0,.3,-.2,.3,-.3q0,-.7,0,-.7q0,-.1,0,-.1q0,-7.1,0,-7.1q0,-.1,0,-.1q0,-.7,0,-.7c0,-.2,-.2,-.4,-.3,-.4q-1.9,0,-1.9,0c-.2,0,-.4,.2,-.4,.4q0,.5,0,.5q0,7.6,0,7.6v.6Z" class="g2_36" />
<g clip-path="url(#c0_36)">
<path d="M115.7,1195.4q0,-4.8,0,-4.8c0,-.2,-.1,-.4,-.3,-.4q-2,0,-2,0c-.1,0,-.2,.2,-.2,.4q0,4.4,0,4.4c0,1.7,-1,2.5,-2,2.4c-1,.1,-2,-.7,-1.9,-2.4q0,-4.4,0,-4.4c0,-.2,-.1,-.4,-.3,-.4q-1.9,0,-1.9,0c-.2,0,-.3,.2,-.3,.4q0,3.6,0,3.6c-.4,-2.4,-2.6,-4.2,-5.2,-4.2c-2.9,0,-5.2,2.2,-5.2,5c0,2.7,2.3,4.9,5.2,4.9c.2,0,.8,0,.9,0q2.1,1.4,2.1,1.4c.2,.1,.4,.1,.4,-.2q0,-2.4,0,-2.4c.9,-.7,1.6,-1.8,1.8,-3.1c.1,2.9,2.3,4.3,4.4,4.2c2.2,.1,4.5,-1.4,4.5,-4.4Zm-14.1,2.2c-1.5,0,-2.8,-1.2,-2.8,-2.6c0,-1.5,1.3,-2.7,2.8,-2.7c1.5,0,2.8,1.2,2.8,2.7c0,1.4,-1.3,2.6,-2.8,2.6Z" class="g2_36" />
</g>
<path d="M118.2,1186.7c-.8,0,-1.4,.6,-1.4,1.4c0,.7,.6,1.3,1.4,1.3c.8,0,1.4,-.6,1.4,-1.3c0,-.8,-.6,-1.4,-1.4,-1.4Z" class="g2_36" />
<path d="M129.3,1199q-3.4,-4.4,-3.4,-4.4q3,-3.8,3,-3.8c.1,-.1,.1,-.5,-.1,-.6c-.5,0,-1.3,0,-2.2,0c-.1,0,-.2,.1,-.4,.3q-2.9,3.7,-2.9,3.7c0,-2.7,0,-5.4,0,-8c0,-.2,-.2,-.2,-.3,-.1c-.7,.4,-1.3,.9,-2,1.3c-.2,.1,-.2,.3,-.2,.5q0,.6,0,.6q0,.7,0,.7q0,.1,0,.1q0,9.2,0,9.2q0,.1,0,.1q0,.7,0,.7c0,.1,.1,.3,.2,.3q2,0,2,0c.1,0,.3,-.2,.3,-.3q0,-.6,0,-.6q0,-3.5,0,-3.5q3.2,4.2,3.2,4.2c.1,.2,.2,.2,.4,.2c.8,0,1.8,0,2.2,0c.3,-.1,.3,-.5,.2,-.6Z" class="g2_36" />
<path fill-rule="evenodd" d="M88,107.6h24.2V103H88v4.6Z" class="g3_36" />
<path fill-rule="evenodd" d="M112.2,107.6h4.6V103h-4.6v4.6Z" class="g3_36" />
<path fill-rule="evenodd" d="M116.8,107.6H250.1V103H116.8v4.6Z" class="g3_36" />
<path fill-rule="evenodd" d="M250.1,107.6h4.6V103h-4.6v4.6Z" class="g3_36" />
<path fill-rule="evenodd" d="M254.7,107.6h53V103h-53v4.6Z" class="g3_36" />
<path fill-rule="evenodd" d="M307.7,107.6h4.6V103h-4.6v4.6Z" class="g3_36" />
<path fill-rule="evenodd" d="M312.3,107.6H700.1V103H312.3v4.6Z" class="g3_36" />
<path fill-rule="evenodd" d="M700.1,107.6h4.6V103h-4.6v4.6Z" class="g3_36" />
<path fill-rule="evenodd" d="M704.7,107.6H848.1V103H704.7v4.6Z" class="g3_36" />
<path fill-rule="evenodd" d="M88,138.4h24.2v-.7H88v.7Z" class="g3_36" />
<path fill-rule="evenodd" d="M112.2,138.4h.8v-.7h-.8v.7Z" class="g3_36" />
<path fill-rule="evenodd" d="M113,138.4H250.1v-.7H113v.7Z" class="g3_36" />
<path fill-rule="evenodd" d="M250.1,138.4h.7v-.7h-.7v.7Z" class="g3_36" />
<path fill-rule="evenodd" d="M250.8,138.4h56.9v-.7H250.8v.7Z" class="g3_36" />
<path fill-rule="evenodd" d="M307.7,138.4h.7v-.7h-.7v.7Z" class="g3_36" />
<path fill-rule="evenodd" d="M308.4,138.4H700.1v-.7H308.4v.7Z" class="g3_36" />
<path fill-rule="evenodd" d="M700.1,138.4h.8v-.7h-.8v.7Z" class="g3_36" />
<path fill-rule="evenodd" d="M700.9,138.4H848.1v-.7H700.9v.7Z" class="g3_36" />
<path fill-rule="evenodd" d="M88,193.6h24.2v-.7H88v.7Z" class="g3_36" />
<path fill-rule="evenodd" d="M112.2,193.6h.8v-.7h-.8v.7Z" class="g3_36" />
<path fill-rule="evenodd" d="M113,193.6H250.1v-.7H113v.7Z" class="g3_36" />
<path fill-rule="evenodd" d="M250.1,193.6h.7v-.7h-.7v.7Z" class="g3_36" />
<path fill-rule="evenodd" d="M250.8,193.6h56.9v-.7H250.8v.7Z" class="g3_36" />
<path fill-rule="evenodd" d="M307.7,193.6h.7v-.7h-.7v.7Z" class="g3_36" />
<path fill-rule="evenodd" d="M308.4,193.6H700.1v-.7H308.4v.7Z" class="g3_36" />
<path fill-rule="evenodd" d="M700.1,193.6h.8v-.7h-.8v.7Z" class="g3_36" />
<path fill-rule="evenodd" d="M700.9,193.6H848.1v-.7H700.9v.7Z" class="g3_36" />
<path fill-rule="evenodd" d="M88,249h24.2v-.7H88v.7Z" class="g3_36" />
<path fill-rule="evenodd" d="M112.2,249h.8v-.7h-.8v.7Z" class="g3_36" />
<path fill-rule="evenodd" d="M113,249H250.1v-.7H113v.7Z" class="g3_36" />
<path fill-rule="evenodd" d="M250.1,249h.7v-.7h-.7v.7Z" class="g3_36" />
<path fill-rule="evenodd" d="M250.8,249h56.9v-.7H250.8v.7Z" class="g3_36" />
<path fill-rule="evenodd" d="M307.7,249h.7v-.7h-.7v.7Z" class="g3_36" />
<path fill-rule="evenodd" d="M308.4,249H700.1v-.7H308.4v.7Z" class="g3_36" />
<path fill-rule="evenodd" d="M700.1,249h.8v-.7h-.8v.7Z" class="g3_36" />
<path fill-rule="evenodd" d="M700.9,249H848.1v-.7H700.9v.7Z" class="g3_36" />
<path fill-rule="evenodd" d="M88,304.2h24.2v-.8H88v.8Z" class="g3_36" />
<path fill-rule="evenodd" d="M112.2,304.2h.8v-.8h-.8v.8Z" class="g3_36" />
<path fill-rule="evenodd" d="M113,304.2H250.1v-.8H113v.8Z" class="g3_36" />
<path fill-rule="evenodd" d="M250.1,304.2h.7v-.8h-.7v.8Z" class="g3_36" />
<path fill-rule="evenodd" d="M250.8,304.2h56.9v-.8H250.8v.8Z" class="g3_36" />
<path fill-rule="evenodd" d="M307.7,304.2h.7v-.8h-.7v.8Z" class="g3_36" />
<path fill-rule="evenodd" d="M308.4,304.2H700.1v-.8H308.4v.8Z" class="g3_36" />
<path fill-rule="evenodd" d="M700.1,304.2h.8v-.8h-.8v.8Z" class="g3_36" />
<path fill-rule="evenodd" d="M700.9,304.2H848.1v-.8H700.9v.8Z" class="g3_36" />
<path fill-rule="evenodd" d="M88,338.6h24.2v-.7H88v.7Z" class="g3_36" />
<path fill-rule="evenodd" d="M112.2,338.6h.8v-.7h-.8v.7Z" class="g3_36" />
<path fill-rule="evenodd" d="M113,338.6H250.1v-.7H113v.7Z" class="g3_36" />
<path fill-rule="evenodd" d="M250.1,338.6h.7v-.7h-.7v.7Z" class="g3_36" />
<path fill-rule="evenodd" d="M250.8,338.6h56.9v-.7H250.8v.7Z" class="g3_36" />
<path fill-rule="evenodd" d="M307.7,338.6h.7v-.7h-.7v.7Z" class="g3_36" />
<path fill-rule="evenodd" d="M308.4,338.6H700.1v-.7H308.4v.7Z" class="g3_36" />
<path fill-rule="evenodd" d="M700.1,338.6h.8v-.7h-.8v.7Z" class="g3_36" />
<path fill-rule="evenodd" d="M700.9,338.6H848.1v-.7H700.9v.7Z" class="g3_36" />
<path fill-rule="evenodd" d="M88,394h24.2v-.7H88v.7Z" class="g3_36" />
<path fill-rule="evenodd" d="M112.2,394h.8v-.7h-.8v.7Z" class="g3_36" />
<path fill-rule="evenodd" d="M113,394H250.1v-.7H113v.7Z" class="g3_36" />
<path fill-rule="evenodd" d="M250.1,394h.7v-.7h-.7v.7Z" class="g3_36" />
<path fill-rule="evenodd" d="M250.8,394h56.9v-.7H250.8v.7Z" class="g3_36" />
<path fill-rule="evenodd" d="M307.7,394h.7v-.7h-.7v.7Z" class="g3_36" />
<path fill-rule="evenodd" d="M308.4,394H700.1v-.7H308.4v.7Z" class="g3_36" />
<path fill-rule="evenodd" d="M700.1,394h.8v-.7h-.8v.7Z" class="g3_36" />
<path fill-rule="evenodd" d="M700.9,394H848.1v-.7H700.9v.7Z" class="g3_36" />
<path fill-rule="evenodd" d="M88,449.2h24.2v-.7H88v.7Z" class="g3_36" />
<path fill-rule="evenodd" d="M112.2,449.2h.8v-.7h-.8v.7Z" class="g3_36" />
<path fill-rule="evenodd" d="M113,449.2H250.1v-.7H113v.7Z" class="g3_36" />
<path fill-rule="evenodd" d="M250.1,449.2h.7v-.7h-.7v.7Z" class="g3_36" />
<path fill-rule="evenodd" d="M250.8,449.2h56.9v-.7H250.8v.7Z" class="g3_36" />
<path fill-rule="evenodd" d="M307.7,449.2h.7v-.7h-.7v.7Z" class="g3_36" />
<path fill-rule="evenodd" d="M308.4,449.2H700.1v-.7H308.4v.7Z" class="g3_36" />
<path fill-rule="evenodd" d="M700.1,449.2h.8v-.7h-.8v.7Z" class="g3_36" />
<path fill-rule="evenodd" d="M700.9,449.2H848.1v-.7H700.9v.7Z" class="g3_36" />
<path fill-rule="evenodd" d="M88,504.4h24.2v-.7H88v.7Z" class="g3_36" />
<path fill-rule="evenodd" d="M112.2,504.4h.8v-.7h-.8v.7Z" class="g3_36" />
<path fill-rule="evenodd" d="M113,504.4H250.1v-.7H113v.7Z" class="g3_36" />
<path fill-rule="evenodd" d="M250.1,504.4h.7v-.7h-.7v.7Z" class="g3_36" />
<path fill-rule="evenodd" d="M250.8,504.4h56.9v-.7H250.8v.7Z" class="g3_36" />
<path fill-rule="evenodd" d="M307.7,504.4h.7v-.7h-.7v.7Z" class="g3_36" />
<path fill-rule="evenodd" d="M308.4,504.4H700.1v-.7H308.4v.7Z" class="g3_36" />
<path fill-rule="evenodd" d="M700.1,504.4h.8v-.7h-.8v.7Z" class="g3_36" />
<path fill-rule="evenodd" d="M700.9,504.4H848.1v-.7H700.9v.7Z" class="g3_36" />
<path fill-rule="evenodd" d="M88,539.1h24.2v-.8H88v.8Z" class="g3_36" />
<path fill-rule="evenodd" d="M112.2,539.1h.8v-.8h-.8v.8Z" class="g3_36" />
<path fill-rule="evenodd" d="M113,539.1H250.1v-.8H113v.8Z" class="g3_36" />
<path fill-rule="evenodd" d="M250.1,539.1h.7v-.8h-.7v.8Z" class="g3_36" />
<path fill-rule="evenodd" d="M250.8,539.1h56.9v-.8H250.8v.8Z" class="g3_36" />
<path fill-rule="evenodd" d="M307.7,539.1h.7v-.8h-.7v.8Z" class="g3_36" />
<path fill-rule="evenodd" d="M308.4,539.1H700.1v-.8H308.4v.8Z" class="g3_36" />
<path fill-rule="evenodd" d="M700.1,539.1h.8v-.8h-.8v.8Z" class="g3_36" />
<path fill-rule="evenodd" d="M700.9,539.1H848.1v-.8H700.9v.8Z" class="g3_36" />
<path fill-rule="evenodd" d="M88,573.5h24.2v-.7H88v.7Z" class="g3_36" />
<path fill-rule="evenodd" d="M112.2,573.5h.8v-.7h-.8v.7Z" class="g3_36" />
<path fill-rule="evenodd" d="M113,573.5H250.1v-.7H113v.7Z" class="g3_36" />
<path fill-rule="evenodd" d="M250.1,573.5h.7v-.7h-.7v.7Z" class="g3_36" />
<path fill-rule="evenodd" d="M250.8,573.5h56.9v-.7H250.8v.7Z" class="g3_36" />
<path fill-rule="evenodd" d="M307.7,573.5h.7v-.7h-.7v.7Z" class="g3_36" />
<path fill-rule="evenodd" d="M308.4,573.5H700.1v-.7H308.4v.7Z" class="g3_36" />
<path fill-rule="evenodd" d="M700.1,573.5h.8v-.7h-.8v.7Z" class="g3_36" />
<path fill-rule="evenodd" d="M700.9,573.5H848.1v-.7H700.9v.7Z" class="g3_36" />
<path fill-rule="evenodd" d="M88,608h24.2v-.7H88v.7Z" class="g3_36" />
<path fill-rule="evenodd" d="M112.2,608h.8v-.7h-.8v.7Z" class="g3_36" />
<path fill-rule="evenodd" d="M113,608H250.1v-.7H113v.7Z" class="g3_36" />
<path fill-rule="evenodd" d="M250.1,608h.7v-.7h-.7v.7Z" class="g3_36" />
<path fill-rule="evenodd" d="M250.8,608h56.9v-.7H250.8v.7Z" class="g3_36" />
<path fill-rule="evenodd" d="M307.7,608h.7v-.7h-.7v.7Z" class="g3_36" />
<path fill-rule="evenodd" d="M308.4,608H700.1v-.7H308.4v.7Z" class="g3_36" />
<path fill-rule="evenodd" d="M700.1,608h.8v-.7h-.8v.7Z" class="g3_36" />
<path fill-rule="evenodd" d="M700.9,608H848.1v-.7H700.9v.7Z" class="g3_36" />
<path fill-rule="evenodd" d="M88,663.2h24.2v-.7H88v.7Z" class="g3_36" />
<path fill-rule="evenodd" d="M112.2,663.2h.8v-.7h-.8v.7Z" class="g3_36" />
<path fill-rule="evenodd" d="M113,663.2H250.1v-.7H113v.7Z" class="g3_36" />
<path fill-rule="evenodd" d="M250.1,663.2h.7v-.7h-.7v.7Z" class="g3_36" />
<path fill-rule="evenodd" d="M250.8,663.2h56.9v-.7H250.8v.7Z" class="g3_36" />
<path fill-rule="evenodd" d="M307.7,663.2h.7v-.7h-.7v.7Z" class="g3_36" />
<path fill-rule="evenodd" d="M308.4,663.2H700.1v-.7H308.4v.7Z" class="g3_36" />
<path fill-rule="evenodd" d="M700.1,663.2h.8v-.7h-.8v.7Z" class="g3_36" />
<path fill-rule="evenodd" d="M700.9,663.2H848.1v-.7H700.9v.7Z" class="g3_36" />
<path fill-rule="evenodd" d="M88,696.2h24.2v-.7H88v.7Z" class="g3_36" />
<path fill-rule="evenodd" d="M112.2,696.2h.8v-.7h-.8v.7Z" class="g3_36" />
<path fill-rule="evenodd" d="M113,696.2H250.1v-.7H113v.7Z" class="g3_36" />
<path fill-rule="evenodd" d="M250.1,696.2h.7v-.7h-.7v.7Z" class="g3_36" />
<path fill-rule="evenodd" d="M250.8,696.2h56.9v-.7H250.8v.7Z" class="g3_36" />
<path fill-rule="evenodd" d="M307.7,696.2h.7v-.7h-.7v.7Z" class="g3_36" />
<path fill-rule="evenodd" d="M308.4,696.2H700.1v-.7H308.4v.7Z" class="g3_36" />
<path fill-rule="evenodd" d="M700.1,696.2h.8v-.7h-.8v.7Z" class="g3_36" />
<path fill-rule="evenodd" d="M700.9,696.2H848.1v-.7H700.9v.7Z" class="g3_36" />
<path fill-rule="evenodd" d="M88,767.4h24.2v-.8H88v.8Z" class="g3_36" />
<path fill-rule="evenodd" d="M112.2,767.4h.8v-.8h-.8v.8Z" class="g3_36" />
<path fill-rule="evenodd" d="M113,767.4H250.1v-.8H113v.8Z" class="g3_36" />
<path fill-rule="evenodd" d="M250.1,767.4h.7v-.8h-.7v.8Z" class="g3_36" />
<path fill-rule="evenodd" d="M250.8,767.4h56.9v-.8H250.8v.8Z" class="g3_36" />
<path fill-rule="evenodd" d="M307.7,767.4h.7v-.8h-.7v.8Z" class="g3_36" />
<path fill-rule="evenodd" d="M308.4,767.4H700.1v-.8H308.4v.8Z" class="g3_36" />
<path fill-rule="evenodd" d="M700.1,767.4h.8v-.8h-.8v.8Z" class="g3_36" />
<path fill-rule="evenodd" d="M700.9,767.4H848.1v-.8H700.9v.8Z" class="g3_36" />
<path fill-rule="evenodd" d="M88,838.7h24.2v-.8H88v.8Z" class="g3_36" />
<path fill-rule="evenodd" d="M112.2,838.7h.8v-.8h-.8v.8Z" class="g3_36" />
<path fill-rule="evenodd" d="M113,838.7H250.1v-.8H113v.8Z" class="g3_36" />
<path fill-rule="evenodd" d="M250.1,838.7h.7v-.8h-.7v.8Z" class="g3_36" />
<path fill-rule="evenodd" d="M250.8,838.7h56.9v-.8H250.8v.8Z" class="g3_36" />
<path fill-rule="evenodd" d="M307.7,838.7h.7v-.8h-.7v.8Z" class="g3_36" />
<path fill-rule="evenodd" d="M308.4,838.7H700.1v-.8H308.4v.8Z" class="g3_36" />
<path fill-rule="evenodd" d="M700.1,838.7h.8v-.8h-.8v.8Z" class="g3_36" />
<path fill-rule="evenodd" d="M700.9,838.7H848.1v-.8H700.9v.8Z" class="g3_36" />
<path fill-rule="evenodd" d="M88,890.7h24.2V890H88v.7Z" class="g3_36" />
<path fill-rule="evenodd" d="M112.2,890.7h.8V890h-.8v.7Z" class="g3_36" />
<path fill-rule="evenodd" d="M113,890.7H250.1V890H113v.7Z" class="g3_36" />
<path fill-rule="evenodd" d="M250.1,890.7h.7V890h-.7v.7Z" class="g3_36" />
<path fill-rule="evenodd" d="M250.8,890.7h56.9V890H250.8v.7Z" class="g3_36" />
<path fill-rule="evenodd" d="M307.7,890.7h.7V890h-.7v.7Z" class="g3_36" />
<path fill-rule="evenodd" d="M308.4,890.7H700.1V890H308.4v.7Z" class="g3_36" />
<path fill-rule="evenodd" d="M700.1,890.7h.8V890h-.8v.7Z" class="g3_36" />
<path fill-rule="evenodd" d="M700.9,890.7H848.1V890H700.9v.7Z" class="g3_36" />
<path fill-rule="evenodd" d="M88,942.8h24.2v-.7H88v.7Z" class="g3_36" />
<path fill-rule="evenodd" d="M112.2,942.8h.8v-.7h-.8v.7Z" class="g3_36" />
<path fill-rule="evenodd" d="M113,942.8H250.1v-.7H113v.7Z" class="g3_36" />
<path fill-rule="evenodd" d="M250.1,942.8h.7v-.7h-.7v.7Z" class="g3_36" />
<path fill-rule="evenodd" d="M250.8,942.8h56.9v-.7H250.8v.7Z" class="g3_36" />
<path fill-rule="evenodd" d="M307.7,942.8h.7v-.7h-.7v.7Z" class="g3_36" />
<path fill-rule="evenodd" d="M308.4,942.8H700.1v-.7H308.4v.7Z" class="g3_36" />
<path fill-rule="evenodd" d="M700.1,942.8h.8v-.7h-.8v.7Z" class="g3_36" />
<path fill-rule="evenodd" d="M700.9,942.8H848.1v-.7H700.9v.7Z" class="g3_36" />
<path fill-rule="evenodd" d="M88,1014.2h24.2v-.8H88v.8Z" class="g3_36" />
<path fill-rule="evenodd" d="M112.2,1014.2h.8v-.8h-.8v.8Z" class="g3_36" />
<path fill-rule="evenodd" d="M113,1014.2H250.1v-.8H113v.8Z" class="g3_36" />
<path fill-rule="evenodd" d="M250.1,1014.2h.7v-.8h-.7v.8Z" class="g3_36" />
<path fill-rule="evenodd" d="M250.8,1014.2h56.9v-.8H250.8v.8Z" class="g3_36" />
<path fill-rule="evenodd" d="M307.7,1014.2h.7v-.8h-.7v.8Z" class="g3_36" />
<path fill-rule="evenodd" d="M308.4,1014.2H700.1v-.8H308.4v.8Z" class="g3_36" />
<path fill-rule="evenodd" d="M700.1,1014.2h.8v-.8h-.8v.8Z" class="g3_36" />
<path fill-rule="evenodd" d="M700.9,1014.2H848.1v-.8H700.9v.8Z" class="g3_36" />
<path fill-rule="evenodd" d="M88,1047h24.2v-.7H88v.7Z" class="g3_36" />
<path fill-rule="evenodd" d="M112.2,1047h.8v-.7h-.8v.7Z" class="g3_36" />
<path fill-rule="evenodd" d="M113,1047H250.1v-.7H113v.7Z" class="g3_36" />
<path fill-rule="evenodd" d="M250.1,1047h.7v-.7h-.7v.7Z" class="g3_36" />
<path fill-rule="evenodd" d="M250.8,1047h56.9v-.7H250.8v.7Z" class="g3_36" />
<path fill-rule="evenodd" d="M307.7,1047h.7v-.7h-.7v.7Z" class="g3_36" />
<path fill-rule="evenodd" d="M308.4,1047H700.1v-.7H308.4v.7Z" class="g3_36" />
<path fill-rule="evenodd" d="M700.1,1047h.8v-.7h-.8v.7Z" class="g3_36" />
<path fill-rule="evenodd" d="M700.9,1047H848.1v-.7H700.9v.7Z" class="g3_36" />
<path fill-rule="evenodd" d="M86.9,1099.1h25.3v-.8H86.9v.8Z" class="g3_36" />
<path fill-rule="evenodd" d="M111.1,1099.1h.8v-.8h-.8v.8Z" class="g3_36" />
<path fill-rule="evenodd" d="M111.9,1099.1H250.1v-.8H111.9v.8Z" class="g3_36" />
<path fill-rule="evenodd" d="M249,1099.1h.7v-.8H249v.8Z" class="g3_36" />
<path fill-rule="evenodd" d="M249.7,1099.1h58v-.8h-58v.8Z" class="g3_36" />
<path fill-rule="evenodd" d="M306.6,1099.1h.7v-.8h-.7v.8Z" class="g3_36" />
<path fill-rule="evenodd" d="M307.3,1099.1H700.1v-.8H307.3v.8Z" class="g3_36" />
<path fill-rule="evenodd" d="M699,1099.1h.8v-.8H699v.8Z" class="g3_36" />
<path fill-rule="evenodd" d="M699.8,1099.1H848.1v-.8H699.8v.8Z" class="g3_36" />
</svg>