<?xml version="1.0" encoding="UTF-8" standalone="no"?>
<!DOCTYPE svg PUBLIC "-//W3C//DTD SVG 1.1//EN"
"http://www.w3.org/Graphics/SVG/1.1/DTD/svg11.dtd">
<svg viewBox="0 0 909 1286" version="1.1" xmlns="http://www.w3.org/2000/svg" xmlns:xlink="http://www.w3.org/1999/xlink">
<defs>
<clipPath id="c0_37"><path d="M96.4,1201.4v-15.5h33v15.5Z" /></clipPath>
<style type="text/css"><![CDATA[
.g0_37{
fill: none;
stroke: #000000;
stroke-width: 4.201389;
stroke-linecap: butt;
stroke-linejoin: round;
}
.g1_37{
fill: #5EB28E;
fill-opacity: 0.6;
}
.g2_37{
fill: #FFFFFF;
}
.g3_37{
}
]]></style>
</defs>
<path d="M841.2,1171.7H796.5" class="g0_37" />
<path fill-rule="evenodd" d="M111.9,1174c-11.5,0,-20.8,9.3,-20.8,20.8c0,11.5,9.3,20.8,20.8,20.8c11.5,0,20.8,-9.3,20.8,-20.8c0,-11.5,-9.3,-20.8,-20.8,-20.8Z" class="g1_37" />
<path d="M116.9,1199.3c0,.1,.2,.3,.4,.3q1.9,0,1.9,0c.1,0,.3,-.2,.3,-.3q0,-.7,0,-.7q0,-.1,0,-.1q0,-7.1,0,-7.1q0,-.1,0,-.1q0,-.7,0,-.7c0,-.2,-.2,-.4,-.3,-.4q-1.9,0,-1.9,0c-.2,0,-.4,.2,-.4,.4q0,.5,0,.5q0,7.6,0,7.6v.6Z" class="g2_37" />
<g clip-path="url(#c0_37)">
<path d="M115.7,1195.4q0,-4.8,0,-4.8c0,-.2,-.1,-.4,-.3,-.4q-2,0,-2,0c-.1,0,-.2,.2,-.2,.4q0,4.4,0,4.4c0,1.7,-1,2.5,-2,2.4c-1,.1,-2,-.7,-1.9,-2.4q0,-4.4,0,-4.4c0,-.2,-.1,-.4,-.3,-.4q-1.9,0,-1.9,0c-.2,0,-.3,.2,-.3,.4q0,3.6,0,3.6c-.4,-2.4,-2.6,-4.2,-5.2,-4.2c-2.9,0,-5.2,2.2,-5.2,5c0,2.7,2.3,4.9,5.2,4.9c.2,0,.8,0,.9,0q2.1,1.4,2.1,1.4c.2,.1,.4,.1,.4,-.2q0,-2.4,0,-2.4c.9,-.7,1.6,-1.8,1.8,-3.1c.1,2.9,2.3,4.3,4.4,4.2c2.2,.1,4.5,-1.4,4.5,-4.4Zm-14.1,2.2c-1.5,0,-2.8,-1.2,-2.8,-2.6c0,-1.5,1.3,-2.7,2.8,-2.7c1.5,0,2.8,1.2,2.8,2.7c0,1.4,-1.3,2.6,-2.8,2.6Z" class="g2_37" />
</g>
<path d="M118.2,1186.7c-.8,0,-1.4,.6,-1.4,1.4c0,.7,.6,1.3,1.4,1.3c.8,0,1.4,-.6,1.4,-1.3c0,-.8,-.6,-1.4,-1.4,-1.4Z" class="g2_37" />
<path d="M129.3,1199q-3.4,-4.4,-3.4,-4.4q3,-3.8,3,-3.8c.1,-.1,.1,-.5,-.1,-.6c-.5,0,-1.3,0,-2.2,0c-.1,0,-.2,.1,-.4,.3q-2.9,3.7,-2.9,3.7c0,-2.7,0,-5.4,0,-8c0,-.2,-.2,-.2,-.3,-.1c-.7,.4,-1.3,.9,-2,1.3c-.2,.1,-.2,.3,-.2,.5q0,.6,0,.6q0,.7,0,.7q0,.1,0,.1q0,9.2,0,9.2q0,.1,0,.1q0,.7,0,.7c0,.1,.1,.3,.2,.3q2,0,2,0c.1,0,.3,-.2,.3,-.3q0,-.6,0,-.6q0,-3.5,0,-3.5q3.2,4.2,3.2,4.2c.1,.2,.2,.2,.4,.2c.8,0,1.8,0,2.2,0c.3,-.1,.3,-.5,.2,-.6Z" class="g2_37" />
<path fill-rule="evenodd" d="M88,107.6h24.2V103H88v4.6Z" class="g3_37" />
<path fill-rule="evenodd" d="M112.2,107.6h4.6V103h-4.6v4.6Z" class="g3_37" />
<path fill-rule="evenodd" d="M116.8,107.6H250.1V103H116.8v4.6Z" class="g3_37" />
<path fill-rule="evenodd" d="M250.1,107.6h4.6V103h-4.6v4.6Z" class="g3_37" />
<path fill-rule="evenodd" d="M254.7,107.6h53V103h-53v4.6Z" class="g3_37" />
<path fill-rule="evenodd" d="M307.7,107.6h4.6V103h-4.6v4.6Z" class="g3_37" />
<path fill-rule="evenodd" d="M312.3,107.6H700.1V103H312.3v4.6Z" class="g3_37" />
<path fill-rule="evenodd" d="M700.1,107.6h4.6V103h-4.6v4.6Z" class="g3_37" />
<path fill-rule="evenodd" d="M704.7,107.6H848.1V103H704.7v4.6Z" class="g3_37" />
<path fill-rule="evenodd" d="M88,155.9h24.2v-.8H88v.8Z" class="g3_37" />
<path fill-rule="evenodd" d="M112.2,155.9h.8v-.8h-.8v.8Z" class="g3_37" />
<path fill-rule="evenodd" d="M113,155.9H250.1v-.8H113v.8Z" class="g3_37" />
<path fill-rule="evenodd" d="M250.1,155.9h.7v-.8h-.7v.8Z" class="g3_37" />
<path fill-rule="evenodd" d="M250.8,155.9h56.9v-.8H250.8v.8Z" class="g3_37" />
<path fill-rule="evenodd" d="M307.7,155.9h.7v-.8h-.7v.8Z" class="g3_37" />
<path fill-rule="evenodd" d="M308.4,155.9H700.1v-.8H308.4v.8Z" class="g3_37" />
<path fill-rule="evenodd" d="M700.1,155.9h.8v-.8h-.8v.8Z" class="g3_37" />
<path fill-rule="evenodd" d="M700.9,155.9H848.1v-.8H700.9v.8Z" class="g3_37" />
<path fill-rule="evenodd" d="M88,208.1h24.2v-.7H88v.7Z" class="g3_37" />
<path fill-rule="evenodd" d="M112.2,208.1h.8v-.7h-.8v.7Z" class="g3_37" />
<path fill-rule="evenodd" d="M113,208.1H250.1v-.7H113v.7Z" class="g3_37" />
<path fill-rule="evenodd" d="M250.1,208.1h.7v-.7h-.7v.7Z" class="g3_37" />
<path fill-rule="evenodd" d="M250.8,208.1h56.9v-.7H250.8v.7Z" class="g3_37" />
<path fill-rule="evenodd" d="M307.7,208.1h.7v-.7h-.7v.7Z" class="g3_37" />
<path fill-rule="evenodd" d="M308.4,208.1H700.1v-.7H308.4v.7Z" class="g3_37" />
<path fill-rule="evenodd" d="M700.1,208.1h.8v-.7h-.8v.7Z" class="g3_37" />
<path fill-rule="evenodd" d="M700.9,208.1H848.1v-.7H700.9v.7Z" class="g3_37" />
<path fill-rule="evenodd" d="M88,260.2h24.2v-.8H88v.8Z" class="g3_37" />
<path fill-rule="evenodd" d="M112.2,260.2h.8v-.8h-.8v.8Z" class="g3_37" />
<path fill-rule="evenodd" d="M113,260.2H250.1v-.8H113v.8Z" class="g3_37" />
<path fill-rule="evenodd" d="M250.1,260.2h.7v-.8h-.7v.8Z" class="g3_37" />
<path fill-rule="evenodd" d="M250.8,260.2h56.9v-.8H250.8v.8Z" class="g3_37" />
<path fill-rule="evenodd" d="M307.7,260.2h.7v-.8h-.7v.8Z" class="g3_37" />
<path fill-rule="evenodd" d="M308.4,260.2H700.1v-.8H308.4v.8Z" class="g3_37" />
<path fill-rule="evenodd" d="M700.1,260.2h.8v-.8h-.8v.8Z" class="g3_37" />
<path fill-rule="evenodd" d="M700.9,260.2H848.1v-.8H700.9v.8Z" class="g3_37" />
<path fill-rule="evenodd" d="M88,312.2h24.2v-.7H88v.7Z" class="g3_37" />
<path fill-rule="evenodd" d="M112.2,312.2h.8v-.7h-.8v.7Z" class="g3_37" />
<path fill-rule="evenodd" d="M113,312.2H250.1v-.7H113v.7Z" class="g3_37" />
<path fill-rule="evenodd" d="M250.1,312.2h.7v-.7h-.7v.7Z" class="g3_37" />
<path fill-rule="evenodd" d="M250.8,312.2h56.9v-.7H250.8v.7Z" class="g3_37" />
<path fill-rule="evenodd" d="M307.7,312.2h.7v-.7h-.7v.7Z" class="g3_37" />
<path fill-rule="evenodd" d="M308.4,312.2H700.1v-.7H308.4v.7Z" class="g3_37" />
<path fill-rule="evenodd" d="M700.1,312.2h.8v-.7h-.8v.7Z" class="g3_37" />
<path fill-rule="evenodd" d="M700.9,312.2H848.1v-.7H700.9v.7Z" class="g3_37" />
<path fill-rule="evenodd" d="M88,364.3h24.2v-.7H88v.7Z" class="g3_37" />
<path fill-rule="evenodd" d="M112.2,364.3h.8v-.7h-.8v.7Z" class="g3_37" />
<path fill-rule="evenodd" d="M113,364.3H250.1v-.7H113v.7Z" class="g3_37" />
<path fill-rule="evenodd" d="M250.1,364.3h.7v-.7h-.7v.7Z" class="g3_37" />
<path fill-rule="evenodd" d="M250.8,364.3h56.9v-.7H250.8v.7Z" class="g3_37" />
<path fill-rule="evenodd" d="M307.7,364.3h.7v-.7h-.7v.7Z" class="g3_37" />
<path fill-rule="evenodd" d="M308.4,364.3H700.1v-.7H308.4v.7Z" class="g3_37" />
<path fill-rule="evenodd" d="M700.1,364.3h.8v-.7h-.8v.7Z" class="g3_37" />
<path fill-rule="evenodd" d="M700.9,364.3H848.1v-.7H700.9v.7Z" class="g3_37" />
<path fill-rule="evenodd" d="M88,419.7h24.2v-.8H88v.8Z" class="g3_37" />
<path fill-rule="evenodd" d="M112.2,419.7h.8v-.8h-.8v.8Z" class="g3_37" />
<path fill-rule="evenodd" d="M113,419.7H250.1v-.8H113v.8Z" class="g3_37" />
<path fill-rule="evenodd" d="M250.1,419.7h.7v-.8h-.7v.8Z" class="g3_37" />
<path fill-rule="evenodd" d="M250.8,419.7h56.9v-.8H250.8v.8Z" class="g3_37" />
<path fill-rule="evenodd" d="M307.7,419.7h.7v-.8h-.7v.8Z" class="g3_37" />
<path fill-rule="evenodd" d="M308.4,419.7H700.1v-.8H308.4v.8Z" class="g3_37" />
<path fill-rule="evenodd" d="M700.1,419.7h.8v-.8h-.8v.8Z" class="g3_37" />
<path fill-rule="evenodd" d="M700.9,419.7H848.1v-.8H700.9v.8Z" class="g3_37" />
<path fill-rule="evenodd" d="M88,475.1h24.2v-.7H88v.7Z" class="g3_37" />
<path fill-rule="evenodd" d="M112.2,475.1h.8v-.7h-.8v.7Z" class="g3_37" />
<path fill-rule="evenodd" d="M113,475.1H250.1v-.7H113v.7Z" class="g3_37" />
<path fill-rule="evenodd" d="M250.1,475.1h.7v-.7h-.7v.7Z" class="g3_37" />
<path fill-rule="evenodd" d="M250.8,475.1h56.9v-.7H250.8v.7Z" class="g3_37" />
<path fill-rule="evenodd" d="M307.7,475.1h.7v-.7h-.7v.7Z" class="g3_37" />
<path fill-rule="evenodd" d="M308.4,475.1H700.1v-.7H308.4v.7Z" class="g3_37" />
<path fill-rule="evenodd" d="M700.1,475.1h.8v-.7h-.8v.7Z" class="g3_37" />
<path fill-rule="evenodd" d="M700.9,475.1H848.1v-.7H700.9v.7Z" class="g3_37" />
<path fill-rule="evenodd" d="M88,565.5h24.2v-.8H88v.8Z" class="g3_37" />
<path fill-rule="evenodd" d="M112.2,565.5h.8v-.8h-.8v.8Z" class="g3_37" />
<path fill-rule="evenodd" d="M113,565.5H250.1v-.8H113v.8Z" class="g3_37" />
<path fill-rule="evenodd" d="M250.1,565.5h.7v-.8h-.7v.8Z" class="g3_37" />
<path fill-rule="evenodd" d="M250.8,565.5h56.9v-.8H250.8v.8Z" class="g3_37" />
<path fill-rule="evenodd" d="M307.7,565.5h.7v-.8h-.7v.8Z" class="g3_37" />
<path fill-rule="evenodd" d="M308.4,565.5H700.1v-.8H308.4v.8Z" class="g3_37" />
<path fill-rule="evenodd" d="M700.1,565.5h.8v-.8h-.8v.8Z" class="g3_37" />
<path fill-rule="evenodd" d="M700.9,565.5H848.1v-.8H700.9v.8Z" class="g3_37" />
<path fill-rule="evenodd" d="M88,636.6h24.2v-.7H88v.7Z" class="g3_37" />
<path fill-rule="evenodd" d="M112.2,636.6h.8v-.7h-.8v.7Z" class="g3_37" />
<path fill-rule="evenodd" d="M113,636.6H250.1v-.7H113v.7Z" class="g3_37" />
<path fill-rule="evenodd" d="M250.1,636.6h.7v-.7h-.7v.7Z" class="g3_37" />
<path fill-rule="evenodd" d="M250.8,636.6h56.9v-.7H250.8v.7Z" class="g3_37" />
<path fill-rule="evenodd" d="M307.7,636.6h.7v-.7h-.7v.7Z" class="g3_37" />
<path fill-rule="evenodd" d="M308.4,636.6H700.1v-.7H308.4v.7Z" class="g3_37" />
<path fill-rule="evenodd" d="M700.1,636.6h.8v-.7h-.8v.7Z" class="g3_37" />
<path fill-rule="evenodd" d="M700.9,636.6H848.1v-.7H700.9v.7Z" class="g3_37" />
<path fill-rule="evenodd" d="M88,765.3h24.2v-.7H88v.7Z" class="g3_37" />
<path fill-rule="evenodd" d="M112.2,765.3h.8v-.7h-.8v.7Z" class="g3_37" />
<path fill-rule="evenodd" d="M113,765.3H250.1v-.7H113v.7Z" class="g3_37" />
<path fill-rule="evenodd" d="M250.1,765.3h.7v-.7h-.7v.7Z" class="g3_37" />
<path fill-rule="evenodd" d="M250.8,765.3h56.9v-.7H250.8v.7Z" class="g3_37" />
<path fill-rule="evenodd" d="M307.7,765.3h.7v-.7h-.7v.7Z" class="g3_37" />
<path fill-rule="evenodd" d="M308.4,765.3H700.1v-.7H308.4v.7Z" class="g3_37" />
<path fill-rule="evenodd" d="M700.1,765.3h.8v-.7h-.8v.7Z" class="g3_37" />
<path fill-rule="evenodd" d="M700.9,765.3H848.1v-.7H700.9v.7Z" class="g3_37" />
<path fill-rule="evenodd" d="M88,913.3h24.2v-.7H88v.7Z" class="g3_37" />
<path fill-rule="evenodd" d="M112.2,913.3h.8v-.7h-.8v.7Z" class="g3_37" />
<path fill-rule="evenodd" d="M113,913.3H250.1v-.7H113v.7Z" class="g3_37" />
<path fill-rule="evenodd" d="M250.1,913.3h.7v-.7h-.7v.7Z" class="g3_37" />
<path fill-rule="evenodd" d="M250.8,913.3h56.9v-.7H250.8v.7Z" class="g3_37" />
<path fill-rule="evenodd" d="M307.7,913.3h.7v-.7h-.7v.7Z" class="g3_37" />
<path fill-rule="evenodd" d="M308.4,913.3H700.1v-.7H308.4v.7Z" class="g3_37" />
<path fill-rule="evenodd" d="M700.1,913.3h.8v-.7h-.8v.7Z" class="g3_37" />
<path fill-rule="evenodd" d="M700.9,913.3H848.1v-.7H700.9v.7Z" class="g3_37" />
<path fill-rule="evenodd" d="M88,965.4h24.2v-.8H88v.8Z" class="g3_37" />
<path fill-rule="evenodd" d="M112.2,965.4h.8v-.8h-.8v.8Z" class="g3_37" />
<path fill-rule="evenodd" d="M113,965.4H250.1v-.8H113v.8Z" class="g3_37" />
<path fill-rule="evenodd" d="M250.1,965.4h.7v-.8h-.7v.8Z" class="g3_37" />
<path fill-rule="evenodd" d="M250.8,965.4h56.9v-.8H250.8v.8Z" class="g3_37" />
<path fill-rule="evenodd" d="M307.7,965.4h.7v-.8h-.7v.8Z" class="g3_37" />
<path fill-rule="evenodd" d="M308.4,965.4H700.1v-.8H308.4v.8Z" class="g3_37" />
<path fill-rule="evenodd" d="M700.1,965.4h.8v-.8h-.8v.8Z" class="g3_37" />
<path fill-rule="evenodd" d="M700.9,965.4H848.1v-.8H700.9v.8Z" class="g3_37" />
<path fill-rule="evenodd" d="M88,1017.5h24.2v-.8H88v.8Z" class="g3_37" />
<path fill-rule="evenodd" d="M112.2,1017.5h.8v-.8h-.8v.8Z" class="g3_37" />
<path fill-rule="evenodd" d="M113,1017.5H250.1v-.8H113v.8Z" class="g3_37" />
<path fill-rule="evenodd" d="M250.1,1017.5h.7v-.8h-.7v.8Z" class="g3_37" />
<path fill-rule="evenodd" d="M250.8,1017.5h56.9v-.8H250.8v.8Z" class="g3_37" />
<path fill-rule="evenodd" d="M307.7,1017.5h.7v-.8h-.7v.8Z" class="g3_37" />
<path fill-rule="evenodd" d="M308.4,1017.5H700.1v-.8H308.4v.8Z" class="g3_37" />
<path fill-rule="evenodd" d="M700.1,1017.5h.8v-.8h-.8v.8Z" class="g3_37" />
<path fill-rule="evenodd" d="M700.9,1017.5H848.1v-.8H700.9v.8Z" class="g3_37" />
<path fill-rule="evenodd" d="M88,1069.5h24.2v-.7H88v.7Z" class="g3_37" />
<path fill-rule="evenodd" d="M112.2,1069.5h.8v-.7h-.8v.7Z" class="g3_37" />
<path fill-rule="evenodd" d="M113,1069.5H250.1v-.7H113v.7Z" class="g3_37" />
<path fill-rule="evenodd" d="M250.1,1069.5h.7v-.7h-.7v.7Z" class="g3_37" />
<path fill-rule="evenodd" d="M250.8,1069.5h56.9v-.7H250.8v.7Z" class="g3_37" />
<path fill-rule="evenodd" d="M307.7,1069.5h.7v-.7h-.7v.7Z" class="g3_37" />
<path fill-rule="evenodd" d="M308.4,1069.5H700.1v-.7H308.4v.7Z" class="g3_37" />
<path fill-rule="evenodd" d="M700.1,1069.5h.8v-.7h-.8v.7Z" class="g3_37" />
<path fill-rule="evenodd" d="M700.9,1069.5H848.1v-.7H700.9v.7Z" class="g3_37" />
<path fill-rule="evenodd" d="M86.9,1105.7h25.3v-.8H86.9v.8Z" class="g3_37" />
<path fill-rule="evenodd" d="M111.1,1105.7h.8v-.8h-.8v.8Z" class="g3_37" />
<path fill-rule="evenodd" d="M111.9,1105.7H250.1v-.8H111.9v.8Z" class="g3_37" />
<path fill-rule="evenodd" d="M249,1105.7h.7v-.8H249v.8Z" class="g3_37" />
<path fill-rule="evenodd" d="M249.7,1105.7h58v-.8h-58v.8Z" class="g3_37" />
<path fill-rule="evenodd" d="M306.6,1105.7h.7v-.8h-.7v.8Z" class="g3_37" />
<path fill-rule="evenodd" d="M307.3,1105.7H700.1v-.8H307.3v.8Z" class="g3_37" />
<path fill-rule="evenodd" d="M699,1105.7h.8v-.8H699v.8Z" class="g3_37" />
<path fill-rule="evenodd" d="M699.8,1105.7H848.1v-.8H699.8v.8Z" class="g3_37" />
</svg>