<?xml version="1.0" encoding="UTF-8" standalone="no"?>
<!DOCTYPE svg PUBLIC "-//W3C//DTD SVG 1.1//EN"
"http://www.w3.org/Graphics/SVG/1.1/DTD/svg11.dtd">
<svg viewBox="0 0 909 1286" version="1.1" xmlns="http://www.w3.org/2000/svg" xmlns:xlink="http://www.w3.org/1999/xlink">
<defs>
<clipPath id="c0_38"><path d="M96.4,1201.4v-15.5h33v15.5Z" /></clipPath>
<style type="text/css"><![CDATA[
.g0_38{
fill: none;
stroke: #000000;
stroke-width: 4.201389;
stroke-linecap: butt;
stroke-linejoin: round;
}
.g1_38{
fill: #5EB28E;
fill-opacity: 0.6;
}
.g2_38{
fill: #FFFFFF;
}
.g3_38{
}
.g4_38{
fill: #16AAD3;
}
]]></style>
</defs>
<path d="M841.2,1171.7H796.5" class="g0_38" />
<path fill-rule="evenodd" d="M111.9,1174c-11.5,0,-20.8,9.3,-20.8,20.8c0,11.5,9.3,20.8,20.8,20.8c11.5,0,20.8,-9.3,20.8,-20.8c0,-11.5,-9.3,-20.8,-20.8,-20.8Z" class="g1_38" />
<path d="M116.9,1199.3c0,.1,.2,.3,.4,.3q1.9,0,1.9,0c.1,0,.3,-.2,.3,-.3q0,-.7,0,-.7q0,-.1,0,-.1q0,-7.1,0,-7.1q0,-.1,0,-.1q0,-.7,0,-.7c0,-.2,-.2,-.4,-.3,-.4q-1.9,0,-1.9,0c-.2,0,-.4,.2,-.4,.4q0,.5,0,.5q0,7.6,0,7.6v.6Z" class="g2_38" />
<g clip-path="url(#c0_38)">
<path d="M115.7,1195.4q0,-4.8,0,-4.8c0,-.2,-.1,-.4,-.3,-.4q-2,0,-2,0c-.1,0,-.2,.2,-.2,.4q0,4.4,0,4.4c0,1.7,-1,2.5,-2,2.4c-1,.1,-2,-.7,-1.9,-2.4q0,-4.4,0,-4.4c0,-.2,-.1,-.4,-.3,-.4q-1.9,0,-1.9,0c-.2,0,-.3,.2,-.3,.4q0,3.6,0,3.6c-.4,-2.4,-2.6,-4.2,-5.2,-4.2c-2.9,0,-5.2,2.2,-5.2,5c0,2.7,2.3,4.9,5.2,4.9c.2,0,.8,0,.9,0q2.1,1.4,2.1,1.4c.2,.1,.4,.1,.4,-.2q0,-2.4,0,-2.4c.9,-.7,1.6,-1.8,1.8,-3.1c.1,2.9,2.3,4.3,4.4,4.2c2.2,.1,4.5,-1.4,4.5,-4.4Zm-14.1,2.2c-1.5,0,-2.8,-1.2,-2.8,-2.6c0,-1.5,1.3,-2.7,2.8,-2.7c1.5,0,2.8,1.2,2.8,2.7c0,1.4,-1.3,2.6,-2.8,2.6Z" class="g2_38" />
</g>
<path d="M118.2,1186.7c-.8,0,-1.4,.6,-1.4,1.4c0,.7,.6,1.3,1.4,1.3c.8,0,1.4,-.6,1.4,-1.3c0,-.8,-.6,-1.4,-1.4,-1.4Z" class="g2_38" />
<path d="M129.3,1199q-3.4,-4.4,-3.4,-4.4q3,-3.8,3,-3.8c.1,-.1,.1,-.5,-.1,-.6c-.5,0,-1.3,0,-2.2,0c-.1,0,-.2,.1,-.4,.3q-2.9,3.7,-2.9,3.7c0,-2.7,0,-5.4,0,-8c0,-.2,-.2,-.2,-.3,-.1c-.7,.4,-1.3,.9,-2,1.3c-.2,.1,-.2,.3,-.2,.5q0,.6,0,.6q0,.7,0,.7q0,.1,0,.1q0,9.2,0,9.2q0,.1,0,.1q0,.7,0,.7c0,.1,.1,.3,.2,.3q2,0,2,0c.1,0,.3,-.2,.3,-.3q0,-.6,0,-.6q0,-3.5,0,-3.5q3.2,4.2,3.2,4.2c.1,.2,.2,.2,.4,.2c.8,0,1.8,0,2.2,0c.3,-.1,.3,-.5,.2,-.6Z" class="g2_38" />
<path fill-rule="evenodd" d="M88,107.6h24.2V103H88v4.6Z" class="g3_38" />
<path fill-rule="evenodd" d="M112.2,107.6h4.6V103h-4.6v4.6Z" class="g3_38" />
<path fill-rule="evenodd" d="M116.8,107.6H250.1V103H116.8v4.6Z" class="g3_38" />
<path fill-rule="evenodd" d="M250.1,107.6h4.6V103h-4.6v4.6Z" class="g3_38" />
<path fill-rule="evenodd" d="M254.7,107.6h53V103h-53v4.6Z" class="g3_38" />
<path fill-rule="evenodd" d="M307.7,107.6h4.6V103h-4.6v4.6Z" class="g3_38" />
<path fill-rule="evenodd" d="M312.3,107.6H700.1V103H312.3v4.6Z" class="g3_38" />
<path fill-rule="evenodd" d="M700.1,107.6h4.6V103h-4.6v4.6Z" class="g3_38" />
<path fill-rule="evenodd" d="M704.7,107.6H848.1V103H704.7v4.6Z" class="g3_38" />
<path fill-rule="evenodd" d="M88,155.9h24.2v-.8H88v.8Z" class="g3_38" />
<path fill-rule="evenodd" d="M112.2,155.9h.8v-.8h-.8v.8Z" class="g3_38" />
<path fill-rule="evenodd" d="M113,155.9H250.1v-.8H113v.8Z" class="g3_38" />
<path fill-rule="evenodd" d="M250.1,155.9h.7v-.8h-.7v.8Z" class="g3_38" />
<path fill-rule="evenodd" d="M250.8,155.9h56.9v-.8H250.8v.8Z" class="g3_38" />
<path fill-rule="evenodd" d="M307.7,155.9h.7v-.8h-.7v.8Z" class="g3_38" />
<path fill-rule="evenodd" d="M308.4,155.9H700.1v-.8H308.4v.8Z" class="g3_38" />
<path fill-rule="evenodd" d="M700.1,155.9h.8v-.8h-.8v.8Z" class="g3_38" />
<path fill-rule="evenodd" d="M700.9,155.9H848.1v-.8H700.9v.8Z" class="g3_38" />
<path fill-rule="evenodd" d="M88,246.4h24.2v-.7H88v.7Z" class="g3_38" />
<path fill-rule="evenodd" d="M112.2,246.4h.8v-.7h-.8v.7Z" class="g3_38" />
<path fill-rule="evenodd" d="M113,246.4H250.1v-.7H113v.7Z" class="g3_38" />
<path fill-rule="evenodd" d="M250.1,246.4h.7v-.7h-.7v.7Z" class="g3_38" />
<path fill-rule="evenodd" d="M250.8,246.4h56.9v-.7H250.8v.7Z" class="g3_38" />
<path fill-rule="evenodd" d="M307.7,246.4h.7v-.7h-.7v.7Z" class="g3_38" />
<path fill-rule="evenodd" d="M308.4,246.4H700.1v-.7H308.4v.7Z" class="g3_38" />
<path fill-rule="evenodd" d="M700.1,246.4h.8v-.7h-.8v.7Z" class="g3_38" />
<path fill-rule="evenodd" d="M700.9,246.4H848.1v-.7H700.9v.7Z" class="g3_38" />
<path fill-rule="evenodd" d="M88,298.5h24.2v-.7H88v.7Z" class="g3_38" />
<path fill-rule="evenodd" d="M112.2,298.5h.8v-.7h-.8v.7Z" class="g3_38" />
<path fill-rule="evenodd" d="M113,298.5H250.1v-.7H113v.7Z" class="g3_38" />
<path fill-rule="evenodd" d="M250.1,298.5h.7v-.7h-.7v.7Z" class="g3_38" />
<path fill-rule="evenodd" d="M250.8,298.5h56.9v-.7H250.8v.7Z" class="g3_38" />
<path fill-rule="evenodd" d="M307.7,298.5h.7v-.7h-.7v.7Z" class="g3_38" />
<path fill-rule="evenodd" d="M308.4,298.5H700.1v-.7H308.4v.7Z" class="g3_38" />
<path fill-rule="evenodd" d="M700.1,298.5h.8v-.7h-.8v.7Z" class="g3_38" />
<path fill-rule="evenodd" d="M700.9,298.5H848.1v-.7H700.9v.7Z" class="g3_38" />
<path fill-rule="evenodd" d="M86.9,369.6h25.3v-.7H86.9v.7Z" class="g3_38" />
<path fill-rule="evenodd" d="M111.1,369.6h.8v-.7h-.8v.7Z" class="g3_38" />
<path fill-rule="evenodd" d="M111.9,369.6H250.1v-.7H111.9v.7Z" class="g3_38" />
<path fill-rule="evenodd" d="M249,369.6h.7v-.7H249v.7Z" class="g3_38" />
<path fill-rule="evenodd" d="M249.7,369.6h58v-.7h-58v.7Z" class="g3_38" />
<path fill-rule="evenodd" d="M306.6,369.6h.7v-.7h-.7v.7Z" class="g3_38" />
<path fill-rule="evenodd" d="M307.3,369.6H700.1v-.7H307.3v.7Z" class="g3_38" />
<path fill-rule="evenodd" d="M699,369.6h.8v-.7H699v.7Z" class="g3_38" />
<path fill-rule="evenodd" d="M699.8,369.6H848.1v-.7H699.8v.7Z" class="g3_38" />
<path fill-rule="evenodd" d="M108.9,720.6h4.6V696.4h-4.6v24.2Z" class="g3_38" />
<path fill-rule="evenodd" d="M108.9,744.8h4.6V720.6h-4.6v24.2Z" class="g3_38" />
<path fill-rule="evenodd" d="M108.9,768.8h4.6v-24h-4.6v24Z" class="g3_38" />
<path fill-rule="evenodd" d="M108.9,793h4.6V768.8h-4.6V793Z" class="g3_38" />
<path fill-rule="evenodd" d="M147.1,870.9h43.4V870H147.1v.9Z" class="g4_38" />
<path fill-rule="evenodd" d="M88,972.9h24.2v-4.6H88v4.6Z" class="g3_38" />
<path fill-rule="evenodd" d="M112.2,972.9h4.6v-4.6h-4.6v4.6Z" class="g3_38" />
<path fill-rule="evenodd" d="M116.8,972.9H289.7v-4.6H116.8v4.6Z" class="g3_38" />
<path fill-rule="evenodd" d="M289.7,972.9h4.6v-4.6h-4.6v4.6Z" class="g3_38" />
<path fill-rule="evenodd" d="M294.3,972.9h92.6v-4.6H294.3v4.6Z" class="g3_38" />
<path fill-rule="evenodd" d="M386.9,972.9h4.6v-4.6h-4.6v4.6Z" class="g3_38" />
<path fill-rule="evenodd" d="M391.5,972.9H672.1v-4.6H391.5v4.6Z" class="g3_38" />
<path fill-rule="evenodd" d="M672.1,972.9h4.6v-4.6h-4.6v4.6Z" class="g3_38" />
<path fill-rule="evenodd" d="M676.7,972.9H846.2v-4.6H676.7v4.6Z" class="g3_38" />
<path fill-rule="evenodd" d="M88,1028.1h24.2v-.7H88v.7Z" class="g3_38" />
<path fill-rule="evenodd" d="M112.2,1028.1h.8v-.7h-.8v.7Z" class="g3_38" />
<path fill-rule="evenodd" d="M113,1028.1H289.7v-.7H113v.7Z" class="g3_38" />
<path fill-rule="evenodd" d="M289.7,1028.1h.8v-.7h-.8v.7Z" class="g3_38" />
<path fill-rule="evenodd" d="M290.5,1028.1h96.4v-.7H290.5v.7Z" class="g3_38" />
<path fill-rule="evenodd" d="M386.9,1028.1h.7v-.7h-.7v.7Z" class="g3_38" />
<path fill-rule="evenodd" d="M387.6,1028.1H672.1v-.7H387.6v.7Z" class="g3_38" />
<path fill-rule="evenodd" d="M672.1,1028.1h.7v-.7h-.7v.7Z" class="g3_38" />
<path fill-rule="evenodd" d="M672.8,1028.1H846.2v-.7H672.8v.7Z" class="g3_38" />
<path fill-rule="evenodd" d="M88,1083.3h24.2v-.7H88v.7Z" class="g3_38" />
<path fill-rule="evenodd" d="M112.2,1083.3h.8v-.7h-.8v.7Z" class="g3_38" />
<path fill-rule="evenodd" d="M113,1083.3H289.7v-.7H113v.7Z" class="g3_38" />
<path fill-rule="evenodd" d="M289.7,1083.3h.8v-.7h-.8v.7Z" class="g3_38" />
<path fill-rule="evenodd" d="M290.5,1083.3h96.4v-.7H290.5v.7Z" class="g3_38" />
<path fill-rule="evenodd" d="M386.9,1083.3h.7v-.7h-.7v.7Z" class="g3_38" />
<path fill-rule="evenodd" d="M387.6,1083.3H672.1v-.7H387.6v.7Z" class="g3_38" />
<path fill-rule="evenodd" d="M672.1,1083.3h.7v-.7h-.7v.7Z" class="g3_38" />
<path fill-rule="evenodd" d="M672.8,1083.3H846.2v-.7H672.8v.7Z" class="g3_38" />
<path fill-rule="evenodd" d="M86.9,1138.6h25.3v-.7H86.9v.7Z" class="g3_38" />
<path fill-rule="evenodd" d="M111.1,1138.6h.8v-.7h-.8v.7Z" class="g3_38" />
<path fill-rule="evenodd" d="M111.9,1138.6H289.7v-.7H111.9v.7Z" class="g3_38" />
<path fill-rule="evenodd" d="M288.6,1138.6h.8v-.7h-.8v.7Z" class="g3_38" />
<path fill-rule="evenodd" d="M289.4,1138.6h97.5v-.7H289.4v.7Z" class="g3_38" />
<path fill-rule="evenodd" d="M385.8,1138.6h.7v-.7h-.7v.7Z" class="g3_38" />
<path fill-rule="evenodd" d="M386.5,1138.6H672.1v-.7H386.5v.7Z" class="g3_38" />
<path fill-rule="evenodd" d="M671,1138.6h.7v-.7H671v.7Z" class="g3_38" />
<path fill-rule="evenodd" d="M671.7,1138.6H846.2v-.7H671.7v.7Z" class="g3_38" />
</svg>