<?xml version="1.0" encoding="UTF-8" standalone="no"?>
<!DOCTYPE svg PUBLIC "-//W3C//DTD SVG 1.1//EN"
"http://www.w3.org/Graphics/SVG/1.1/DTD/svg11.dtd">
<svg viewBox="0 0 909 1286" version="1.1" xmlns="http://www.w3.org/2000/svg" xmlns:xlink="http://www.w3.org/1999/xlink">
<defs>
<clipPath id="c0_40"><path d="M96.4,1201.4v-15.5h33v15.5Z" /></clipPath>
<style type="text/css"><![CDATA[
.g0_40{
fill: none;
stroke: #000000;
stroke-width: 4.201389;
stroke-linecap: butt;
stroke-linejoin: round;
}
.g1_40{
fill: #5EB28E;
fill-opacity: 0.6;
}
.g2_40{
fill: #FFFFFF;
}
.g3_40{
}
]]></style>
</defs>
<path d="M841.2,1171.7H796.5" class="g0_40" />
<path fill-rule="evenodd" d="M111.9,1174c-11.5,0,-20.8,9.3,-20.8,20.8c0,11.5,9.3,20.8,20.8,20.8c11.5,0,20.8,-9.3,20.8,-20.8c0,-11.5,-9.3,-20.8,-20.8,-20.8Z" class="g1_40" />
<path d="M116.9,1199.3c0,.1,.2,.3,.4,.3q1.9,0,1.9,0c.1,0,.3,-.2,.3,-.3q0,-.7,0,-.7q0,-.1,0,-.1q0,-7.1,0,-7.1q0,-.1,0,-.1q0,-.7,0,-.7c0,-.2,-.2,-.4,-.3,-.4q-1.9,0,-1.9,0c-.2,0,-.4,.2,-.4,.4q0,.5,0,.5q0,7.6,0,7.6v.6Z" class="g2_40" />
<g clip-path="url(#c0_40)">
<path d="M115.7,1195.4q0,-4.8,0,-4.8c0,-.2,-.1,-.4,-.3,-.4q-2,0,-2,0c-.1,0,-.2,.2,-.2,.4q0,4.4,0,4.4c0,1.7,-1,2.5,-2,2.4c-1,.1,-2,-.7,-1.9,-2.4q0,-4.4,0,-4.4c0,-.2,-.1,-.4,-.3,-.4q-1.9,0,-1.9,0c-.2,0,-.3,.2,-.3,.4q0,3.6,0,3.6c-.4,-2.4,-2.6,-4.2,-5.2,-4.2c-2.9,0,-5.2,2.2,-5.2,5c0,2.7,2.3,4.9,5.2,4.9c.2,0,.8,0,.9,0q2.1,1.4,2.1,1.4c.2,.1,.4,.1,.4,-.2q0,-2.4,0,-2.4c.9,-.7,1.6,-1.8,1.8,-3.1c.1,2.9,2.3,4.3,4.4,4.2c2.2,.1,4.5,-1.4,4.5,-4.4Zm-14.1,2.2c-1.5,0,-2.8,-1.2,-2.8,-2.6c0,-1.5,1.3,-2.7,2.8,-2.7c1.5,0,2.8,1.2,2.8,2.7c0,1.4,-1.3,2.6,-2.8,2.6Z" class="g2_40" />
</g>
<path d="M118.2,1186.7c-.8,0,-1.4,.6,-1.4,1.4c0,.7,.6,1.3,1.4,1.3c.8,0,1.4,-.6,1.4,-1.3c0,-.8,-.6,-1.4,-1.4,-1.4Z" class="g2_40" />
<path d="M129.3,1199q-3.4,-4.4,-3.4,-4.4q3,-3.8,3,-3.8c.1,-.1,.1,-.5,-.1,-.6c-.5,0,-1.3,0,-2.2,0c-.1,0,-.2,.1,-.4,.3q-2.9,3.7,-2.9,3.7c0,-2.7,0,-5.4,0,-8c0,-.2,-.2,-.2,-.3,-.1c-.7,.4,-1.3,.9,-2,1.3c-.2,.1,-.2,.3,-.2,.5q0,.6,0,.6q0,.7,0,.7q0,.1,0,.1q0,9.2,0,9.2q0,.1,0,.1q0,.7,0,.7c0,.1,.1,.3,.2,.3q2,0,2,0c.1,0,.3,-.2,.3,-.3q0,-.6,0,-.6q0,-3.5,0,-3.5q3.2,4.2,3.2,4.2c.1,.2,.2,.2,.4,.2c.8,0,1.8,0,2.2,0c.3,-.1,.3,-.5,.2,-.6Z" class="g2_40" />
<path fill-rule="evenodd" d="M88,571.3h24.2v-4.5H88v4.5Z" class="g3_40" />
<path fill-rule="evenodd" d="M112.2,571.3h4.6v-4.5h-4.6v4.5Z" class="g3_40" />
<path fill-rule="evenodd" d="M116.8,571.3H238.2v-4.5H116.8v4.5Z" class="g3_40" />
<path fill-rule="evenodd" d="M238.2,571.3h4.6v-4.5h-4.6v4.5Z" class="g3_40" />
<path fill-rule="evenodd" d="M242.8,571.3h53v-4.5h-53v4.5Z" class="g3_40" />
<path fill-rule="evenodd" d="M295.8,571.3h4.6v-4.5h-4.6v4.5Z" class="g3_40" />
<path fill-rule="evenodd" d="M300.4,571.3H845v-4.5H300.4v4.5Z" class="g3_40" />
<path fill-rule="evenodd" d="M88,638.1h24.2v-.8H88v.8Z" class="g3_40" />
<path fill-rule="evenodd" d="M112.2,638.1h.8v-.8h-.8v.8Z" class="g3_40" />
<path fill-rule="evenodd" d="M113,638.1H238.2v-.8H113v.8Z" class="g3_40" />
<path fill-rule="evenodd" d="M238.2,638.1h.7v-.8h-.7v.8Z" class="g3_40" />
<path fill-rule="evenodd" d="M238.9,638.1h56.9v-.8H238.9v.8Z" class="g3_40" />
<path fill-rule="evenodd" d="M295.8,638.1h.7v-.8h-.7v.8Z" class="g3_40" />
<path fill-rule="evenodd" d="M296.5,638.1H845v-.8H296.5v.8Z" class="g3_40" />
<path fill-rule="evenodd" d="M88,727h24.2v-.7H88v.7Z" class="g3_40" />
<path fill-rule="evenodd" d="M112.2,727h.8v-.7h-.8v.7Z" class="g3_40" />
<path fill-rule="evenodd" d="M113,727H238.2v-.7H113v.7Z" class="g3_40" />
<path fill-rule="evenodd" d="M238.2,727h.7v-.7h-.7v.7Z" class="g3_40" />
<path fill-rule="evenodd" d="M238.9,727h56.9v-.7H238.9v.7Z" class="g3_40" />
<path fill-rule="evenodd" d="M295.8,727h.7v-.7h-.7v.7Z" class="g3_40" />
<path fill-rule="evenodd" d="M296.5,727H845v-.7H296.5v.7Z" class="g3_40" />
<path fill-rule="evenodd" d="M88,761.5h24.2v-.7H88v.7Z" class="g3_40" />
<path fill-rule="evenodd" d="M112.2,761.5h.8v-.7h-.8v.7Z" class="g3_40" />
<path fill-rule="evenodd" d="M113,761.5H238.2v-.7H113v.7Z" class="g3_40" />
<path fill-rule="evenodd" d="M238.2,761.5h.7v-.7h-.7v.7Z" class="g3_40" />
<path fill-rule="evenodd" d="M238.9,761.5h56.9v-.7H238.9v.7Z" class="g3_40" />
<path fill-rule="evenodd" d="M295.8,761.5h.7v-.7h-.7v.7Z" class="g3_40" />
<path fill-rule="evenodd" d="M296.5,761.5H845v-.7H296.5v.7Z" class="g3_40" />
<path fill-rule="evenodd" d="M88,796.1h24.2v-.7H88v.7Z" class="g3_40" />
<path fill-rule="evenodd" d="M112.2,796.1h.8v-.7h-.8v.7Z" class="g3_40" />
<path fill-rule="evenodd" d="M113,796.1H238.2v-.7H113v.7Z" class="g3_40" />
<path fill-rule="evenodd" d="M238.2,796.1h.7v-.7h-.7v.7Z" class="g3_40" />
<path fill-rule="evenodd" d="M238.9,796.1h56.9v-.7H238.9v.7Z" class="g3_40" />
<path fill-rule="evenodd" d="M295.8,796.1h.7v-.7h-.7v.7Z" class="g3_40" />
<path fill-rule="evenodd" d="M296.5,796.1H845v-.7H296.5v.7Z" class="g3_40" />
<path fill-rule="evenodd" d="M88,830.6h24.2v-.7H88v.7Z" class="g3_40" />
<path fill-rule="evenodd" d="M112.2,830.6h.8v-.7h-.8v.7Z" class="g3_40" />
<path fill-rule="evenodd" d="M113,830.6H238.2v-.7H113v.7Z" class="g3_40" />
<path fill-rule="evenodd" d="M238.2,830.6h.7v-.7h-.7v.7Z" class="g3_40" />
<path fill-rule="evenodd" d="M238.9,830.6h56.9v-.7H238.9v.7Z" class="g3_40" />
<path fill-rule="evenodd" d="M295.8,830.6h.7v-.7h-.7v.7Z" class="g3_40" />
<path fill-rule="evenodd" d="M296.5,830.6H845v-.7H296.5v.7Z" class="g3_40" />
<path fill-rule="evenodd" d="M88,865.1h24.2v-.8H88v.8Z" class="g3_40" />
<path fill-rule="evenodd" d="M112.2,865.1h.8v-.8h-.8v.8Z" class="g3_40" />
<path fill-rule="evenodd" d="M113,865.1H238.2v-.8H113v.8Z" class="g3_40" />
<path fill-rule="evenodd" d="M238.2,865.1h.7v-.8h-.7v.8Z" class="g3_40" />
<path fill-rule="evenodd" d="M238.9,865.1h56.9v-.8H238.9v.8Z" class="g3_40" />
<path fill-rule="evenodd" d="M295.8,865.1h.7v-.8h-.7v.8Z" class="g3_40" />
<path fill-rule="evenodd" d="M296.5,865.1H845v-.8H296.5v.8Z" class="g3_40" />
<path fill-rule="evenodd" d="M88,899.5h24.2v-.7H88v.7Z" class="g3_40" />
<path fill-rule="evenodd" d="M112.2,899.5h.8v-.7h-.8v.7Z" class="g3_40" />
<path fill-rule="evenodd" d="M113,899.5H238.2v-.7H113v.7Z" class="g3_40" />
<path fill-rule="evenodd" d="M238.2,899.5h.7v-.7h-.7v.7Z" class="g3_40" />
<path fill-rule="evenodd" d="M238.9,899.5h56.9v-.7H238.9v.7Z" class="g3_40" />
<path fill-rule="evenodd" d="M295.8,899.5h.7v-.7h-.7v.7Z" class="g3_40" />
<path fill-rule="evenodd" d="M296.5,899.5H845v-.7H296.5v.7Z" class="g3_40" />
<path fill-rule="evenodd" d="M88,954.9h24.2v-.7H88v.7Z" class="g3_40" />
<path fill-rule="evenodd" d="M112.2,954.9h.8v-.7h-.8v.7Z" class="g3_40" />
<path fill-rule="evenodd" d="M113,954.9H238.2v-.7H113v.7Z" class="g3_40" />
<path fill-rule="evenodd" d="M238.2,954.9h.7v-.7h-.7v.7Z" class="g3_40" />
<path fill-rule="evenodd" d="M238.9,954.9h56.9v-.7H238.9v.7Z" class="g3_40" />
<path fill-rule="evenodd" d="M295.8,954.9h.7v-.7h-.7v.7Z" class="g3_40" />
<path fill-rule="evenodd" d="M296.5,954.9H845v-.7H296.5v.7Z" class="g3_40" />
<path fill-rule="evenodd" d="M88,1010.1h24.2v-.7H88v.7Z" class="g3_40" />
<path fill-rule="evenodd" d="M112.2,1010.1h.8v-.7h-.8v.7Z" class="g3_40" />
<path fill-rule="evenodd" d="M113,1010.1H238.2v-.7H113v.7Z" class="g3_40" />
<path fill-rule="evenodd" d="M238.2,1010.1h.7v-.7h-.7v.7Z" class="g3_40" />
<path fill-rule="evenodd" d="M238.9,1010.1h56.9v-.7H238.9v.7Z" class="g3_40" />
<path fill-rule="evenodd" d="M295.8,1010.1h.7v-.7h-.7v.7Z" class="g3_40" />
<path fill-rule="evenodd" d="M296.5,1010.1H845v-.7H296.5v.7Z" class="g3_40" />
<path fill-rule="evenodd" d="M88,1065.3h24.2v-.7H88v.7Z" class="g3_40" />
<path fill-rule="evenodd" d="M112.2,1065.3h.8v-.7h-.8v.7Z" class="g3_40" />
<path fill-rule="evenodd" d="M113,1065.3H238.2v-.7H113v.7Z" class="g3_40" />
<path fill-rule="evenodd" d="M238.2,1065.3h.7v-.7h-.7v.7Z" class="g3_40" />
<path fill-rule="evenodd" d="M238.9,1065.3h56.9v-.7H238.9v.7Z" class="g3_40" />
<path fill-rule="evenodd" d="M295.8,1065.3h.7v-.7h-.7v.7Z" class="g3_40" />
<path fill-rule="evenodd" d="M296.5,1065.3H845v-.7H296.5v.7Z" class="g3_40" />
<path fill-rule="evenodd" d="M86.9,1100h25.3v-.8H86.9v.8Z" class="g3_40" />
<path fill-rule="evenodd" d="M111.1,1100h.8v-.8h-.8v.8Z" class="g3_40" />
<path fill-rule="evenodd" d="M111.9,1100H238.2v-.8H111.9v.8Z" class="g3_40" />
<path fill-rule="evenodd" d="M237.1,1100h.7v-.8h-.7v.8Z" class="g3_40" />
<path fill-rule="evenodd" d="M237.8,1100h58v-.8h-58v.8Z" class="g3_40" />
<path fill-rule="evenodd" d="M294.7,1100h.7v-.8h-.7v.8Z" class="g3_40" />
<path fill-rule="evenodd" d="M295.4,1100H845v-.8H295.4v.8Z" class="g3_40" />
</svg>