<?xml version="1.0" encoding="UTF-8" standalone="no"?>
<!DOCTYPE svg PUBLIC "-//W3C//DTD SVG 1.1//EN"
"http://www.w3.org/Graphics/SVG/1.1/DTD/svg11.dtd">
<svg viewBox="0 0 909 1286" version="1.1" xmlns="http://www.w3.org/2000/svg" xmlns:xlink="http://www.w3.org/1999/xlink">
<defs>
<clipPath id="c0_104"><path d="M96.4,1201.4v-15.5h33v15.5Z" /></clipPath>
<style type="text/css"><![CDATA[
.g0_104{
fill: none;
stroke: #000000;
stroke-width: 4.201389;
stroke-linecap: butt;
stroke-linejoin: round;
}
.g1_104{
fill: #5EB28E;
fill-opacity: 0.6;
}
.g2_104{
fill: #FFFFFF;
}
.g3_104{
fill: #F1F1F1;
}
]]></style>
</defs>
<path d="M841.2,1171.7H796.5" class="g0_104" />
<path fill-rule="evenodd" d="M111.9,1174c-11.5,0,-20.8,9.3,-20.8,20.8c0,11.5,9.3,20.8,20.8,20.8c11.5,0,20.8,-9.3,20.8,-20.8c0,-11.5,-9.3,-20.8,-20.8,-20.8Z" class="g1_104" />
<path d="M116.9,1199.3c0,.1,.2,.3,.4,.3q1.9,0,1.9,0c.1,0,.3,-.2,.3,-.3q0,-.7,0,-.7q0,-.1,0,-.1q0,-7.1,0,-7.1q0,-.1,0,-.1q0,-.7,0,-.7c0,-.2,-.2,-.4,-.3,-.4q-1.9,0,-1.9,0c-.2,0,-.4,.2,-.4,.4q0,.5,0,.5q0,7.6,0,7.6v.6Z" class="g2_104" />
<g clip-path="url(#c0_104)">
<path d="M115.7,1195.4q0,-4.8,0,-4.8c0,-.2,-.1,-.4,-.3,-.4q-2,0,-2,0c-.1,0,-.2,.2,-.2,.4q0,4.4,0,4.4c0,1.7,-1,2.5,-2,2.4c-1,.1,-2,-.7,-1.9,-2.4q0,-4.4,0,-4.4c0,-.2,-.1,-.4,-.3,-.4q-1.9,0,-1.9,0c-.2,0,-.3,.2,-.3,.4q0,3.6,0,3.6c-.4,-2.4,-2.6,-4.2,-5.2,-4.2c-2.9,0,-5.2,2.2,-5.2,5c0,2.7,2.3,4.9,5.2,4.9c.2,0,.8,0,.9,0q2.1,1.4,2.1,1.4c.2,.1,.4,.1,.4,-.2q0,-2.4,0,-2.4c.9,-.7,1.6,-1.8,1.8,-3.1c.1,2.9,2.3,4.3,4.4,4.2c2.2,.1,4.5,-1.4,4.5,-4.4Zm-14.1,2.2c-1.5,0,-2.8,-1.2,-2.8,-2.6c0,-1.5,1.3,-2.7,2.8,-2.7c1.5,0,2.8,1.2,2.8,2.7c0,1.4,-1.3,2.6,-2.8,2.6Z" class="g2_104" />
</g>
<path d="M118.2,1186.7c-.8,0,-1.4,.6,-1.4,1.4c0,.7,.6,1.3,1.4,1.3c.8,0,1.4,-.6,1.4,-1.3c0,-.8,-.6,-1.4,-1.4,-1.4Z" class="g2_104" />
<path d="M129.3,1199q-3.4,-4.4,-3.4,-4.4q3,-3.8,3,-3.8c.1,-.1,.1,-.5,-.1,-.6c-.5,0,-1.3,0,-2.2,0c-.1,0,-.2,.1,-.4,.3q-2.9,3.7,-2.9,3.7c0,-2.7,0,-5.4,0,-8c0,-.2,-.2,-.2,-.3,-.1c-.7,.4,-1.3,.9,-2,1.3c-.2,.1,-.2,.3,-.2,.5q0,.6,0,.6q0,.7,0,.7q0,.1,0,.1q0,9.2,0,9.2q0,.1,0,.1q0,.7,0,.7c0,.1,.1,.3,.2,.3q2,0,2,0c.1,0,.3,-.2,.3,-.3q0,-.6,0,-.6q0,-3.5,0,-3.5q3.2,4.2,3.2,4.2c.1,.2,.2,.2,.4,.2c.8,0,1.8,0,2.2,0c.3,-.1,.3,-.5,.2,-.6Z" class="g2_104" />
<path fill-rule="evenodd" d="M133.7,99.5H845.9V75.2H133.7V99.5Z" class="g3_104" />
<path fill-rule="evenodd" d="M124.5,75.2h9.2V66h-9.2v9.2Z" class="g3_104" />
<path fill-rule="evenodd" d="M124.5,75.2h9.2V66h-9.2v9.2Z" class="g3_104" />
<path fill-rule="evenodd" d="M133.7,75.2H845.9V66H133.7v9.2Z" class="g3_104" />
<path fill-rule="evenodd" d="M124.5,99.5h9.2V75.2h-9.2V99.5Z" class="g3_104" />
<path fill-rule="evenodd" d="M133.7,122.5H845.9v-23H133.7v23Z" class="g3_104" />
<path fill-rule="evenodd" d="M124.5,122.5h9.2v-23h-9.2v23Z" class="g3_104" />
<path fill-rule="evenodd" d="M133.7,145.4H845.9V122.5H133.7v22.9Z" class="g3_104" />
<path fill-rule="evenodd" d="M124.5,145.4h9.2V122.5h-9.2v22.9Z" class="g3_104" />
<path fill-rule="evenodd" d="M133.7,168.3H845.9V145.4H133.7v22.9Z" class="g3_104" />
<path fill-rule="evenodd" d="M124.5,168.3h9.2V145.4h-9.2v22.9Z" class="g3_104" />
<path fill-rule="evenodd" d="M133.7,191.2H845.9V168.3H133.7v22.9Z" class="g3_104" />
<path fill-rule="evenodd" d="M124.5,191.2h9.2V168.3h-9.2v22.9Z" class="g3_104" />
<path fill-rule="evenodd" d="M133.7,214.2H845.9v-23H133.7v23Z" class="g3_104" />
<path fill-rule="evenodd" d="M124.5,214.2h9.2v-23h-9.2v23Z" class="g3_104" />
<path fill-rule="evenodd" d="M133.7,237.1H845.9V214.2H133.7v22.9Z" class="g3_104" />
<path fill-rule="evenodd" d="M124.5,237.1h9.2V214.2h-9.2v22.9Z" class="g3_104" />
<path fill-rule="evenodd" d="M133.7,260H845.9V237.1H133.7V260Z" class="g3_104" />
<path fill-rule="evenodd" d="M124.5,260h9.2V237.1h-9.2V260Z" class="g3_104" />
<path fill-rule="evenodd" d="M133.7,282.9H845.9V260H133.7v22.9Z" class="g3_104" />
<path fill-rule="evenodd" d="M124.5,282.9h9.2V260h-9.2v22.9Z" class="g3_104" />
<path fill-rule="evenodd" d="M133.7,305.8H845.9V282.9H133.7v22.9Z" class="g3_104" />
<path fill-rule="evenodd" d="M124.5,305.8h9.2V282.9h-9.2v22.9Z" class="g3_104" />
<path fill-rule="evenodd" d="M133.7,328.7H845.9V305.8H133.7v22.9Z" class="g3_104" />
<path fill-rule="evenodd" d="M124.5,328.7h9.2V305.8h-9.2v22.9Z" class="g3_104" />
<path fill-rule="evenodd" d="M133.7,351.7H845.9v-23H133.7v23Z" class="g3_104" />
<path fill-rule="evenodd" d="M124.5,351.7h9.2v-23h-9.2v23Z" class="g3_104" />
<path fill-rule="evenodd" d="M133.7,374.6H845.9V351.7H133.7v22.9Z" class="g3_104" />
<path fill-rule="evenodd" d="M124.5,374.6h9.2V351.7h-9.2v22.9Z" class="g3_104" />
<path fill-rule="evenodd" d="M133.7,397.5H845.9V374.6H133.7v22.9Z" class="g3_104" />
<path fill-rule="evenodd" d="M124.5,397.5h9.2V374.6h-9.2v22.9Z" class="g3_104" />
<path fill-rule="evenodd" d="M133.7,420.4H845.9V397.5H133.7v22.9Z" class="g3_104" />
<path fill-rule="evenodd" d="M124.5,420.4h9.2V397.5h-9.2v22.9Z" class="g3_104" />
<path fill-rule="evenodd" d="M133.7,443.4H845.9v-23H133.7v23Z" class="g3_104" />
<path fill-rule="evenodd" d="M124.5,443.4h9.2v-23h-9.2v23Z" class="g3_104" />
<path fill-rule="evenodd" d="M133.7,466.3H845.9V443.4H133.7v22.9Z" class="g3_104" />
<path fill-rule="evenodd" d="M124.5,466.3h9.2V443.4h-9.2v22.9Z" class="g3_104" />
<path fill-rule="evenodd" d="M133.7,489.2H845.9V466.3H133.7v22.9Z" class="g3_104" />
<path fill-rule="evenodd" d="M124.5,489.2h9.2V466.3h-9.2v22.9Z" class="g3_104" />
<path fill-rule="evenodd" d="M133.7,512.1H845.9V489.2H133.7v22.9Z" class="g3_104" />
<path fill-rule="evenodd" d="M124.5,512.1h9.2V489.2h-9.2v22.9Z" class="g3_104" />
<path fill-rule="evenodd" d="M133.7,535H845.9V512.1H133.7V535Z" class="g3_104" />
<path fill-rule="evenodd" d="M124.5,535h9.2V512.1h-9.2V535Z" class="g3_104" />
<path fill-rule="evenodd" d="M133.7,558H845.9V535H133.7v23Z" class="g3_104" />
<path fill-rule="evenodd" d="M124.5,558h9.2V535h-9.2v23Z" class="g3_104" />
<path fill-rule="evenodd" d="M133.7,580.9H845.9V558H133.7v22.9Z" class="g3_104" />
<path fill-rule="evenodd" d="M124.5,580.9h9.2V558h-9.2v22.9Z" class="g3_104" />
<path fill-rule="evenodd" d="M133.7,603.8H845.9V580.9H133.7v22.9Z" class="g3_104" />
<path fill-rule="evenodd" d="M124.5,603.8h9.2V580.9h-9.2v22.9Z" class="g3_104" />
<path fill-rule="evenodd" d="M133.7,626.7H845.9V603.8H133.7v22.9Z" class="g3_104" />
<path fill-rule="evenodd" d="M124.5,626.7h9.2V603.8h-9.2v22.9Z" class="g3_104" />
<path fill-rule="evenodd" d="M133.7,649.6H845.9V626.7H133.7v22.9Z" class="g3_104" />
<path fill-rule="evenodd" d="M124.5,649.6h9.2V626.7h-9.2v22.9Z" class="g3_104" />
<path fill-rule="evenodd" d="M133.7,672.5H845.9V649.6H133.7v22.9Z" class="g3_104" />
<path fill-rule="evenodd" d="M124.5,672.5h9.2V649.6h-9.2v22.9Z" class="g3_104" />
<path fill-rule="evenodd" d="M133.7,695.5H845.9v-23H133.7v23Z" class="g3_104" />
<path fill-rule="evenodd" d="M124.5,695.5h9.2v-23h-9.2v23Z" class="g3_104" />
<path fill-rule="evenodd" d="M133.7,718.4H845.9V695.5H133.7v22.9Z" class="g3_104" />
<path fill-rule="evenodd" d="M124.5,718.4h9.2V695.5h-9.2v22.9Z" class="g3_104" />
<path fill-rule="evenodd" d="M133.7,741.3H845.9V718.4H133.7v22.9Z" class="g3_104" />
<path fill-rule="evenodd" d="M124.5,741.3h9.2V718.4h-9.2v22.9Z" class="g3_104" />
<path fill-rule="evenodd" d="M133.7,764.2H845.9V741.3H133.7v22.9Z" class="g3_104" />
<path fill-rule="evenodd" d="M124.5,764.2h9.2V741.3h-9.2v22.9Z" class="g3_104" />
<path fill-rule="evenodd" d="M133.7,787.2H845.9v-23H133.7v23Z" class="g3_104" />
<path fill-rule="evenodd" d="M124.5,787.2h9.2v-23h-9.2v23Z" class="g3_104" />
<path fill-rule="evenodd" d="M133.7,810.1H845.9V787.2H133.7v22.9Z" class="g3_104" />
<path fill-rule="evenodd" d="M124.5,810.1h9.2V787.2h-9.2v22.9Z" class="g3_104" />
<path fill-rule="evenodd" d="M133.7,833H845.9V810.1H133.7V833Z" class="g3_104" />
<path fill-rule="evenodd" d="M124.5,833h9.2V810.1h-9.2V833Z" class="g3_104" />
<path fill-rule="evenodd" d="M133.7,855.9H845.9V833H133.7v22.9Z" class="g3_104" />
<path fill-rule="evenodd" d="M124.5,855.9h9.2V833h-9.2v22.9Z" class="g3_104" />
<path fill-rule="evenodd" d="M133.7,878.8H845.9V855.9H133.7v22.9Z" class="g3_104" />
<path fill-rule="evenodd" d="M124.5,878.8h9.2V855.9h-9.2v22.9Z" class="g3_104" />
<path fill-rule="evenodd" d="M133.7,901.7H845.9V878.8H133.7v22.9Z" class="g3_104" />
<path fill-rule="evenodd" d="M124.5,901.7h9.2V878.8h-9.2v22.9Z" class="g3_104" />
<path fill-rule="evenodd" d="M133.7,924.7H845.9v-23H133.7v23Z" class="g3_104" />
<path fill-rule="evenodd" d="M124.5,924.7h9.2v-23h-9.2v23Z" class="g3_104" />
<path fill-rule="evenodd" d="M133.7,947.6H845.9V924.7H133.7v22.9Z" class="g3_104" />
<path fill-rule="evenodd" d="M124.5,947.6h9.2V924.7h-9.2v22.9Z" class="g3_104" />
<path fill-rule="evenodd" d="M133.7,970.5H845.9V947.6H133.7v22.9Z" class="g3_104" />
<path fill-rule="evenodd" d="M124.5,970.5h9.2V947.6h-9.2v22.9Z" class="g3_104" />
<path fill-rule="evenodd" d="M133.7,993.5H845.9v-23H133.7v23Z" class="g3_104" />
<path fill-rule="evenodd" d="M124.5,993.5h9.2v-23h-9.2v23Z" class="g3_104" />
<path fill-rule="evenodd" d="M133.7,1016.4H845.9V993.5H133.7v22.9Z" class="g3_104" />
<path fill-rule="evenodd" d="M124.5,1016.4h9.2V993.5h-9.2v22.9Z" class="g3_104" />
<path fill-rule="evenodd" d="M133.7,1039.3H845.9v-22.9H133.7v22.9Z" class="g3_104" />
<path fill-rule="evenodd" d="M124.5,1039.3h9.2v-22.9h-9.2v22.9Z" class="g3_104" />
<path fill-rule="evenodd" d="M133.7,1062.2H845.9v-22.9H133.7v22.9Z" class="g3_104" />
<path fill-rule="evenodd" d="M124.5,1062.2h9.2v-22.9h-9.2v22.9Z" class="g3_104" />
<path fill-rule="evenodd" d="M133.7,1085.1H845.9v-22.9H133.7v22.9Z" class="g3_104" />
<path fill-rule="evenodd" d="M124.5,1085.1h9.2v-22.9h-9.2v22.9Z" class="g3_104" />
<path fill-rule="evenodd" d="M133.7,1108H845.9v-22.9H133.7V1108Z" class="g3_104" />
<path fill-rule="evenodd" d="M124.5,1108h9.2v-22.9h-9.2V1108Z" class="g3_104" />
<path fill-rule="evenodd" d="M133.7,1132.6H845.9V1108H133.7v24.6Z" class="g3_104" />
<path fill-rule="evenodd" d="M124.5,1141.8h9.2v-9.2h-9.2v9.2Z" class="g3_104" />
<path fill-rule="evenodd" d="M124.5,1141.8h9.2v-9.2h-9.2v9.2Z" class="g3_104" />
<path fill-rule="evenodd" d="M133.7,1141.8H845.9v-9.2H133.7v9.2Z" class="g3_104" />
<path fill-rule="evenodd" d="M124.5,1132.6h9.2V1108h-9.2v24.6Z" class="g3_104" />
</svg>