<?xml version="1.0" encoding="UTF-8" standalone="no"?>
<!DOCTYPE svg PUBLIC "-//W3C//DTD SVG 1.1//EN"
"http://www.w3.org/Graphics/SVG/1.1/DTD/svg11.dtd">
<svg viewBox="0 0 909 1286" version="1.1" xmlns="http://www.w3.org/2000/svg" xmlns:xlink="http://www.w3.org/1999/xlink">
<defs>
<clipPath id="c0_9"><path d="M96.3,1222.9v-15.4h33.1v15.4Z" /></clipPath>
<style type="text/css"><![CDATA[
.g0_9{
fill: none;
stroke: #000000;
stroke-width: 4.201389;
stroke-linecap: butt;
stroke-linejoin: round;
}
.g1_9{
fill: #5EB28E;
fill-opacity: 0.6;
}
.g2_9{
fill: #FFFFFF;
}
.g3_9{
fill: #16AAD3;
}
.g4_9{
fill: #F1F1F1;
}
]]></style>
</defs>
<path d="M840.5,1191.5H795.8" class="g0_9" />
<path fill-rule="evenodd" d="M111.8,1193.5c-11.5,0,-20.8,9.3,-20.8,20.8c0,11.5,9.3,20.8,20.8,20.8c11.5,0,20.8,-9.3,20.8,-20.8c0,-11.5,-9.3,-20.8,-20.8,-20.8Z" class="g1_9" />
<path d="M116.9,1220.8c0,.2,.1,.3,.3,.3q1.9,0,1.9,0c.2,0,.3,-.1,.3,-.3q0,-.7,0,-.7q0,-.1,0,-.1q0,-7.1,0,-7.1q0,-.1,0,-.1q0,-.7,0,-.7c0,-.2,-.1,-.3,-.3,-.3q-1.9,0,-1.9,0c-.2,0,-.3,.1,-.3,.3q0,.6,0,.6q0,7.5,0,7.5v.6Z" class="g2_9" />
<g clip-path="url(#c0_9)">
<path d="M115.6,1217q.1,-4.9,.1,-4.9c0,-.2,-.2,-.3,-.4,-.3q-1.9,0,-1.9,0c-.2,0,-.3,.1,-.3,.3q0,4.4,0,4.4c0,1.7,-.9,2.5,-1.9,2.4q-.1,0,-.1,0c-1,.1,-2,-.7,-1.9,-2.4q0,-4.4,0,-4.4c0,-.2,-.1,-.3,-.3,-.3q-1.9,0,-1.9,0c-.2,0,-.3,.1,-.3,.3q0,3.7,0,3.7c-.4,-2.4,-2.6,-4.3,-5.2,-4.3c-2.9,0,-5.2,2.3,-5.2,5c0,2.8,2.3,5,5.2,5c.3,0,.8,0,1,0q2.1,1.4,2.1,1.4c.2,.1,.3,0,.3,-.2q0,-2.4,0,-2.4c1,-.8,1.6,-1.8,1.8,-3.2c.1,2.9,2.3,4.3,4.4,4.3q.1,0,.1,0c2.2,0,4.4,-1.4,4.4,-4.4Zm-14.1,2.2c-1.5,0,-2.7,-1.2,-2.7,-2.7c0,-1.5,1.2,-2.6,2.7,-2.6c1.6,0,2.8,1.1,2.8,2.6c0,1.5,-1.2,2.7,-2.8,2.7Z" class="g2_9" />
</g>
<path d="M118.1,1208.2c-.8,0,-1.4,.6,-1.4,1.4c0,.8,.6,1.3,1.4,1.3c.8,0,1.5,-.5,1.5,-1.3c0,-.8,-.7,-1.4,-1.5,-1.4Z" class="g2_9" />
<path d="M129.2,1220.6q-3.4,-4.4,-3.4,-4.4q3,-3.8,3,-3.8c.2,-.2,.1,-.6,-.1,-.6c-.5,0,-1.3,0,-2.1,0c-.2,0,-.3,0,-.4,.2q-3,3.8,-3,3.8c0,-2.7,0,-5.5,0,-8c0,-.3,-.2,-.3,-.3,-.2c-.7,.4,-1.3,.9,-1.9,1.3c-.2,.2,-.3,.3,-.3,.6q0,.5,0,.5q0,.8,0,.8q0,9.3,0,9.3q0,.7,0,.7c0,.2,.1,.3,.3,.3q1.9,0,1.9,0c.1,0,.3,-.1,.3,-.3q0,-.6,0,-.6q0,-3.4,0,-3.4q3.2,4.1,3.2,4.1c.2,.2,.3,.2,.4,.2c.8,0,1.8,0,2.3,0c.2,0,.2,-.4,.1,-.5Z" class="g2_9" />
<path fill-rule="evenodd" d="M503.5,210.9h9v-.8h-9v.8Z" class="g3_9" />
<path fill-rule="evenodd" d="M133.7,514.7H846V490.3H133.7v24.4Z" class="g4_9" />
<path fill-rule="evenodd" d="M124.5,490.3h9.2v-9.2h-9.2v9.2Z" class="g4_9" />
<path fill-rule="evenodd" d="M124.5,490.3h9.2v-9.2h-9.2v9.2Z" class="g4_9" />
<path fill-rule="evenodd" d="M133.7,490.3H846v-9.2H133.7v9.2Z" class="g4_9" />
<path fill-rule="evenodd" d="M124.5,514.7h9.2V490.3h-9.2v24.4Z" class="g4_9" />
<path fill-rule="evenodd" d="M133.7,537.6H846V514.7H133.7v22.9Z" class="g4_9" />
<path fill-rule="evenodd" d="M124.5,537.6h9.2V514.7h-9.2v22.9Z" class="g4_9" />
<path fill-rule="evenodd" d="M133.7,560.5H846V537.6H133.7v22.9Z" class="g4_9" />
<path fill-rule="evenodd" d="M124.5,560.5h9.2V537.6h-9.2v22.9Z" class="g4_9" />
<path fill-rule="evenodd" d="M133.7,583.4H846V560.5H133.7v22.9Z" class="g4_9" />
<path fill-rule="evenodd" d="M124.5,583.4h9.2V560.5h-9.2v22.9Z" class="g4_9" />
<path fill-rule="evenodd" d="M133.7,606.4H846v-23H133.7v23Z" class="g4_9" />
<path fill-rule="evenodd" d="M124.5,606.4h9.2v-23h-9.2v23Z" class="g4_9" />
<path fill-rule="evenodd" d="M133.7,629.3H846V606.4H133.7v22.9Z" class="g4_9" />
<path fill-rule="evenodd" d="M124.5,629.3h9.2V606.4h-9.2v22.9Z" class="g4_9" />
<path fill-rule="evenodd" d="M133.7,652.2H846V629.3H133.7v22.9Z" class="g4_9" />
<path fill-rule="evenodd" d="M124.5,652.2h9.2V629.3h-9.2v22.9Z" class="g4_9" />
<path fill-rule="evenodd" d="M133.7,675.1H846V652.2H133.7v22.9Z" class="g4_9" />
<path fill-rule="evenodd" d="M124.5,675.1h9.2V652.2h-9.2v22.9Z" class="g4_9" />
<path fill-rule="evenodd" d="M133.7,698.1H846v-23H133.7v23Z" class="g4_9" />
<path fill-rule="evenodd" d="M124.5,698.1h9.2v-23h-9.2v23Z" class="g4_9" />
<path fill-rule="evenodd" d="M133.7,721H846V698.1H133.7V721Z" class="g4_9" />
<path fill-rule="evenodd" d="M124.5,721h9.2V698.1h-9.2V721Z" class="g4_9" />
<path fill-rule="evenodd" d="M133.7,743.9H846V721H133.7v22.9Z" class="g4_9" />
<path fill-rule="evenodd" d="M124.5,743.9h9.2V721h-9.2v22.9Z" class="g4_9" />
<path fill-rule="evenodd" d="M133.7,766.8H846V743.9H133.7v22.9Z" class="g4_9" />
<path fill-rule="evenodd" d="M124.5,766.8h9.2V743.9h-9.2v22.9Z" class="g4_9" />
<path fill-rule="evenodd" d="M133.7,789.7H846V766.8H133.7v22.9Z" class="g4_9" />
<path fill-rule="evenodd" d="M124.5,789.7h9.2V766.8h-9.2v22.9Z" class="g4_9" />
<path fill-rule="evenodd" d="M133.7,812.6H846V789.7H133.7v22.9Z" class="g4_9" />
<path fill-rule="evenodd" d="M124.5,812.6h9.2V789.7h-9.2v22.9Z" class="g4_9" />
<path fill-rule="evenodd" d="M133.7,835.6H846v-23H133.7v23Z" class="g4_9" />
<path fill-rule="evenodd" d="M124.5,835.6h9.2v-23h-9.2v23Z" class="g4_9" />
<path fill-rule="evenodd" d="M133.7,858.5H846V835.6H133.7v22.9Z" class="g4_9" />
<path fill-rule="evenodd" d="M124.5,858.5h9.2V835.6h-9.2v22.9Z" class="g4_9" />
<path fill-rule="evenodd" d="M133.7,881.4H846V858.5H133.7v22.9Z" class="g4_9" />
<path fill-rule="evenodd" d="M124.5,881.4h9.2V858.5h-9.2v22.9Z" class="g4_9" />
<path fill-rule="evenodd" d="M133.7,904.3H846V881.4H133.7v22.9Z" class="g4_9" />
<path fill-rule="evenodd" d="M124.5,904.3h9.2V881.4h-9.2v22.9Z" class="g4_9" />
<path fill-rule="evenodd" d="M133.7,927.2H846V904.3H133.7v22.9Z" class="g4_9" />
<path fill-rule="evenodd" d="M124.5,927.2h9.2V904.3h-9.2v22.9Z" class="g4_9" />
<path fill-rule="evenodd" d="M133.7,950.2H846v-23H133.7v23Z" class="g4_9" />
<path fill-rule="evenodd" d="M124.5,950.2h9.2v-23h-9.2v23Z" class="g4_9" />
<path fill-rule="evenodd" d="M133.7,973.1H846V950.2H133.7v22.9Z" class="g4_9" />
<path fill-rule="evenodd" d="M124.5,973.1h9.2V950.2h-9.2v22.9Z" class="g4_9" />
<path fill-rule="evenodd" d="M133.7,996H846V973.1H133.7V996Z" class="g4_9" />
<path fill-rule="evenodd" d="M124.5,996h9.2V973.1h-9.2V996Z" class="g4_9" />
<path fill-rule="evenodd" d="M133.7,1018.9H846V996H133.7v22.9Z" class="g4_9" />
<path fill-rule="evenodd" d="M124.5,1018.9h9.2V996h-9.2v22.9Z" class="g4_9" />
<path fill-rule="evenodd" d="M133.7,1041.9H846v-23H133.7v23Z" class="g4_9" />
<path fill-rule="evenodd" d="M124.5,1041.9h9.2v-23h-9.2v23Z" class="g4_9" />
<path fill-rule="evenodd" d="M133.7,1064.8H846v-22.9H133.7v22.9Z" class="g4_9" />
<path fill-rule="evenodd" d="M124.5,1064.8h9.2v-22.9h-9.2v22.9Z" class="g4_9" />
<path fill-rule="evenodd" d="M133.7,1087.7H846v-22.9H133.7v22.9Z" class="g4_9" />
<path fill-rule="evenodd" d="M124.5,1087.7h9.2v-22.9h-9.2v22.9Z" class="g4_9" />
<path fill-rule="evenodd" d="M133.7,1110.6H846v-22.9H133.7v22.9Z" class="g4_9" />
<path fill-rule="evenodd" d="M124.5,1110.6h9.2v-22.9h-9.2v22.9Z" class="g4_9" />
<path fill-rule="evenodd" d="M133.7,1135H846v-24.4H133.7V1135Z" class="g4_9" />
<path fill-rule="evenodd" d="M124.5,1144.1h9.2V1135h-9.2v9.1Z" class="g4_9" />
<path fill-rule="evenodd" d="M124.5,1144.1h9.2V1135h-9.2v9.1Z" class="g4_9" />
<path fill-rule="evenodd" d="M133.7,1144.1H846V1135H133.7v9.1Z" class="g4_9" />
<path fill-rule="evenodd" d="M124.5,1135h9.2v-24.4h-9.2V1135Z" class="g4_9" />
</svg>