<?xml version="1.0" encoding="UTF-8" standalone="no"?>
<!DOCTYPE svg PUBLIC "-//W3C//DTD SVG 1.1//EN"
"http://www.w3.org/Graphics/SVG/1.1/DTD/svg11.dtd">
<svg viewBox="0 0 909 1286" version="1.1" xmlns="http://www.w3.org/2000/svg" xmlns:xlink="http://www.w3.org/1999/xlink">
<defs>
<style type="text/css"><![CDATA[
.g0_9{
fill: #F8F8F8;
}
.g1_9{
fill: #D3D3D3;
}
]]></style>
</defs>
<image preserveAspectRatio="none" x="130" y="1222" width="83" height="28" xlink:href="img/1.png" />
<path fill-rule="evenodd" d="M163.6,113.1H847V87.3H163.6v25.8Z" class="g0_9" />
<path fill-rule="evenodd" d="M160.3,87.3H847v-.8H160.3v.8Z" class="g1_9" />
<path fill-rule="evenodd" d="M847,87.3h.7v-.8H847v.8Z" class="g1_9" />
<path fill-rule="evenodd" d="M847,87.3h.7v-.8H847v.8Z" class="g1_9" />
<path fill-rule="evenodd" d="M160.3,113.1h3.3V87.3h-3.3v25.8Z" class="g1_9" />
<path fill-rule="evenodd" d="M847,113.1h.7V87.3H847v25.8Z" class="g1_9" />
<path fill-rule="evenodd" d="M163.6,129.4H847V113.1H163.6v16.3Z" class="g0_9" />
<path fill-rule="evenodd" d="M160.3,129.4h3.3V113.1h-3.3v16.3Z" class="g1_9" />
<path fill-rule="evenodd" d="M847,129.4h.7V113.1H847v16.3Z" class="g1_9" />
<path fill-rule="evenodd" d="M163.6,146H847V129.4H163.6V146Z" class="g0_9" />
<path fill-rule="evenodd" d="M160.3,146h3.3V129.4h-3.3V146Z" class="g1_9" />
<path fill-rule="evenodd" d="M847,146h.7V129.4H847V146Z" class="g1_9" />
<path fill-rule="evenodd" d="M163.6,162.5H847V146H163.6v16.5Z" class="g0_9" />
<path fill-rule="evenodd" d="M160.3,162.5h3.3V146h-3.3v16.5Z" class="g1_9" />
<path fill-rule="evenodd" d="M847,162.5h.7V146H847v16.5Z" class="g1_9" />
<path fill-rule="evenodd" d="M163.6,179H847V162.5H163.6V179Z" class="g0_9" />
<path fill-rule="evenodd" d="M160.3,179h3.3V162.5h-3.3V179Z" class="g1_9" />
<path fill-rule="evenodd" d="M847,179h.7V162.5H847V179Z" class="g1_9" />
<path fill-rule="evenodd" d="M163.6,195.5H847V179H163.6v16.5Z" class="g0_9" />
<path fill-rule="evenodd" d="M160.3,195.5h3.3V179h-3.3v16.5Z" class="g1_9" />
<path fill-rule="evenodd" d="M847,195.5h.7V179H847v16.5Z" class="g1_9" />
<path fill-rule="evenodd" d="M163.6,212H847V195.5H163.6V212Z" class="g0_9" />
<path fill-rule="evenodd" d="M160.3,212h3.3V195.5h-3.3V212Z" class="g1_9" />
<path fill-rule="evenodd" d="M847,212h.7V195.5H847V212Z" class="g1_9" />
<path fill-rule="evenodd" d="M163.6,228.3H847V212H163.6v16.3Z" class="g0_9" />
<path fill-rule="evenodd" d="M160.3,228.3h3.3V212h-3.3v16.3Z" class="g1_9" />
<path fill-rule="evenodd" d="M847,228.3h.7V212H847v16.3Z" class="g1_9" />
<path fill-rule="evenodd" d="M163.6,244.8H847V228.3H163.6v16.5Z" class="g0_9" />
<path fill-rule="evenodd" d="M160.3,244.8h3.3V228.3h-3.3v16.5Z" class="g1_9" />
<path fill-rule="evenodd" d="M847,244.8h.7V228.3H847v16.5Z" class="g1_9" />
<path fill-rule="evenodd" d="M163.6,261.3H847V244.8H163.6v16.5Z" class="g0_9" />
<path fill-rule="evenodd" d="M160.3,261.3h3.3V244.8h-3.3v16.5Z" class="g1_9" />
<path fill-rule="evenodd" d="M847,261.3h.7V244.8H847v16.5Z" class="g1_9" />
<path fill-rule="evenodd" d="M163.6,277.8H847V261.3H163.6v16.5Z" class="g0_9" />
<path fill-rule="evenodd" d="M160.3,277.8h3.3V261.3h-3.3v16.5Z" class="g1_9" />
<path fill-rule="evenodd" d="M847,277.8h.7V261.3H847v16.5Z" class="g1_9" />
<path fill-rule="evenodd" d="M163.6,294.3H847V277.8H163.6v16.5Z" class="g0_9" />
<path fill-rule="evenodd" d="M160.3,294.3h3.3V277.8h-3.3v16.5Z" class="g1_9" />
<path fill-rule="evenodd" d="M847,294.3h.7V277.8H847v16.5Z" class="g1_9" />
<path fill-rule="evenodd" d="M163.6,310.8H847V294.3H163.6v16.5Z" class="g0_9" />
<path fill-rule="evenodd" d="M160.3,310.8h3.3V294.3h-3.3v16.5Z" class="g1_9" />
<path fill-rule="evenodd" d="M847,310.8h.7V294.3H847v16.5Z" class="g1_9" />
<path fill-rule="evenodd" d="M163.6,327.1H847V310.8H163.6v16.3Z" class="g0_9" />
<path fill-rule="evenodd" d="M160.3,327.1h3.3V310.8h-3.3v16.3Z" class="g1_9" />
<path fill-rule="evenodd" d="M847,327.1h.7V310.8H847v16.3Z" class="g1_9" />
<path fill-rule="evenodd" d="M163.6,343.6H847V327.1H163.6v16.5Z" class="g0_9" />
<path fill-rule="evenodd" d="M160.3,343.6h3.3V327.1h-3.3v16.5Z" class="g1_9" />
<path fill-rule="evenodd" d="M847,343.6h.7V327.1H847v16.5Z" class="g1_9" />
<path fill-rule="evenodd" d="M163.6,360.1H847V343.6H163.6v16.5Z" class="g0_9" />
<path fill-rule="evenodd" d="M160.3,360.1h3.3V343.6h-3.3v16.5Z" class="g1_9" />
<path fill-rule="evenodd" d="M847,360.1h.7V343.6H847v16.5Z" class="g1_9" />
<path fill-rule="evenodd" d="M163.6,376.6H847V360.1H163.6v16.5Z" class="g0_9" />
<path fill-rule="evenodd" d="M160.3,376.6h3.3V360.1h-3.3v16.5Z" class="g1_9" />
<path fill-rule="evenodd" d="M847,376.6h.7V360.1H847v16.5Z" class="g1_9" />
<path fill-rule="evenodd" d="M163.6,393.1H847V376.6H163.6v16.5Z" class="g0_9" />
<path fill-rule="evenodd" d="M160.3,393.1h3.3V376.6h-3.3v16.5Z" class="g1_9" />
<path fill-rule="evenodd" d="M847,393.1h.7V376.6H847v16.5Z" class="g1_9" />
<path fill-rule="evenodd" d="M163.6,409.6H847V393.1H163.6v16.5Z" class="g0_9" />
<path fill-rule="evenodd" d="M160.3,409.6h3.3V393.1h-3.3v16.5Z" class="g1_9" />
<path fill-rule="evenodd" d="M847,409.6h.7V393.1H847v16.5Z" class="g1_9" />
<path fill-rule="evenodd" d="M163.6,426H847V409.6H163.6V426Z" class="g0_9" />
<path fill-rule="evenodd" d="M160.3,426h3.3V409.6h-3.3V426Z" class="g1_9" />
<path fill-rule="evenodd" d="M847,426h.7V409.6H847V426Z" class="g1_9" />
<path fill-rule="evenodd" d="M163.6,442.5H847V426H163.6v16.5Z" class="g0_9" />
<path fill-rule="evenodd" d="M160.3,442.5h3.3V426h-3.3v16.5Z" class="g1_9" />
<path fill-rule="evenodd" d="M847,442.5h.7V426H847v16.5Z" class="g1_9" />
<path fill-rule="evenodd" d="M163.6,459H847V442.5H163.6V459Z" class="g0_9" />
<path fill-rule="evenodd" d="M160.3,459h3.3V442.5h-3.3V459Z" class="g1_9" />
<path fill-rule="evenodd" d="M847,459h.7V442.5H847V459Z" class="g1_9" />
<path fill-rule="evenodd" d="M163.6,475.5H847V459H163.6v16.5Z" class="g0_9" />
<path fill-rule="evenodd" d="M160.3,475.5h3.3V459h-3.3v16.5Z" class="g1_9" />
<path fill-rule="evenodd" d="M847,475.5h.7V459H847v16.5Z" class="g1_9" />
<path fill-rule="evenodd" d="M163.6,492H847V475.5H163.6V492Z" class="g0_9" />
<path fill-rule="evenodd" d="M160.3,492h3.3V475.5h-3.3V492Z" class="g1_9" />
<path fill-rule="evenodd" d="M847,492h.7V475.5H847V492Z" class="g1_9" />
<path fill-rule="evenodd" d="M163.6,508.5H847V492H163.6v16.5Z" class="g0_9" />
<path fill-rule="evenodd" d="M160.3,508.5h3.3V492h-3.3v16.5Z" class="g1_9" />
<path fill-rule="evenodd" d="M847,508.5h.7V492H847v16.5Z" class="g1_9" />
<path fill-rule="evenodd" d="M163.6,524.8H847V508.5H163.6v16.3Z" class="g0_9" />
<path fill-rule="evenodd" d="M160.3,524.8h3.3V508.5h-3.3v16.3Z" class="g1_9" />
<path fill-rule="evenodd" d="M847,524.8h.7V508.5H847v16.3Z" class="g1_9" />
<path fill-rule="evenodd" d="M163.6,541.3H847V524.8H163.6v16.5Z" class="g0_9" />
<path fill-rule="evenodd" d="M160.3,541.3h3.3V524.8h-3.3v16.5Z" class="g1_9" />
<path fill-rule="evenodd" d="M847,541.3h.7V524.8H847v16.5Z" class="g1_9" />
<path fill-rule="evenodd" d="M163.6,557.8H847V541.3H163.6v16.5Z" class="g0_9" />
<path fill-rule="evenodd" d="M160.3,557.8h3.3V541.3h-3.3v16.5Z" class="g1_9" />
<path fill-rule="evenodd" d="M847,557.8h.7V541.3H847v16.5Z" class="g1_9" />
<path fill-rule="evenodd" d="M163.6,574.3H847V557.8H163.6v16.5Z" class="g0_9" />
<path fill-rule="evenodd" d="M160.3,574.3h3.3V557.8h-3.3v16.5Z" class="g1_9" />
<path fill-rule="evenodd" d="M847,574.3h.7V557.8H847v16.5Z" class="g1_9" />
<path fill-rule="evenodd" d="M163.6,590.8H847V574.3H163.6v16.5Z" class="g0_9" />
<path fill-rule="evenodd" d="M160.3,590.8h3.3V574.3h-3.3v16.5Z" class="g1_9" />
<path fill-rule="evenodd" d="M847,590.8h.7V574.3H847v16.5Z" class="g1_9" />
<path fill-rule="evenodd" d="M163.6,607.3H847V590.8H163.6v16.5Z" class="g0_9" />
<path fill-rule="evenodd" d="M160.3,607.3h3.3V590.8h-3.3v16.5Z" class="g1_9" />
<path fill-rule="evenodd" d="M847,607.3h.7V590.8H847v16.5Z" class="g1_9" />
<path fill-rule="evenodd" d="M163.6,623.6H847V607.3H163.6v16.3Z" class="g0_9" />
<path fill-rule="evenodd" d="M160.3,623.6h3.3V607.3h-3.3v16.3Z" class="g1_9" />
<path fill-rule="evenodd" d="M847,623.6h.7V607.3H847v16.3Z" class="g1_9" />
<path fill-rule="evenodd" d="M163.6,640.1H847V623.6H163.6v16.5Z" class="g0_9" />
<path fill-rule="evenodd" d="M160.3,640.1h3.3V623.6h-3.3v16.5Z" class="g1_9" />
<path fill-rule="evenodd" d="M847,640.1h.7V623.6H847v16.5Z" class="g1_9" />
<path fill-rule="evenodd" d="M163.6,656.6H847V640.1H163.6v16.5Z" class="g0_9" />
<path fill-rule="evenodd" d="M160.3,656.6h3.3V640.1h-3.3v16.5Z" class="g1_9" />
<path fill-rule="evenodd" d="M847,656.6h.7V640.1H847v16.5Z" class="g1_9" />
<path fill-rule="evenodd" d="M163.6,673.1H847V656.6H163.6v16.5Z" class="g0_9" />
<path fill-rule="evenodd" d="M160.3,673.1h3.3V656.6h-3.3v16.5Z" class="g1_9" />
<path fill-rule="evenodd" d="M847,673.1h.7V656.6H847v16.5Z" class="g1_9" />
<path fill-rule="evenodd" d="M163.6,689.6H847V673.1H163.6v16.5Z" class="g0_9" />
<path fill-rule="evenodd" d="M160.3,689.6h3.3V673.1h-3.3v16.5Z" class="g1_9" />
<path fill-rule="evenodd" d="M847,689.6h.7V673.1H847v16.5Z" class="g1_9" />
<path fill-rule="evenodd" d="M163.6,706.1H847V689.6H163.6v16.5Z" class="g0_9" />
<path fill-rule="evenodd" d="M160.3,706.1h3.3V689.6h-3.3v16.5Z" class="g1_9" />
<path fill-rule="evenodd" d="M847,706.1h.7V689.6H847v16.5Z" class="g1_9" />
<path fill-rule="evenodd" d="M163.6,722.4H847V706.1H163.6v16.3Z" class="g0_9" />
<path fill-rule="evenodd" d="M160.3,722.4h3.3V706.1h-3.3v16.3Z" class="g1_9" />
<path fill-rule="evenodd" d="M847,722.4h.7V706.1H847v16.3Z" class="g1_9" />
<path fill-rule="evenodd" d="M163.6,738.9H847V722.4H163.6v16.5Z" class="g0_9" />
<path fill-rule="evenodd" d="M160.3,738.9h3.3V722.4h-3.3v16.5Z" class="g1_9" />
<path fill-rule="evenodd" d="M847,738.9h.7V722.4H847v16.5Z" class="g1_9" />
<path fill-rule="evenodd" d="M163.6,755.4H847V738.9H163.6v16.5Z" class="g0_9" />
<path fill-rule="evenodd" d="M160.3,755.4h3.3V738.9h-3.3v16.5Z" class="g1_9" />
<path fill-rule="evenodd" d="M847,755.4h.7V738.9H847v16.5Z" class="g1_9" />
<path fill-rule="evenodd" d="M163.6,771.9H847V755.4H163.6v16.5Z" class="g0_9" />
<path fill-rule="evenodd" d="M160.3,771.9h3.3V755.4h-3.3v16.5Z" class="g1_9" />
<path fill-rule="evenodd" d="M847,771.9h.7V755.4H847v16.5Z" class="g1_9" />
<path fill-rule="evenodd" d="M163.6,788.4H847V771.9H163.6v16.5Z" class="g0_9" />
<path fill-rule="evenodd" d="M160.3,788.4h3.3V771.9h-3.3v16.5Z" class="g1_9" />
<path fill-rule="evenodd" d="M847,788.4h.7V771.9H847v16.5Z" class="g1_9" />
<path fill-rule="evenodd" d="M163.6,804.9H847V788.4H163.6v16.5Z" class="g0_9" />
<path fill-rule="evenodd" d="M160.3,804.9h3.3V788.4h-3.3v16.5Z" class="g1_9" />
<path fill-rule="evenodd" d="M847,804.9h.7V788.4H847v16.5Z" class="g1_9" />
<path fill-rule="evenodd" d="M163.6,821.3H847V804.9H163.6v16.4Z" class="g0_9" />
<path fill-rule="evenodd" d="M160.3,821.3h3.3V804.9h-3.3v16.4Z" class="g1_9" />
<path fill-rule="evenodd" d="M847,821.3h.7V804.9H847v16.4Z" class="g1_9" />
<path fill-rule="evenodd" d="M163.6,837.8H847V821.3H163.6v16.5Z" class="g0_9" />
<path fill-rule="evenodd" d="M160.3,837.8h3.3V821.3h-3.3v16.5Z" class="g1_9" />
<path fill-rule="evenodd" d="M847,837.8h.7V821.3H847v16.5Z" class="g1_9" />
<path fill-rule="evenodd" d="M163.6,854.3H847V837.8H163.6v16.5Z" class="g0_9" />
<path fill-rule="evenodd" d="M160.3,854.3h3.3V837.8h-3.3v16.5Z" class="g1_9" />
<path fill-rule="evenodd" d="M847,854.3h.7V837.8H847v16.5Z" class="g1_9" />
<path fill-rule="evenodd" d="M163.6,870.8H847V854.3H163.6v16.5Z" class="g0_9" />
<path fill-rule="evenodd" d="M160.3,870.8h3.3V854.3h-3.3v16.5Z" class="g1_9" />
<path fill-rule="evenodd" d="M847,870.8h.7V854.3H847v16.5Z" class="g1_9" />
<path fill-rule="evenodd" d="M163.6,887.3H847V870.8H163.6v16.5Z" class="g0_9" />
<path fill-rule="evenodd" d="M160.3,887.3h3.3V870.8h-3.3v16.5Z" class="g1_9" />
<path fill-rule="evenodd" d="M847,887.3h.7V870.8H847v16.5Z" class="g1_9" />
<path fill-rule="evenodd" d="M163.6,903.8H847V887.3H163.6v16.5Z" class="g0_9" />
<path fill-rule="evenodd" d="M160.3,903.8h3.3V887.3h-3.3v16.5Z" class="g1_9" />
<path fill-rule="evenodd" d="M847,903.8h.7V887.3H847v16.5Z" class="g1_9" />
<path fill-rule="evenodd" d="M163.6,920.1H847V903.8H163.6v16.3Z" class="g0_9" />
<path fill-rule="evenodd" d="M160.3,920.1h3.3V903.8h-3.3v16.3Z" class="g1_9" />
<path fill-rule="evenodd" d="M847,920.1h.7V903.8H847v16.3Z" class="g1_9" />
<path fill-rule="evenodd" d="M163.6,936.6H847V920.1H163.6v16.5Z" class="g0_9" />
<path fill-rule="evenodd" d="M160.3,936.6h3.3V920.1h-3.3v16.5Z" class="g1_9" />
<path fill-rule="evenodd" d="M847,936.6h.7V920.1H847v16.5Z" class="g1_9" />
<path fill-rule="evenodd" d="M163.6,953.1H847V936.6H163.6v16.5Z" class="g0_9" />
<path fill-rule="evenodd" d="M160.3,953.1h3.3V936.6h-3.3v16.5Z" class="g1_9" />
<path fill-rule="evenodd" d="M847,953.1h.7V936.6H847v16.5Z" class="g1_9" />
<path fill-rule="evenodd" d="M163.6,969.6H847V953.1H163.6v16.5Z" class="g0_9" />
<path fill-rule="evenodd" d="M160.3,969.6h3.3V953.1h-3.3v16.5Z" class="g1_9" />
<path fill-rule="evenodd" d="M847,969.6h.7V953.1H847v16.5Z" class="g1_9" />
<path fill-rule="evenodd" d="M163.6,986.1H847V969.6H163.6v16.5Z" class="g0_9" />
<path fill-rule="evenodd" d="M160.3,986.1h3.3V969.6h-3.3v16.5Z" class="g1_9" />
<path fill-rule="evenodd" d="M847,986.1h.7V969.6H847v16.5Z" class="g1_9" />
<path fill-rule="evenodd" d="M163.6,1002.6H847V986.1H163.6v16.5Z" class="g0_9" />
<path fill-rule="evenodd" d="M160.3,1002.6h3.3V986.1h-3.3v16.5Z" class="g1_9" />
<path fill-rule="evenodd" d="M847,1002.6h.7V986.1H847v16.5Z" class="g1_9" />
<path fill-rule="evenodd" d="M163.6,1018.9H847v-16.3H163.6v16.3Z" class="g0_9" />
<path fill-rule="evenodd" d="M160.3,1018.9h3.3v-16.3h-3.3v16.3Z" class="g1_9" />
<path fill-rule="evenodd" d="M847,1018.9h.7v-16.3H847v16.3Z" class="g1_9" />
<path fill-rule="evenodd" d="M163.6,1035.4H847v-16.5H163.6v16.5Z" class="g0_9" />
<path fill-rule="evenodd" d="M160.3,1035.4h3.3v-16.5h-3.3v16.5Z" class="g1_9" />
<path fill-rule="evenodd" d="M847,1035.4h.7v-16.5H847v16.5Z" class="g1_9" />
<path fill-rule="evenodd" d="M163.6,1051.9H847v-16.5H163.6v16.5Z" class="g0_9" />
<path fill-rule="evenodd" d="M160.3,1051.9h3.3v-16.5h-3.3v16.5Z" class="g1_9" />
<path fill-rule="evenodd" d="M847,1051.9h.7v-16.5H847v16.5Z" class="g1_9" />
<path fill-rule="evenodd" d="M163.6,1068.4H847v-16.5H163.6v16.5Z" class="g0_9" />
<path fill-rule="evenodd" d="M160.3,1068.4h3.3v-16.5h-3.3v16.5Z" class="g1_9" />
<path fill-rule="evenodd" d="M847,1068.4h.7v-16.5H847v16.5Z" class="g1_9" />
<path fill-rule="evenodd" d="M163.6,1084.9H847v-16.5H163.6v16.5Z" class="g0_9" />
<path fill-rule="evenodd" d="M160.3,1084.9h3.3v-16.5h-3.3v16.5Z" class="g1_9" />
<path fill-rule="evenodd" d="M847,1084.9h.7v-16.5H847v16.5Z" class="g1_9" />
<path fill-rule="evenodd" d="M163.6,1101.4H847v-16.5H163.6v16.5Z" class="g0_9" />
<path fill-rule="evenodd" d="M160.3,1101.4h3.3v-16.5h-3.3v16.5Z" class="g1_9" />
<path fill-rule="evenodd" d="M847,1101.4h.7v-16.5H847v16.5Z" class="g1_9" />
<path fill-rule="evenodd" d="M163.6,1117.8H847v-16.4H163.6v16.4Z" class="g0_9" />
<path fill-rule="evenodd" d="M160.3,1117.8h3.3v-16.4h-3.3v16.4Z" class="g1_9" />
<path fill-rule="evenodd" d="M847,1117.8h.7v-16.4H847v16.4Z" class="g1_9" />
<path fill-rule="evenodd" d="M163.6,1134.2H847v-16.5H163.6v16.5Z" class="g0_9" />
<path fill-rule="evenodd" d="M160.3,1134.2h3.3v-16.5h-3.3v16.5Z" class="g1_9" />
<path fill-rule="evenodd" d="M847,1134.2h.7v-16.5H847v16.5Z" class="g1_9" />
<path fill-rule="evenodd" d="M163.6,1150.7H847v-16.5H163.6v16.5Z" class="g0_9" />
<path fill-rule="evenodd" d="M160.3,1150.7h3.3v-16.5h-3.3v16.5Z" class="g1_9" />
<path fill-rule="evenodd" d="M847,1150.7h.7v-16.5H847v16.5Z" class="g1_9" />
<path fill-rule="evenodd" d="M163.6,1176.4H847v-25.7H163.6v25.7Z" class="g0_9" />
<path fill-rule="evenodd" d="M160.3,1177.1H847v-.7H160.3v.7Z" class="g1_9" />
<path fill-rule="evenodd" d="M847,1177.1h.7v-.7H847v.7Z" class="g1_9" />
<path fill-rule="evenodd" d="M847,1177.1h.7v-.7H847v.7Z" class="g1_9" />
<path fill-rule="evenodd" d="M160.3,1176.4h3.3v-25.7h-3.3v25.7Z" class="g1_9" />
<path fill-rule="evenodd" d="M847,1176.4h.7v-25.7H847v25.7Z" class="g1_9" />
</svg>