<?xml version="1.0" encoding="UTF-8" standalone="no"?>
<!DOCTYPE svg PUBLIC "-//W3C//DTD SVG 1.1//EN"
"http://www.w3.org/Graphics/SVG/1.1/DTD/svg11.dtd">
<svg viewBox="0 0 909 1286" version="1.1" xmlns="http://www.w3.org/2000/svg" xmlns:xlink="http://www.w3.org/1999/xlink">
<defs>
<clipPath id="c0_84"><path d="M96.4,1201.4v-15.5h33v15.5Z" /></clipPath>
<style type="text/css"><![CDATA[
.g0_84{
fill: none;
stroke: #000000;
stroke-width: 4.201389;
stroke-linecap: butt;
stroke-linejoin: round;
}
.g1_84{
fill: #5EB28E;
fill-opacity: 0.6;
}
.g2_84{
fill: #FFFFFF;
}
.g3_84{
}
]]></style>
</defs>
<path d="M841.2,1171.7H796.5" class="g0_84" />
<path fill-rule="evenodd" d="M111.9,1174c-11.5,0,-20.8,9.3,-20.8,20.8c0,11.5,9.3,20.8,20.8,20.8c11.5,0,20.8,-9.3,20.8,-20.8c0,-11.5,-9.3,-20.8,-20.8,-20.8Z" class="g1_84" />
<path d="M116.9,1199.3c0,.1,.2,.3,.4,.3q1.9,0,1.9,0c.1,0,.3,-.2,.3,-.3q0,-.7,0,-.7q0,-.1,0,-.1q0,-7.1,0,-7.1q0,-.1,0,-.1q0,-.7,0,-.7c0,-.2,-.2,-.4,-.3,-.4q-1.9,0,-1.9,0c-.2,0,-.4,.2,-.4,.4q0,.5,0,.5q0,7.6,0,7.6v.6Z" class="g2_84" />
<g clip-path="url(#c0_84)">
<path d="M115.7,1195.4q0,-4.8,0,-4.8c0,-.2,-.1,-.4,-.3,-.4q-2,0,-2,0c-.1,0,-.2,.2,-.2,.4q0,4.4,0,4.4c0,1.7,-1,2.5,-2,2.4c-1,.1,-2,-.7,-1.9,-2.4q0,-4.4,0,-4.4c0,-.2,-.1,-.4,-.3,-.4q-1.9,0,-1.9,0c-.2,0,-.3,.2,-.3,.4q0,3.6,0,3.6c-.4,-2.4,-2.6,-4.2,-5.2,-4.2c-2.9,0,-5.2,2.2,-5.2,5c0,2.7,2.3,4.9,5.2,4.9c.2,0,.8,0,.9,0q2.1,1.4,2.1,1.4c.2,.1,.4,.1,.4,-.2q0,-2.4,0,-2.4c.9,-.7,1.6,-1.8,1.8,-3.1c.1,2.9,2.3,4.3,4.4,4.2c2.2,.1,4.5,-1.4,4.5,-4.4Zm-14.1,2.2c-1.5,0,-2.8,-1.2,-2.8,-2.6c0,-1.5,1.3,-2.7,2.8,-2.7c1.5,0,2.8,1.2,2.8,2.7c0,1.4,-1.3,2.6,-2.8,2.6Z" class="g2_84" />
</g>
<path d="M118.2,1186.7c-.8,0,-1.4,.6,-1.4,1.4c0,.7,.6,1.3,1.4,1.3c.8,0,1.4,-.6,1.4,-1.3c0,-.8,-.6,-1.4,-1.4,-1.4Z" class="g2_84" />
<path d="M129.3,1199q-3.4,-4.4,-3.4,-4.4q3,-3.8,3,-3.8c.1,-.1,.1,-.5,-.1,-.6c-.5,0,-1.3,0,-2.2,0c-.1,0,-.2,.1,-.4,.3q-2.9,3.7,-2.9,3.7c0,-2.7,0,-5.4,0,-8c0,-.2,-.2,-.2,-.3,-.1c-.7,.4,-1.3,.9,-2,1.3c-.2,.1,-.2,.3,-.2,.5q0,.6,0,.6q0,.7,0,.7q0,.1,0,.1q0,9.2,0,9.2q0,.1,0,.1q0,.7,0,.7c0,.1,.1,.3,.2,.3q2,0,2,0c.1,0,.3,-.2,.3,-.3q0,-.6,0,-.6q0,-3.5,0,-3.5q3.2,4.2,3.2,4.2c.1,.2,.2,.2,.4,.2c.8,0,1.8,0,2.2,0c.3,-.1,.3,-.5,.2,-.6Z" class="g2_84" />
<path fill-rule="evenodd" d="M88,228.3H325.5v-4.6H88v4.6Z" class="g3_84" />
<path fill-rule="evenodd" d="M325.5,228.3h4.6v-4.6h-4.6v4.6Z" class="g3_84" />
<path fill-rule="evenodd" d="M330.1,228.3H846.2v-4.6H330.1v4.6Z" class="g3_84" />
<path fill-rule="evenodd" d="M88,262.7H325.5V262H88v.7Z" class="g3_84" />
<path fill-rule="evenodd" d="M325.5,262.7h.7V262h-.7v.7Z" class="g3_84" />
<path fill-rule="evenodd" d="M326.2,262.7h520V262h-520v.7Z" class="g3_84" />
<path fill-rule="evenodd" d="M88,318.1H325.5v-.7H88v.7Z" class="g3_84" />
<path fill-rule="evenodd" d="M325.5,318.1h.7v-.7h-.7v.7Z" class="g3_84" />
<path fill-rule="evenodd" d="M326.2,318.1h520v-.7h-520v.7Z" class="g3_84" />
<path fill-rule="evenodd" d="M88,373.3H325.5v-.7H88v.7Z" class="g3_84" />
<path fill-rule="evenodd" d="M325.5,373.3h.7v-.7h-.7v.7Z" class="g3_84" />
<path fill-rule="evenodd" d="M326.2,373.3h520v-.7h-520v.7Z" class="g3_84" />
<path fill-rule="evenodd" d="M88,407.8H325.5V407H88v.8Z" class="g3_84" />
<path fill-rule="evenodd" d="M325.5,407.8h.7V407h-.7v.8Z" class="g3_84" />
<path fill-rule="evenodd" d="M326.2,407.8h520V407h-520v.8Z" class="g3_84" />
<path fill-rule="evenodd" d="M88,442.3H325.5v-.8H88v.8Z" class="g3_84" />
<path fill-rule="evenodd" d="M325.5,442.3h.7v-.8h-.7v.8Z" class="g3_84" />
<path fill-rule="evenodd" d="M326.2,442.3h520v-.8h-520v.8Z" class="g3_84" />
<path fill-rule="evenodd" d="M88,476.9H325.5v-.7H88v.7Z" class="g3_84" />
<path fill-rule="evenodd" d="M325.5,476.9h.7v-.7h-.7v.7Z" class="g3_84" />
<path fill-rule="evenodd" d="M326.2,476.9h520v-.7h-520v.7Z" class="g3_84" />
<path fill-rule="evenodd" d="M88,532.1H325.5v-.7H88v.7Z" class="g3_84" />
<path fill-rule="evenodd" d="M325.5,532.1h.7v-.7h-.7v.7Z" class="g3_84" />
<path fill-rule="evenodd" d="M326.2,532.1h520v-.7h-520v.7Z" class="g3_84" />
<path fill-rule="evenodd" d="M88,566.6H325.5v-.8H88v.8Z" class="g3_84" />
<path fill-rule="evenodd" d="M325.5,566.6h.7v-.8h-.7v.8Z" class="g3_84" />
<path fill-rule="evenodd" d="M326.2,566.6h520v-.8h-520v.8Z" class="g3_84" />
<path fill-rule="evenodd" d="M88,601.2H325.5v-.7H88v.7Z" class="g3_84" />
<path fill-rule="evenodd" d="M325.5,601.2h.7v-.7h-.7v.7Z" class="g3_84" />
<path fill-rule="evenodd" d="M326.2,601.2h520v-.7h-520v.7Z" class="g3_84" />
<path fill-rule="evenodd" d="M86.9,635.7H325.5V635H86.9v.7Z" class="g3_84" />
<path fill-rule="evenodd" d="M324.4,635.7h.7V635h-.7v.7Z" class="g3_84" />
<path fill-rule="evenodd" d="M325.1,635.7H846.2V635H325.1v.7Z" class="g3_84" />
<path fill-rule="evenodd" d="M88,765.2H322.9v-4.6H88v4.6Z" class="g3_84" />
<path fill-rule="evenodd" d="M322.9,765.2h4.6v-4.6h-4.6v4.6Z" class="g3_84" />
<path fill-rule="evenodd" d="M327.5,765.2H846.2v-4.6H327.5v4.6Z" class="g3_84" />
<path fill-rule="evenodd" d="M88,799.6H322.9v-.7H88v.7Z" class="g3_84" />
<path fill-rule="evenodd" d="M322.9,799.6h.8v-.7h-.8v.7Z" class="g3_84" />
<path fill-rule="evenodd" d="M323.7,799.6H846.2v-.7H323.7v.7Z" class="g3_84" />
<path fill-rule="evenodd" d="M86.9,834.1h236v-.7H86.9v.7Z" class="g3_84" />
<path fill-rule="evenodd" d="M321.8,834.1h.8v-.7h-.8v.7Z" class="g3_84" />
<path fill-rule="evenodd" d="M322.6,834.1H846.2v-.7H322.6v.7Z" class="g3_84" />
<path fill-rule="evenodd" d="M88,1001.9H322.9v-4.6H88v4.6Z" class="g3_84" />
<path fill-rule="evenodd" d="M322.9,1001.9h4.6v-4.6h-4.6v4.6Z" class="g3_84" />
<path fill-rule="evenodd" d="M327.5,1001.9H846.2v-4.6H327.5v4.6Z" class="g3_84" />
<path fill-rule="evenodd" d="M88,1036.4H322.9v-.8H88v.8Z" class="g3_84" />
<path fill-rule="evenodd" d="M322.9,1036.4h.8v-.8h-.8v.8Z" class="g3_84" />
<path fill-rule="evenodd" d="M323.7,1036.4H846.2v-.8H323.7v.8Z" class="g3_84" />
<path fill-rule="evenodd" d="M88,1091.7H322.9v-.7H88v.7Z" class="g3_84" />
<path fill-rule="evenodd" d="M322.9,1091.7h.8v-.7h-.8v.7Z" class="g3_84" />
<path fill-rule="evenodd" d="M323.7,1091.7H846.2v-.7H323.7v.7Z" class="g3_84" />
<path fill-rule="evenodd" d="M86.9,1126.2h236v-.7H86.9v.7Z" class="g3_84" />
<path fill-rule="evenodd" d="M321.8,1126.2h.8v-.7h-.8v.7Z" class="g3_84" />
<path fill-rule="evenodd" d="M322.6,1126.2H846.2v-.7H322.6v.7Z" class="g3_84" />
</svg>