<?xml version="1.0" encoding="UTF-8" standalone="no"?>
<!DOCTYPE svg PUBLIC "-//W3C//DTD SVG 1.1//EN"
"http://www.w3.org/Graphics/SVG/1.1/DTD/svg11.dtd">
<svg viewBox="0 0 909 1286" version="1.1" xmlns="http://www.w3.org/2000/svg" xmlns:xlink="http://www.w3.org/1999/xlink">
<defs>
<clipPath id="c0_56"><path d="M96.4,1201.4v-15.5h33v15.5Z" /></clipPath>
<style type="text/css"><![CDATA[
.g0_56{
fill: none;
stroke: #000000;
stroke-width: 4.201389;
stroke-linecap: butt;
stroke-linejoin: round;
}
.g1_56{
fill: #5EB28E;
fill-opacity: 0.6;
}
.g2_56{
fill: #FFFFFF;
}
.g3_56{
}
.g4_56{
fill: #16AAD3;
}
]]></style>
</defs>
<path d="M841.2,1171.7H796.5" class="g0_56" />
<path fill-rule="evenodd" d="M111.9,1174c-11.5,0,-20.8,9.3,-20.8,20.8c0,11.5,9.3,20.8,20.8,20.8c11.5,0,20.8,-9.3,20.8,-20.8c0,-11.5,-9.3,-20.8,-20.8,-20.8Z" class="g1_56" />
<path d="M116.9,1199.3c0,.1,.2,.3,.4,.3q1.9,0,1.9,0c.1,0,.3,-.2,.3,-.3q0,-.7,0,-.7q0,-.1,0,-.1q0,-7.1,0,-7.1q0,-.1,0,-.1q0,-.7,0,-.7c0,-.2,-.2,-.4,-.3,-.4q-1.9,0,-1.9,0c-.2,0,-.4,.2,-.4,.4q0,.5,0,.5q0,7.6,0,7.6v.6Z" class="g2_56" />
<g clip-path="url(#c0_56)">
<path d="M115.7,1195.4q0,-4.8,0,-4.8c0,-.2,-.1,-.4,-.3,-.4q-2,0,-2,0c-.1,0,-.2,.2,-.2,.4q0,4.4,0,4.4c0,1.7,-1,2.5,-2,2.4c-1,.1,-2,-.7,-1.9,-2.4q0,-4.4,0,-4.4c0,-.2,-.1,-.4,-.3,-.4q-1.9,0,-1.9,0c-.2,0,-.3,.2,-.3,.4q0,3.6,0,3.6c-.4,-2.4,-2.6,-4.2,-5.2,-4.2c-2.9,0,-5.2,2.2,-5.2,5c0,2.7,2.3,4.9,5.2,4.9c.2,0,.8,0,.9,0q2.1,1.4,2.1,1.4c.2,.1,.4,.1,.4,-.2q0,-2.4,0,-2.4c.9,-.7,1.6,-1.8,1.8,-3.1c.1,2.9,2.3,4.3,4.4,4.2c2.2,.1,4.5,-1.4,4.5,-4.4Zm-14.1,2.2c-1.5,0,-2.8,-1.2,-2.8,-2.6c0,-1.5,1.3,-2.7,2.8,-2.7c1.5,0,2.8,1.2,2.8,2.7c0,1.4,-1.3,2.6,-2.8,2.6Z" class="g2_56" />
</g>
<path d="M118.2,1186.7c-.8,0,-1.4,.6,-1.4,1.4c0,.7,.6,1.3,1.4,1.3c.8,0,1.4,-.6,1.4,-1.3c0,-.8,-.6,-1.4,-1.4,-1.4Z" class="g2_56" />
<path d="M129.3,1199q-3.4,-4.4,-3.4,-4.4q3,-3.8,3,-3.8c.1,-.1,.1,-.5,-.1,-.6c-.5,0,-1.3,0,-2.2,0c-.1,0,-.2,.1,-.4,.3q-2.9,3.7,-2.9,3.7c0,-2.7,0,-5.4,0,-8c0,-.2,-.2,-.2,-.3,-.1c-.7,.4,-1.3,.9,-2,1.3c-.2,.1,-.2,.3,-.2,.5q0,.6,0,.6q0,.7,0,.7q0,.1,0,.1q0,9.2,0,9.2q0,.1,0,.1q0,.7,0,.7c0,.1,.1,.3,.2,.3q2,0,2,0c.1,0,.3,-.2,.3,-.3q0,-.6,0,-.6q0,-3.5,0,-3.5q3.2,4.2,3.2,4.2c.1,.2,.2,.2,.4,.2c.8,0,1.8,0,2.2,0c.3,-.1,.3,-.5,.2,-.6Z" class="g2_56" />
<path fill-rule="evenodd" d="M88,107.6H361.4V103H88v4.6Z" class="g3_56" />
<path fill-rule="evenodd" d="M361.4,107.6H366V103h-4.6v4.6Z" class="g3_56" />
<path fill-rule="evenodd" d="M366,107.6h66V103H366v4.6Z" class="g3_56" />
<path fill-rule="evenodd" d="M432,107.6h4.6V103H432v4.6Z" class="g3_56" />
<path fill-rule="evenodd" d="M436.6,107.6H846.2V103H436.6v4.6Z" class="g3_56" />
<path fill-rule="evenodd" d="M88,138.4H361.4v-.7H88v.7Z" class="g3_56" />
<path fill-rule="evenodd" d="M361.4,138.4h.8v-.7h-.8v.7Z" class="g3_56" />
<path fill-rule="evenodd" d="M362.2,138.4H432v-.7H362.2v.7Z" class="g3_56" />
<path fill-rule="evenodd" d="M432,138.4h.7v-.7H432v.7Z" class="g3_56" />
<path fill-rule="evenodd" d="M432.7,138.4H846.2v-.7H432.7v.7Z" class="g3_56" />
<path fill-rule="evenodd" d="M88,172.9H361.4v-.7H88v.7Z" class="g3_56" />
<path fill-rule="evenodd" d="M361.4,172.9h.8v-.7h-.8v.7Z" class="g3_56" />
<path fill-rule="evenodd" d="M362.2,172.9H432v-.7H362.2v.7Z" class="g3_56" />
<path fill-rule="evenodd" d="M432,172.9h.7v-.7H432v.7Z" class="g3_56" />
<path fill-rule="evenodd" d="M432.7,172.9H846.2v-.7H432.7v.7Z" class="g3_56" />
<path fill-rule="evenodd" d="M88,207.4H361.4v-.8H88v.8Z" class="g3_56" />
<path fill-rule="evenodd" d="M361.4,207.4h.8v-.8h-.8v.8Z" class="g3_56" />
<path fill-rule="evenodd" d="M362.2,207.4H432v-.8H362.2v.8Z" class="g3_56" />
<path fill-rule="evenodd" d="M432,207.4h.7v-.8H432v.8Z" class="g3_56" />
<path fill-rule="evenodd" d="M432.7,207.4H846.2v-.8H432.7v.8Z" class="g3_56" />
<path fill-rule="evenodd" d="M88,241.8H361.4v-.7H88v.7Z" class="g3_56" />
<path fill-rule="evenodd" d="M361.4,241.8h.8v-.7h-.8v.7Z" class="g3_56" />
<path fill-rule="evenodd" d="M362.2,241.8H432v-.7H362.2v.7Z" class="g3_56" />
<path fill-rule="evenodd" d="M432,241.8h.7v-.7H432v.7Z" class="g3_56" />
<path fill-rule="evenodd" d="M432.7,241.8H846.2v-.7H432.7v.7Z" class="g3_56" />
<path fill-rule="evenodd" d="M88,276.5H361.4v-.7H88v.7Z" class="g3_56" />
<path fill-rule="evenodd" d="M361.4,276.5h.8v-.7h-.8v.7Z" class="g3_56" />
<path fill-rule="evenodd" d="M362.2,276.5H432v-.7H362.2v.7Z" class="g3_56" />
<path fill-rule="evenodd" d="M432,276.5h.7v-.7H432v.7Z" class="g3_56" />
<path fill-rule="evenodd" d="M432.7,276.5H846.2v-.7H432.7v.7Z" class="g3_56" />
<path fill-rule="evenodd" d="M88,311H361.4v-.8H88v.8Z" class="g3_56" />
<path fill-rule="evenodd" d="M361.4,311h.8v-.8h-.8v.8Z" class="g3_56" />
<path fill-rule="evenodd" d="M362.2,311H432v-.8H362.2v.8Z" class="g3_56" />
<path fill-rule="evenodd" d="M432,311h.7v-.8H432v.8Z" class="g3_56" />
<path fill-rule="evenodd" d="M432.7,311H846.2v-.8H432.7v.8Z" class="g3_56" />
<path fill-rule="evenodd" d="M88,345.4H361.4v-.7H88v.7Z" class="g3_56" />
<path fill-rule="evenodd" d="M361.4,345.4h.8v-.7h-.8v.7Z" class="g3_56" />
<path fill-rule="evenodd" d="M362.2,345.4H432v-.7H362.2v.7Z" class="g3_56" />
<path fill-rule="evenodd" d="M432,345.4h.7v-.7H432v.7Z" class="g3_56" />
<path fill-rule="evenodd" d="M432.7,345.4H846.2v-.7H432.7v.7Z" class="g3_56" />
<path fill-rule="evenodd" d="M88,379.9H361.4v-.7H88v.7Z" class="g3_56" />
<path fill-rule="evenodd" d="M361.4,379.9h.8v-.7h-.8v.7Z" class="g3_56" />
<path fill-rule="evenodd" d="M362.2,379.9H432v-.7H362.2v.7Z" class="g3_56" />
<path fill-rule="evenodd" d="M432,379.9h.7v-.7H432v.7Z" class="g3_56" />
<path fill-rule="evenodd" d="M432.7,379.9H846.2v-.7H432.7v.7Z" class="g3_56" />
<path fill-rule="evenodd" d="M88,414.4H361.4v-.8H88v.8Z" class="g3_56" />
<path fill-rule="evenodd" d="M361.4,414.4h.8v-.8h-.8v.8Z" class="g3_56" />
<path fill-rule="evenodd" d="M362.2,414.4H432v-.8H362.2v.8Z" class="g3_56" />
<path fill-rule="evenodd" d="M432,414.4h.7v-.8H432v.8Z" class="g3_56" />
<path fill-rule="evenodd" d="M432.7,414.4H846.2v-.8H432.7v.8Z" class="g3_56" />
<path fill-rule="evenodd" d="M88,449.1H361.4v-.8H88v.8Z" class="g3_56" />
<path fill-rule="evenodd" d="M361.4,449.1h.8v-.8h-.8v.8Z" class="g3_56" />
<path fill-rule="evenodd" d="M362.2,449.1H432v-.8H362.2v.8Z" class="g3_56" />
<path fill-rule="evenodd" d="M432,449.1h.7v-.8H432v.8Z" class="g3_56" />
<path fill-rule="evenodd" d="M432.7,449.1H846.2v-.8H432.7v.8Z" class="g3_56" />
<path fill-rule="evenodd" d="M88,483.5H361.4v-.7H88v.7Z" class="g3_56" />
<path fill-rule="evenodd" d="M361.4,483.5h.8v-.7h-.8v.7Z" class="g3_56" />
<path fill-rule="evenodd" d="M362.2,483.5H432v-.7H362.2v.7Z" class="g3_56" />
<path fill-rule="evenodd" d="M432,483.5h.7v-.7H432v.7Z" class="g3_56" />
<path fill-rule="evenodd" d="M432.7,483.5H846.2v-.7H432.7v.7Z" class="g3_56" />
<path fill-rule="evenodd" d="M440.6,541.5H586v-1H440.6v1Z" class="g4_56" />
<path fill-rule="evenodd" d="M88,518H361.4v-.7H88v.7Z" class="g3_56" />
<path fill-rule="evenodd" d="M361.4,518h.8v-.7h-.8v.7Z" class="g3_56" />
<path fill-rule="evenodd" d="M362.2,518H432v-.7H362.2v.7Z" class="g3_56" />
<path fill-rule="evenodd" d="M432,518h.7v-.7H432v.7Z" class="g3_56" />
<path fill-rule="evenodd" d="M432.7,518H846.2v-.7H432.7v.7Z" class="g3_56" />
<path fill-rule="evenodd" d="M88,552.5H361.4v-.8H88v.8Z" class="g3_56" />
<path fill-rule="evenodd" d="M361.4,552.5h.8v-.8h-.8v.8Z" class="g3_56" />
<path fill-rule="evenodd" d="M362.2,552.5H432v-.8H362.2v.8Z" class="g3_56" />
<path fill-rule="evenodd" d="M432,552.5h.7v-.8H432v.8Z" class="g3_56" />
<path fill-rule="evenodd" d="M432.7,552.5H846.2v-.8H432.7v.8Z" class="g3_56" />
<path fill-rule="evenodd" d="M88,586.9H361.4v-.7H88v.7Z" class="g3_56" />
<path fill-rule="evenodd" d="M361.4,586.9h.8v-.7h-.8v.7Z" class="g3_56" />
<path fill-rule="evenodd" d="M362.2,586.9H432v-.7H362.2v.7Z" class="g3_56" />
<path fill-rule="evenodd" d="M432,586.9h.7v-.7H432v.7Z" class="g3_56" />
<path fill-rule="evenodd" d="M432.7,586.9H846.2v-.7H432.7v.7Z" class="g3_56" />
<path fill-rule="evenodd" d="M88,621.6H361.4v-.8H88v.8Z" class="g3_56" />
<path fill-rule="evenodd" d="M361.4,621.6h.8v-.8h-.8v.8Z" class="g3_56" />
<path fill-rule="evenodd" d="M362.2,621.6H432v-.8H362.2v.8Z" class="g3_56" />
<path fill-rule="evenodd" d="M432,621.6h.7v-.8H432v.8Z" class="g3_56" />
<path fill-rule="evenodd" d="M432.7,621.6H846.2v-.8H432.7v.8Z" class="g3_56" />
<path fill-rule="evenodd" d="M88,656H361.4v-.7H88v.7Z" class="g3_56" />
<path fill-rule="evenodd" d="M361.4,656h.8v-.7h-.8v.7Z" class="g3_56" />
<path fill-rule="evenodd" d="M362.2,656H432v-.7H362.2v.7Z" class="g3_56" />
<path fill-rule="evenodd" d="M432,656h.7v-.7H432v.7Z" class="g3_56" />
<path fill-rule="evenodd" d="M432.7,656H846.2v-.7H432.7v.7Z" class="g3_56" />
<path fill-rule="evenodd" d="M88,690.5H361.4v-.7H88v.7Z" class="g3_56" />
<path fill-rule="evenodd" d="M361.4,690.5h.8v-.7h-.8v.7Z" class="g3_56" />
<path fill-rule="evenodd" d="M362.2,690.5H432v-.7H362.2v.7Z" class="g3_56" />
<path fill-rule="evenodd" d="M432,690.5h.7v-.7H432v.7Z" class="g3_56" />
<path fill-rule="evenodd" d="M432.7,690.5H846.2v-.7H432.7v.7Z" class="g3_56" />
<path fill-rule="evenodd" d="M88,725H361.4v-.7H88v.7Z" class="g3_56" />
<path fill-rule="evenodd" d="M361.4,725h.8v-.7h-.8v.7Z" class="g3_56" />
<path fill-rule="evenodd" d="M362.2,725H432v-.7H362.2v.7Z" class="g3_56" />
<path fill-rule="evenodd" d="M432,725h.7v-.7H432v.7Z" class="g3_56" />
<path fill-rule="evenodd" d="M432.7,725H846.2v-.7H432.7v.7Z" class="g3_56" />
<path fill-rule="evenodd" d="M88,759.5H361.4v-.8H88v.8Z" class="g3_56" />
<path fill-rule="evenodd" d="M361.4,759.5h.8v-.8h-.8v.8Z" class="g3_56" />
<path fill-rule="evenodd" d="M362.2,759.5H432v-.8H362.2v.8Z" class="g3_56" />
<path fill-rule="evenodd" d="M432,759.5h.7v-.8H432v.8Z" class="g3_56" />
<path fill-rule="evenodd" d="M432.7,759.5H846.2v-.8H432.7v.8Z" class="g3_56" />
<path fill-rule="evenodd" d="M88,794.1H361.4v-.7H88v.7Z" class="g3_56" />
<path fill-rule="evenodd" d="M361.4,794.1h.8v-.7h-.8v.7Z" class="g3_56" />
<path fill-rule="evenodd" d="M362.2,794.1H432v-.7H362.2v.7Z" class="g3_56" />
<path fill-rule="evenodd" d="M432,794.1h.7v-.7H432v.7Z" class="g3_56" />
<path fill-rule="evenodd" d="M432.7,794.1H846.2v-.7H432.7v.7Z" class="g3_56" />
<path fill-rule="evenodd" d="M88,828.6H361.4v-.7H88v.7Z" class="g3_56" />
<path fill-rule="evenodd" d="M361.4,828.6h.8v-.7h-.8v.7Z" class="g3_56" />
<path fill-rule="evenodd" d="M362.2,828.6H432v-.7H362.2v.7Z" class="g3_56" />
<path fill-rule="evenodd" d="M432,828.6h.7v-.7H432v.7Z" class="g3_56" />
<path fill-rule="evenodd" d="M432.7,828.6H846.2v-.7H432.7v.7Z" class="g3_56" />
<path fill-rule="evenodd" d="M88,863.1H361.4v-.8H88v.8Z" class="g3_56" />
<path fill-rule="evenodd" d="M361.4,863.1h.8v-.8h-.8v.8Z" class="g3_56" />
<path fill-rule="evenodd" d="M362.2,863.1H432v-.8H362.2v.8Z" class="g3_56" />
<path fill-rule="evenodd" d="M432,863.1h.7v-.8H432v.8Z" class="g3_56" />
<path fill-rule="evenodd" d="M432.7,863.1H846.2v-.8H432.7v.8Z" class="g3_56" />
<path fill-rule="evenodd" d="M88,897.5H361.4v-.7H88v.7Z" class="g3_56" />
<path fill-rule="evenodd" d="M361.4,897.5h.8v-.7h-.8v.7Z" class="g3_56" />
<path fill-rule="evenodd" d="M362.2,897.5H432v-.7H362.2v.7Z" class="g3_56" />
<path fill-rule="evenodd" d="M432,897.5h.7v-.7H432v.7Z" class="g3_56" />
<path fill-rule="evenodd" d="M432.7,897.5H846.2v-.7H432.7v.7Z" class="g3_56" />
<path fill-rule="evenodd" d="M88,932.2H361.4v-.8H88v.8Z" class="g3_56" />
<path fill-rule="evenodd" d="M361.4,932.2h.8v-.8h-.8v.8Z" class="g3_56" />
<path fill-rule="evenodd" d="M362.2,932.2H432v-.8H362.2v.8Z" class="g3_56" />
<path fill-rule="evenodd" d="M432,932.2h.7v-.8H432v.8Z" class="g3_56" />
<path fill-rule="evenodd" d="M432.7,932.2H846.2v-.8H432.7v.8Z" class="g3_56" />
<path fill-rule="evenodd" d="M88,966.6H361.4v-.7H88v.7Z" class="g3_56" />
<path fill-rule="evenodd" d="M361.4,966.6h.8v-.7h-.8v.7Z" class="g3_56" />
<path fill-rule="evenodd" d="M362.2,966.6H432v-.7H362.2v.7Z" class="g3_56" />
<path fill-rule="evenodd" d="M432,966.6h.7v-.7H432v.7Z" class="g3_56" />
<path fill-rule="evenodd" d="M432.7,966.6H846.2v-.7H432.7v.7Z" class="g3_56" />
<path fill-rule="evenodd" d="M88,1001.2H361.4v-.8H88v.8Z" class="g3_56" />
<path fill-rule="evenodd" d="M361.4,1001.2h.8v-.8h-.8v.8Z" class="g3_56" />
<path fill-rule="evenodd" d="M362.2,1001.2H432v-.8H362.2v.8Z" class="g3_56" />
<path fill-rule="evenodd" d="M432,1001.2h.7v-.8H432v.8Z" class="g3_56" />
<path fill-rule="evenodd" d="M432.7,1001.2H846.2v-.8H432.7v.8Z" class="g3_56" />
<path fill-rule="evenodd" d="M88,1035.6H361.4v-.7H88v.7Z" class="g3_56" />
<path fill-rule="evenodd" d="M361.4,1035.6h.8v-.7h-.8v.7Z" class="g3_56" />
<path fill-rule="evenodd" d="M362.2,1035.6H432v-.7H362.2v.7Z" class="g3_56" />
<path fill-rule="evenodd" d="M432,1035.6h.7v-.7H432v.7Z" class="g3_56" />
<path fill-rule="evenodd" d="M432.7,1035.6H846.2v-.7H432.7v.7Z" class="g3_56" />
<path fill-rule="evenodd" d="M88,1070.1H361.4v-.7H88v.7Z" class="g3_56" />
<path fill-rule="evenodd" d="M361.4,1070.1h.8v-.7h-.8v.7Z" class="g3_56" />
<path fill-rule="evenodd" d="M362.2,1070.1H432v-.7H362.2v.7Z" class="g3_56" />
<path fill-rule="evenodd" d="M432,1070.1h.7v-.7H432v.7Z" class="g3_56" />
<path fill-rule="evenodd" d="M432.7,1070.1H846.2v-.7H432.7v.7Z" class="g3_56" />
<path fill-rule="evenodd" d="M88,1104.7H361.4v-.7H88v.7Z" class="g3_56" />
<path fill-rule="evenodd" d="M361.4,1104.7h.8v-.7h-.8v.7Z" class="g3_56" />
<path fill-rule="evenodd" d="M362.2,1104.7H432v-.7H362.2v.7Z" class="g3_56" />
<path fill-rule="evenodd" d="M432,1104.7h.7v-.7H432v.7Z" class="g3_56" />
<path fill-rule="evenodd" d="M432.7,1104.7H846.2v-.7H432.7v.7Z" class="g3_56" />
<path fill-rule="evenodd" d="M86.9,1139.2H361.4v-.7H86.9v.7Z" class="g3_56" />
<path fill-rule="evenodd" d="M360.3,1139.2h.8v-.7h-.8v.7Z" class="g3_56" />
<path fill-rule="evenodd" d="M361.1,1139.2H432v-.7H361.1v.7Z" class="g3_56" />
<path fill-rule="evenodd" d="M430.9,1139.2h.7v-.7h-.7v.7Z" class="g3_56" />
<path fill-rule="evenodd" d="M431.6,1139.2H846.2v-.7H431.6v.7Z" class="g3_56" />
</svg>