<?xml version="1.0" encoding="UTF-8" standalone="no"?>
<!DOCTYPE svg PUBLIC "-//W3C//DTD SVG 1.1//EN"
"http://www.w3.org/Graphics/SVG/1.1/DTD/svg11.dtd">
<svg viewBox="0 0 909 1286" version="1.1" xmlns="http://www.w3.org/2000/svg" xmlns:xlink="http://www.w3.org/1999/xlink">
<defs>
<clipPath id="c0_111"><path d="M96.4,1201.4v-15.5h33v15.5Z" /></clipPath>
<style type="text/css"><![CDATA[
.g0_111{
fill: none;
stroke: #000000;
stroke-width: 4.201389;
stroke-linecap: butt;
stroke-linejoin: round;
}
.g1_111{
fill: #5EB28E;
fill-opacity: 0.6;
}
.g2_111{
fill: #FFFFFF;
}
.g3_111{
fill: #F1F1F1;
}
]]></style>
</defs>
<path d="M841.2,1171.7H796.5" class="g0_111" />
<path fill-rule="evenodd" d="M111.9,1174c-11.5,0,-20.8,9.3,-20.8,20.8c0,11.5,9.3,20.8,20.8,20.8c11.5,0,20.8,-9.3,20.8,-20.8c0,-11.5,-9.3,-20.8,-20.8,-20.8Z" class="g1_111" />
<path d="M116.9,1199.3c0,.1,.2,.3,.4,.3q1.9,0,1.9,0c.1,0,.3,-.2,.3,-.3q0,-.7,0,-.7q0,-.1,0,-.1q0,-7.1,0,-7.1q0,-.1,0,-.1q0,-.7,0,-.7c0,-.2,-.2,-.4,-.3,-.4q-1.9,0,-1.9,0c-.2,0,-.4,.2,-.4,.4q0,.5,0,.5q0,7.6,0,7.6v.6Z" class="g2_111" />
<g clip-path="url(#c0_111)">
<path d="M115.7,1195.4q0,-4.8,0,-4.8c0,-.2,-.1,-.4,-.3,-.4q-2,0,-2,0c-.1,0,-.2,.2,-.2,.4q0,4.4,0,4.4c0,1.7,-1,2.5,-2,2.4c-1,.1,-2,-.7,-1.9,-2.4q0,-4.4,0,-4.4c0,-.2,-.1,-.4,-.3,-.4q-1.9,0,-1.9,0c-.2,0,-.3,.2,-.3,.4q0,3.6,0,3.6c-.4,-2.4,-2.6,-4.2,-5.2,-4.2c-2.9,0,-5.2,2.2,-5.2,5c0,2.7,2.3,4.9,5.2,4.9c.2,0,.8,0,.9,0q2.1,1.4,2.1,1.4c.2,.1,.4,.1,.4,-.2q0,-2.4,0,-2.4c.9,-.7,1.6,-1.8,1.8,-3.1c.1,2.9,2.3,4.3,4.4,4.2c2.2,.1,4.5,-1.4,4.5,-4.4Zm-14.1,2.2c-1.5,0,-2.8,-1.2,-2.8,-2.6c0,-1.5,1.3,-2.7,2.8,-2.7c1.5,0,2.8,1.2,2.8,2.7c0,1.4,-1.3,2.6,-2.8,2.6Z" class="g2_111" />
</g>
<path d="M118.2,1186.7c-.8,0,-1.4,.6,-1.4,1.4c0,.7,.6,1.3,1.4,1.3c.8,0,1.4,-.6,1.4,-1.3c0,-.8,-.6,-1.4,-1.4,-1.4Z" class="g2_111" />
<path d="M129.3,1199q-3.4,-4.4,-3.4,-4.4q3,-3.8,3,-3.8c.1,-.1,.1,-.5,-.1,-.6c-.5,0,-1.3,0,-2.2,0c-.1,0,-.2,.1,-.4,.3q-2.9,3.7,-2.9,3.7c0,-2.7,0,-5.4,0,-8c0,-.2,-.2,-.2,-.3,-.1c-.7,.4,-1.3,.9,-2,1.3c-.2,.1,-.2,.3,-.2,.5q0,.6,0,.6q0,.7,0,.7q0,.1,0,.1q0,9.2,0,9.2q0,.1,0,.1q0,.7,0,.7c0,.1,.1,.3,.2,.3q2,0,2,0c.1,0,.3,-.2,.3,-.3q0,-.6,0,-.6q0,-3.5,0,-3.5q3.2,4.2,3.2,4.2c.1,.2,.2,.2,.4,.2c.8,0,1.8,0,2.2,0c.3,-.1,.3,-.5,.2,-.6Z" class="g2_111" />
<path fill-rule="evenodd" d="M133.7,99.5H845.9V75.2H133.7V99.5Z" class="g3_111" />
<path fill-rule="evenodd" d="M124.5,75.2h9.2V66h-9.2v9.2Z" class="g3_111" />
<path fill-rule="evenodd" d="M124.5,75.2h9.2V66h-9.2v9.2Z" class="g3_111" />
<path fill-rule="evenodd" d="M133.7,75.2H845.9V66H133.7v9.2Z" class="g3_111" />
<path fill-rule="evenodd" d="M124.5,99.5h9.2V75.2h-9.2V99.5Z" class="g3_111" />
<path fill-rule="evenodd" d="M133.7,124.1H845.9V99.5H133.7v24.6Z" class="g3_111" />
<path fill-rule="evenodd" d="M124.5,133.3h9.2v-9.2h-9.2v9.2Z" class="g3_111" />
<path fill-rule="evenodd" d="M124.5,133.3h9.2v-9.2h-9.2v9.2Z" class="g3_111" />
<path fill-rule="evenodd" d="M133.7,133.3H845.9v-9.2H133.7v9.2Z" class="g3_111" />
<path fill-rule="evenodd" d="M124.5,124.1h9.2V99.5h-9.2v24.6Z" class="g3_111" />
<path fill-rule="evenodd" d="M133.7,229.4H845.9V204.8H133.7v24.6Z" class="g3_111" />
<path fill-rule="evenodd" d="M124.5,204.8h9.2v-9.2h-9.2v9.2Z" class="g3_111" />
<path fill-rule="evenodd" d="M124.5,204.8h9.2v-9.2h-9.2v9.2Z" class="g3_111" />
<path fill-rule="evenodd" d="M133.7,204.8H845.9v-9.2H133.7v9.2Z" class="g3_111" />
<path fill-rule="evenodd" d="M124.5,229.4h9.2V204.8h-9.2v24.6Z" class="g3_111" />
<path fill-rule="evenodd" d="M133.7,252.3H845.9V229.4H133.7v22.9Z" class="g3_111" />
<path fill-rule="evenodd" d="M124.5,252.3h9.2V229.4h-9.2v22.9Z" class="g3_111" />
<path fill-rule="evenodd" d="M133.7,275.2H845.9V252.3H133.7v22.9Z" class="g3_111" />
<path fill-rule="evenodd" d="M124.5,275.2h9.2V252.3h-9.2v22.9Z" class="g3_111" />
<path fill-rule="evenodd" d="M133.7,298.1H845.9V275.2H133.7v22.9Z" class="g3_111" />
<path fill-rule="evenodd" d="M124.5,298.1h9.2V275.2h-9.2v22.9Z" class="g3_111" />
<path fill-rule="evenodd" d="M133.7,321H845.9V298.1H133.7V321Z" class="g3_111" />
<path fill-rule="evenodd" d="M124.5,321h9.2V298.1h-9.2V321Z" class="g3_111" />
<path fill-rule="evenodd" d="M133.7,344H845.9V321H133.7v23Z" class="g3_111" />
<path fill-rule="evenodd" d="M124.5,344h9.2V321h-9.2v23Z" class="g3_111" />
<path fill-rule="evenodd" d="M133.7,366.9H845.9V344H133.7v22.9Z" class="g3_111" />
<path fill-rule="evenodd" d="M124.5,366.9h9.2V344h-9.2v22.9Z" class="g3_111" />
<path fill-rule="evenodd" d="M133.7,389.8H845.9V366.9H133.7v22.9Z" class="g3_111" />
<path fill-rule="evenodd" d="M124.5,389.8h9.2V366.9h-9.2v22.9Z" class="g3_111" />
<path fill-rule="evenodd" d="M133.7,412.7H845.9V389.8H133.7v22.9Z" class="g3_111" />
<path fill-rule="evenodd" d="M124.5,412.7h9.2V389.8h-9.2v22.9Z" class="g3_111" />
<path fill-rule="evenodd" d="M133.7,435.7H845.9v-23H133.7v23Z" class="g3_111" />
<path fill-rule="evenodd" d="M124.5,435.7h9.2v-23h-9.2v23Z" class="g3_111" />
<path fill-rule="evenodd" d="M133.7,458.6H845.9V435.7H133.7v22.9Z" class="g3_111" />
<path fill-rule="evenodd" d="M124.5,458.6h9.2V435.7h-9.2v22.9Z" class="g3_111" />
<path fill-rule="evenodd" d="M133.7,481.5H845.9V458.6H133.7v22.9Z" class="g3_111" />
<path fill-rule="evenodd" d="M124.5,481.5h9.2V458.6h-9.2v22.9Z" class="g3_111" />
<path fill-rule="evenodd" d="M133.7,504.4H845.9V481.5H133.7v22.9Z" class="g3_111" />
<path fill-rule="evenodd" d="M124.5,504.4h9.2V481.5h-9.2v22.9Z" class="g3_111" />
<path fill-rule="evenodd" d="M133.7,527.3H845.9V504.4H133.7v22.9Z" class="g3_111" />
<path fill-rule="evenodd" d="M124.5,527.3h9.2V504.4h-9.2v22.9Z" class="g3_111" />
<path fill-rule="evenodd" d="M133.7,550.3H845.9v-23H133.7v23Z" class="g3_111" />
<path fill-rule="evenodd" d="M124.5,550.3h9.2v-23h-9.2v23Z" class="g3_111" />
<path fill-rule="evenodd" d="M133.7,573.2H845.9V550.3H133.7v22.9Z" class="g3_111" />
<path fill-rule="evenodd" d="M124.5,573.2h9.2V550.3h-9.2v22.9Z" class="g3_111" />
<path fill-rule="evenodd" d="M133.7,596.1H845.9V573.2H133.7v22.9Z" class="g3_111" />
<path fill-rule="evenodd" d="M124.5,596.1h9.2V573.2h-9.2v22.9Z" class="g3_111" />
<path fill-rule="evenodd" d="M133.7,619H845.9V596.1H133.7V619Z" class="g3_111" />
<path fill-rule="evenodd" d="M124.5,619h9.2V596.1h-9.2V619Z" class="g3_111" />
<path fill-rule="evenodd" d="M133.7,641.9H845.9V619H133.7v22.9Z" class="g3_111" />
<path fill-rule="evenodd" d="M124.5,641.9h9.2V619h-9.2v22.9Z" class="g3_111" />
<path fill-rule="evenodd" d="M133.7,664.8H845.9V641.9H133.7v22.9Z" class="g3_111" />
<path fill-rule="evenodd" d="M124.5,664.8h9.2V641.9h-9.2v22.9Z" class="g3_111" />
<path fill-rule="evenodd" d="M133.7,687.8H845.9v-23H133.7v23Z" class="g3_111" />
<path fill-rule="evenodd" d="M124.5,687.8h9.2v-23h-9.2v23Z" class="g3_111" />
<path fill-rule="evenodd" d="M133.7,710.7H845.9V687.8H133.7v22.9Z" class="g3_111" />
<path fill-rule="evenodd" d="M124.5,710.7h9.2V687.8h-9.2v22.9Z" class="g3_111" />
<path fill-rule="evenodd" d="M133.7,733.6H845.9V710.7H133.7v22.9Z" class="g3_111" />
<path fill-rule="evenodd" d="M124.5,733.6h9.2V710.7h-9.2v22.9Z" class="g3_111" />
<path fill-rule="evenodd" d="M133.7,756.5H845.9V733.6H133.7v22.9Z" class="g3_111" />
<path fill-rule="evenodd" d="M124.5,756.5h9.2V733.6h-9.2v22.9Z" class="g3_111" />
<path fill-rule="evenodd" d="M133.7,779.5H845.9v-23H133.7v23Z" class="g3_111" />
<path fill-rule="evenodd" d="M124.5,779.5h9.2v-23h-9.2v23Z" class="g3_111" />
<path fill-rule="evenodd" d="M133.7,802.4H845.9V779.5H133.7v22.9Z" class="g3_111" />
<path fill-rule="evenodd" d="M124.5,802.4h9.2V779.5h-9.2v22.9Z" class="g3_111" />
<path fill-rule="evenodd" d="M133.7,825.3H845.9V802.4H133.7v22.9Z" class="g3_111" />
<path fill-rule="evenodd" d="M124.5,825.3h9.2V802.4h-9.2v22.9Z" class="g3_111" />
<path fill-rule="evenodd" d="M133.7,848.2H845.9V825.3H133.7v22.9Z" class="g3_111" />
<path fill-rule="evenodd" d="M124.5,848.2h9.2V825.3h-9.2v22.9Z" class="g3_111" />
<path fill-rule="evenodd" d="M133.7,871.1H845.9V848.2H133.7v22.9Z" class="g3_111" />
<path fill-rule="evenodd" d="M124.5,871.1h9.2V848.2h-9.2v22.9Z" class="g3_111" />
<path fill-rule="evenodd" d="M133.7,894H845.9V871.1H133.7V894Z" class="g3_111" />
<path fill-rule="evenodd" d="M124.5,894h9.2V871.1h-9.2V894Z" class="g3_111" />
<path fill-rule="evenodd" d="M133.7,917H845.9V894H133.7v23Z" class="g3_111" />
<path fill-rule="evenodd" d="M124.5,917h9.2V894h-9.2v23Z" class="g3_111" />
<path fill-rule="evenodd" d="M133.7,939.9H845.9V917H133.7v22.9Z" class="g3_111" />
<path fill-rule="evenodd" d="M124.5,939.9h9.2V917h-9.2v22.9Z" class="g3_111" />
<path fill-rule="evenodd" d="M133.7,962.8H845.9V939.9H133.7v22.9Z" class="g3_111" />
<path fill-rule="evenodd" d="M124.5,962.8h9.2V939.9h-9.2v22.9Z" class="g3_111" />
<path fill-rule="evenodd" d="M133.7,985.7H845.9V962.8H133.7v22.9Z" class="g3_111" />
<path fill-rule="evenodd" d="M124.5,985.7h9.2V962.8h-9.2v22.9Z" class="g3_111" />
<path fill-rule="evenodd" d="M133.7,1008.7H845.9v-23H133.7v23Z" class="g3_111" />
<path fill-rule="evenodd" d="M124.5,1008.7h9.2v-23h-9.2v23Z" class="g3_111" />
<path fill-rule="evenodd" d="M133.7,1031.6H845.9v-22.9H133.7v22.9Z" class="g3_111" />
<path fill-rule="evenodd" d="M124.5,1031.6h9.2v-22.9h-9.2v22.9Z" class="g3_111" />
<path fill-rule="evenodd" d="M133.7,1054.5H845.9v-22.9H133.7v22.9Z" class="g3_111" />
<path fill-rule="evenodd" d="M124.5,1054.5h9.2v-22.9h-9.2v22.9Z" class="g3_111" />
<path fill-rule="evenodd" d="M133.7,1077.4H845.9v-22.9H133.7v22.9Z" class="g3_111" />
<path fill-rule="evenodd" d="M124.5,1077.4h9.2v-22.9h-9.2v22.9Z" class="g3_111" />
<path fill-rule="evenodd" d="M133.7,1100.3H845.9v-22.9H133.7v22.9Z" class="g3_111" />
<path fill-rule="evenodd" d="M124.5,1100.3h9.2v-22.9h-9.2v22.9Z" class="g3_111" />
<path fill-rule="evenodd" d="M133.7,1123.3H845.9v-23H133.7v23Z" class="g3_111" />
<path fill-rule="evenodd" d="M124.5,1123.3h9.2v-23h-9.2v23Z" class="g3_111" />
<path fill-rule="evenodd" d="M133.7,1147.6H845.9v-24.4H133.7v24.4Z" class="g3_111" />
<path fill-rule="evenodd" d="M124.5,1156.8h9.2v-9.2h-9.2v9.2Z" class="g3_111" />
<path fill-rule="evenodd" d="M124.5,1156.8h9.2v-9.2h-9.2v9.2Z" class="g3_111" />
<path fill-rule="evenodd" d="M133.7,1156.8H845.9v-9.2H133.7v9.2Z" class="g3_111" />
<path fill-rule="evenodd" d="M124.5,1147.6h9.2v-24.4h-9.2v24.4Z" class="g3_111" />
</svg>