<?xml version="1.0" encoding="UTF-8" standalone="no"?>
<!DOCTYPE svg PUBLIC "-//W3C//DTD SVG 1.1//EN"
"http://www.w3.org/Graphics/SVG/1.1/DTD/svg11.dtd">
<svg viewBox="0 0 909 1286" version="1.1" xmlns="http://www.w3.org/2000/svg" xmlns:xlink="http://www.w3.org/1999/xlink">
<defs>
<clipPath id="c0_27"><path d="M96.4,1201.4v-15.5h33v15.5Z" /></clipPath>
<style type="text/css"><![CDATA[
.g0_27{
fill: none;
stroke: #000000;
stroke-width: 4.201389;
stroke-linecap: butt;
stroke-linejoin: round;
}
.g1_27{
fill: #5EB28E;
fill-opacity: 0.6;
}
.g2_27{
fill: #FFFFFF;
}
.g3_27{
}
]]></style>
</defs>
<path d="M841.2,1171.7H796.5" class="g0_27" />
<path fill-rule="evenodd" d="M111.9,1174c-11.5,0,-20.8,9.3,-20.8,20.8c0,11.5,9.3,20.8,20.8,20.8c11.5,0,20.8,-9.3,20.8,-20.8c0,-11.5,-9.3,-20.8,-20.8,-20.8Z" class="g1_27" />
<path d="M116.9,1199.3c0,.1,.2,.3,.4,.3q1.9,0,1.9,0c.1,0,.3,-.2,.3,-.3q0,-.7,0,-.7q0,-.1,0,-.1q0,-7.1,0,-7.1q0,-.1,0,-.1q0,-.7,0,-.7c0,-.2,-.2,-.4,-.3,-.4q-1.9,0,-1.9,0c-.2,0,-.4,.2,-.4,.4q0,.5,0,.5q0,7.6,0,7.6v.6Z" class="g2_27" />
<g clip-path="url(#c0_27)">
<path d="M115.7,1195.4q0,-4.8,0,-4.8c0,-.2,-.1,-.4,-.3,-.4q-2,0,-2,0c-.1,0,-.2,.2,-.2,.4q0,4.4,0,4.4c0,1.7,-1,2.5,-2,2.4c-1,.1,-2,-.7,-1.9,-2.4q0,-4.4,0,-4.4c0,-.2,-.1,-.4,-.3,-.4q-1.9,0,-1.9,0c-.2,0,-.3,.2,-.3,.4q0,3.6,0,3.6c-.4,-2.4,-2.6,-4.2,-5.2,-4.2c-2.9,0,-5.2,2.2,-5.2,5c0,2.7,2.3,4.9,5.2,4.9c.2,0,.8,0,.9,0q2.1,1.4,2.1,1.4c.2,.1,.4,.1,.4,-.2q0,-2.4,0,-2.4c.9,-.7,1.6,-1.8,1.8,-3.1c.1,2.9,2.3,4.3,4.4,4.2c2.2,.1,4.5,-1.4,4.5,-4.4Zm-14.1,2.2c-1.5,0,-2.8,-1.2,-2.8,-2.6c0,-1.5,1.3,-2.7,2.8,-2.7c1.5,0,2.8,1.2,2.8,2.7c0,1.4,-1.3,2.6,-2.8,2.6Z" class="g2_27" />
</g>
<path d="M118.2,1186.7c-.8,0,-1.4,.6,-1.4,1.4c0,.7,.6,1.3,1.4,1.3c.8,0,1.4,-.6,1.4,-1.3c0,-.8,-.6,-1.4,-1.4,-1.4Z" class="g2_27" />
<path d="M129.3,1199q-3.4,-4.4,-3.4,-4.4q3,-3.8,3,-3.8c.1,-.1,.1,-.5,-.1,-.6c-.5,0,-1.3,0,-2.2,0c-.1,0,-.2,.1,-.4,.3q-2.9,3.7,-2.9,3.7c0,-2.7,0,-5.4,0,-8c0,-.2,-.2,-.2,-.3,-.1c-.7,.4,-1.3,.9,-2,1.3c-.2,.1,-.2,.3,-.2,.5q0,.6,0,.6q0,.7,0,.7q0,.1,0,.1q0,9.2,0,9.2q0,.1,0,.1q0,.7,0,.7c0,.1,.1,.3,.2,.3q2,0,2,0c.1,0,.3,-.2,.3,-.3q0,-.6,0,-.6q0,-3.5,0,-3.5q3.2,4.2,3.2,4.2c.1,.2,.2,.2,.4,.2c.8,0,1.8,0,2.2,0c.3,-.1,.3,-.5,.2,-.6Z" class="g2_27" />
<path fill-rule="evenodd" d="M88,107.6H280.8V103H88v4.6Z" class="g3_27" />
<path fill-rule="evenodd" d="M280.7,107.6h4.6V103h-4.6v4.6Z" class="g3_27" />
<path fill-rule="evenodd" d="M285.3,107.6h121V103h-121v4.6Z" class="g3_27" />
<path fill-rule="evenodd" d="M406.3,107.6h4.6V103h-4.6v4.6Z" class="g3_27" />
<path fill-rule="evenodd" d="M410.9,107.6H846.2V103H410.9v4.6Z" class="g3_27" />
<path fill-rule="evenodd" d="M88,159.2H280.7v-.8H88v.8Z" class="g3_27" />
<path fill-rule="evenodd" d="M280.7,159.2h.7v-.8h-.7v.8Z" class="g3_27" />
<path fill-rule="evenodd" d="M281.4,159.2H406.3v-.8H281.4v.8Z" class="g3_27" />
<path fill-rule="evenodd" d="M406.3,159.2h.8v-.8h-.8v.8Z" class="g3_27" />
<path fill-rule="evenodd" d="M407.1,159.2H846.2v-.8H407.1v.8Z" class="g3_27" />
<path fill-rule="evenodd" d="M88,214.3H280.7v-.7H88v.7Z" class="g3_27" />
<path fill-rule="evenodd" d="M280.7,214.3h.7v-.7h-.7v.7Z" class="g3_27" />
<path fill-rule="evenodd" d="M281.4,214.3H406.3v-.7H281.4v.7Z" class="g3_27" />
<path fill-rule="evenodd" d="M406.3,214.3h.8v-.7h-.8v.7Z" class="g3_27" />
<path fill-rule="evenodd" d="M407.1,214.3H846.2v-.7H407.1v.7Z" class="g3_27" />
<path fill-rule="evenodd" d="M86.9,269.7H280.7V269H86.9v.7Z" class="g3_27" />
<path fill-rule="evenodd" d="M279.6,269.7h.7V269h-.7v.7Z" class="g3_27" />
<path fill-rule="evenodd" d="M280.3,269.7h126V269h-126v.7Z" class="g3_27" />
<path fill-rule="evenodd" d="M405.2,269.7h.8V269h-.8v.7Z" class="g3_27" />
<path fill-rule="evenodd" d="M406,269.7H846.2V269H406v.7Z" class="g3_27" />
<path fill-rule="evenodd" d="M88,388.1H321.8v-4.5H88v4.5Z" class="g3_27" />
<path fill-rule="evenodd" d="M321.8,388.1h4.6v-4.5h-4.6v4.5Z" class="g3_27" />
<path fill-rule="evenodd" d="M326.4,388.1H474v-4.5H326.4v4.5Z" class="g3_27" />
<path fill-rule="evenodd" d="M474,388.1h4.6v-4.5H474v4.5Z" class="g3_27" />
<path fill-rule="evenodd" d="M478.6,388.1H846.2v-4.5H478.6v4.5Z" class="g3_27" />
<path fill-rule="evenodd" d="M88,422.6H321.8v-.7H88v.7Z" class="g3_27" />
<path fill-rule="evenodd" d="M321.8,422.6h.8v-.7h-.8v.7Z" class="g3_27" />
<path fill-rule="evenodd" d="M322.6,422.6H474v-.7H322.6v.7Z" class="g3_27" />
<path fill-rule="evenodd" d="M474,422.6h.8v-.7H474v.7Z" class="g3_27" />
<path fill-rule="evenodd" d="M474.8,422.6H846.2v-.7H474.8v.7Z" class="g3_27" />
<path fill-rule="evenodd" d="M86.9,457.1H321.8v-.7H86.9v.7Z" class="g3_27" />
<path fill-rule="evenodd" d="M320.7,457.1h.8v-.7h-.8v.7Z" class="g3_27" />
<path fill-rule="evenodd" d="M321.5,457.1H474v-.7H321.5v.7Z" class="g3_27" />
<path fill-rule="evenodd" d="M472.9,457.1h.8v-.7h-.8v.7Z" class="g3_27" />
<path fill-rule="evenodd" d="M473.7,457.1H846.2v-.7H473.7v.7Z" class="g3_27" />
</svg>