<?xml version="1.0" encoding="UTF-8" standalone="no"?>
<!DOCTYPE svg PUBLIC "-//W3C//DTD SVG 1.1//EN"
"http://www.w3.org/Graphics/SVG/1.1/DTD/svg11.dtd">
<svg viewBox="0 0 909 1286" version="1.1" xmlns="http://www.w3.org/2000/svg" xmlns:xlink="http://www.w3.org/1999/xlink">
<defs>
<clipPath id="c0_75"><path d="M96.4,1201.4v-15.5h33v15.5Z" /></clipPath>
<style type="text/css"><![CDATA[
.g0_75{
fill: none;
stroke: #000000;
stroke-width: 4.201389;
stroke-linecap: butt;
stroke-linejoin: round;
}
.g1_75{
fill: #5EB28E;
fill-opacity: 0.6;
}
.g2_75{
fill: #FFFFFF;
}
.g3_75{
}
.g4_75{
fill: #16AAD3;
}
]]></style>
</defs>
<path d="M841.2,1171.7H796.5" class="g0_75" />
<path fill-rule="evenodd" d="M111.9,1174c-11.5,0,-20.8,9.3,-20.8,20.8c0,11.5,9.3,20.8,20.8,20.8c11.5,0,20.8,-9.3,20.8,-20.8c0,-11.5,-9.3,-20.8,-20.8,-20.8Z" class="g1_75" />
<path d="M116.9,1199.3c0,.1,.2,.3,.4,.3q1.9,0,1.9,0c.1,0,.3,-.2,.3,-.3q0,-.7,0,-.7q0,-.1,0,-.1q0,-7.1,0,-7.1q0,-.1,0,-.1q0,-.7,0,-.7c0,-.2,-.2,-.4,-.3,-.4q-1.9,0,-1.9,0c-.2,0,-.4,.2,-.4,.4q0,.5,0,.5q0,7.6,0,7.6v.6Z" class="g2_75" />
<g clip-path="url(#c0_75)">
<path d="M115.7,1195.4q0,-4.8,0,-4.8c0,-.2,-.1,-.4,-.3,-.4q-2,0,-2,0c-.1,0,-.2,.2,-.2,.4q0,4.4,0,4.4c0,1.7,-1,2.5,-2,2.4c-1,.1,-2,-.7,-1.9,-2.4q0,-4.4,0,-4.4c0,-.2,-.1,-.4,-.3,-.4q-1.9,0,-1.9,0c-.2,0,-.3,.2,-.3,.4q0,3.6,0,3.6c-.4,-2.4,-2.6,-4.2,-5.2,-4.2c-2.9,0,-5.2,2.2,-5.2,5c0,2.7,2.3,4.9,5.2,4.9c.2,0,.8,0,.9,0q2.1,1.4,2.1,1.4c.2,.1,.4,.1,.4,-.2q0,-2.4,0,-2.4c.9,-.7,1.6,-1.8,1.8,-3.1c.1,2.9,2.3,4.3,4.4,4.2c2.2,.1,4.5,-1.4,4.5,-4.4Zm-14.1,2.2c-1.5,0,-2.8,-1.2,-2.8,-2.6c0,-1.5,1.3,-2.7,2.8,-2.7c1.5,0,2.8,1.2,2.8,2.7c0,1.4,-1.3,2.6,-2.8,2.6Z" class="g2_75" />
</g>
<path d="M118.2,1186.7c-.8,0,-1.4,.6,-1.4,1.4c0,.7,.6,1.3,1.4,1.3c.8,0,1.4,-.6,1.4,-1.3c0,-.8,-.6,-1.4,-1.4,-1.4Z" class="g2_75" />
<path d="M129.3,1199q-3.4,-4.4,-3.4,-4.4q3,-3.8,3,-3.8c.1,-.1,.1,-.5,-.1,-.6c-.5,0,-1.3,0,-2.2,0c-.1,0,-.2,.1,-.4,.3q-2.9,3.7,-2.9,3.7c0,-2.7,0,-5.4,0,-8c0,-.2,-.2,-.2,-.3,-.1c-.7,.4,-1.3,.9,-2,1.3c-.2,.1,-.2,.3,-.2,.5q0,.6,0,.6q0,.7,0,.7q0,.1,0,.1q0,9.2,0,9.2q0,.1,0,.1q0,.7,0,.7c0,.1,.1,.3,.2,.3q2,0,2,0c.1,0,.3,-.2,.3,-.3q0,-.6,0,-.6q0,-3.5,0,-3.5q3.2,4.2,3.2,4.2c.1,.2,.2,.2,.4,.2c.8,0,1.8,0,2.2,0c.3,-.1,.3,-.5,.2,-.6Z" class="g2_75" />
<path fill-rule="evenodd" d="M88,107.6H361.4V103H88v4.6Z" class="g3_75" />
<path fill-rule="evenodd" d="M361.4,107.6H366V103h-4.6v4.6Z" class="g3_75" />
<path fill-rule="evenodd" d="M366,107.6h66V103H366v4.6Z" class="g3_75" />
<path fill-rule="evenodd" d="M432,107.6h4.6V103H432v4.6Z" class="g3_75" />
<path fill-rule="evenodd" d="M436.6,107.6H846.2V103H436.6v4.6Z" class="g3_75" />
<path fill-rule="evenodd" d="M88,159.2H361.4v-.8H88v.8Z" class="g3_75" />
<path fill-rule="evenodd" d="M361.4,159.2h.8v-.8h-.8v.8Z" class="g3_75" />
<path fill-rule="evenodd" d="M362.2,159.2H432v-.8H362.2v.8Z" class="g3_75" />
<path fill-rule="evenodd" d="M432,159.2h.7v-.8H432v.8Z" class="g3_75" />
<path fill-rule="evenodd" d="M432.7,159.2H846.2v-.8H432.7v.8Z" class="g3_75" />
<path fill-rule="evenodd" d="M88,265.1H361.4v-.7H88v.7Z" class="g3_75" />
<path fill-rule="evenodd" d="M361.4,265.1h.8v-.7h-.8v.7Z" class="g3_75" />
<path fill-rule="evenodd" d="M362.2,265.1H432v-.7H362.2v.7Z" class="g3_75" />
<path fill-rule="evenodd" d="M432,265.1h.7v-.7H432v.7Z" class="g3_75" />
<path fill-rule="evenodd" d="M432.7,265.1H846.2v-.7H432.7v.7Z" class="g3_75" />
<path fill-rule="evenodd" d="M88,320.3H361.4v-.7H88v.7Z" class="g3_75" />
<path fill-rule="evenodd" d="M361.4,320.3h.8v-.7h-.8v.7Z" class="g3_75" />
<path fill-rule="evenodd" d="M362.2,320.3H432v-.7H362.2v.7Z" class="g3_75" />
<path fill-rule="evenodd" d="M432,320.3h.7v-.7H432v.7Z" class="g3_75" />
<path fill-rule="evenodd" d="M432.7,320.3H846.2v-.7H432.7v.7Z" class="g3_75" />
<path fill-rule="evenodd" d="M88,426.3H361.4v-.7H88v.7Z" class="g3_75" />
<path fill-rule="evenodd" d="M361.4,426.3h.8v-.7h-.8v.7Z" class="g3_75" />
<path fill-rule="evenodd" d="M362.2,426.3H432v-.7H362.2v.7Z" class="g3_75" />
<path fill-rule="evenodd" d="M432,426.3h.7v-.7H432v.7Z" class="g3_75" />
<path fill-rule="evenodd" d="M432.7,426.3H846.2v-.7H432.7v.7Z" class="g3_75" />
<path fill-rule="evenodd" d="M86.9,460.8H361.4v-.7H86.9v.7Z" class="g3_75" />
<path fill-rule="evenodd" d="M360.3,460.8h.8v-.7h-.8v.7Z" class="g3_75" />
<path fill-rule="evenodd" d="M361.1,460.8H432v-.7H361.1v.7Z" class="g3_75" />
<path fill-rule="evenodd" d="M430.9,460.8h.7v-.7h-.7v.7Z" class="g3_75" />
<path fill-rule="evenodd" d="M431.6,460.8H846.2v-.7H431.6v.7Z" class="g3_75" />
<path fill-rule="evenodd" d="M88,628.5H284.8V624H88v4.5Z" class="g3_75" />
<path fill-rule="evenodd" d="M284.8,628.5h4.6V624h-4.6v4.5Z" class="g3_75" />
<path fill-rule="evenodd" d="M289.4,628.5H393.7V624H289.4v4.5Z" class="g3_75" />
<path fill-rule="evenodd" d="M393.7,628.5h4.6V624h-4.6v4.5Z" class="g3_75" />
<path fill-rule="evenodd" d="M398.3,628.5H846.2V624H398.3v4.5Z" class="g3_75" />
<path fill-rule="evenodd" d="M88,663H284.8v-.7H88v.7Z" class="g3_75" />
<path fill-rule="evenodd" d="M284.8,663h.7v-.7h-.7v.7Z" class="g3_75" />
<path fill-rule="evenodd" d="M285.5,663H393.7v-.7H285.5v.7Z" class="g3_75" />
<path fill-rule="evenodd" d="M393.7,663h.7v-.7h-.7v.7Z" class="g3_75" />
<path fill-rule="evenodd" d="M394.4,663H846.2v-.7H394.4v.7Z" class="g3_75" />
<path fill-rule="evenodd" d="M88,697.5H284.8v-.8H88v.8Z" class="g3_75" />
<path fill-rule="evenodd" d="M284.8,697.5h.7v-.8h-.7v.8Z" class="g3_75" />
<path fill-rule="evenodd" d="M285.5,697.5H393.7v-.8H285.5v.8Z" class="g3_75" />
<path fill-rule="evenodd" d="M393.7,697.5h.7v-.8h-.7v.8Z" class="g3_75" />
<path fill-rule="evenodd" d="M394.4,697.5H846.2v-.8H394.4v.8Z" class="g3_75" />
<path fill-rule="evenodd" d="M402.3,755.6H547.7v-.9H402.3v.9Z" class="g4_75" />
<path fill-rule="evenodd" d="M88,732H284.8v-.8H88v.8Z" class="g3_75" />
<path fill-rule="evenodd" d="M284.8,732h.7v-.8h-.7v.8Z" class="g3_75" />
<path fill-rule="evenodd" d="M285.5,732H393.7v-.8H285.5v.8Z" class="g3_75" />
<path fill-rule="evenodd" d="M393.7,732h.7v-.8h-.7v.8Z" class="g3_75" />
<path fill-rule="evenodd" d="M394.4,732H846.2v-.8H394.4v.8Z" class="g3_75" />
<path fill-rule="evenodd" d="M88,766.6H284.8v-.7H88v.7Z" class="g3_75" />
<path fill-rule="evenodd" d="M284.8,766.6h.7v-.7h-.7v.7Z" class="g3_75" />
<path fill-rule="evenodd" d="M285.5,766.6H393.7v-.7H285.5v.7Z" class="g3_75" />
<path fill-rule="evenodd" d="M393.7,766.6h.7v-.7h-.7v.7Z" class="g3_75" />
<path fill-rule="evenodd" d="M394.4,766.6H846.2v-.7H394.4v.7Z" class="g3_75" />
<path fill-rule="evenodd" d="M88,801.1H284.8v-.7H88v.7Z" class="g3_75" />
<path fill-rule="evenodd" d="M284.8,801.1h.7v-.7h-.7v.7Z" class="g3_75" />
<path fill-rule="evenodd" d="M285.5,801.1H393.7v-.7H285.5v.7Z" class="g3_75" />
<path fill-rule="evenodd" d="M393.7,801.1h.7v-.7h-.7v.7Z" class="g3_75" />
<path fill-rule="evenodd" d="M394.4,801.1H846.2v-.7H394.4v.7Z" class="g3_75" />
<path fill-rule="evenodd" d="M88,835.6H284.8v-.8H88v.8Z" class="g3_75" />
<path fill-rule="evenodd" d="M284.8,835.6h.7v-.8h-.7v.8Z" class="g3_75" />
<path fill-rule="evenodd" d="M285.5,835.6H393.7v-.8H285.5v.8Z" class="g3_75" />
<path fill-rule="evenodd" d="M393.7,835.6h.7v-.8h-.7v.8Z" class="g3_75" />
<path fill-rule="evenodd" d="M394.4,835.6H846.2v-.8H394.4v.8Z" class="g3_75" />
<path fill-rule="evenodd" d="M88,870H284.8v-.7H88v.7Z" class="g3_75" />
<path fill-rule="evenodd" d="M284.8,870h.7v-.7h-.7v.7Z" class="g3_75" />
<path fill-rule="evenodd" d="M285.5,870H393.7v-.7H285.5v.7Z" class="g3_75" />
<path fill-rule="evenodd" d="M393.7,870h.7v-.7h-.7v.7Z" class="g3_75" />
<path fill-rule="evenodd" d="M394.4,870H846.2v-.7H394.4v.7Z" class="g3_75" />
<path fill-rule="evenodd" d="M88,904.5H284.8v-.7H88v.7Z" class="g3_75" />
<path fill-rule="evenodd" d="M284.8,904.5h.7v-.7h-.7v.7Z" class="g3_75" />
<path fill-rule="evenodd" d="M285.5,904.5H393.7v-.7H285.5v.7Z" class="g3_75" />
<path fill-rule="evenodd" d="M393.7,904.5h.7v-.7h-.7v.7Z" class="g3_75" />
<path fill-rule="evenodd" d="M394.4,904.5H846.2v-.7H394.4v.7Z" class="g3_75" />
<path fill-rule="evenodd" d="M88,939.1H284.8v-.7H88v.7Z" class="g3_75" />
<path fill-rule="evenodd" d="M284.8,939.1h.7v-.7h-.7v.7Z" class="g3_75" />
<path fill-rule="evenodd" d="M285.5,939.1H393.7v-.7H285.5v.7Z" class="g3_75" />
<path fill-rule="evenodd" d="M393.7,939.1h.7v-.7h-.7v.7Z" class="g3_75" />
<path fill-rule="evenodd" d="M394.4,939.1H846.2v-.7H394.4v.7Z" class="g3_75" />
<path fill-rule="evenodd" d="M88,973.6H284.8v-.7H88v.7Z" class="g3_75" />
<path fill-rule="evenodd" d="M284.8,973.6h.7v-.7h-.7v.7Z" class="g3_75" />
<path fill-rule="evenodd" d="M285.5,973.6H393.7v-.7H285.5v.7Z" class="g3_75" />
<path fill-rule="evenodd" d="M393.7,973.6h.7v-.7h-.7v.7Z" class="g3_75" />
<path fill-rule="evenodd" d="M394.4,973.6H846.2v-.7H394.4v.7Z" class="g3_75" />
<path fill-rule="evenodd" d="M88,1008.1H284.8v-.7H88v.7Z" class="g3_75" />
<path fill-rule="evenodd" d="M284.8,1008.1h.7v-.7h-.7v.7Z" class="g3_75" />
<path fill-rule="evenodd" d="M285.5,1008.1H393.7v-.7H285.5v.7Z" class="g3_75" />
<path fill-rule="evenodd" d="M393.7,1008.1h.7v-.7h-.7v.7Z" class="g3_75" />
<path fill-rule="evenodd" d="M394.4,1008.1H846.2v-.7H394.4v.7Z" class="g3_75" />
<path fill-rule="evenodd" d="M88,1042.6H284.8v-.7H88v.7Z" class="g3_75" />
<path fill-rule="evenodd" d="M284.8,1042.6h.7v-.7h-.7v.7Z" class="g3_75" />
<path fill-rule="evenodd" d="M285.5,1042.6H393.7v-.7H285.5v.7Z" class="g3_75" />
<path fill-rule="evenodd" d="M393.7,1042.6h.7v-.7h-.7v.7Z" class="g3_75" />
<path fill-rule="evenodd" d="M394.4,1042.6H846.2v-.7H394.4v.7Z" class="g3_75" />
<path fill-rule="evenodd" d="M88,1077.1H284.8v-.8H88v.8Z" class="g3_75" />
<path fill-rule="evenodd" d="M284.8,1077.1h.7v-.8h-.7v.8Z" class="g3_75" />
<path fill-rule="evenodd" d="M285.5,1077.1H393.7v-.8H285.5v.8Z" class="g3_75" />
<path fill-rule="evenodd" d="M393.7,1077.1h.7v-.8h-.7v.8Z" class="g3_75" />
<path fill-rule="evenodd" d="M394.4,1077.1H846.2v-.8H394.4v.8Z" class="g3_75" />
<path fill-rule="evenodd" d="M88,1111.7H284.8v-.7H88v.7Z" class="g3_75" />
<path fill-rule="evenodd" d="M284.8,1111.7h.7v-.7h-.7v.7Z" class="g3_75" />
<path fill-rule="evenodd" d="M285.5,1111.7H393.7v-.7H285.5v.7Z" class="g3_75" />
<path fill-rule="evenodd" d="M393.7,1111.7h.7v-.7h-.7v.7Z" class="g3_75" />
<path fill-rule="evenodd" d="M394.4,1111.7H846.2v-.7H394.4v.7Z" class="g3_75" />
<path fill-rule="evenodd" d="M86.9,1146.2H284.8v-.8H86.9v.8Z" class="g3_75" />
<path fill-rule="evenodd" d="M283.6,1146.2h.8v-.8h-.8v.8Z" class="g3_75" />
<path fill-rule="evenodd" d="M284.4,1146.2H393.7v-.8H284.4v.8Z" class="g3_75" />
<path fill-rule="evenodd" d="M392.6,1146.2h.7v-.8h-.7v.8Z" class="g3_75" />
<path fill-rule="evenodd" d="M393.3,1146.2H846.2v-.8H393.3v.8Z" class="g3_75" />
</svg>