<?xml version="1.0" encoding="UTF-8" standalone="no"?>
<!DOCTYPE svg PUBLIC "-//W3C//DTD SVG 1.1//EN"
"http://www.w3.org/Graphics/SVG/1.1/DTD/svg11.dtd">
<svg viewBox="0 0 909 1286" version="1.1" xmlns="http://www.w3.org/2000/svg" xmlns:xlink="http://www.w3.org/1999/xlink">
<defs>
<clipPath id="c0_74"><path d="M96.4,1201.4v-15.5h33v15.5Z" /></clipPath>
<style type="text/css"><![CDATA[
.g0_74{
fill: none;
stroke: #000000;
stroke-width: 4.201389;
stroke-linecap: butt;
stroke-linejoin: round;
}
.g1_74{
fill: #5EB28E;
fill-opacity: 0.6;
}
.g2_74{
fill: #FFFFFF;
}
.g3_74{
}
]]></style>
</defs>
<path d="M841.2,1171.7H796.5" class="g0_74" />
<path fill-rule="evenodd" d="M111.9,1174c-11.5,0,-20.8,9.3,-20.8,20.8c0,11.5,9.3,20.8,20.8,20.8c11.5,0,20.8,-9.3,20.8,-20.8c0,-11.5,-9.3,-20.8,-20.8,-20.8Z" class="g1_74" />
<path d="M116.9,1199.3c0,.1,.2,.3,.4,.3q1.9,0,1.9,0c.1,0,.3,-.2,.3,-.3q0,-.7,0,-.7q0,-.1,0,-.1q0,-7.1,0,-7.1q0,-.1,0,-.1q0,-.7,0,-.7c0,-.2,-.2,-.4,-.3,-.4q-1.9,0,-1.9,0c-.2,0,-.4,.2,-.4,.4q0,.5,0,.5q0,7.6,0,7.6v.6Z" class="g2_74" />
<g clip-path="url(#c0_74)">
<path d="M115.7,1195.4q0,-4.8,0,-4.8c0,-.2,-.1,-.4,-.3,-.4q-2,0,-2,0c-.1,0,-.2,.2,-.2,.4q0,4.4,0,4.4c0,1.7,-1,2.5,-2,2.4c-1,.1,-2,-.7,-1.9,-2.4q0,-4.4,0,-4.4c0,-.2,-.1,-.4,-.3,-.4q-1.9,0,-1.9,0c-.2,0,-.3,.2,-.3,.4q0,3.6,0,3.6c-.4,-2.4,-2.6,-4.2,-5.2,-4.2c-2.9,0,-5.2,2.2,-5.2,5c0,2.7,2.3,4.9,5.2,4.9c.2,0,.8,0,.9,0q2.1,1.4,2.1,1.4c.2,.1,.4,.1,.4,-.2q0,-2.4,0,-2.4c.9,-.7,1.6,-1.8,1.8,-3.1c.1,2.9,2.3,4.3,4.4,4.2c2.2,.1,4.5,-1.4,4.5,-4.4Zm-14.1,2.2c-1.5,0,-2.8,-1.2,-2.8,-2.6c0,-1.5,1.3,-2.7,2.8,-2.7c1.5,0,2.8,1.2,2.8,2.7c0,1.4,-1.3,2.6,-2.8,2.6Z" class="g2_74" />
</g>
<path d="M118.2,1186.7c-.8,0,-1.4,.6,-1.4,1.4c0,.7,.6,1.3,1.4,1.3c.8,0,1.4,-.6,1.4,-1.3c0,-.8,-.6,-1.4,-1.4,-1.4Z" class="g2_74" />
<path d="M129.3,1199q-3.4,-4.4,-3.4,-4.4q3,-3.8,3,-3.8c.1,-.1,.1,-.5,-.1,-.6c-.5,0,-1.3,0,-2.2,0c-.1,0,-.2,.1,-.4,.3q-2.9,3.7,-2.9,3.7c0,-2.7,0,-5.4,0,-8c0,-.2,-.2,-.2,-.3,-.1c-.7,.4,-1.3,.9,-2,1.3c-.2,.1,-.2,.3,-.2,.5q0,.6,0,.6q0,.7,0,.7q0,.1,0,.1q0,9.2,0,9.2q0,.1,0,.1q0,.7,0,.7c0,.1,.1,.3,.2,.3q2,0,2,0c.1,0,.3,-.2,.3,-.3q0,-.6,0,-.6q0,-3.5,0,-3.5q3.2,4.2,3.2,4.2c.1,.2,.2,.2,.4,.2c.8,0,1.8,0,2.2,0c.3,-.1,.3,-.5,.2,-.6Z" class="g2_74" />
<path fill-rule="evenodd" d="M88,107.6H361.4V103H88v4.6Z" class="g3_74" />
<path fill-rule="evenodd" d="M361.4,107.6H366V103h-4.6v4.6Z" class="g3_74" />
<path fill-rule="evenodd" d="M366,107.6h66V103H366v4.6Z" class="g3_74" />
<path fill-rule="evenodd" d="M432,107.6h4.6V103H432v4.6Z" class="g3_74" />
<path fill-rule="evenodd" d="M436.6,107.6H846.2V103H436.6v4.6Z" class="g3_74" />
<path fill-rule="evenodd" d="M88,138.4H361.4v-.7H88v.7Z" class="g3_74" />
<path fill-rule="evenodd" d="M361.4,138.4h.8v-.7h-.8v.7Z" class="g3_74" />
<path fill-rule="evenodd" d="M362.2,138.4H432v-.7H362.2v.7Z" class="g3_74" />
<path fill-rule="evenodd" d="M432,138.4h.7v-.7H432v.7Z" class="g3_74" />
<path fill-rule="evenodd" d="M432.7,138.4H846.2v-.7H432.7v.7Z" class="g3_74" />
<path fill-rule="evenodd" d="M88,172.9H361.4v-.7H88v.7Z" class="g3_74" />
<path fill-rule="evenodd" d="M361.4,172.9h.8v-.7h-.8v.7Z" class="g3_74" />
<path fill-rule="evenodd" d="M362.2,172.9H432v-.7H362.2v.7Z" class="g3_74" />
<path fill-rule="evenodd" d="M432,172.9h.7v-.7H432v.7Z" class="g3_74" />
<path fill-rule="evenodd" d="M432.7,172.9H846.2v-.7H432.7v.7Z" class="g3_74" />
<path fill-rule="evenodd" d="M88,207.4H361.4v-.8H88v.8Z" class="g3_74" />
<path fill-rule="evenodd" d="M361.4,207.4h.8v-.8h-.8v.8Z" class="g3_74" />
<path fill-rule="evenodd" d="M362.2,207.4H432v-.8H362.2v.8Z" class="g3_74" />
<path fill-rule="evenodd" d="M432,207.4h.7v-.8H432v.8Z" class="g3_74" />
<path fill-rule="evenodd" d="M432.7,207.4H846.2v-.8H432.7v.8Z" class="g3_74" />
<path fill-rule="evenodd" d="M88,241.8H361.4v-.7H88v.7Z" class="g3_74" />
<path fill-rule="evenodd" d="M361.4,241.8h.8v-.7h-.8v.7Z" class="g3_74" />
<path fill-rule="evenodd" d="M362.2,241.8H432v-.7H362.2v.7Z" class="g3_74" />
<path fill-rule="evenodd" d="M432,241.8h.7v-.7H432v.7Z" class="g3_74" />
<path fill-rule="evenodd" d="M432.7,241.8H846.2v-.7H432.7v.7Z" class="g3_74" />
<path fill-rule="evenodd" d="M88,276.5H361.4v-.7H88v.7Z" class="g3_74" />
<path fill-rule="evenodd" d="M361.4,276.5h.8v-.7h-.8v.7Z" class="g3_74" />
<path fill-rule="evenodd" d="M362.2,276.5H432v-.7H362.2v.7Z" class="g3_74" />
<path fill-rule="evenodd" d="M432,276.5h.7v-.7H432v.7Z" class="g3_74" />
<path fill-rule="evenodd" d="M432.7,276.5H846.2v-.7H432.7v.7Z" class="g3_74" />
<path fill-rule="evenodd" d="M88,311H361.4v-.8H88v.8Z" class="g3_74" />
<path fill-rule="evenodd" d="M361.4,311h.8v-.8h-.8v.8Z" class="g3_74" />
<path fill-rule="evenodd" d="M362.2,311H432v-.8H362.2v.8Z" class="g3_74" />
<path fill-rule="evenodd" d="M432,311h.7v-.8H432v.8Z" class="g3_74" />
<path fill-rule="evenodd" d="M432.7,311H846.2v-.8H432.7v.8Z" class="g3_74" />
<path fill-rule="evenodd" d="M88,345.4H361.4v-.7H88v.7Z" class="g3_74" />
<path fill-rule="evenodd" d="M361.4,345.4h.8v-.7h-.8v.7Z" class="g3_74" />
<path fill-rule="evenodd" d="M362.2,345.4H432v-.7H362.2v.7Z" class="g3_74" />
<path fill-rule="evenodd" d="M432,345.4h.7v-.7H432v.7Z" class="g3_74" />
<path fill-rule="evenodd" d="M432.7,345.4H846.2v-.7H432.7v.7Z" class="g3_74" />
<path fill-rule="evenodd" d="M88,379.9H361.4v-.7H88v.7Z" class="g3_74" />
<path fill-rule="evenodd" d="M361.4,379.9h.8v-.7h-.8v.7Z" class="g3_74" />
<path fill-rule="evenodd" d="M362.2,379.9H432v-.7H362.2v.7Z" class="g3_74" />
<path fill-rule="evenodd" d="M432,379.9h.7v-.7H432v.7Z" class="g3_74" />
<path fill-rule="evenodd" d="M432.7,379.9H846.2v-.7H432.7v.7Z" class="g3_74" />
<path fill-rule="evenodd" d="M88,414.4H361.4v-.8H88v.8Z" class="g3_74" />
<path fill-rule="evenodd" d="M361.4,414.4h.8v-.8h-.8v.8Z" class="g3_74" />
<path fill-rule="evenodd" d="M362.2,414.4H432v-.8H362.2v.8Z" class="g3_74" />
<path fill-rule="evenodd" d="M432,414.4h.7v-.8H432v.8Z" class="g3_74" />
<path fill-rule="evenodd" d="M432.7,414.4H846.2v-.8H432.7v.8Z" class="g3_74" />
<path fill-rule="evenodd" d="M88,449.1H361.4v-.8H88v.8Z" class="g3_74" />
<path fill-rule="evenodd" d="M361.4,449.1h.8v-.8h-.8v.8Z" class="g3_74" />
<path fill-rule="evenodd" d="M362.2,449.1H432v-.8H362.2v.8Z" class="g3_74" />
<path fill-rule="evenodd" d="M432,449.1h.7v-.8H432v.8Z" class="g3_74" />
<path fill-rule="evenodd" d="M432.7,449.1H846.2v-.8H432.7v.8Z" class="g3_74" />
<path fill-rule="evenodd" d="M88,483.5H361.4v-.7H88v.7Z" class="g3_74" />
<path fill-rule="evenodd" d="M361.4,483.5h.8v-.7h-.8v.7Z" class="g3_74" />
<path fill-rule="evenodd" d="M362.2,483.5H432v-.7H362.2v.7Z" class="g3_74" />
<path fill-rule="evenodd" d="M432,483.5h.7v-.7H432v.7Z" class="g3_74" />
<path fill-rule="evenodd" d="M432.7,483.5H846.2v-.7H432.7v.7Z" class="g3_74" />
<path fill-rule="evenodd" d="M88,518H361.4v-.7H88v.7Z" class="g3_74" />
<path fill-rule="evenodd" d="M361.4,518h.8v-.7h-.8v.7Z" class="g3_74" />
<path fill-rule="evenodd" d="M362.2,518H432v-.7H362.2v.7Z" class="g3_74" />
<path fill-rule="evenodd" d="M432,518h.7v-.7H432v.7Z" class="g3_74" />
<path fill-rule="evenodd" d="M432.7,518H846.2v-.7H432.7v.7Z" class="g3_74" />
<path fill-rule="evenodd" d="M88,552.5H361.4v-.8H88v.8Z" class="g3_74" />
<path fill-rule="evenodd" d="M361.4,552.5h.8v-.8h-.8v.8Z" class="g3_74" />
<path fill-rule="evenodd" d="M362.2,552.5H432v-.8H362.2v.8Z" class="g3_74" />
<path fill-rule="evenodd" d="M432,552.5h.7v-.8H432v.8Z" class="g3_74" />
<path fill-rule="evenodd" d="M432.7,552.5H846.2v-.8H432.7v.8Z" class="g3_74" />
<path fill-rule="evenodd" d="M88,607.8H361.4v-.7H88v.7Z" class="g3_74" />
<path fill-rule="evenodd" d="M361.4,607.8h.8v-.7h-.8v.7Z" class="g3_74" />
<path fill-rule="evenodd" d="M362.2,607.8H432v-.7H362.2v.7Z" class="g3_74" />
<path fill-rule="evenodd" d="M432,607.8h.7v-.7H432v.7Z" class="g3_74" />
<path fill-rule="evenodd" d="M432.7,607.8H846.2v-.7H432.7v.7Z" class="g3_74" />
<path fill-rule="evenodd" d="M88,642.3H361.4v-.7H88v.7Z" class="g3_74" />
<path fill-rule="evenodd" d="M361.4,642.3h.8v-.7h-.8v.7Z" class="g3_74" />
<path fill-rule="evenodd" d="M362.2,642.3H432v-.7H362.2v.7Z" class="g3_74" />
<path fill-rule="evenodd" d="M432,642.3h.7v-.7H432v.7Z" class="g3_74" />
<path fill-rule="evenodd" d="M432.7,642.3H846.2v-.7H432.7v.7Z" class="g3_74" />
<path fill-rule="evenodd" d="M88,676.8H361.4V676H88v.8Z" class="g3_74" />
<path fill-rule="evenodd" d="M361.4,676.8h.8V676h-.8v.8Z" class="g3_74" />
<path fill-rule="evenodd" d="M362.2,676.8H432V676H362.2v.8Z" class="g3_74" />
<path fill-rule="evenodd" d="M432,676.8h.7V676H432v.8Z" class="g3_74" />
<path fill-rule="evenodd" d="M432.7,676.8H846.2V676H432.7v.8Z" class="g3_74" />
<path fill-rule="evenodd" d="M88,711.3H361.4v-.8H88v.8Z" class="g3_74" />
<path fill-rule="evenodd" d="M361.4,711.3h.8v-.8h-.8v.8Z" class="g3_74" />
<path fill-rule="evenodd" d="M362.2,711.3H432v-.8H362.2v.8Z" class="g3_74" />
<path fill-rule="evenodd" d="M432,711.3h.7v-.8H432v.8Z" class="g3_74" />
<path fill-rule="evenodd" d="M432.7,711.3H846.2v-.8H432.7v.8Z" class="g3_74" />
<path fill-rule="evenodd" d="M88,745.7H361.4V745H88v.7Z" class="g3_74" />
<path fill-rule="evenodd" d="M361.4,745.7h.8V745h-.8v.7Z" class="g3_74" />
<path fill-rule="evenodd" d="M362.2,745.7H432V745H362.2v.7Z" class="g3_74" />
<path fill-rule="evenodd" d="M432,745.7h.7V745H432v.7Z" class="g3_74" />
<path fill-rule="evenodd" d="M432.7,745.7H846.2V745H432.7v.7Z" class="g3_74" />
<path fill-rule="evenodd" d="M88,780.4H361.4v-.8H88v.8Z" class="g3_74" />
<path fill-rule="evenodd" d="M361.4,780.4h.8v-.8h-.8v.8Z" class="g3_74" />
<path fill-rule="evenodd" d="M362.2,780.4H432v-.8H362.2v.8Z" class="g3_74" />
<path fill-rule="evenodd" d="M432,780.4h.7v-.8H432v.8Z" class="g3_74" />
<path fill-rule="evenodd" d="M432.7,780.4H846.2v-.8H432.7v.8Z" class="g3_74" />
<path fill-rule="evenodd" d="M88,814.8H361.4v-.7H88v.7Z" class="g3_74" />
<path fill-rule="evenodd" d="M361.4,814.8h.8v-.7h-.8v.7Z" class="g3_74" />
<path fill-rule="evenodd" d="M362.2,814.8H432v-.7H362.2v.7Z" class="g3_74" />
<path fill-rule="evenodd" d="M432,814.8h.7v-.7H432v.7Z" class="g3_74" />
<path fill-rule="evenodd" d="M432.7,814.8H846.2v-.7H432.7v.7Z" class="g3_74" />
<path fill-rule="evenodd" d="M88,849.3H361.4v-.7H88v.7Z" class="g3_74" />
<path fill-rule="evenodd" d="M361.4,849.3h.8v-.7h-.8v.7Z" class="g3_74" />
<path fill-rule="evenodd" d="M362.2,849.3H432v-.7H362.2v.7Z" class="g3_74" />
<path fill-rule="evenodd" d="M432,849.3h.7v-.7H432v.7Z" class="g3_74" />
<path fill-rule="evenodd" d="M432.7,849.3H846.2v-.7H432.7v.7Z" class="g3_74" />
<path fill-rule="evenodd" d="M88,883.8H361.4V883H88v.8Z" class="g3_74" />
<path fill-rule="evenodd" d="M361.4,883.8h.8V883h-.8v.8Z" class="g3_74" />
<path fill-rule="evenodd" d="M362.2,883.8H432V883H362.2v.8Z" class="g3_74" />
<path fill-rule="evenodd" d="M432,883.8h.7V883H432v.8Z" class="g3_74" />
<path fill-rule="evenodd" d="M432.7,883.8H846.2V883H432.7v.8Z" class="g3_74" />
<path fill-rule="evenodd" d="M88,918.4H361.4v-.7H88v.7Z" class="g3_74" />
<path fill-rule="evenodd" d="M361.4,918.4h.8v-.7h-.8v.7Z" class="g3_74" />
<path fill-rule="evenodd" d="M362.2,918.4H432v-.7H362.2v.7Z" class="g3_74" />
<path fill-rule="evenodd" d="M432,918.4h.7v-.7H432v.7Z" class="g3_74" />
<path fill-rule="evenodd" d="M432.7,918.4H846.2v-.7H432.7v.7Z" class="g3_74" />
<path fill-rule="evenodd" d="M88,952.9H361.4v-.7H88v.7Z" class="g3_74" />
<path fill-rule="evenodd" d="M361.4,952.9h.8v-.7h-.8v.7Z" class="g3_74" />
<path fill-rule="evenodd" d="M362.2,952.9H432v-.7H362.2v.7Z" class="g3_74" />
<path fill-rule="evenodd" d="M432,952.9h.7v-.7H432v.7Z" class="g3_74" />
<path fill-rule="evenodd" d="M432.7,952.9H846.2v-.7H432.7v.7Z" class="g3_74" />
<path fill-rule="evenodd" d="M88,1008.1H361.4v-.7H88v.7Z" class="g3_74" />
<path fill-rule="evenodd" d="M361.4,1008.1h.8v-.7h-.8v.7Z" class="g3_74" />
<path fill-rule="evenodd" d="M362.2,1008.1H432v-.7H362.2v.7Z" class="g3_74" />
<path fill-rule="evenodd" d="M432,1008.1h.7v-.7H432v.7Z" class="g3_74" />
<path fill-rule="evenodd" d="M432.7,1008.1H846.2v-.7H432.7v.7Z" class="g3_74" />
<path fill-rule="evenodd" d="M88,1042.6H361.4v-.7H88v.7Z" class="g3_74" />
<path fill-rule="evenodd" d="M361.4,1042.6h.8v-.7h-.8v.7Z" class="g3_74" />
<path fill-rule="evenodd" d="M362.2,1042.6H432v-.7H362.2v.7Z" class="g3_74" />
<path fill-rule="evenodd" d="M432,1042.6h.7v-.7H432v.7Z" class="g3_74" />
<path fill-rule="evenodd" d="M432.7,1042.6H846.2v-.7H432.7v.7Z" class="g3_74" />
<path fill-rule="evenodd" d="M86.9,1148.5H361.4v-.7H86.9v.7Z" class="g3_74" />
<path fill-rule="evenodd" d="M360.3,1148.5h.8v-.7h-.8v.7Z" class="g3_74" />
<path fill-rule="evenodd" d="M361.1,1148.5H432v-.7H361.1v.7Z" class="g3_74" />
<path fill-rule="evenodd" d="M430.9,1148.5h.7v-.7h-.7v.7Z" class="g3_74" />
<path fill-rule="evenodd" d="M431.6,1148.5H846.2v-.7H431.6v.7Z" class="g3_74" />
</svg>