<?xml version="1.0" encoding="UTF-8" standalone="no"?>
<!DOCTYPE svg PUBLIC "-//W3C//DTD SVG 1.1//EN"
"http://www.w3.org/Graphics/SVG/1.1/DTD/svg11.dtd">
<svg viewBox="0 0 909 1286" version="1.1" xmlns="http://www.w3.org/2000/svg" xmlns:xlink="http://www.w3.org/1999/xlink">
<defs>
<clipPath id="c0_79"><path d="M96.4,1201.4v-15.5h33v15.5Z" /></clipPath>
<style type="text/css"><![CDATA[
.g0_79{
fill: none;
stroke: #000000;
stroke-width: 4.201389;
stroke-linecap: butt;
stroke-linejoin: round;
}
.g1_79{
fill: #5EB28E;
fill-opacity: 0.6;
}
.g2_79{
fill: #FFFFFF;
}
.g3_79{
}
]]></style>
</defs>
<path d="M841.2,1171.7H796.5" class="g0_79" />
<path fill-rule="evenodd" d="M111.9,1174c-11.5,0,-20.8,9.3,-20.8,20.8c0,11.5,9.3,20.8,20.8,20.8c11.5,0,20.8,-9.3,20.8,-20.8c0,-11.5,-9.3,-20.8,-20.8,-20.8Z" class="g1_79" />
<path d="M116.9,1199.3c0,.1,.2,.3,.4,.3q1.9,0,1.9,0c.1,0,.3,-.2,.3,-.3q0,-.7,0,-.7q0,-.1,0,-.1q0,-7.1,0,-7.1q0,-.1,0,-.1q0,-.7,0,-.7c0,-.2,-.2,-.4,-.3,-.4q-1.9,0,-1.9,0c-.2,0,-.4,.2,-.4,.4q0,.5,0,.5q0,7.6,0,7.6v.6Z" class="g2_79" />
<g clip-path="url(#c0_79)">
<path d="M115.7,1195.4q0,-4.8,0,-4.8c0,-.2,-.1,-.4,-.3,-.4q-2,0,-2,0c-.1,0,-.2,.2,-.2,.4q0,4.4,0,4.4c0,1.7,-1,2.5,-2,2.4c-1,.1,-2,-.7,-1.9,-2.4q0,-4.4,0,-4.4c0,-.2,-.1,-.4,-.3,-.4q-1.9,0,-1.9,0c-.2,0,-.3,.2,-.3,.4q0,3.6,0,3.6c-.4,-2.4,-2.6,-4.2,-5.2,-4.2c-2.9,0,-5.2,2.2,-5.2,5c0,2.7,2.3,4.9,5.2,4.9c.2,0,.8,0,.9,0q2.1,1.4,2.1,1.4c.2,.1,.4,.1,.4,-.2q0,-2.4,0,-2.4c.9,-.7,1.6,-1.8,1.8,-3.1c.1,2.9,2.3,4.3,4.4,4.2c2.2,.1,4.5,-1.4,4.5,-4.4Zm-14.1,2.2c-1.5,0,-2.8,-1.2,-2.8,-2.6c0,-1.5,1.3,-2.7,2.8,-2.7c1.5,0,2.8,1.2,2.8,2.7c0,1.4,-1.3,2.6,-2.8,2.6Z" class="g2_79" />
</g>
<path d="M118.2,1186.7c-.8,0,-1.4,.6,-1.4,1.4c0,.7,.6,1.3,1.4,1.3c.8,0,1.4,-.6,1.4,-1.3c0,-.8,-.6,-1.4,-1.4,-1.4Z" class="g2_79" />
<path d="M129.3,1199q-3.4,-4.4,-3.4,-4.4q3,-3.8,3,-3.8c.1,-.1,.1,-.5,-.1,-.6c-.5,0,-1.3,0,-2.2,0c-.1,0,-.2,.1,-.4,.3q-2.9,3.7,-2.9,3.7c0,-2.7,0,-5.4,0,-8c0,-.2,-.2,-.2,-.3,-.1c-.7,.4,-1.3,.9,-2,1.3c-.2,.1,-.2,.3,-.2,.5q0,.6,0,.6q0,.7,0,.7q0,.1,0,.1q0,9.2,0,9.2q0,.1,0,.1q0,.7,0,.7c0,.1,.1,.3,.2,.3q2,0,2,0c.1,0,.3,-.2,.3,-.3q0,-.6,0,-.6q0,-3.5,0,-3.5q3.2,4.2,3.2,4.2c.1,.2,.2,.2,.4,.2c.8,0,1.8,0,2.2,0c.3,-.1,.3,-.5,.2,-.6Z" class="g2_79" />
<path fill-rule="evenodd" d="M88,107.6H284.8V103H88v4.6Z" class="g3_79" />
<path fill-rule="evenodd" d="M284.8,107.6h4.6V103h-4.6v4.6Z" class="g3_79" />
<path fill-rule="evenodd" d="M289.4,107.6H393.7V103H289.4v4.6Z" class="g3_79" />
<path fill-rule="evenodd" d="M393.7,107.6h4.6V103h-4.6v4.6Z" class="g3_79" />
<path fill-rule="evenodd" d="M398.3,107.6H846.2V103H398.3v4.6Z" class="g3_79" />
<path fill-rule="evenodd" d="M88,138.4H284.8v-.7H88v.7Z" class="g3_79" />
<path fill-rule="evenodd" d="M284.8,138.4h.7v-.7h-.7v.7Z" class="g3_79" />
<path fill-rule="evenodd" d="M285.5,138.4H393.7v-.7H285.5v.7Z" class="g3_79" />
<path fill-rule="evenodd" d="M393.7,138.4h.7v-.7h-.7v.7Z" class="g3_79" />
<path fill-rule="evenodd" d="M394.4,138.4H846.2v-.7H394.4v.7Z" class="g3_79" />
<path fill-rule="evenodd" d="M88,172.9H284.8v-.7H88v.7Z" class="g3_79" />
<path fill-rule="evenodd" d="M284.8,172.9h.7v-.7h-.7v.7Z" class="g3_79" />
<path fill-rule="evenodd" d="M285.5,172.9H393.7v-.7H285.5v.7Z" class="g3_79" />
<path fill-rule="evenodd" d="M393.7,172.9h.7v-.7h-.7v.7Z" class="g3_79" />
<path fill-rule="evenodd" d="M394.4,172.9H846.2v-.7H394.4v.7Z" class="g3_79" />
<path fill-rule="evenodd" d="M88,207.4H284.8v-.8H88v.8Z" class="g3_79" />
<path fill-rule="evenodd" d="M284.8,207.4h.7v-.8h-.7v.8Z" class="g3_79" />
<path fill-rule="evenodd" d="M285.5,207.4H393.7v-.8H285.5v.8Z" class="g3_79" />
<path fill-rule="evenodd" d="M393.7,207.4h.7v-.8h-.7v.8Z" class="g3_79" />
<path fill-rule="evenodd" d="M394.4,207.4H846.2v-.8H394.4v.8Z" class="g3_79" />
<path fill-rule="evenodd" d="M88,241.8H284.8v-.7H88v.7Z" class="g3_79" />
<path fill-rule="evenodd" d="M284.8,241.8h.7v-.7h-.7v.7Z" class="g3_79" />
<path fill-rule="evenodd" d="M285.5,241.8H393.7v-.7H285.5v.7Z" class="g3_79" />
<path fill-rule="evenodd" d="M393.7,241.8h.7v-.7h-.7v.7Z" class="g3_79" />
<path fill-rule="evenodd" d="M394.4,241.8H846.2v-.7H394.4v.7Z" class="g3_79" />
<path fill-rule="evenodd" d="M88,276.5H284.8v-.7H88v.7Z" class="g3_79" />
<path fill-rule="evenodd" d="M284.8,276.5h.7v-.7h-.7v.7Z" class="g3_79" />
<path fill-rule="evenodd" d="M285.5,276.5H393.7v-.7H285.5v.7Z" class="g3_79" />
<path fill-rule="evenodd" d="M393.7,276.5h.7v-.7h-.7v.7Z" class="g3_79" />
<path fill-rule="evenodd" d="M394.4,276.5H846.2v-.7H394.4v.7Z" class="g3_79" />
<path fill-rule="evenodd" d="M88,311H284.8v-.8H88v.8Z" class="g3_79" />
<path fill-rule="evenodd" d="M284.8,311h.7v-.8h-.7v.8Z" class="g3_79" />
<path fill-rule="evenodd" d="M285.5,311H393.7v-.8H285.5v.8Z" class="g3_79" />
<path fill-rule="evenodd" d="M393.7,311h.7v-.8h-.7v.8Z" class="g3_79" />
<path fill-rule="evenodd" d="M394.4,311H846.2v-.8H394.4v.8Z" class="g3_79" />
<path fill-rule="evenodd" d="M88,345.4H284.8v-.7H88v.7Z" class="g3_79" />
<path fill-rule="evenodd" d="M284.8,345.4h.7v-.7h-.7v.7Z" class="g3_79" />
<path fill-rule="evenodd" d="M285.5,345.4H393.7v-.7H285.5v.7Z" class="g3_79" />
<path fill-rule="evenodd" d="M393.7,345.4h.7v-.7h-.7v.7Z" class="g3_79" />
<path fill-rule="evenodd" d="M394.4,345.4H846.2v-.7H394.4v.7Z" class="g3_79" />
<path fill-rule="evenodd" d="M88,379.9H284.8v-.7H88v.7Z" class="g3_79" />
<path fill-rule="evenodd" d="M284.8,379.9h.7v-.7h-.7v.7Z" class="g3_79" />
<path fill-rule="evenodd" d="M285.5,379.9H393.7v-.7H285.5v.7Z" class="g3_79" />
<path fill-rule="evenodd" d="M393.7,379.9h.7v-.7h-.7v.7Z" class="g3_79" />
<path fill-rule="evenodd" d="M394.4,379.9H846.2v-.7H394.4v.7Z" class="g3_79" />
<path fill-rule="evenodd" d="M88,414.4H284.8v-.8H88v.8Z" class="g3_79" />
<path fill-rule="evenodd" d="M284.8,414.4h.7v-.8h-.7v.8Z" class="g3_79" />
<path fill-rule="evenodd" d="M285.5,414.4H393.7v-.8H285.5v.8Z" class="g3_79" />
<path fill-rule="evenodd" d="M393.7,414.4h.7v-.8h-.7v.8Z" class="g3_79" />
<path fill-rule="evenodd" d="M394.4,414.4H846.2v-.8H394.4v.8Z" class="g3_79" />
<path fill-rule="evenodd" d="M88,449.1H284.8v-.8H88v.8Z" class="g3_79" />
<path fill-rule="evenodd" d="M284.8,449.1h.7v-.8h-.7v.8Z" class="g3_79" />
<path fill-rule="evenodd" d="M285.5,449.1H393.7v-.8H285.5v.8Z" class="g3_79" />
<path fill-rule="evenodd" d="M393.7,449.1h.7v-.8h-.7v.8Z" class="g3_79" />
<path fill-rule="evenodd" d="M394.4,449.1H846.2v-.8H394.4v.8Z" class="g3_79" />
<path fill-rule="evenodd" d="M88,483.5H284.8v-.7H88v.7Z" class="g3_79" />
<path fill-rule="evenodd" d="M284.8,483.5h.7v-.7h-.7v.7Z" class="g3_79" />
<path fill-rule="evenodd" d="M285.5,483.5H393.7v-.7H285.5v.7Z" class="g3_79" />
<path fill-rule="evenodd" d="M393.7,483.5h.7v-.7h-.7v.7Z" class="g3_79" />
<path fill-rule="evenodd" d="M394.4,483.5H846.2v-.7H394.4v.7Z" class="g3_79" />
<path fill-rule="evenodd" d="M88,518H284.8v-.7H88v.7Z" class="g3_79" />
<path fill-rule="evenodd" d="M284.8,518h.7v-.7h-.7v.7Z" class="g3_79" />
<path fill-rule="evenodd" d="M285.5,518H393.7v-.7H285.5v.7Z" class="g3_79" />
<path fill-rule="evenodd" d="M393.7,518h.7v-.7h-.7v.7Z" class="g3_79" />
<path fill-rule="evenodd" d="M394.4,518H846.2v-.7H394.4v.7Z" class="g3_79" />
<path fill-rule="evenodd" d="M86.9,552.5H284.8v-.8H86.9v.8Z" class="g3_79" />
<path fill-rule="evenodd" d="M283.6,552.5h.8v-.8h-.8v.8Z" class="g3_79" />
<path fill-rule="evenodd" d="M284.4,552.5H393.7v-.8H284.4v.8Z" class="g3_79" />
<path fill-rule="evenodd" d="M392.6,552.5h.7v-.8h-.7v.8Z" class="g3_79" />
<path fill-rule="evenodd" d="M393.3,552.5H846.2v-.8H393.3v.8Z" class="g3_79" />
<path fill-rule="evenodd" d="M88,720.2H284.8v-4.5H88v4.5Z" class="g3_79" />
<path fill-rule="evenodd" d="M284.8,720.2h4.6v-4.5h-4.6v4.5Z" class="g3_79" />
<path fill-rule="evenodd" d="M289.4,720.2H393.7v-4.5H289.4v4.5Z" class="g3_79" />
<path fill-rule="evenodd" d="M393.7,720.2h4.6v-4.5h-4.6v4.5Z" class="g3_79" />
<path fill-rule="evenodd" d="M398.3,720.2H846.2v-4.5H398.3v4.5Z" class="g3_79" />
<path fill-rule="evenodd" d="M88,754.7H284.8V754H88v.7Z" class="g3_79" />
<path fill-rule="evenodd" d="M284.8,754.7h.7V754h-.7v.7Z" class="g3_79" />
<path fill-rule="evenodd" d="M285.5,754.7H393.7V754H285.5v.7Z" class="g3_79" />
<path fill-rule="evenodd" d="M393.7,754.7h.7V754h-.7v.7Z" class="g3_79" />
<path fill-rule="evenodd" d="M394.4,754.7H846.2V754H394.4v.7Z" class="g3_79" />
<path fill-rule="evenodd" d="M88,789.4H284.8v-.8H88v.8Z" class="g3_79" />
<path fill-rule="evenodd" d="M284.8,789.4h.7v-.8h-.7v.8Z" class="g3_79" />
<path fill-rule="evenodd" d="M285.5,789.4H393.7v-.8H285.5v.8Z" class="g3_79" />
<path fill-rule="evenodd" d="M393.7,789.4h.7v-.8h-.7v.8Z" class="g3_79" />
<path fill-rule="evenodd" d="M394.4,789.4H846.2v-.8H394.4v.8Z" class="g3_79" />
<path fill-rule="evenodd" d="M88,823.8H284.8v-.7H88v.7Z" class="g3_79" />
<path fill-rule="evenodd" d="M284.8,823.8h.7v-.7h-.7v.7Z" class="g3_79" />
<path fill-rule="evenodd" d="M285.5,823.8H393.7v-.7H285.5v.7Z" class="g3_79" />
<path fill-rule="evenodd" d="M393.7,823.8h.7v-.7h-.7v.7Z" class="g3_79" />
<path fill-rule="evenodd" d="M394.4,823.8H846.2v-.7H394.4v.7Z" class="g3_79" />
<path fill-rule="evenodd" d="M88,858.3H284.8v-.7H88v.7Z" class="g3_79" />
<path fill-rule="evenodd" d="M284.8,858.3h.7v-.7h-.7v.7Z" class="g3_79" />
<path fill-rule="evenodd" d="M285.5,858.3H393.7v-.7H285.5v.7Z" class="g3_79" />
<path fill-rule="evenodd" d="M393.7,858.3h.7v-.7h-.7v.7Z" class="g3_79" />
<path fill-rule="evenodd" d="M394.4,858.3H846.2v-.7H394.4v.7Z" class="g3_79" />
<path fill-rule="evenodd" d="M88,892.8H284.8V892H88v.8Z" class="g3_79" />
<path fill-rule="evenodd" d="M284.8,892.8h.7V892h-.7v.8Z" class="g3_79" />
<path fill-rule="evenodd" d="M285.5,892.8H393.7V892H285.5v.8Z" class="g3_79" />
<path fill-rule="evenodd" d="M393.7,892.8h.7V892h-.7v.8Z" class="g3_79" />
<path fill-rule="evenodd" d="M394.4,892.8H846.2V892H394.4v.8Z" class="g3_79" />
<path fill-rule="evenodd" d="M88,927.2H284.8v-.7H88v.7Z" class="g3_79" />
<path fill-rule="evenodd" d="M284.8,927.2h.7v-.7h-.7v.7Z" class="g3_79" />
<path fill-rule="evenodd" d="M285.5,927.2H393.7v-.7H285.5v.7Z" class="g3_79" />
<path fill-rule="evenodd" d="M393.7,927.2h.7v-.7h-.7v.7Z" class="g3_79" />
<path fill-rule="evenodd" d="M394.4,927.2H846.2v-.7H394.4v.7Z" class="g3_79" />
<path fill-rule="evenodd" d="M88,961.9H284.8v-.8H88v.8Z" class="g3_79" />
<path fill-rule="evenodd" d="M284.8,961.9h.7v-.8h-.7v.8Z" class="g3_79" />
<path fill-rule="evenodd" d="M285.5,961.9H393.7v-.8H285.5v.8Z" class="g3_79" />
<path fill-rule="evenodd" d="M393.7,961.9h.7v-.8h-.7v.8Z" class="g3_79" />
<path fill-rule="evenodd" d="M394.4,961.9H846.2v-.8H394.4v.8Z" class="g3_79" />
<path fill-rule="evenodd" d="M88,996.4H284.8v-.7H88v.7Z" class="g3_79" />
<path fill-rule="evenodd" d="M284.8,996.4h.7v-.7h-.7v.7Z" class="g3_79" />
<path fill-rule="evenodd" d="M285.5,996.4H393.7v-.7H285.5v.7Z" class="g3_79" />
<path fill-rule="evenodd" d="M393.7,996.4h.7v-.7h-.7v.7Z" class="g3_79" />
<path fill-rule="evenodd" d="M394.4,996.4H846.2v-.7H394.4v.7Z" class="g3_79" />
<path fill-rule="evenodd" d="M88,1030.9H284.8v-.8H88v.8Z" class="g3_79" />
<path fill-rule="evenodd" d="M284.8,1030.9h.7v-.8h-.7v.8Z" class="g3_79" />
<path fill-rule="evenodd" d="M285.5,1030.9H393.7v-.8H285.5v.8Z" class="g3_79" />
<path fill-rule="evenodd" d="M393.7,1030.9h.7v-.8h-.7v.8Z" class="g3_79" />
<path fill-rule="evenodd" d="M394.4,1030.9H846.2v-.8H394.4v.8Z" class="g3_79" />
<path fill-rule="evenodd" d="M88,1065.3H284.8v-.7H88v.7Z" class="g3_79" />
<path fill-rule="evenodd" d="M284.8,1065.3h.7v-.7h-.7v.7Z" class="g3_79" />
<path fill-rule="evenodd" d="M285.5,1065.3H393.7v-.7H285.5v.7Z" class="g3_79" />
<path fill-rule="evenodd" d="M393.7,1065.3h.7v-.7h-.7v.7Z" class="g3_79" />
<path fill-rule="evenodd" d="M394.4,1065.3H846.2v-.7H394.4v.7Z" class="g3_79" />
<path fill-rule="evenodd" d="M88,1099.8H284.8v-.7H88v.7Z" class="g3_79" />
<path fill-rule="evenodd" d="M284.8,1099.8h.7v-.7h-.7v.7Z" class="g3_79" />
<path fill-rule="evenodd" d="M285.5,1099.8H393.7v-.7H285.5v.7Z" class="g3_79" />
<path fill-rule="evenodd" d="M393.7,1099.8h.7v-.7h-.7v.7Z" class="g3_79" />
<path fill-rule="evenodd" d="M394.4,1099.8H846.2v-.7H394.4v.7Z" class="g3_79" />
<path fill-rule="evenodd" d="M86.9,1134.4H284.8v-.7H86.9v.7Z" class="g3_79" />
<path fill-rule="evenodd" d="M283.6,1134.4h.8v-.7h-.8v.7Z" class="g3_79" />
<path fill-rule="evenodd" d="M284.4,1134.4H393.7v-.7H284.4v.7Z" class="g3_79" />
<path fill-rule="evenodd" d="M392.6,1134.4h.7v-.7h-.7v.7Z" class="g3_79" />
<path fill-rule="evenodd" d="M393.3,1134.4H846.2v-.7H393.3v.7Z" class="g3_79" />
</svg>