<?xml version="1.0" encoding="UTF-8" standalone="no"?>
<!DOCTYPE svg PUBLIC "-//W3C//DTD SVG 1.1//EN"
"http://www.w3.org/Graphics/SVG/1.1/DTD/svg11.dtd">
<svg viewBox="0 0 909 1286" version="1.1" xmlns="http://www.w3.org/2000/svg" xmlns:xlink="http://www.w3.org/1999/xlink">
<defs>
<clipPath id="c0_71"><path d="M96.4,1201.4v-15.5h33v15.5Z" /></clipPath>
<style type="text/css"><![CDATA[
.g0_71{
fill: none;
stroke: #000000;
stroke-width: 4.201389;
stroke-linecap: butt;
stroke-linejoin: round;
}
.g1_71{
fill: #5EB28E;
fill-opacity: 0.6;
}
.g2_71{
fill: #FFFFFF;
}
.g3_71{
}
]]></style>
</defs>
<path d="M841.2,1171.7H796.5" class="g0_71" />
<path fill-rule="evenodd" d="M111.9,1174c-11.5,0,-20.8,9.3,-20.8,20.8c0,11.5,9.3,20.8,20.8,20.8c11.5,0,20.8,-9.3,20.8,-20.8c0,-11.5,-9.3,-20.8,-20.8,-20.8Z" class="g1_71" />
<path d="M116.9,1199.3c0,.1,.2,.3,.4,.3q1.9,0,1.9,0c.1,0,.3,-.2,.3,-.3q0,-.7,0,-.7q0,-.1,0,-.1q0,-7.1,0,-7.1q0,-.1,0,-.1q0,-.7,0,-.7c0,-.2,-.2,-.4,-.3,-.4q-1.9,0,-1.9,0c-.2,0,-.4,.2,-.4,.4q0,.5,0,.5q0,7.6,0,7.6v.6Z" class="g2_71" />
<g clip-path="url(#c0_71)">
<path d="M115.7,1195.4q0,-4.8,0,-4.8c0,-.2,-.1,-.4,-.3,-.4q-2,0,-2,0c-.1,0,-.2,.2,-.2,.4q0,4.4,0,4.4c0,1.7,-1,2.5,-2,2.4c-1,.1,-2,-.7,-1.9,-2.4q0,-4.4,0,-4.4c0,-.2,-.1,-.4,-.3,-.4q-1.9,0,-1.9,0c-.2,0,-.3,.2,-.3,.4q0,3.6,0,3.6c-.4,-2.4,-2.6,-4.2,-5.2,-4.2c-2.9,0,-5.2,2.2,-5.2,5c0,2.7,2.3,4.9,5.2,4.9c.2,0,.8,0,.9,0q2.1,1.4,2.1,1.4c.2,.1,.4,.1,.4,-.2q0,-2.4,0,-2.4c.9,-.7,1.6,-1.8,1.8,-3.1c.1,2.9,2.3,4.3,4.4,4.2c2.2,.1,4.5,-1.4,4.5,-4.4Zm-14.1,2.2c-1.5,0,-2.8,-1.2,-2.8,-2.6c0,-1.5,1.3,-2.7,2.8,-2.7c1.5,0,2.8,1.2,2.8,2.7c0,1.4,-1.3,2.6,-2.8,2.6Z" class="g2_71" />
</g>
<path d="M118.2,1186.7c-.8,0,-1.4,.6,-1.4,1.4c0,.7,.6,1.3,1.4,1.3c.8,0,1.4,-.6,1.4,-1.3c0,-.8,-.6,-1.4,-1.4,-1.4Z" class="g2_71" />
<path d="M129.3,1199q-3.4,-4.4,-3.4,-4.4q3,-3.8,3,-3.8c.1,-.1,.1,-.5,-.1,-.6c-.5,0,-1.3,0,-2.2,0c-.1,0,-.2,.1,-.4,.3q-2.9,3.7,-2.9,3.7c0,-2.7,0,-5.4,0,-8c0,-.2,-.2,-.2,-.3,-.1c-.7,.4,-1.3,.9,-2,1.3c-.2,.1,-.2,.3,-.2,.5q0,.6,0,.6q0,.7,0,.7q0,.1,0,.1q0,9.2,0,9.2q0,.1,0,.1q0,.7,0,.7c0,.1,.1,.3,.2,.3q2,0,2,0c.1,0,.3,-.2,.3,-.3q0,-.6,0,-.6q0,-3.5,0,-3.5q3.2,4.2,3.2,4.2c.1,.2,.2,.2,.4,.2c.8,0,1.8,0,2.2,0c.3,-.1,.3,-.5,.2,-.6Z" class="g2_71" />
<path fill-rule="evenodd" d="M88,107.6H284.8V103H88v4.6Z" class="g3_71" />
<path fill-rule="evenodd" d="M284.8,107.6h4.6V103h-4.6v4.6Z" class="g3_71" />
<path fill-rule="evenodd" d="M289.4,107.6H393.7V103H289.4v4.6Z" class="g3_71" />
<path fill-rule="evenodd" d="M393.7,107.6h4.6V103h-4.6v4.6Z" class="g3_71" />
<path fill-rule="evenodd" d="M398.3,107.6H846.2V103H398.3v4.6Z" class="g3_71" />
<path fill-rule="evenodd" d="M86.9,289.3H284.8v-.7H86.9v.7Z" class="g3_71" />
<path fill-rule="evenodd" d="M283.6,289.3h.8v-.7h-.8v.7Z" class="g3_71" />
<path fill-rule="evenodd" d="M284.4,289.3H393.7v-.7H284.4v.7Z" class="g3_71" />
<path fill-rule="evenodd" d="M392.6,289.3h.7v-.7h-.7v.7Z" class="g3_71" />
<path fill-rule="evenodd" d="M393.3,289.3H846.2v-.7H393.3v.7Z" class="g3_71" />
<path fill-rule="evenodd" d="M88,457.1H284.8v-4.6H88v4.6Z" class="g3_71" />
<path fill-rule="evenodd" d="M284.8,457.1h4.6v-4.6h-4.6v4.6Z" class="g3_71" />
<path fill-rule="evenodd" d="M289.4,457.1H393.7v-4.6H289.4v4.6Z" class="g3_71" />
<path fill-rule="evenodd" d="M393.7,457.1h4.6v-4.6h-4.6v4.6Z" class="g3_71" />
<path fill-rule="evenodd" d="M398.3,457.1H846.2v-4.6H398.3v4.6Z" class="g3_71" />
<path fill-rule="evenodd" d="M88,491.6H284.8v-.7H88v.7Z" class="g3_71" />
<path fill-rule="evenodd" d="M284.8,491.6h.7v-.7h-.7v.7Z" class="g3_71" />
<path fill-rule="evenodd" d="M285.5,491.6H393.7v-.7H285.5v.7Z" class="g3_71" />
<path fill-rule="evenodd" d="M393.7,491.6h.7v-.7h-.7v.7Z" class="g3_71" />
<path fill-rule="evenodd" d="M394.4,491.6H846.2v-.7H394.4v.7Z" class="g3_71" />
<path fill-rule="evenodd" d="M88,526.2H284.8v-.7H88v.7Z" class="g3_71" />
<path fill-rule="evenodd" d="M284.8,526.2h.7v-.7h-.7v.7Z" class="g3_71" />
<path fill-rule="evenodd" d="M285.5,526.2H393.7v-.7H285.5v.7Z" class="g3_71" />
<path fill-rule="evenodd" d="M393.7,526.2h.7v-.7h-.7v.7Z" class="g3_71" />
<path fill-rule="evenodd" d="M394.4,526.2H846.2v-.7H394.4v.7Z" class="g3_71" />
<path fill-rule="evenodd" d="M88,560.7H284.8V560H88v.7Z" class="g3_71" />
<path fill-rule="evenodd" d="M284.8,560.7h.7V560h-.7v.7Z" class="g3_71" />
<path fill-rule="evenodd" d="M285.5,560.7H393.7V560H285.5v.7Z" class="g3_71" />
<path fill-rule="evenodd" d="M393.7,560.7h.7V560h-.7v.7Z" class="g3_71" />
<path fill-rule="evenodd" d="M394.4,560.7H846.2V560H394.4v.7Z" class="g3_71" />
<path fill-rule="evenodd" d="M88,595.2H284.8v-.8H88v.8Z" class="g3_71" />
<path fill-rule="evenodd" d="M284.8,595.2h.7v-.8h-.7v.8Z" class="g3_71" />
<path fill-rule="evenodd" d="M285.5,595.2H393.7v-.8H285.5v.8Z" class="g3_71" />
<path fill-rule="evenodd" d="M393.7,595.2h.7v-.8h-.7v.8Z" class="g3_71" />
<path fill-rule="evenodd" d="M394.4,595.2H846.2v-.8H394.4v.8Z" class="g3_71" />
<path fill-rule="evenodd" d="M88,629.6H284.8v-.7H88v.7Z" class="g3_71" />
<path fill-rule="evenodd" d="M284.8,629.6h.7v-.7h-.7v.7Z" class="g3_71" />
<path fill-rule="evenodd" d="M285.5,629.6H393.7v-.7H285.5v.7Z" class="g3_71" />
<path fill-rule="evenodd" d="M393.7,629.6h.7v-.7h-.7v.7Z" class="g3_71" />
<path fill-rule="evenodd" d="M394.4,629.6H846.2v-.7H394.4v.7Z" class="g3_71" />
<path fill-rule="evenodd" d="M88,664.3H284.8v-.7H88v.7Z" class="g3_71" />
<path fill-rule="evenodd" d="M284.8,664.3h.7v-.7h-.7v.7Z" class="g3_71" />
<path fill-rule="evenodd" d="M285.5,664.3H393.7v-.7H285.5v.7Z" class="g3_71" />
<path fill-rule="evenodd" d="M393.7,664.3h.7v-.7h-.7v.7Z" class="g3_71" />
<path fill-rule="evenodd" d="M394.4,664.3H846.2v-.7H394.4v.7Z" class="g3_71" />
<path fill-rule="evenodd" d="M88,698.8H284.8V698H88v.8Z" class="g3_71" />
<path fill-rule="evenodd" d="M284.8,698.8h.7V698h-.7v.8Z" class="g3_71" />
<path fill-rule="evenodd" d="M285.5,698.8H393.7V698H285.5v.8Z" class="g3_71" />
<path fill-rule="evenodd" d="M393.7,698.8h.7V698h-.7v.8Z" class="g3_71" />
<path fill-rule="evenodd" d="M394.4,698.8H846.2V698H394.4v.8Z" class="g3_71" />
<path fill-rule="evenodd" d="M88,733.3H284.8v-.8H88v.8Z" class="g3_71" />
<path fill-rule="evenodd" d="M284.8,733.3h.7v-.8h-.7v.8Z" class="g3_71" />
<path fill-rule="evenodd" d="M285.5,733.3H393.7v-.8H285.5v.8Z" class="g3_71" />
<path fill-rule="evenodd" d="M393.7,733.3h.7v-.8h-.7v.8Z" class="g3_71" />
<path fill-rule="evenodd" d="M394.4,733.3H846.2v-.8H394.4v.8Z" class="g3_71" />
<path fill-rule="evenodd" d="M88,788.4H284.8v-.7H88v.7Z" class="g3_71" />
<path fill-rule="evenodd" d="M284.8,788.4h.7v-.7h-.7v.7Z" class="g3_71" />
<path fill-rule="evenodd" d="M285.5,788.4H393.7v-.7H285.5v.7Z" class="g3_71" />
<path fill-rule="evenodd" d="M393.7,788.4h.7v-.7h-.7v.7Z" class="g3_71" />
<path fill-rule="evenodd" d="M394.4,788.4H846.2v-.7H394.4v.7Z" class="g3_71" />
<path fill-rule="evenodd" d="M88,843.8H284.8v-.7H88v.7Z" class="g3_71" />
<path fill-rule="evenodd" d="M284.8,843.8h.7v-.7h-.7v.7Z" class="g3_71" />
<path fill-rule="evenodd" d="M285.5,843.8H393.7v-.7H285.5v.7Z" class="g3_71" />
<path fill-rule="evenodd" d="M393.7,843.8h.7v-.7h-.7v.7Z" class="g3_71" />
<path fill-rule="evenodd" d="M394.4,843.8H846.2v-.7H394.4v.7Z" class="g3_71" />
<path fill-rule="evenodd" d="M88,878.3H284.8v-.8H88v.8Z" class="g3_71" />
<path fill-rule="evenodd" d="M284.8,878.3h.7v-.8h-.7v.8Z" class="g3_71" />
<path fill-rule="evenodd" d="M285.5,878.3H393.7v-.8H285.5v.8Z" class="g3_71" />
<path fill-rule="evenodd" d="M393.7,878.3h.7v-.8h-.7v.8Z" class="g3_71" />
<path fill-rule="evenodd" d="M394.4,878.3H846.2v-.8H394.4v.8Z" class="g3_71" />
<path fill-rule="evenodd" d="M88,912.7H284.8V912H88v.7Z" class="g3_71" />
<path fill-rule="evenodd" d="M284.8,912.7h.7V912h-.7v.7Z" class="g3_71" />
<path fill-rule="evenodd" d="M285.5,912.7H393.7V912H285.5v.7Z" class="g3_71" />
<path fill-rule="evenodd" d="M393.7,912.7h.7V912h-.7v.7Z" class="g3_71" />
<path fill-rule="evenodd" d="M394.4,912.7H846.2V912H394.4v.7Z" class="g3_71" />
<path fill-rule="evenodd" d="M88,947.2H284.8v-.7H88v.7Z" class="g3_71" />
<path fill-rule="evenodd" d="M284.8,947.2h.7v-.7h-.7v.7Z" class="g3_71" />
<path fill-rule="evenodd" d="M285.5,947.2H393.7v-.7H285.5v.7Z" class="g3_71" />
<path fill-rule="evenodd" d="M393.7,947.2h.7v-.7h-.7v.7Z" class="g3_71" />
<path fill-rule="evenodd" d="M394.4,947.2H846.2v-.7H394.4v.7Z" class="g3_71" />
<path fill-rule="evenodd" d="M86.9,1095.4H284.8v-.7H86.9v.7Z" class="g3_71" />
<path fill-rule="evenodd" d="M283.6,1095.4h.8v-.7h-.8v.7Z" class="g3_71" />
<path fill-rule="evenodd" d="M284.4,1095.4H393.7v-.7H284.4v.7Z" class="g3_71" />
<path fill-rule="evenodd" d="M392.6,1095.4h.7v-.7h-.7v.7Z" class="g3_71" />
<path fill-rule="evenodd" d="M393.3,1095.4H846.2v-.7H393.3v.7Z" class="g3_71" />
</svg>