<?xml version="1.0" encoding="UTF-8" standalone="no"?>
<!DOCTYPE svg PUBLIC "-//W3C//DTD SVG 1.1//EN"
"http://www.w3.org/Graphics/SVG/1.1/DTD/svg11.dtd">
<svg viewBox="0 0 909 1286" version="1.1" xmlns="http://www.w3.org/2000/svg" xmlns:xlink="http://www.w3.org/1999/xlink">
<defs>
<clipPath id="c0_77"><path d="M96.4,1201.4v-15.5h33v15.5Z" /></clipPath>
<style type="text/css"><![CDATA[
.g0_77{
fill: none;
stroke: #000000;
stroke-width: 4.201389;
stroke-linecap: butt;
stroke-linejoin: round;
}
.g1_77{
fill: #5EB28E;
fill-opacity: 0.6;
}
.g2_77{
fill: #FFFFFF;
}
.g3_77{
}
]]></style>
</defs>
<path d="M841.2,1171.7H796.5" class="g0_77" />
<path fill-rule="evenodd" d="M111.9,1174c-11.5,0,-20.8,9.3,-20.8,20.8c0,11.5,9.3,20.8,20.8,20.8c11.5,0,20.8,-9.3,20.8,-20.8c0,-11.5,-9.3,-20.8,-20.8,-20.8Z" class="g1_77" />
<path d="M116.9,1199.3c0,.1,.2,.3,.4,.3q1.9,0,1.9,0c.1,0,.3,-.2,.3,-.3q0,-.7,0,-.7q0,-.1,0,-.1q0,-7.1,0,-7.1q0,-.1,0,-.1q0,-.7,0,-.7c0,-.2,-.2,-.4,-.3,-.4q-1.9,0,-1.9,0c-.2,0,-.4,.2,-.4,.4q0,.5,0,.5q0,7.6,0,7.6v.6Z" class="g2_77" />
<g clip-path="url(#c0_77)">
<path d="M115.7,1195.4q0,-4.8,0,-4.8c0,-.2,-.1,-.4,-.3,-.4q-2,0,-2,0c-.1,0,-.2,.2,-.2,.4q0,4.4,0,4.4c0,1.7,-1,2.5,-2,2.4c-1,.1,-2,-.7,-1.9,-2.4q0,-4.4,0,-4.4c0,-.2,-.1,-.4,-.3,-.4q-1.9,0,-1.9,0c-.2,0,-.3,.2,-.3,.4q0,3.6,0,3.6c-.4,-2.4,-2.6,-4.2,-5.2,-4.2c-2.9,0,-5.2,2.2,-5.2,5c0,2.7,2.3,4.9,5.2,4.9c.2,0,.8,0,.9,0q2.1,1.4,2.1,1.4c.2,.1,.4,.1,.4,-.2q0,-2.4,0,-2.4c.9,-.7,1.6,-1.8,1.8,-3.1c.1,2.9,2.3,4.3,4.4,4.2c2.2,.1,4.5,-1.4,4.5,-4.4Zm-14.1,2.2c-1.5,0,-2.8,-1.2,-2.8,-2.6c0,-1.5,1.3,-2.7,2.8,-2.7c1.5,0,2.8,1.2,2.8,2.7c0,1.4,-1.3,2.6,-2.8,2.6Z" class="g2_77" />
</g>
<path d="M118.2,1186.7c-.8,0,-1.4,.6,-1.4,1.4c0,.7,.6,1.3,1.4,1.3c.8,0,1.4,-.6,1.4,-1.3c0,-.8,-.6,-1.4,-1.4,-1.4Z" class="g2_77" />
<path d="M129.3,1199q-3.4,-4.4,-3.4,-4.4q3,-3.8,3,-3.8c.1,-.1,.1,-.5,-.1,-.6c-.5,0,-1.3,0,-2.2,0c-.1,0,-.2,.1,-.4,.3q-2.9,3.7,-2.9,3.7c0,-2.7,0,-5.4,0,-8c0,-.2,-.2,-.2,-.3,-.1c-.7,.4,-1.3,.9,-2,1.3c-.2,.1,-.2,.3,-.2,.5q0,.6,0,.6q0,.7,0,.7q0,.1,0,.1q0,9.2,0,9.2q0,.1,0,.1q0,.7,0,.7c0,.1,.1,.3,.2,.3q2,0,2,0c.1,0,.3,-.2,.3,-.3q0,-.6,0,-.6q0,-3.5,0,-3.5q3.2,4.2,3.2,4.2c.1,.2,.2,.2,.4,.2c.8,0,1.8,0,2.2,0c.3,-.1,.3,-.5,.2,-.6Z" class="g2_77" />
<path fill-rule="evenodd" d="M88,107.6H284.8V103H88v4.6Z" class="g3_77" />
<path fill-rule="evenodd" d="M284.8,107.6h4.6V103h-4.6v4.6Z" class="g3_77" />
<path fill-rule="evenodd" d="M289.4,107.6H393.7V103H289.4v4.6Z" class="g3_77" />
<path fill-rule="evenodd" d="M393.7,107.6h4.6V103h-4.6v4.6Z" class="g3_77" />
<path fill-rule="evenodd" d="M398.3,107.6H846.2V103H398.3v4.6Z" class="g3_77" />
<path fill-rule="evenodd" d="M88,138.4H284.8v-.7H88v.7Z" class="g3_77" />
<path fill-rule="evenodd" d="M284.8,138.4h.7v-.7h-.7v.7Z" class="g3_77" />
<path fill-rule="evenodd" d="M285.5,138.4H393.7v-.7H285.5v.7Z" class="g3_77" />
<path fill-rule="evenodd" d="M393.7,138.4h.7v-.7h-.7v.7Z" class="g3_77" />
<path fill-rule="evenodd" d="M394.4,138.4H846.2v-.7H394.4v.7Z" class="g3_77" />
<path fill-rule="evenodd" d="M88,172.9H284.8v-.7H88v.7Z" class="g3_77" />
<path fill-rule="evenodd" d="M284.8,172.9h.7v-.7h-.7v.7Z" class="g3_77" />
<path fill-rule="evenodd" d="M285.5,172.9H393.7v-.7H285.5v.7Z" class="g3_77" />
<path fill-rule="evenodd" d="M393.7,172.9h.7v-.7h-.7v.7Z" class="g3_77" />
<path fill-rule="evenodd" d="M394.4,172.9H846.2v-.7H394.4v.7Z" class="g3_77" />
<path fill-rule="evenodd" d="M88,207.4H284.8v-.8H88v.8Z" class="g3_77" />
<path fill-rule="evenodd" d="M284.8,207.4h.7v-.8h-.7v.8Z" class="g3_77" />
<path fill-rule="evenodd" d="M285.5,207.4H393.7v-.8H285.5v.8Z" class="g3_77" />
<path fill-rule="evenodd" d="M393.7,207.4h.7v-.8h-.7v.8Z" class="g3_77" />
<path fill-rule="evenodd" d="M394.4,207.4H846.2v-.8H394.4v.8Z" class="g3_77" />
<path fill-rule="evenodd" d="M88,292.6H284.8v-.7H88v.7Z" class="g3_77" />
<path fill-rule="evenodd" d="M284.8,292.6h.7v-.7h-.7v.7Z" class="g3_77" />
<path fill-rule="evenodd" d="M285.5,292.6H393.7v-.7H285.5v.7Z" class="g3_77" />
<path fill-rule="evenodd" d="M393.7,292.6h.7v-.7h-.7v.7Z" class="g3_77" />
<path fill-rule="evenodd" d="M394.4,292.6H846.2v-.7H394.4v.7Z" class="g3_77" />
<path fill-rule="evenodd" d="M88,377.7H284.8V377H88v.7Z" class="g3_77" />
<path fill-rule="evenodd" d="M284.8,377.7h.7V377h-.7v.7Z" class="g3_77" />
<path fill-rule="evenodd" d="M285.5,377.7H393.7V377H285.5v.7Z" class="g3_77" />
<path fill-rule="evenodd" d="M393.7,377.7h.7V377h-.7v.7Z" class="g3_77" />
<path fill-rule="evenodd" d="M394.4,377.7H846.2V377H394.4v.7Z" class="g3_77" />
<path fill-rule="evenodd" d="M88,412.2H284.8v-.8H88v.8Z" class="g3_77" />
<path fill-rule="evenodd" d="M284.8,412.2h.7v-.8h-.7v.8Z" class="g3_77" />
<path fill-rule="evenodd" d="M285.5,412.2H393.7v-.8H285.5v.8Z" class="g3_77" />
<path fill-rule="evenodd" d="M393.7,412.2h.7v-.8h-.7v.8Z" class="g3_77" />
<path fill-rule="evenodd" d="M394.4,412.2H846.2v-.8H394.4v.8Z" class="g3_77" />
<path fill-rule="evenodd" d="M88,446.7H284.8v-.8H88v.8Z" class="g3_77" />
<path fill-rule="evenodd" d="M284.8,446.7h.7v-.8h-.7v.8Z" class="g3_77" />
<path fill-rule="evenodd" d="M285.5,446.7H393.7v-.8H285.5v.8Z" class="g3_77" />
<path fill-rule="evenodd" d="M393.7,446.7h.7v-.8h-.7v.8Z" class="g3_77" />
<path fill-rule="evenodd" d="M394.4,446.7H846.2v-.8H394.4v.8Z" class="g3_77" />
<path fill-rule="evenodd" d="M88,481.3H284.8v-.7H88v.7Z" class="g3_77" />
<path fill-rule="evenodd" d="M284.8,481.3h.7v-.7h-.7v.7Z" class="g3_77" />
<path fill-rule="evenodd" d="M285.5,481.3H393.7v-.7H285.5v.7Z" class="g3_77" />
<path fill-rule="evenodd" d="M393.7,481.3h.7v-.7h-.7v.7Z" class="g3_77" />
<path fill-rule="evenodd" d="M394.4,481.3H846.2v-.7H394.4v.7Z" class="g3_77" />
<path fill-rule="evenodd" d="M88,515.8H284.8v-.7H88v.7Z" class="g3_77" />
<path fill-rule="evenodd" d="M284.8,515.8h.7v-.7h-.7v.7Z" class="g3_77" />
<path fill-rule="evenodd" d="M285.5,515.8H393.7v-.7H285.5v.7Z" class="g3_77" />
<path fill-rule="evenodd" d="M393.7,515.8h.7v-.7h-.7v.7Z" class="g3_77" />
<path fill-rule="evenodd" d="M394.4,515.8H846.2v-.7H394.4v.7Z" class="g3_77" />
<path fill-rule="evenodd" d="M88,550.3H284.8v-.8H88v.8Z" class="g3_77" />
<path fill-rule="evenodd" d="M284.8,550.3h.7v-.8h-.7v.8Z" class="g3_77" />
<path fill-rule="evenodd" d="M285.5,550.3H393.7v-.8H285.5v.8Z" class="g3_77" />
<path fill-rule="evenodd" d="M393.7,550.3h.7v-.8h-.7v.8Z" class="g3_77" />
<path fill-rule="evenodd" d="M394.4,550.3H846.2v-.8H394.4v.8Z" class="g3_77" />
<path fill-rule="evenodd" d="M88,584.7H284.8V584H88v.7Z" class="g3_77" />
<path fill-rule="evenodd" d="M284.8,584.7h.7V584h-.7v.7Z" class="g3_77" />
<path fill-rule="evenodd" d="M285.5,584.7H393.7V584H285.5v.7Z" class="g3_77" />
<path fill-rule="evenodd" d="M393.7,584.7h.7V584h-.7v.7Z" class="g3_77" />
<path fill-rule="evenodd" d="M394.4,584.7H846.2V584H394.4v.7Z" class="g3_77" />
<path fill-rule="evenodd" d="M88,619.2H284.8v-.7H88v.7Z" class="g3_77" />
<path fill-rule="evenodd" d="M284.8,619.2h.7v-.7h-.7v.7Z" class="g3_77" />
<path fill-rule="evenodd" d="M285.5,619.2H393.7v-.7H285.5v.7Z" class="g3_77" />
<path fill-rule="evenodd" d="M393.7,619.2h.7v-.7h-.7v.7Z" class="g3_77" />
<path fill-rule="evenodd" d="M394.4,619.2H846.2v-.7H394.4v.7Z" class="g3_77" />
<path fill-rule="evenodd" d="M88,653.8H284.8v-.7H88v.7Z" class="g3_77" />
<path fill-rule="evenodd" d="M284.8,653.8h.7v-.7h-.7v.7Z" class="g3_77" />
<path fill-rule="evenodd" d="M285.5,653.8H393.7v-.7H285.5v.7Z" class="g3_77" />
<path fill-rule="evenodd" d="M393.7,653.8h.7v-.7h-.7v.7Z" class="g3_77" />
<path fill-rule="evenodd" d="M394.4,653.8H846.2v-.7H394.4v.7Z" class="g3_77" />
<path fill-rule="evenodd" d="M88,688.3H284.8v-.7H88v.7Z" class="g3_77" />
<path fill-rule="evenodd" d="M284.8,688.3h.7v-.7h-.7v.7Z" class="g3_77" />
<path fill-rule="evenodd" d="M285.5,688.3H393.7v-.7H285.5v.7Z" class="g3_77" />
<path fill-rule="evenodd" d="M393.7,688.3h.7v-.7h-.7v.7Z" class="g3_77" />
<path fill-rule="evenodd" d="M394.4,688.3H846.2v-.7H394.4v.7Z" class="g3_77" />
<path fill-rule="evenodd" d="M88,722.8H284.8v-.7H88v.7Z" class="g3_77" />
<path fill-rule="evenodd" d="M284.8,722.8h.7v-.7h-.7v.7Z" class="g3_77" />
<path fill-rule="evenodd" d="M285.5,722.8H393.7v-.7H285.5v.7Z" class="g3_77" />
<path fill-rule="evenodd" d="M393.7,722.8h.7v-.7h-.7v.7Z" class="g3_77" />
<path fill-rule="evenodd" d="M394.4,722.8H846.2v-.7H394.4v.7Z" class="g3_77" />
<path fill-rule="evenodd" d="M88,757.3H284.8v-.8H88v.8Z" class="g3_77" />
<path fill-rule="evenodd" d="M284.8,757.3h.7v-.8h-.7v.8Z" class="g3_77" />
<path fill-rule="evenodd" d="M285.5,757.3H393.7v-.8H285.5v.8Z" class="g3_77" />
<path fill-rule="evenodd" d="M393.7,757.3h.7v-.8h-.7v.8Z" class="g3_77" />
<path fill-rule="evenodd" d="M394.4,757.3H846.2v-.8H394.4v.8Z" class="g3_77" />
<path fill-rule="evenodd" d="M88,791.7H284.8V791H88v.7Z" class="g3_77" />
<path fill-rule="evenodd" d="M284.8,791.7h.7V791h-.7v.7Z" class="g3_77" />
<path fill-rule="evenodd" d="M285.5,791.7H393.7V791H285.5v.7Z" class="g3_77" />
<path fill-rule="evenodd" d="M393.7,791.7h.7V791h-.7v.7Z" class="g3_77" />
<path fill-rule="evenodd" d="M394.4,791.7H846.2V791H394.4v.7Z" class="g3_77" />
<path fill-rule="evenodd" d="M88,826.4H284.8v-.7H88v.7Z" class="g3_77" />
<path fill-rule="evenodd" d="M284.8,826.4h.7v-.7h-.7v.7Z" class="g3_77" />
<path fill-rule="evenodd" d="M285.5,826.4H393.7v-.7H285.5v.7Z" class="g3_77" />
<path fill-rule="evenodd" d="M393.7,826.4h.7v-.7h-.7v.7Z" class="g3_77" />
<path fill-rule="evenodd" d="M394.4,826.4H846.2v-.7H394.4v.7Z" class="g3_77" />
<path fill-rule="evenodd" d="M88,860.9H284.8v-.8H88v.8Z" class="g3_77" />
<path fill-rule="evenodd" d="M284.8,860.9h.7v-.8h-.7v.8Z" class="g3_77" />
<path fill-rule="evenodd" d="M285.5,860.9H393.7v-.8H285.5v.8Z" class="g3_77" />
<path fill-rule="evenodd" d="M393.7,860.9h.7v-.8h-.7v.8Z" class="g3_77" />
<path fill-rule="evenodd" d="M394.4,860.9H846.2v-.8H394.4v.8Z" class="g3_77" />
<path fill-rule="evenodd" d="M88,929.1H284.8v-.8H88v.8Z" class="g3_77" />
<path fill-rule="evenodd" d="M284.8,929.1h.7v-.8h-.7v.8Z" class="g3_77" />
<path fill-rule="evenodd" d="M285.5,929.1H393.7v-.8H285.5v.8Z" class="g3_77" />
<path fill-rule="evenodd" d="M393.7,929.1h.7v-.8h-.7v.8Z" class="g3_77" />
<path fill-rule="evenodd" d="M394.4,929.1H846.2v-.8H394.4v.8Z" class="g3_77" />
<path fill-rule="evenodd" d="M88,963.5H284.8v-.7H88v.7Z" class="g3_77" />
<path fill-rule="evenodd" d="M284.8,963.5h.7v-.7h-.7v.7Z" class="g3_77" />
<path fill-rule="evenodd" d="M285.5,963.5H393.7v-.7H285.5v.7Z" class="g3_77" />
<path fill-rule="evenodd" d="M393.7,963.5h.7v-.7h-.7v.7Z" class="g3_77" />
<path fill-rule="evenodd" d="M394.4,963.5H846.2v-.7H394.4v.7Z" class="g3_77" />
<path fill-rule="evenodd" d="M86.9,1018.9H284.8v-.7H86.9v.7Z" class="g3_77" />
<path fill-rule="evenodd" d="M283.6,1018.9h.8v-.7h-.8v.7Z" class="g3_77" />
<path fill-rule="evenodd" d="M284.4,1018.9H393.7v-.7H284.4v.7Z" class="g3_77" />
<path fill-rule="evenodd" d="M392.6,1018.9h.7v-.7h-.7v.7Z" class="g3_77" />
<path fill-rule="evenodd" d="M393.3,1018.9H846.2v-.7H393.3v.7Z" class="g3_77" />
</svg>