<?xml version="1.0" encoding="UTF-8" standalone="no"?>
<!DOCTYPE svg PUBLIC "-//W3C//DTD SVG 1.1//EN"
"http://www.w3.org/Graphics/SVG/1.1/DTD/svg11.dtd">
<svg viewBox="0 0 909 1286" version="1.1" xmlns="http://www.w3.org/2000/svg" xmlns:xlink="http://www.w3.org/1999/xlink">
<defs>
<clipPath id="c0_65"><path d="M96.4,1201.4v-15.5h33v15.5Z" /></clipPath>
<style type="text/css"><![CDATA[
.g0_65{
fill: none;
stroke: #000000;
stroke-width: 4.201389;
stroke-linecap: butt;
stroke-linejoin: round;
}
.g1_65{
fill: #5EB28E;
fill-opacity: 0.6;
}
.g2_65{
fill: #FFFFFF;
}
.g3_65{
}
.g4_65{
fill: #16AAD3;
}
]]></style>
</defs>
<path d="M841.2,1171.7H796.5" class="g0_65" />
<path fill-rule="evenodd" d="M111.9,1174c-11.5,0,-20.8,9.3,-20.8,20.8c0,11.5,9.3,20.8,20.8,20.8c11.5,0,20.8,-9.3,20.8,-20.8c0,-11.5,-9.3,-20.8,-20.8,-20.8Z" class="g1_65" />
<path d="M116.9,1199.3c0,.1,.2,.3,.4,.3q1.9,0,1.9,0c.1,0,.3,-.2,.3,-.3q0,-.7,0,-.7q0,-.1,0,-.1q0,-7.1,0,-7.1q0,-.1,0,-.1q0,-.7,0,-.7c0,-.2,-.2,-.4,-.3,-.4q-1.9,0,-1.9,0c-.2,0,-.4,.2,-.4,.4q0,.5,0,.5q0,7.6,0,7.6v.6Z" class="g2_65" />
<g clip-path="url(#c0_65)">
<path d="M115.7,1195.4q0,-4.8,0,-4.8c0,-.2,-.1,-.4,-.3,-.4q-2,0,-2,0c-.1,0,-.2,.2,-.2,.4q0,4.4,0,4.4c0,1.7,-1,2.5,-2,2.4c-1,.1,-2,-.7,-1.9,-2.4q0,-4.4,0,-4.4c0,-.2,-.1,-.4,-.3,-.4q-1.9,0,-1.9,0c-.2,0,-.3,.2,-.3,.4q0,3.6,0,3.6c-.4,-2.4,-2.6,-4.2,-5.2,-4.2c-2.9,0,-5.2,2.2,-5.2,5c0,2.7,2.3,4.9,5.2,4.9c.2,0,.8,0,.9,0q2.1,1.4,2.1,1.4c.2,.1,.4,.1,.4,-.2q0,-2.4,0,-2.4c.9,-.7,1.6,-1.8,1.8,-3.1c.1,2.9,2.3,4.3,4.4,4.2c2.2,.1,4.5,-1.4,4.5,-4.4Zm-14.1,2.2c-1.5,0,-2.8,-1.2,-2.8,-2.6c0,-1.5,1.3,-2.7,2.8,-2.7c1.5,0,2.8,1.2,2.8,2.7c0,1.4,-1.3,2.6,-2.8,2.6Z" class="g2_65" />
</g>
<path d="M118.2,1186.7c-.8,0,-1.4,.6,-1.4,1.4c0,.7,.6,1.3,1.4,1.3c.8,0,1.4,-.6,1.4,-1.3c0,-.8,-.6,-1.4,-1.4,-1.4Z" class="g2_65" />
<path d="M129.3,1199q-3.4,-4.4,-3.4,-4.4q3,-3.8,3,-3.8c.1,-.1,.1,-.5,-.1,-.6c-.5,0,-1.3,0,-2.2,0c-.1,0,-.2,.1,-.4,.3q-2.9,3.7,-2.9,3.7c0,-2.7,0,-5.4,0,-8c0,-.2,-.2,-.2,-.3,-.1c-.7,.4,-1.3,.9,-2,1.3c-.2,.1,-.2,.3,-.2,.5q0,.6,0,.6q0,.7,0,.7q0,.1,0,.1q0,9.2,0,9.2q0,.1,0,.1q0,.7,0,.7c0,.1,.1,.3,.2,.3q2,0,2,0c.1,0,.3,-.2,.3,-.3q0,-.6,0,-.6q0,-3.5,0,-3.5q3.2,4.2,3.2,4.2c.1,.2,.2,.2,.4,.2c.8,0,1.8,0,2.2,0c.3,-.1,.3,-.5,.2,-.6Z" class="g2_65" />
<path fill-rule="evenodd" d="M88,107.6H284.8V103H88v4.6Z" class="g3_65" />
<path fill-rule="evenodd" d="M284.8,107.6h4.6V103h-4.6v4.6Z" class="g3_65" />
<path fill-rule="evenodd" d="M289.4,107.6H393.7V103H289.4v4.6Z" class="g3_65" />
<path fill-rule="evenodd" d="M393.7,107.6h4.6V103h-4.6v4.6Z" class="g3_65" />
<path fill-rule="evenodd" d="M398.3,107.6H846.2V103H398.3v4.6Z" class="g3_65" />
<path fill-rule="evenodd" d="M88,142.3H284.8v-.8H88v.8Z" class="g3_65" />
<path fill-rule="evenodd" d="M284.8,142.3h.7v-.8h-.7v.8Z" class="g3_65" />
<path fill-rule="evenodd" d="M285.5,142.3H393.7v-.8H285.5v.8Z" class="g3_65" />
<path fill-rule="evenodd" d="M393.7,142.3h.7v-.8h-.7v.8Z" class="g3_65" />
<path fill-rule="evenodd" d="M394.4,142.3H846.2v-.8H394.4v.8Z" class="g3_65" />
<path fill-rule="evenodd" d="M88,176.8H284.8V176H88v.8Z" class="g3_65" />
<path fill-rule="evenodd" d="M284.8,176.8h.7V176h-.7v.8Z" class="g3_65" />
<path fill-rule="evenodd" d="M285.5,176.8H393.7V176H285.5v.8Z" class="g3_65" />
<path fill-rule="evenodd" d="M393.7,176.8h.7V176h-.7v.8Z" class="g3_65" />
<path fill-rule="evenodd" d="M394.4,176.8H846.2V176H394.4v.8Z" class="g3_65" />
<path fill-rule="evenodd" d="M88,211.2H284.8v-.7H88v.7Z" class="g3_65" />
<path fill-rule="evenodd" d="M284.8,211.2h.7v-.7h-.7v.7Z" class="g3_65" />
<path fill-rule="evenodd" d="M285.5,211.2H393.7v-.7H285.5v.7Z" class="g3_65" />
<path fill-rule="evenodd" d="M393.7,211.2h.7v-.7h-.7v.7Z" class="g3_65" />
<path fill-rule="evenodd" d="M394.4,211.2H846.2v-.7H394.4v.7Z" class="g3_65" />
<path fill-rule="evenodd" d="M88,245.7H284.8V245H88v.7Z" class="g3_65" />
<path fill-rule="evenodd" d="M284.8,245.7h.7V245h-.7v.7Z" class="g3_65" />
<path fill-rule="evenodd" d="M285.5,245.7H393.7V245H285.5v.7Z" class="g3_65" />
<path fill-rule="evenodd" d="M393.7,245.7h.7V245h-.7v.7Z" class="g3_65" />
<path fill-rule="evenodd" d="M394.4,245.7H846.2V245H394.4v.7Z" class="g3_65" />
<path fill-rule="evenodd" d="M88,280.2H284.8v-.8H88v.8Z" class="g3_65" />
<path fill-rule="evenodd" d="M284.8,280.2h.7v-.8h-.7v.8Z" class="g3_65" />
<path fill-rule="evenodd" d="M285.5,280.2H393.7v-.8H285.5v.8Z" class="g3_65" />
<path fill-rule="evenodd" d="M393.7,280.2h.7v-.8h-.7v.8Z" class="g3_65" />
<path fill-rule="evenodd" d="M394.4,280.2H846.2v-.8H394.4v.8Z" class="g3_65" />
<path fill-rule="evenodd" d="M88,314.8H284.8v-.7H88v.7Z" class="g3_65" />
<path fill-rule="evenodd" d="M284.8,314.8h.7v-.7h-.7v.7Z" class="g3_65" />
<path fill-rule="evenodd" d="M285.5,314.8H393.7v-.7H285.5v.7Z" class="g3_65" />
<path fill-rule="evenodd" d="M393.7,314.8h.7v-.7h-.7v.7Z" class="g3_65" />
<path fill-rule="evenodd" d="M394.4,314.8H846.2v-.7H394.4v.7Z" class="g3_65" />
<path fill-rule="evenodd" d="M88,349.3H284.8v-.8H88v.8Z" class="g3_65" />
<path fill-rule="evenodd" d="M284.8,349.3h.7v-.8h-.7v.8Z" class="g3_65" />
<path fill-rule="evenodd" d="M285.5,349.3H393.7v-.8H285.5v.8Z" class="g3_65" />
<path fill-rule="evenodd" d="M393.7,349.3h.7v-.8h-.7v.8Z" class="g3_65" />
<path fill-rule="evenodd" d="M394.4,349.3H846.2v-.8H394.4v.8Z" class="g3_65" />
<path fill-rule="evenodd" d="M86.9,383.7H284.8V383H86.9v.7Z" class="g3_65" />
<path fill-rule="evenodd" d="M283.6,383.7h.8V383h-.8v.7Z" class="g3_65" />
<path fill-rule="evenodd" d="M284.4,383.7H393.7V383H284.4v.7Z" class="g3_65" />
<path fill-rule="evenodd" d="M392.6,383.7h.7V383h-.7v.7Z" class="g3_65" />
<path fill-rule="evenodd" d="M393.3,383.7H846.2V383H393.3v.7Z" class="g3_65" />
<path fill-rule="evenodd" d="M88,551.5H284.8V547H88v4.5Z" class="g3_65" />
<path fill-rule="evenodd" d="M284.8,551.5h4.6V547h-4.6v4.5Z" class="g3_65" />
<path fill-rule="evenodd" d="M289.4,551.5H393.7V547H289.4v4.5Z" class="g3_65" />
<path fill-rule="evenodd" d="M393.7,551.5h4.6V547h-4.6v4.5Z" class="g3_65" />
<path fill-rule="evenodd" d="M398.3,551.5H846.2V547H398.3v4.5Z" class="g3_65" />
<path fill-rule="evenodd" d="M88,586H284.8v-.7H88v.7Z" class="g3_65" />
<path fill-rule="evenodd" d="M284.8,586h.7v-.7h-.7v.7Z" class="g3_65" />
<path fill-rule="evenodd" d="M285.5,586H393.7v-.7H285.5v.7Z" class="g3_65" />
<path fill-rule="evenodd" d="M393.7,586h.7v-.7h-.7v.7Z" class="g3_65" />
<path fill-rule="evenodd" d="M394.4,586H846.2v-.7H394.4v.7Z" class="g3_65" />
<path fill-rule="evenodd" d="M402.3,644.1H547.7v-.9H402.3v.9Z" class="g4_65" />
<path fill-rule="evenodd" d="M88,620.5H284.8v-.8H88v.8Z" class="g3_65" />
<path fill-rule="evenodd" d="M284.8,620.5h.7v-.8h-.7v.8Z" class="g3_65" />
<path fill-rule="evenodd" d="M285.5,620.5H393.7v-.8H285.5v.8Z" class="g3_65" />
<path fill-rule="evenodd" d="M393.7,620.5h.7v-.8h-.7v.8Z" class="g3_65" />
<path fill-rule="evenodd" d="M394.4,620.5H846.2v-.8H394.4v.8Z" class="g3_65" />
<path fill-rule="evenodd" d="M88,655.1H284.8v-.7H88v.7Z" class="g3_65" />
<path fill-rule="evenodd" d="M284.8,655.1h.7v-.7h-.7v.7Z" class="g3_65" />
<path fill-rule="evenodd" d="M285.5,655.1H393.7v-.7H285.5v.7Z" class="g3_65" />
<path fill-rule="evenodd" d="M393.7,655.1h.7v-.7h-.7v.7Z" class="g3_65" />
<path fill-rule="evenodd" d="M394.4,655.1H846.2v-.7H394.4v.7Z" class="g3_65" />
<path fill-rule="evenodd" d="M88,689.6H284.8v-.7H88v.7Z" class="g3_65" />
<path fill-rule="evenodd" d="M284.8,689.6h.7v-.7h-.7v.7Z" class="g3_65" />
<path fill-rule="evenodd" d="M285.5,689.6H393.7v-.7H285.5v.7Z" class="g3_65" />
<path fill-rule="evenodd" d="M393.7,689.6h.7v-.7h-.7v.7Z" class="g3_65" />
<path fill-rule="evenodd" d="M394.4,689.6H846.2v-.7H394.4v.7Z" class="g3_65" />
<path fill-rule="evenodd" d="M88,724.1H284.8v-.7H88v.7Z" class="g3_65" />
<path fill-rule="evenodd" d="M284.8,724.1h.7v-.7h-.7v.7Z" class="g3_65" />
<path fill-rule="evenodd" d="M285.5,724.1H393.7v-.7H285.5v.7Z" class="g3_65" />
<path fill-rule="evenodd" d="M393.7,724.1h.7v-.7h-.7v.7Z" class="g3_65" />
<path fill-rule="evenodd" d="M394.4,724.1H846.2v-.7H394.4v.7Z" class="g3_65" />
<path fill-rule="evenodd" d="M88,758.6H284.8v-.8H88v.8Z" class="g3_65" />
<path fill-rule="evenodd" d="M284.8,758.6h.7v-.8h-.7v.8Z" class="g3_65" />
<path fill-rule="evenodd" d="M285.5,758.6H393.7v-.8H285.5v.8Z" class="g3_65" />
<path fill-rule="evenodd" d="M393.7,758.6h.7v-.8h-.7v.8Z" class="g3_65" />
<path fill-rule="evenodd" d="M394.4,758.6H846.2v-.8H394.4v.8Z" class="g3_65" />
<path fill-rule="evenodd" d="M88,826.9H284.8v-.7H88v.7Z" class="g3_65" />
<path fill-rule="evenodd" d="M284.8,826.9h.7v-.7h-.7v.7Z" class="g3_65" />
<path fill-rule="evenodd" d="M285.5,826.9H393.7v-.7H285.5v.7Z" class="g3_65" />
<path fill-rule="evenodd" d="M393.7,826.9h.7v-.7h-.7v.7Z" class="g3_65" />
<path fill-rule="evenodd" d="M394.4,826.9H846.2v-.7H394.4v.7Z" class="g3_65" />
<path fill-rule="evenodd" d="M88,861.4H284.8v-.7H88v.7Z" class="g3_65" />
<path fill-rule="evenodd" d="M284.8,861.4h.7v-.7h-.7v.7Z" class="g3_65" />
<path fill-rule="evenodd" d="M285.5,861.4H393.7v-.7H285.5v.7Z" class="g3_65" />
<path fill-rule="evenodd" d="M393.7,861.4h.7v-.7h-.7v.7Z" class="g3_65" />
<path fill-rule="evenodd" d="M394.4,861.4H846.2v-.7H394.4v.7Z" class="g3_65" />
<path fill-rule="evenodd" d="M88,895.9H284.8v-.8H88v.8Z" class="g3_65" />
<path fill-rule="evenodd" d="M284.8,895.9h.7v-.8h-.7v.8Z" class="g3_65" />
<path fill-rule="evenodd" d="M285.5,895.9H393.7v-.8H285.5v.8Z" class="g3_65" />
<path fill-rule="evenodd" d="M393.7,895.9h.7v-.8h-.7v.8Z" class="g3_65" />
<path fill-rule="evenodd" d="M394.4,895.9H846.2v-.8H394.4v.8Z" class="g3_65" />
<path fill-rule="evenodd" d="M88,930.3H284.8v-.7H88v.7Z" class="g3_65" />
<path fill-rule="evenodd" d="M284.8,930.3h.7v-.7h-.7v.7Z" class="g3_65" />
<path fill-rule="evenodd" d="M285.5,930.3H393.7v-.7H285.5v.7Z" class="g3_65" />
<path fill-rule="evenodd" d="M393.7,930.3h.7v-.7h-.7v.7Z" class="g3_65" />
<path fill-rule="evenodd" d="M394.4,930.3H846.2v-.7H394.4v.7Z" class="g3_65" />
<path fill-rule="evenodd" d="M88,985.7H284.8V985H88v.7Z" class="g3_65" />
<path fill-rule="evenodd" d="M284.8,985.7h.7V985h-.7v.7Z" class="g3_65" />
<path fill-rule="evenodd" d="M285.5,985.7H393.7V985H285.5v.7Z" class="g3_65" />
<path fill-rule="evenodd" d="M393.7,985.7h.7V985h-.7v.7Z" class="g3_65" />
<path fill-rule="evenodd" d="M394.4,985.7H846.2V985H394.4v.7Z" class="g3_65" />
<path fill-rule="evenodd" d="M88,1020.2H284.8v-.7H88v.7Z" class="g3_65" />
<path fill-rule="evenodd" d="M284.8,1020.2h.7v-.7h-.7v.7Z" class="g3_65" />
<path fill-rule="evenodd" d="M285.5,1020.2H393.7v-.7H285.5v.7Z" class="g3_65" />
<path fill-rule="evenodd" d="M393.7,1020.2h.7v-.7h-.7v.7Z" class="g3_65" />
<path fill-rule="evenodd" d="M394.4,1020.2H846.2v-.7H394.4v.7Z" class="g3_65" />
<path fill-rule="evenodd" d="M88,1054.7H284.8v-.7H88v.7Z" class="g3_65" />
<path fill-rule="evenodd" d="M284.8,1054.7h.7v-.7h-.7v.7Z" class="g3_65" />
<path fill-rule="evenodd" d="M285.5,1054.7H393.7v-.7H285.5v.7Z" class="g3_65" />
<path fill-rule="evenodd" d="M393.7,1054.7h.7v-.7h-.7v.7Z" class="g3_65" />
<path fill-rule="evenodd" d="M394.4,1054.7H846.2v-.7H394.4v.7Z" class="g3_65" />
<path fill-rule="evenodd" d="M88,1089.2H284.8v-.8H88v.8Z" class="g3_65" />
<path fill-rule="evenodd" d="M284.8,1089.2h.7v-.8h-.7v.8Z" class="g3_65" />
<path fill-rule="evenodd" d="M285.5,1089.2H393.7v-.8H285.5v.8Z" class="g3_65" />
<path fill-rule="evenodd" d="M393.7,1089.2h.7v-.8h-.7v.8Z" class="g3_65" />
<path fill-rule="evenodd" d="M394.4,1089.2H846.2v-.8H394.4v.8Z" class="g3_65" />
<path fill-rule="evenodd" d="M86.9,1123.8H284.8v-.7H86.9v.7Z" class="g3_65" />
<path fill-rule="evenodd" d="M283.6,1123.8h.8v-.7h-.8v.7Z" class="g3_65" />
<path fill-rule="evenodd" d="M284.4,1123.8H393.7v-.7H284.4v.7Z" class="g3_65" />
<path fill-rule="evenodd" d="M392.6,1123.8h.7v-.7h-.7v.7Z" class="g3_65" />
<path fill-rule="evenodd" d="M393.3,1123.8H846.2v-.7H393.3v.7Z" class="g3_65" />
</svg>