<?xml version="1.0" encoding="UTF-8" standalone="no"?>
<!DOCTYPE svg PUBLIC "-//W3C//DTD SVG 1.1//EN"
"http://www.w3.org/Graphics/SVG/1.1/DTD/svg11.dtd">
<svg viewBox="0 0 909 1286" version="1.1" xmlns="http://www.w3.org/2000/svg" xmlns:xlink="http://www.w3.org/1999/xlink">
<defs>
<clipPath id="c0_36"><path d="M96.3,1222.9v-15.4h33.1v15.4Z" /></clipPath>
<style type="text/css"><![CDATA[
.g0_36{
fill: none;
stroke: #000000;
stroke-width: 4.201389;
stroke-linecap: butt;
stroke-linejoin: round;
}
.g1_36{
fill: #5EB28E;
fill-opacity: 0.6;
}
.g2_36{
fill: #FFFFFF;
}
.g3_36{
fill: #F1F1F1;
}
]]></style>
</defs>
<path d="M840.5,1191.5H795.8" class="g0_36" />
<path fill-rule="evenodd" d="M111.8,1193.5c-11.5,0,-20.8,9.3,-20.8,20.8c0,11.5,9.3,20.8,20.8,20.8c11.5,0,20.8,-9.3,20.8,-20.8c0,-11.5,-9.3,-20.8,-20.8,-20.8Z" class="g1_36" />
<path d="M116.9,1220.8c0,.2,.1,.3,.3,.3q1.9,0,1.9,0c.2,0,.3,-.1,.3,-.3q0,-.7,0,-.7q0,-.1,0,-.1q0,-7.1,0,-7.1q0,-.1,0,-.1q0,-.7,0,-.7c0,-.2,-.1,-.3,-.3,-.3q-1.9,0,-1.9,0c-.2,0,-.3,.1,-.3,.3q0,.6,0,.6q0,7.5,0,7.5v.6Z" class="g2_36" />
<g clip-path="url(#c0_36)">
<path d="M115.6,1217q.1,-4.9,.1,-4.9c0,-.2,-.2,-.3,-.4,-.3q-1.9,0,-1.9,0c-.2,0,-.3,.1,-.3,.3q0,4.4,0,4.4c0,1.7,-.9,2.5,-1.9,2.4q-.1,0,-.1,0c-1,.1,-2,-.7,-1.9,-2.4q0,-4.4,0,-4.4c0,-.2,-.1,-.3,-.3,-.3q-1.9,0,-1.9,0c-.2,0,-.3,.1,-.3,.3q0,3.7,0,3.7c-.4,-2.4,-2.6,-4.3,-5.2,-4.3c-2.9,0,-5.2,2.3,-5.2,5c0,2.8,2.3,5,5.2,5c.3,0,.8,0,1,0q2.1,1.4,2.1,1.4c.2,.1,.3,0,.3,-.2q0,-2.4,0,-2.4c1,-.8,1.6,-1.8,1.8,-3.2c.1,2.9,2.3,4.3,4.4,4.3q.1,0,.1,0c2.2,0,4.4,-1.4,4.4,-4.4Zm-14.1,2.2c-1.5,0,-2.7,-1.2,-2.7,-2.7c0,-1.5,1.2,-2.6,2.7,-2.6c1.6,0,2.8,1.1,2.8,2.6c0,1.5,-1.2,2.7,-2.8,2.7Z" class="g2_36" />
</g>
<path d="M118.1,1208.2c-.8,0,-1.4,.6,-1.4,1.4c0,.8,.6,1.3,1.4,1.3c.8,0,1.5,-.5,1.5,-1.3c0,-.8,-.7,-1.4,-1.5,-1.4Z" class="g2_36" />
<path d="M129.2,1220.6q-3.4,-4.4,-3.4,-4.4q3,-3.8,3,-3.8c.2,-.2,.1,-.6,-.1,-.6c-.5,0,-1.3,0,-2.1,0c-.2,0,-.3,0,-.4,.2q-3,3.8,-3,3.8c0,-2.7,0,-5.5,0,-8c0,-.3,-.2,-.3,-.3,-.2c-.7,.4,-1.3,.9,-1.9,1.3c-.2,.2,-.3,.3,-.3,.6q0,.5,0,.5q0,.8,0,.8q0,9.3,0,9.3q0,.7,0,.7c0,.2,.1,.3,.3,.3q1.9,0,1.9,0c.1,0,.3,-.1,.3,-.3q0,-.6,0,-.6q0,-3.4,0,-3.4q3.2,4.1,3.2,4.1c.2,.2,.3,.2,.4,.2c.8,0,1.8,0,2.3,0c.2,0,.2,-.4,.1,-.5Z" class="g2_36" />
<path fill-rule="evenodd" d="M90.6,99.5H846.1V75H90.6V99.5Z" class="g3_36" />
<path fill-rule="evenodd" d="M81.4,75h9.2V65.8H81.4V75Z" class="g3_36" />
<path fill-rule="evenodd" d="M81.4,75h9.2V65.8H81.4V75Z" class="g3_36" />
<path fill-rule="evenodd" d="M90.6,75H846.1V65.8H90.6V75Z" class="g3_36" />
<path fill-rule="evenodd" d="M81.4,99.5h9.2V75H81.4V99.5Z" class="g3_36" />
<path fill-rule="evenodd" d="M90.6,122.5H846.1v-23H90.6v23Z" class="g3_36" />
<path fill-rule="evenodd" d="M81.4,122.5h9.2v-23H81.4v23Z" class="g3_36" />
<path fill-rule="evenodd" d="M90.6,145.4H846.1V122.5H90.6v22.9Z" class="g3_36" />
<path fill-rule="evenodd" d="M81.4,145.4h9.2V122.5H81.4v22.9Z" class="g3_36" />
<path fill-rule="evenodd" d="M90.6,168.3H846.1V145.4H90.6v22.9Z" class="g3_36" />
<path fill-rule="evenodd" d="M81.4,168.3h9.2V145.4H81.4v22.9Z" class="g3_36" />
<path fill-rule="evenodd" d="M90.6,191.2H846.1V168.3H90.6v22.9Z" class="g3_36" />
<path fill-rule="evenodd" d="M81.4,191.2h9.2V168.3H81.4v22.9Z" class="g3_36" />
<path fill-rule="evenodd" d="M90.6,214.2H846.1v-23H90.6v23Z" class="g3_36" />
<path fill-rule="evenodd" d="M81.4,214.2h9.2v-23H81.4v23Z" class="g3_36" />
<path fill-rule="evenodd" d="M90.6,237.1H846.1V214.2H90.6v22.9Z" class="g3_36" />
<path fill-rule="evenodd" d="M81.4,237.1h9.2V214.2H81.4v22.9Z" class="g3_36" />
<path fill-rule="evenodd" d="M90.6,260H846.1V237.1H90.6V260Z" class="g3_36" />
<path fill-rule="evenodd" d="M81.4,260h9.2V237.1H81.4V260Z" class="g3_36" />
<path fill-rule="evenodd" d="M90.6,282.9H846.1V260H90.6v22.9Z" class="g3_36" />
<path fill-rule="evenodd" d="M81.4,282.9h9.2V260H81.4v22.9Z" class="g3_36" />
<path fill-rule="evenodd" d="M90.6,305.8H846.1V282.9H90.6v22.9Z" class="g3_36" />
<path fill-rule="evenodd" d="M81.4,305.8h9.2V282.9H81.4v22.9Z" class="g3_36" />
<path fill-rule="evenodd" d="M90.6,328.7H846.1V305.8H90.6v22.9Z" class="g3_36" />
<path fill-rule="evenodd" d="M81.4,328.7h9.2V305.8H81.4v22.9Z" class="g3_36" />
<path fill-rule="evenodd" d="M90.6,351.7H846.1v-23H90.6v23Z" class="g3_36" />
<path fill-rule="evenodd" d="M81.4,351.7h9.2v-23H81.4v23Z" class="g3_36" />
<path fill-rule="evenodd" d="M90.6,374.6H846.1V351.7H90.6v22.9Z" class="g3_36" />
<path fill-rule="evenodd" d="M81.4,374.6h9.2V351.7H81.4v22.9Z" class="g3_36" />
<path fill-rule="evenodd" d="M90.6,397.5H846.1V374.6H90.6v22.9Z" class="g3_36" />
<path fill-rule="evenodd" d="M81.4,397.5h9.2V374.6H81.4v22.9Z" class="g3_36" />
<path fill-rule="evenodd" d="M90.6,420.5H846.1v-23H90.6v23Z" class="g3_36" />
<path fill-rule="evenodd" d="M81.4,420.5h9.2v-23H81.4v23Z" class="g3_36" />
<path fill-rule="evenodd" d="M90.6,443.4H846.1V420.5H90.6v22.9Z" class="g3_36" />
<path fill-rule="evenodd" d="M81.4,443.4h9.2V420.5H81.4v22.9Z" class="g3_36" />
<path fill-rule="evenodd" d="M90.6,466.3H846.1V443.4H90.6v22.9Z" class="g3_36" />
<path fill-rule="evenodd" d="M81.4,466.3h9.2V443.4H81.4v22.9Z" class="g3_36" />
<path fill-rule="evenodd" d="M90.6,489.2H846.1V466.3H90.6v22.9Z" class="g3_36" />
<path fill-rule="evenodd" d="M81.4,489.2h9.2V466.3H81.4v22.9Z" class="g3_36" />
<path fill-rule="evenodd" d="M90.6,512.1H846.1V489.2H90.6v22.9Z" class="g3_36" />
<path fill-rule="evenodd" d="M81.4,512.1h9.2V489.2H81.4v22.9Z" class="g3_36" />
<path fill-rule="evenodd" d="M90.6,535H846.1V512.1H90.6V535Z" class="g3_36" />
<path fill-rule="evenodd" d="M81.4,535h9.2V512.1H81.4V535Z" class="g3_36" />
<path fill-rule="evenodd" d="M90.6,558H846.1V535H90.6v23Z" class="g3_36" />
<path fill-rule="evenodd" d="M81.4,558h9.2V535H81.4v23Z" class="g3_36" />
<path fill-rule="evenodd" d="M90.6,582.3H846.1V558H90.6v24.3Z" class="g3_36" />
<path fill-rule="evenodd" d="M81.4,591.5h9.2v-9.2H81.4v9.2Z" class="g3_36" />
<path fill-rule="evenodd" d="M81.4,591.5h9.2v-9.2H81.4v9.2Z" class="g3_36" />
<path fill-rule="evenodd" d="M90.6,591.5H846.1v-9.2H90.6v9.2Z" class="g3_36" />
<path fill-rule="evenodd" d="M81.4,582.3h9.2V558H81.4v24.3Z" class="g3_36" />
<path fill-rule="evenodd" d="M90.6,1030.9H846.1v-24.6H90.6v24.6Z" class="g3_36" />
<path fill-rule="evenodd" d="M81.4,1006.3h9.2v-9.2H81.4v9.2Z" class="g3_36" />
<path fill-rule="evenodd" d="M81.4,1006.3h9.2v-9.2H81.4v9.2Z" class="g3_36" />
<path fill-rule="evenodd" d="M90.6,1006.3H846.1v-9.2H90.6v9.2Z" class="g3_36" />
<path fill-rule="evenodd" d="M81.4,1030.9h9.2v-24.6H81.4v24.6Z" class="g3_36" />
<path fill-rule="evenodd" d="M90.6,1053.8H846.1v-22.9H90.6v22.9Z" class="g3_36" />
<path fill-rule="evenodd" d="M81.4,1053.8h9.2v-22.9H81.4v22.9Z" class="g3_36" />
<path fill-rule="evenodd" d="M90.6,1076.7H846.1v-22.9H90.6v22.9Z" class="g3_36" />
<path fill-rule="evenodd" d="M81.4,1076.7h9.2v-22.9H81.4v22.9Z" class="g3_36" />
<path fill-rule="evenodd" d="M90.6,1099.6H846.1v-22.9H90.6v22.9Z" class="g3_36" />
<path fill-rule="evenodd" d="M81.4,1099.6h9.2v-22.9H81.4v22.9Z" class="g3_36" />
<path fill-rule="evenodd" d="M90.6,1122.5H846.1v-22.9H90.6v22.9Z" class="g3_36" />
<path fill-rule="evenodd" d="M81.4,1122.5h9.2v-22.9H81.4v22.9Z" class="g3_36" />
<path fill-rule="evenodd" d="M90.6,1146.9H846.1v-24.4H90.6v24.4Z" class="g3_36" />
<path fill-rule="evenodd" d="M81.4,1156.1h9.2v-9.2H81.4v9.2Z" class="g3_36" />
<path fill-rule="evenodd" d="M81.4,1156.1h9.2v-9.2H81.4v9.2Z" class="g3_36" />
<path fill-rule="evenodd" d="M90.6,1156.1H846.1v-9.2H90.6v9.2Z" class="g3_36" />
<path fill-rule="evenodd" d="M81.4,1146.9h9.2v-24.4H81.4v24.4Z" class="g3_36" />
</svg>