<?xml version="1.0" encoding="UTF-8" standalone="no"?>
<!DOCTYPE svg PUBLIC "-//W3C//DTD SVG 1.1//EN"
"http://www.w3.org/Graphics/SVG/1.1/DTD/svg11.dtd">
<svg viewBox="0 0 909 1286" version="1.1" xmlns="http://www.w3.org/2000/svg" xmlns:xlink="http://www.w3.org/1999/xlink">
<defs>
<clipPath id="c0_23"><path d="M96.4,1201.4v-15.5h33v15.5Z" /></clipPath>
<style type="text/css"><![CDATA[
.g0_23{
fill: none;
stroke: #000000;
stroke-width: 4.201389;
stroke-linecap: butt;
stroke-linejoin: round;
}
.g1_23{
fill: #5EB28E;
fill-opacity: 0.6;
}
.g2_23{
fill: #FFFFFF;
}
.g3_23{
fill: #F1F1F1;
}
.g4_23{
}
]]></style>
</defs>
<path d="M841.2,1171.7H796.5" class="g0_23" />
<path fill-rule="evenodd" d="M111.9,1174c-11.5,0,-20.8,9.3,-20.8,20.8c0,11.5,9.3,20.8,20.8,20.8c11.5,0,20.8,-9.3,20.8,-20.8c0,-11.5,-9.3,-20.8,-20.8,-20.8Z" class="g1_23" />
<path d="M116.9,1199.3c0,.1,.2,.3,.4,.3q1.9,0,1.9,0c.1,0,.3,-.2,.3,-.3q0,-.7,0,-.7q0,-.1,0,-.1q0,-7.1,0,-7.1q0,-.1,0,-.1q0,-.7,0,-.7c0,-.2,-.2,-.4,-.3,-.4q-1.9,0,-1.9,0c-.2,0,-.4,.2,-.4,.4q0,.5,0,.5q0,7.6,0,7.6v.6Z" class="g2_23" />
<g clip-path="url(#c0_23)">
<path d="M115.7,1195.4q0,-4.8,0,-4.8c0,-.2,-.1,-.4,-.3,-.4q-2,0,-2,0c-.1,0,-.2,.2,-.2,.4q0,4.4,0,4.4c0,1.7,-1,2.5,-2,2.4c-1,.1,-2,-.7,-1.9,-2.4q0,-4.4,0,-4.4c0,-.2,-.1,-.4,-.3,-.4q-1.9,0,-1.9,0c-.2,0,-.3,.2,-.3,.4q0,3.6,0,3.6c-.4,-2.4,-2.6,-4.2,-5.2,-4.2c-2.9,0,-5.2,2.2,-5.2,5c0,2.7,2.3,4.9,5.2,4.9c.2,0,.8,0,.9,0q2.1,1.4,2.1,1.4c.2,.1,.4,.1,.4,-.2q0,-2.4,0,-2.4c.9,-.7,1.6,-1.8,1.8,-3.1c.1,2.9,2.3,4.3,4.4,4.2c2.2,.1,4.5,-1.4,4.5,-4.4Zm-14.1,2.2c-1.5,0,-2.8,-1.2,-2.8,-2.6c0,-1.5,1.3,-2.7,2.8,-2.7c1.5,0,2.8,1.2,2.8,2.7c0,1.4,-1.3,2.6,-2.8,2.6Z" class="g2_23" />
</g>
<path d="M118.2,1186.7c-.8,0,-1.4,.6,-1.4,1.4c0,.7,.6,1.3,1.4,1.3c.8,0,1.4,-.6,1.4,-1.3c0,-.8,-.6,-1.4,-1.4,-1.4Z" class="g2_23" />
<path d="M129.3,1199q-3.4,-4.4,-3.4,-4.4q3,-3.8,3,-3.8c.1,-.1,.1,-.5,-.1,-.6c-.5,0,-1.3,0,-2.2,0c-.1,0,-.2,.1,-.4,.3q-2.9,3.7,-2.9,3.7c0,-2.7,0,-5.4,0,-8c0,-.2,-.2,-.2,-.3,-.1c-.7,.4,-1.3,.9,-2,1.3c-.2,.1,-.2,.3,-.2,.5q0,.6,0,.6q0,.7,0,.7q0,.1,0,.1q0,9.2,0,9.2q0,.1,0,.1q0,.7,0,.7c0,.1,.1,.3,.2,.3q2,0,2,0c.1,0,.3,-.2,.3,-.3q0,-.6,0,-.6q0,-3.5,0,-3.5q3.2,4.2,3.2,4.2c.1,.2,.2,.2,.4,.2c.8,0,1.8,0,2.2,0c.3,-.1,.3,-.5,.2,-.6Z" class="g2_23" />
<path fill-rule="evenodd" d="M133.7,101.2H845.9v-26H133.7v26Z" class="g3_23" />
<path fill-rule="evenodd" d="M124.5,75.2h9.2V66h-9.2v9.2Z" class="g3_23" />
<path fill-rule="evenodd" d="M124.5,75.2h9.2V66h-9.2v9.2Z" class="g3_23" />
<path fill-rule="evenodd" d="M133.7,75.2H845.9V66H133.7v9.2Z" class="g3_23" />
<path fill-rule="evenodd" d="M124.5,110.4h9.2v-9.2h-9.2v9.2Z" class="g3_23" />
<path fill-rule="evenodd" d="M124.5,110.4h9.2v-9.2h-9.2v9.2Z" class="g3_23" />
<path fill-rule="evenodd" d="M133.7,110.4H845.9v-9.2H133.7v9.2Z" class="g3_23" />
<path fill-rule="evenodd" d="M124.5,101.2h9.2v-26h-9.2v26Z" class="g3_23" />
<path fill-rule="evenodd" d="M88,347.4H282.5v-4.5H88v4.5Z" class="g4_23" />
<path fill-rule="evenodd" d="M282.5,347.4h4.7v-4.5h-4.7v4.5Z" class="g4_23" />
<path fill-rule="evenodd" d="M287.2,347.4H424.1v-4.5H287.2v4.5Z" class="g4_23" />
<path fill-rule="evenodd" d="M424.1,347.4h4.6v-4.5h-4.6v4.5Z" class="g4_23" />
<path fill-rule="evenodd" d="M428.7,347.4H846.2v-4.5H428.7v4.5Z" class="g4_23" />
<path fill-rule="evenodd" d="M88,381.9H282.5v-.7H88v.7Z" class="g4_23" />
<path fill-rule="evenodd" d="M282.5,381.9h.8v-.7h-.8v.7Z" class="g4_23" />
<path fill-rule="evenodd" d="M283.3,381.9H424.1v-.7H283.3v.7Z" class="g4_23" />
<path fill-rule="evenodd" d="M424.1,381.9h.8v-.7h-.8v.7Z" class="g4_23" />
<path fill-rule="evenodd" d="M424.9,381.9H846.2v-.7H424.9v.7Z" class="g4_23" />
<path fill-rule="evenodd" d="M88,416.4H282.5v-.8H88v.8Z" class="g4_23" />
<path fill-rule="evenodd" d="M282.5,416.4h.8v-.8h-.8v.8Z" class="g4_23" />
<path fill-rule="evenodd" d="M283.3,416.4H424.1v-.8H283.3v.8Z" class="g4_23" />
<path fill-rule="evenodd" d="M424.1,416.4h.8v-.8h-.8v.8Z" class="g4_23" />
<path fill-rule="evenodd" d="M424.9,416.4H846.2v-.8H424.9v.8Z" class="g4_23" />
<path fill-rule="evenodd" d="M88,450.9H282.5v-.7H88v.7Z" class="g4_23" />
<path fill-rule="evenodd" d="M282.5,450.9h.8v-.7h-.8v.7Z" class="g4_23" />
<path fill-rule="evenodd" d="M283.3,450.9H424.1v-.7H283.3v.7Z" class="g4_23" />
<path fill-rule="evenodd" d="M424.1,450.9h.8v-.7h-.8v.7Z" class="g4_23" />
<path fill-rule="evenodd" d="M424.9,450.9H846.2v-.7H424.9v.7Z" class="g4_23" />
<path fill-rule="evenodd" d="M88,485.4H282.5v-.8H88v.8Z" class="g4_23" />
<path fill-rule="evenodd" d="M282.5,485.4h.8v-.8h-.8v.8Z" class="g4_23" />
<path fill-rule="evenodd" d="M283.3,485.4H424.1v-.8H283.3v.8Z" class="g4_23" />
<path fill-rule="evenodd" d="M424.1,485.4h.8v-.8h-.8v.8Z" class="g4_23" />
<path fill-rule="evenodd" d="M424.9,485.4H846.2v-.8H424.9v.8Z" class="g4_23" />
<path fill-rule="evenodd" d="M86.9,520H282.5v-.7H86.9v.7Z" class="g4_23" />
<path fill-rule="evenodd" d="M281.4,520h.8v-.7h-.8v.7Z" class="g4_23" />
<path fill-rule="evenodd" d="M282.2,520H424.1v-.7H282.2v.7Z" class="g4_23" />
<path fill-rule="evenodd" d="M423,520h.8v-.7H423v.7Z" class="g4_23" />
<path fill-rule="evenodd" d="M423.8,520H846.2v-.7H423.8v.7Z" class="g4_23" />
<path fill-rule="evenodd" d="M133.7,778.2H845.9V752.3H133.7v25.9Z" class="g3_23" />
<path fill-rule="evenodd" d="M124.5,752.3h9.2v-9.1h-9.2v9.1Z" class="g3_23" />
<path fill-rule="evenodd" d="M124.5,752.3h9.2v-9.1h-9.2v9.1Z" class="g3_23" />
<path fill-rule="evenodd" d="M133.7,752.3H845.9v-9.1H133.7v9.1Z" class="g3_23" />
<path fill-rule="evenodd" d="M124.5,787.3h9.2v-9.1h-9.2v9.1Z" class="g3_23" />
<path fill-rule="evenodd" d="M124.5,787.3h9.2v-9.1h-9.2v9.1Z" class="g3_23" />
<path fill-rule="evenodd" d="M133.7,787.3H845.9v-9.1H133.7v9.1Z" class="g3_23" />
<path fill-rule="evenodd" d="M124.5,778.2h9.2V752.3h-9.2v25.9Z" class="g3_23" />
<path fill-rule="evenodd" d="M133.7,897.7H845.9V873.3H133.7v24.4Z" class="g3_23" />
<path fill-rule="evenodd" d="M124.5,873.3h9.2v-9.1h-9.2v9.1Z" class="g3_23" />
<path fill-rule="evenodd" d="M124.5,873.3h9.2v-9.1h-9.2v9.1Z" class="g3_23" />
<path fill-rule="evenodd" d="M133.7,873.3H845.9v-9.1H133.7v9.1Z" class="g3_23" />
<path fill-rule="evenodd" d="M124.5,897.7h9.2V873.3h-9.2v24.4Z" class="g3_23" />
<path fill-rule="evenodd" d="M133.7,922.1H845.9V897.7H133.7v24.4Z" class="g3_23" />
<path fill-rule="evenodd" d="M124.5,931.3h9.2v-9.2h-9.2v9.2Z" class="g3_23" />
<path fill-rule="evenodd" d="M124.5,931.3h9.2v-9.2h-9.2v9.2Z" class="g3_23" />
<path fill-rule="evenodd" d="M133.7,931.3H845.9v-9.2H133.7v9.2Z" class="g3_23" />
<path fill-rule="evenodd" d="M124.5,922.1h9.2V897.7h-9.2v24.4Z" class="g3_23" />
</svg>