<?xml version="1.0" encoding="UTF-8" standalone="no"?>
<!DOCTYPE svg PUBLIC "-//W3C//DTD SVG 1.1//EN"
"http://www.w3.org/Graphics/SVG/1.1/DTD/svg11.dtd">
<svg viewBox="0 0 909 1286" version="1.1" xmlns="http://www.w3.org/2000/svg" xmlns:xlink="http://www.w3.org/1999/xlink">
<defs>
<clipPath id="c0_29"><path d="M96.4,1201.4v-15.5h33v15.5Z" /></clipPath>
<style type="text/css"><![CDATA[
.g0_29{
fill: none;
stroke: #000000;
stroke-width: 4.201389;
stroke-linecap: butt;
stroke-linejoin: round;
}
.g1_29{
fill: #5EB28E;
fill-opacity: 0.6;
}
.g2_29{
fill: #FFFFFF;
}
.g3_29{
}
.g4_29{
fill: #F1F1F1;
}
]]></style>
</defs>
<path d="M841.2,1171.7H796.5" class="g0_29" />
<path fill-rule="evenodd" d="M111.9,1174c-11.5,0,-20.8,9.3,-20.8,20.8c0,11.5,9.3,20.8,20.8,20.8c11.5,0,20.8,-9.3,20.8,-20.8c0,-11.5,-9.3,-20.8,-20.8,-20.8Z" class="g1_29" />
<path d="M116.9,1199.3c0,.1,.2,.3,.4,.3q1.9,0,1.9,0c.1,0,.3,-.2,.3,-.3q0,-.7,0,-.7q0,-.1,0,-.1q0,-7.1,0,-7.1q0,-.1,0,-.1q0,-.7,0,-.7c0,-.2,-.2,-.4,-.3,-.4q-1.9,0,-1.9,0c-.2,0,-.4,.2,-.4,.4q0,.5,0,.5q0,7.6,0,7.6v.6Z" class="g2_29" />
<g clip-path="url(#c0_29)">
<path d="M115.7,1195.4q0,-4.8,0,-4.8c0,-.2,-.1,-.4,-.3,-.4q-2,0,-2,0c-.1,0,-.2,.2,-.2,.4q0,4.4,0,4.4c0,1.7,-1,2.5,-2,2.4c-1,.1,-2,-.7,-1.9,-2.4q0,-4.4,0,-4.4c0,-.2,-.1,-.4,-.3,-.4q-1.9,0,-1.9,0c-.2,0,-.3,.2,-.3,.4q0,3.6,0,3.6c-.4,-2.4,-2.6,-4.2,-5.2,-4.2c-2.9,0,-5.2,2.2,-5.2,5c0,2.7,2.3,4.9,5.2,4.9c.2,0,.8,0,.9,0q2.1,1.4,2.1,1.4c.2,.1,.4,.1,.4,-.2q0,-2.4,0,-2.4c.9,-.7,1.6,-1.8,1.8,-3.1c.1,2.9,2.3,4.3,4.4,4.2c2.2,.1,4.5,-1.4,4.5,-4.4Zm-14.1,2.2c-1.5,0,-2.8,-1.2,-2.8,-2.6c0,-1.5,1.3,-2.7,2.8,-2.7c1.5,0,2.8,1.2,2.8,2.7c0,1.4,-1.3,2.6,-2.8,2.6Z" class="g2_29" />
</g>
<path d="M118.2,1186.7c-.8,0,-1.4,.6,-1.4,1.4c0,.7,.6,1.3,1.4,1.3c.8,0,1.4,-.6,1.4,-1.3c0,-.8,-.6,-1.4,-1.4,-1.4Z" class="g2_29" />
<path d="M129.3,1199q-3.4,-4.4,-3.4,-4.4q3,-3.8,3,-3.8c.1,-.1,.1,-.5,-.1,-.6c-.5,0,-1.3,0,-2.2,0c-.1,0,-.2,.1,-.4,.3q-2.9,3.7,-2.9,3.7c0,-2.7,0,-5.4,0,-8c0,-.2,-.2,-.2,-.3,-.1c-.7,.4,-1.3,.9,-2,1.3c-.2,.1,-.2,.3,-.2,.5q0,.6,0,.6q0,.7,0,.7q0,.1,0,.1q0,9.2,0,9.2q0,.1,0,.1q0,.7,0,.7c0,.1,.1,.3,.2,.3q2,0,2,0c.1,0,.3,-.2,.3,-.3q0,-.6,0,-.6q0,-3.5,0,-3.5q3.2,4.2,3.2,4.2c.1,.2,.2,.2,.4,.2c.8,0,1.8,0,2.2,0c.3,-.1,.3,-.5,.2,-.6Z" class="g2_29" />
<path fill-rule="evenodd" d="M88,107.6H250.5V103H88v4.6Z" class="g3_29" />
<path fill-rule="evenodd" d="M250.5,107.6H255V103h-4.5v4.6Z" class="g3_29" />
<path fill-rule="evenodd" d="M255,107.6H467.2V103H255v4.6Z" class="g3_29" />
<path fill-rule="evenodd" d="M88,138.4H250.5v-.7H88v.7Z" class="g3_29" />
<path fill-rule="evenodd" d="M250.5,138.4h.7v-.7h-.7v.7Z" class="g3_29" />
<path fill-rule="evenodd" d="M251.2,138.4h216v-.7h-216v.7Z" class="g3_29" />
<path fill-rule="evenodd" d="M88,172.9H250.5v-.7H88v.7Z" class="g3_29" />
<path fill-rule="evenodd" d="M250.5,172.9h.7v-.7h-.7v.7Z" class="g3_29" />
<path fill-rule="evenodd" d="M251.2,172.9h216v-.7h-216v.7Z" class="g3_29" />
<path fill-rule="evenodd" d="M88,207.4H250.5v-.8H88v.8Z" class="g3_29" />
<path fill-rule="evenodd" d="M250.5,207.4h.7v-.8h-.7v.8Z" class="g3_29" />
<path fill-rule="evenodd" d="M251.2,207.4h216v-.8h-216v.8Z" class="g3_29" />
<path fill-rule="evenodd" d="M88,241.8H250.5v-.7H88v.7Z" class="g3_29" />
<path fill-rule="evenodd" d="M250.5,241.8h.7v-.7h-.7v.7Z" class="g3_29" />
<path fill-rule="evenodd" d="M251.2,241.8h216v-.7h-216v.7Z" class="g3_29" />
<path fill-rule="evenodd" d="M88,276.5H250.5v-.7H88v.7Z" class="g3_29" />
<path fill-rule="evenodd" d="M250.5,276.5h.7v-.7h-.7v.7Z" class="g3_29" />
<path fill-rule="evenodd" d="M251.2,276.5h216v-.7h-216v.7Z" class="g3_29" />
<path fill-rule="evenodd" d="M88,311H250.5v-.8H88v.8Z" class="g3_29" />
<path fill-rule="evenodd" d="M250.5,311h.7v-.8h-.7v.8Z" class="g3_29" />
<path fill-rule="evenodd" d="M251.2,311h216v-.8h-216v.8Z" class="g3_29" />
<path fill-rule="evenodd" d="M88,345.4H250.5v-.7H88v.7Z" class="g3_29" />
<path fill-rule="evenodd" d="M250.5,345.4h.7v-.7h-.7v.7Z" class="g3_29" />
<path fill-rule="evenodd" d="M251.2,345.4h216v-.7h-216v.7Z" class="g3_29" />
<path fill-rule="evenodd" d="M88,379.9H250.5v-.7H88v.7Z" class="g3_29" />
<path fill-rule="evenodd" d="M250.5,379.9h.7v-.7h-.7v.7Z" class="g3_29" />
<path fill-rule="evenodd" d="M251.2,379.9h216v-.7h-216v.7Z" class="g3_29" />
<path fill-rule="evenodd" d="M86.9,414.5H250.5v-.7H86.9v.7Z" class="g3_29" />
<path fill-rule="evenodd" d="M249.4,414.5h.7v-.7h-.7v.7Z" class="g3_29" />
<path fill-rule="evenodd" d="M250.1,414.5H467.2v-.7H250.1v.7Z" class="g3_29" />
<path fill-rule="evenodd" d="M88,532.8H280.7v-4.5H88v4.5Z" class="g3_29" />
<path fill-rule="evenodd" d="M280.7,532.8h4.6v-4.5h-4.6v4.5Z" class="g3_29" />
<path fill-rule="evenodd" d="M285.3,532.8h121v-4.5h-121v4.5Z" class="g3_29" />
<path fill-rule="evenodd" d="M406.3,532.8h4.6v-4.5h-4.6v4.5Z" class="g3_29" />
<path fill-rule="evenodd" d="M410.9,532.8H846.2v-4.5H410.9v4.5Z" class="g3_29" />
<path fill-rule="evenodd" d="M88,588.2H280.7v-.7H88v.7Z" class="g3_29" />
<path fill-rule="evenodd" d="M280.7,588.2h.7v-.7h-.7v.7Z" class="g3_29" />
<path fill-rule="evenodd" d="M281.4,588.2H406.3v-.7H281.4v.7Z" class="g3_29" />
<path fill-rule="evenodd" d="M406.3,588.2h.8v-.7h-.8v.7Z" class="g3_29" />
<path fill-rule="evenodd" d="M407.1,588.2H846.2v-.7H407.1v.7Z" class="g3_29" />
<path fill-rule="evenodd" d="M88,622.7H280.7v-.8H88v.8Z" class="g3_29" />
<path fill-rule="evenodd" d="M280.7,622.7h.7v-.8h-.7v.8Z" class="g3_29" />
<path fill-rule="evenodd" d="M281.4,622.7H406.3v-.8H281.4v.8Z" class="g3_29" />
<path fill-rule="evenodd" d="M406.3,622.7h.8v-.8h-.8v.8Z" class="g3_29" />
<path fill-rule="evenodd" d="M407.1,622.7H846.2v-.8H407.1v.8Z" class="g3_29" />
<path fill-rule="evenodd" d="M88,657.1H280.7v-.7H88v.7Z" class="g3_29" />
<path fill-rule="evenodd" d="M280.7,657.1h.7v-.7h-.7v.7Z" class="g3_29" />
<path fill-rule="evenodd" d="M281.4,657.1H406.3v-.7H281.4v.7Z" class="g3_29" />
<path fill-rule="evenodd" d="M406.3,657.1h.8v-.7h-.8v.7Z" class="g3_29" />
<path fill-rule="evenodd" d="M407.1,657.1H846.2v-.7H407.1v.7Z" class="g3_29" />
<path fill-rule="evenodd" d="M88,691.6H280.7v-.7H88v.7Z" class="g3_29" />
<path fill-rule="evenodd" d="M280.7,691.6h.7v-.7h-.7v.7Z" class="g3_29" />
<path fill-rule="evenodd" d="M281.4,691.6H406.3v-.7H281.4v.7Z" class="g3_29" />
<path fill-rule="evenodd" d="M406.3,691.6h.8v-.7h-.8v.7Z" class="g3_29" />
<path fill-rule="evenodd" d="M407.1,691.6H846.2v-.7H407.1v.7Z" class="g3_29" />
<path fill-rule="evenodd" d="M88,726.1H280.7v-.7H88v.7Z" class="g3_29" />
<path fill-rule="evenodd" d="M280.7,726.1h.7v-.7h-.7v.7Z" class="g3_29" />
<path fill-rule="evenodd" d="M281.4,726.1H406.3v-.7H281.4v.7Z" class="g3_29" />
<path fill-rule="evenodd" d="M406.3,726.1h.8v-.7h-.8v.7Z" class="g3_29" />
<path fill-rule="evenodd" d="M407.1,726.1H846.2v-.7H407.1v.7Z" class="g3_29" />
<path fill-rule="evenodd" d="M88,760.8H280.7V760H88v.8Z" class="g3_29" />
<path fill-rule="evenodd" d="M280.7,760.8h.7V760h-.7v.8Z" class="g3_29" />
<path fill-rule="evenodd" d="M281.4,760.8H406.3V760H281.4v.8Z" class="g3_29" />
<path fill-rule="evenodd" d="M406.3,760.8h.8V760h-.8v.8Z" class="g3_29" />
<path fill-rule="evenodd" d="M407.1,760.8H846.2V760H407.1v.8Z" class="g3_29" />
<path fill-rule="evenodd" d="M88,795.2H280.7v-.7H88v.7Z" class="g3_29" />
<path fill-rule="evenodd" d="M280.7,795.2h.7v-.7h-.7v.7Z" class="g3_29" />
<path fill-rule="evenodd" d="M281.4,795.2H406.3v-.7H281.4v.7Z" class="g3_29" />
<path fill-rule="evenodd" d="M406.3,795.2h.8v-.7h-.8v.7Z" class="g3_29" />
<path fill-rule="evenodd" d="M407.1,795.2H846.2v-.7H407.1v.7Z" class="g3_29" />
<path fill-rule="evenodd" d="M88,850.4H280.7v-.7H88v.7Z" class="g3_29" />
<path fill-rule="evenodd" d="M280.7,850.4h.7v-.7h-.7v.7Z" class="g3_29" />
<path fill-rule="evenodd" d="M281.4,850.4H406.3v-.7H281.4v.7Z" class="g3_29" />
<path fill-rule="evenodd" d="M406.3,850.4h.8v-.7h-.8v.7Z" class="g3_29" />
<path fill-rule="evenodd" d="M407.1,850.4H846.2v-.7H407.1v.7Z" class="g3_29" />
<path fill-rule="evenodd" d="M88,884.9H280.7v-.8H88v.8Z" class="g3_29" />
<path fill-rule="evenodd" d="M280.7,884.9h.7v-.8h-.7v.8Z" class="g3_29" />
<path fill-rule="evenodd" d="M281.4,884.9H406.3v-.8H281.4v.8Z" class="g3_29" />
<path fill-rule="evenodd" d="M406.3,884.9h.8v-.8h-.8v.8Z" class="g3_29" />
<path fill-rule="evenodd" d="M407.1,884.9H846.2v-.8H407.1v.8Z" class="g3_29" />
<path fill-rule="evenodd" d="M86.9,940.2H280.7v-.7H86.9v.7Z" class="g3_29" />
<path fill-rule="evenodd" d="M279.6,940.2h.7v-.7h-.7v.7Z" class="g3_29" />
<path fill-rule="evenodd" d="M280.3,940.2h126v-.7h-126v.7Z" class="g3_29" />
<path fill-rule="evenodd" d="M405.2,940.2h.8v-.7h-.8v.7Z" class="g3_29" />
<path fill-rule="evenodd" d="M406,940.2H846.2v-.7H406v.7Z" class="g3_29" />
<path fill-rule="evenodd" d="M133.7,1050.7H845.9v-24.6H133.7v24.6Z" class="g4_29" />
<path fill-rule="evenodd" d="M124.5,1026.1h9.2v-9.2h-9.2v9.2Z" class="g4_29" />
<path fill-rule="evenodd" d="M124.5,1026.1h9.2v-9.2h-9.2v9.2Z" class="g4_29" />
<path fill-rule="evenodd" d="M133.7,1026.1H845.9v-9.2H133.7v9.2Z" class="g4_29" />
<path fill-rule="evenodd" d="M124.5,1050.7h9.2v-24.6h-9.2v24.6Z" class="g4_29" />
<path fill-rule="evenodd" d="M133.7,1073.6H845.9v-22.9H133.7v22.9Z" class="g4_29" />
<path fill-rule="evenodd" d="M124.5,1073.6h9.2v-22.9h-9.2v22.9Z" class="g4_29" />
<path fill-rule="evenodd" d="M133.7,1098H845.9v-24.4H133.7V1098Z" class="g4_29" />
<path fill-rule="evenodd" d="M124.5,1107.1h9.2V1098h-9.2v9.1Z" class="g4_29" />
<path fill-rule="evenodd" d="M124.5,1107.1h9.2V1098h-9.2v9.1Z" class="g4_29" />
<path fill-rule="evenodd" d="M133.7,1107.1H845.9V1098H133.7v9.1Z" class="g4_29" />
<path fill-rule="evenodd" d="M124.5,1098h9.2v-24.4h-9.2V1098Z" class="g4_29" />
</svg>