<?xml version="1.0" encoding="UTF-8" standalone="no"?>
<!DOCTYPE svg PUBLIC "-//W3C//DTD SVG 1.1//EN"
"http://www.w3.org/Graphics/SVG/1.1/DTD/svg11.dtd">
<svg viewBox="0 0 909 1286" version="1.1" xmlns="http://www.w3.org/2000/svg" xmlns:xlink="http://www.w3.org/1999/xlink">
<defs>
<clipPath id="c0_42"><path d="M96.4,1201.4v-15.5h33v15.5Z" /></clipPath>
<style type="text/css"><![CDATA[
.g0_42{
fill: none;
stroke: #000000;
stroke-width: 4.201389;
stroke-linecap: butt;
stroke-linejoin: round;
}
.g1_42{
fill: #5EB28E;
fill-opacity: 0.6;
}
.g2_42{
fill: #FFFFFF;
}
.g3_42{
}
]]></style>
</defs>
<path d="M841.2,1171.7H796.5" class="g0_42" />
<path fill-rule="evenodd" d="M111.9,1174c-11.5,0,-20.8,9.3,-20.8,20.8c0,11.5,9.3,20.8,20.8,20.8c11.5,0,20.8,-9.3,20.8,-20.8c0,-11.5,-9.3,-20.8,-20.8,-20.8Z" class="g1_42" />
<path d="M116.9,1199.3c0,.1,.2,.3,.4,.3q1.9,0,1.9,0c.1,0,.3,-.2,.3,-.3q0,-.7,0,-.7q0,-.1,0,-.1q0,-7.1,0,-7.1q0,-.1,0,-.1q0,-.7,0,-.7c0,-.2,-.2,-.4,-.3,-.4q-1.9,0,-1.9,0c-.2,0,-.4,.2,-.4,.4q0,.5,0,.5q0,7.6,0,7.6v.6Z" class="g2_42" />
<g clip-path="url(#c0_42)">
<path d="M115.7,1195.4q0,-4.8,0,-4.8c0,-.2,-.1,-.4,-.3,-.4q-2,0,-2,0c-.1,0,-.2,.2,-.2,.4q0,4.4,0,4.4c0,1.7,-1,2.5,-2,2.4c-1,.1,-2,-.7,-1.9,-2.4q0,-4.4,0,-4.4c0,-.2,-.1,-.4,-.3,-.4q-1.9,0,-1.9,0c-.2,0,-.3,.2,-.3,.4q0,3.6,0,3.6c-.4,-2.4,-2.6,-4.2,-5.2,-4.2c-2.9,0,-5.2,2.2,-5.2,5c0,2.7,2.3,4.9,5.2,4.9c.2,0,.8,0,.9,0q2.1,1.4,2.1,1.4c.2,.1,.4,.1,.4,-.2q0,-2.4,0,-2.4c.9,-.7,1.6,-1.8,1.8,-3.1c.1,2.9,2.3,4.3,4.4,4.2c2.2,.1,4.5,-1.4,4.5,-4.4Zm-14.1,2.2c-1.5,0,-2.8,-1.2,-2.8,-2.6c0,-1.5,1.3,-2.7,2.8,-2.7c1.5,0,2.8,1.2,2.8,2.7c0,1.4,-1.3,2.6,-2.8,2.6Z" class="g2_42" />
</g>
<path d="M118.2,1186.7c-.8,0,-1.4,.6,-1.4,1.4c0,.7,.6,1.3,1.4,1.3c.8,0,1.4,-.6,1.4,-1.3c0,-.8,-.6,-1.4,-1.4,-1.4Z" class="g2_42" />
<path d="M129.3,1199q-3.4,-4.4,-3.4,-4.4q3,-3.8,3,-3.8c.1,-.1,.1,-.5,-.1,-.6c-.5,0,-1.3,0,-2.2,0c-.1,0,-.2,.1,-.4,.3q-2.9,3.7,-2.9,3.7c0,-2.7,0,-5.4,0,-8c0,-.2,-.2,-.2,-.3,-.1c-.7,.4,-1.3,.9,-2,1.3c-.2,.1,-.2,.3,-.2,.5q0,.6,0,.6q0,.7,0,.7q0,.1,0,.1q0,9.2,0,9.2q0,.1,0,.1q0,.7,0,.7c0,.1,.1,.3,.2,.3q2,0,2,0c.1,0,.3,-.2,.3,-.3q0,-.6,0,-.6q0,-3.5,0,-3.5q3.2,4.2,3.2,4.2c.1,.2,.2,.2,.4,.2c.8,0,1.8,0,2.2,0c.3,-.1,.3,-.5,.2,-.6Z" class="g2_42" />
<path fill-rule="evenodd" d="M88,105.8h37.4v-4.6H88v4.6Z" class="g3_42" />
<path fill-rule="evenodd" d="M125.4,105.8H130v-4.6h-4.6v4.6Z" class="g3_42" />
<path fill-rule="evenodd" d="M130,105.8H278.9v-4.6H130v4.6Z" class="g3_42" />
<path fill-rule="evenodd" d="M278.9,105.8h4.6v-4.6h-4.6v4.6Z" class="g3_42" />
<path fill-rule="evenodd" d="M283.5,105.8H385.6v-4.6H283.5v4.6Z" class="g3_42" />
<path fill-rule="evenodd" d="M385.6,105.8h4.6v-4.6h-4.6v4.6Z" class="g3_42" />
<path fill-rule="evenodd" d="M390.2,105.8h457v-4.6h-457v4.6Z" class="g3_42" />
<path fill-rule="evenodd" d="M88,197.1h37.4v-.7H88v.7Z" class="g3_42" />
<path fill-rule="evenodd" d="M125.4,197.1h.8v-.7h-.8v.7Z" class="g3_42" />
<path fill-rule="evenodd" d="M126.2,197.1H278.9v-.7H126.2v.7Z" class="g3_42" />
<path fill-rule="evenodd" d="M278.9,197.1h.7v-.7h-.7v.7Z" class="g3_42" />
<path fill-rule="evenodd" d="M279.6,197.1h106v-.7h-106v.7Z" class="g3_42" />
<path fill-rule="evenodd" d="M385.6,197.1h.8v-.7h-.8v.7Z" class="g3_42" />
<path fill-rule="evenodd" d="M386.4,197.1H847.2v-.7H386.4v.7Z" class="g3_42" />
<path fill-rule="evenodd" d="M88,249.2h37.4v-.8H88v.8Z" class="g3_42" />
<path fill-rule="evenodd" d="M125.4,249.2h.8v-.8h-.8v.8Z" class="g3_42" />
<path fill-rule="evenodd" d="M126.2,249.2H278.9v-.8H126.2v.8Z" class="g3_42" />
<path fill-rule="evenodd" d="M278.9,249.2h.7v-.8h-.7v.8Z" class="g3_42" />
<path fill-rule="evenodd" d="M279.6,249.2h106v-.8h-106v.8Z" class="g3_42" />
<path fill-rule="evenodd" d="M385.6,249.2h.8v-.8h-.8v.8Z" class="g3_42" />
<path fill-rule="evenodd" d="M386.4,249.2H847.2v-.8H386.4v.8Z" class="g3_42" />
<path fill-rule="evenodd" d="M88,301.2h37.4v-.7H88v.7Z" class="g3_42" />
<path fill-rule="evenodd" d="M125.4,301.2h.8v-.7h-.8v.7Z" class="g3_42" />
<path fill-rule="evenodd" d="M126.2,301.2H278.9v-.7H126.2v.7Z" class="g3_42" />
<path fill-rule="evenodd" d="M278.9,301.2h.7v-.7h-.7v.7Z" class="g3_42" />
<path fill-rule="evenodd" d="M279.6,301.2h106v-.7h-106v.7Z" class="g3_42" />
<path fill-rule="evenodd" d="M385.6,301.2h.8v-.7h-.8v.7Z" class="g3_42" />
<path fill-rule="evenodd" d="M386.4,301.2H847.2v-.7H386.4v.7Z" class="g3_42" />
<path fill-rule="evenodd" d="M88,353.3h37.4v-.7H88v.7Z" class="g3_42" />
<path fill-rule="evenodd" d="M125.4,353.3h.8v-.7h-.8v.7Z" class="g3_42" />
<path fill-rule="evenodd" d="M126.2,353.3H278.9v-.7H126.2v.7Z" class="g3_42" />
<path fill-rule="evenodd" d="M278.9,353.3h.7v-.7h-.7v.7Z" class="g3_42" />
<path fill-rule="evenodd" d="M279.6,353.3h106v-.7h-106v.7Z" class="g3_42" />
<path fill-rule="evenodd" d="M385.6,353.3h.8v-.7h-.8v.7Z" class="g3_42" />
<path fill-rule="evenodd" d="M386.4,353.3H847.2v-.7H386.4v.7Z" class="g3_42" />
<path fill-rule="evenodd" d="M88,405.4h37.4v-.8H88v.8Z" class="g3_42" />
<path fill-rule="evenodd" d="M125.4,405.4h.8v-.8h-.8v.8Z" class="g3_42" />
<path fill-rule="evenodd" d="M126.2,405.4H278.9v-.8H126.2v.8Z" class="g3_42" />
<path fill-rule="evenodd" d="M278.9,405.4h.7v-.8h-.7v.8Z" class="g3_42" />
<path fill-rule="evenodd" d="M279.6,405.4h106v-.8h-106v.8Z" class="g3_42" />
<path fill-rule="evenodd" d="M385.6,405.4h.8v-.8h-.8v.8Z" class="g3_42" />
<path fill-rule="evenodd" d="M386.4,405.4H847.2v-.8H386.4v.8Z" class="g3_42" />
<path fill-rule="evenodd" d="M88,505.9h37.4v-.7H88v.7Z" class="g3_42" />
<path fill-rule="evenodd" d="M125.4,505.9h.8v-.7h-.8v.7Z" class="g3_42" />
<path fill-rule="evenodd" d="M126.2,505.9H278.9v-.7H126.2v.7Z" class="g3_42" />
<path fill-rule="evenodd" d="M278.9,505.9h.7v-.7h-.7v.7Z" class="g3_42" />
<path fill-rule="evenodd" d="M279.6,505.9h106v-.7h-106v.7Z" class="g3_42" />
<path fill-rule="evenodd" d="M385.6,505.9h.8v-.7h-.8v.7Z" class="g3_42" />
<path fill-rule="evenodd" d="M386.4,505.9H847.2v-.7H386.4v.7Z" class="g3_42" />
<path fill-rule="evenodd" d="M88,596.3h37.4v-.8H88v.8Z" class="g3_42" />
<path fill-rule="evenodd" d="M125.4,596.3h.8v-.8h-.8v.8Z" class="g3_42" />
<path fill-rule="evenodd" d="M126.2,596.3H278.9v-.8H126.2v.8Z" class="g3_42" />
<path fill-rule="evenodd" d="M278.9,596.3h.7v-.8h-.7v.8Z" class="g3_42" />
<path fill-rule="evenodd" d="M279.6,596.3h106v-.8h-106v.8Z" class="g3_42" />
<path fill-rule="evenodd" d="M385.6,596.3h.8v-.8h-.8v.8Z" class="g3_42" />
<path fill-rule="evenodd" d="M386.4,596.3H847.2v-.8H386.4v.8Z" class="g3_42" />
<path fill-rule="evenodd" d="M86.9,686.7h38.5v-.8H86.9v.8Z" class="g3_42" />
<path fill-rule="evenodd" d="M124.3,686.7h.8v-.8h-.8v.8Z" class="g3_42" />
<path fill-rule="evenodd" d="M125.1,686.7H278.9v-.8H125.1v.8Z" class="g3_42" />
<path fill-rule="evenodd" d="M277.8,686.7h.7v-.8h-.7v.8Z" class="g3_42" />
<path fill-rule="evenodd" d="M278.5,686.7H385.6v-.8H278.5v.8Z" class="g3_42" />
<path fill-rule="evenodd" d="M384.5,686.7h.8v-.8h-.8v.8Z" class="g3_42" />
<path fill-rule="evenodd" d="M385.3,686.7H847.2v-.8H385.3v.8Z" class="g3_42" />
</svg>