<?xml version="1.0" encoding="UTF-8" standalone="no"?>
<!DOCTYPE svg PUBLIC "-//W3C//DTD SVG 1.1//EN"
"http://www.w3.org/Graphics/SVG/1.1/DTD/svg11.dtd">
<svg viewBox="0 0 909 1286" version="1.1" xmlns="http://www.w3.org/2000/svg" xmlns:xlink="http://www.w3.org/1999/xlink">
<defs>
<clipPath id="c0_72"><path d="M96.4,1201.4v-15.5h33v15.5Z" /></clipPath>
<style type="text/css"><![CDATA[
.g0_72{
fill: none;
stroke: #000000;
stroke-width: 4.201389;
stroke-linecap: butt;
stroke-linejoin: round;
}
.g1_72{
fill: #5EB28E;
fill-opacity: 0.6;
}
.g2_72{
fill: #FFFFFF;
}
.g3_72{
}
.g4_72{
fill: #16AAD3;
}
]]></style>
</defs>
<path d="M841.2,1171.7H796.5" class="g0_72" />
<path fill-rule="evenodd" d="M111.9,1174c-11.5,0,-20.8,9.3,-20.8,20.8c0,11.5,9.3,20.8,20.8,20.8c11.5,0,20.8,-9.3,20.8,-20.8c0,-11.5,-9.3,-20.8,-20.8,-20.8Z" class="g1_72" />
<path d="M116.9,1199.3c0,.1,.2,.3,.4,.3q1.9,0,1.9,0c.1,0,.3,-.2,.3,-.3q0,-.7,0,-.7q0,-.1,0,-.1q0,-7.1,0,-7.1q0,-.1,0,-.1q0,-.7,0,-.7c0,-.2,-.2,-.4,-.3,-.4q-1.9,0,-1.9,0c-.2,0,-.4,.2,-.4,.4q0,.5,0,.5q0,7.6,0,7.6v.6Z" class="g2_72" />
<g clip-path="url(#c0_72)">
<path d="M115.7,1195.4q0,-4.8,0,-4.8c0,-.2,-.1,-.4,-.3,-.4q-2,0,-2,0c-.1,0,-.2,.2,-.2,.4q0,4.4,0,4.4c0,1.7,-1,2.5,-2,2.4c-1,.1,-2,-.7,-1.9,-2.4q0,-4.4,0,-4.4c0,-.2,-.1,-.4,-.3,-.4q-1.9,0,-1.9,0c-.2,0,-.3,.2,-.3,.4q0,3.6,0,3.6c-.4,-2.4,-2.6,-4.2,-5.2,-4.2c-2.9,0,-5.2,2.2,-5.2,5c0,2.7,2.3,4.9,5.2,4.9c.2,0,.8,0,.9,0q2.1,1.4,2.1,1.4c.2,.1,.4,.1,.4,-.2q0,-2.4,0,-2.4c.9,-.7,1.6,-1.8,1.8,-3.1c.1,2.9,2.3,4.3,4.4,4.2c2.2,.1,4.5,-1.4,4.5,-4.4Zm-14.1,2.2c-1.5,0,-2.8,-1.2,-2.8,-2.6c0,-1.5,1.3,-2.7,2.8,-2.7c1.5,0,2.8,1.2,2.8,2.7c0,1.4,-1.3,2.6,-2.8,2.6Z" class="g2_72" />
</g>
<path d="M118.2,1186.7c-.8,0,-1.4,.6,-1.4,1.4c0,.7,.6,1.3,1.4,1.3c.8,0,1.4,-.6,1.4,-1.3c0,-.8,-.6,-1.4,-1.4,-1.4Z" class="g2_72" />
<path d="M129.3,1199q-3.4,-4.4,-3.4,-4.4q3,-3.8,3,-3.8c.1,-.1,.1,-.5,-.1,-.6c-.5,0,-1.3,0,-2.2,0c-.1,0,-.2,.1,-.4,.3q-2.9,3.7,-2.9,3.7c0,-2.7,0,-5.4,0,-8c0,-.2,-.2,-.2,-.3,-.1c-.7,.4,-1.3,.9,-2,1.3c-.2,.1,-.2,.3,-.2,.5q0,.6,0,.6q0,.7,0,.7q0,.1,0,.1q0,9.2,0,9.2q0,.1,0,.1q0,.7,0,.7c0,.1,.1,.3,.2,.3q2,0,2,0c.1,0,.3,-.2,.3,-.3q0,-.6,0,-.6q0,-3.5,0,-3.5q3.2,4.2,3.2,4.2c.1,.2,.2,.2,.4,.2c.8,0,1.8,0,2.2,0c.3,-.1,.3,-.5,.2,-.6Z" class="g2_72" />
<path fill-rule="evenodd" d="M88,192.3H284.8v-4.5H88v4.5Z" class="g3_72" />
<path fill-rule="evenodd" d="M284.8,192.3h4.6v-4.5h-4.6v4.5Z" class="g3_72" />
<path fill-rule="evenodd" d="M289.4,192.3H393.7v-4.5H289.4v4.5Z" class="g3_72" />
<path fill-rule="evenodd" d="M393.7,192.3h4.6v-4.5h-4.6v4.5Z" class="g3_72" />
<path fill-rule="evenodd" d="M398.3,192.3H846.2v-4.5H398.3v4.5Z" class="g3_72" />
<path fill-rule="evenodd" d="M88,226.8H284.8v-.7H88v.7Z" class="g3_72" />
<path fill-rule="evenodd" d="M284.8,226.8h.7v-.7h-.7v.7Z" class="g3_72" />
<path fill-rule="evenodd" d="M285.5,226.8H393.7v-.7H285.5v.7Z" class="g3_72" />
<path fill-rule="evenodd" d="M393.7,226.8h.7v-.7h-.7v.7Z" class="g3_72" />
<path fill-rule="evenodd" d="M394.4,226.8H846.2v-.7H394.4v.7Z" class="g3_72" />
<path fill-rule="evenodd" d="M88,261.3H284.8v-.8H88v.8Z" class="g3_72" />
<path fill-rule="evenodd" d="M284.8,261.3h.7v-.8h-.7v.8Z" class="g3_72" />
<path fill-rule="evenodd" d="M285.5,261.3H393.7v-.8H285.5v.8Z" class="g3_72" />
<path fill-rule="evenodd" d="M393.7,261.3h.7v-.8h-.7v.8Z" class="g3_72" />
<path fill-rule="evenodd" d="M394.4,261.3H846.2v-.8H394.4v.8Z" class="g3_72" />
<path fill-rule="evenodd" d="M88,295.9H284.8v-.7H88v.7Z" class="g3_72" />
<path fill-rule="evenodd" d="M284.8,295.9h.7v-.7h-.7v.7Z" class="g3_72" />
<path fill-rule="evenodd" d="M285.5,295.9H393.7v-.7H285.5v.7Z" class="g3_72" />
<path fill-rule="evenodd" d="M393.7,295.9h.7v-.7h-.7v.7Z" class="g3_72" />
<path fill-rule="evenodd" d="M394.4,295.9H846.2v-.7H394.4v.7Z" class="g3_72" />
<path fill-rule="evenodd" d="M88,330.4H284.8v-.7H88v.7Z" class="g3_72" />
<path fill-rule="evenodd" d="M284.8,330.4h.7v-.7h-.7v.7Z" class="g3_72" />
<path fill-rule="evenodd" d="M285.5,330.4H393.7v-.7H285.5v.7Z" class="g3_72" />
<path fill-rule="evenodd" d="M393.7,330.4h.7v-.7h-.7v.7Z" class="g3_72" />
<path fill-rule="evenodd" d="M394.4,330.4H846.2v-.7H394.4v.7Z" class="g3_72" />
<path fill-rule="evenodd" d="M88,364.9H284.8v-.8H88v.8Z" class="g3_72" />
<path fill-rule="evenodd" d="M284.8,364.9h.7v-.8h-.7v.8Z" class="g3_72" />
<path fill-rule="evenodd" d="M285.5,364.9H393.7v-.8H285.5v.8Z" class="g3_72" />
<path fill-rule="evenodd" d="M393.7,364.9h.7v-.8h-.7v.8Z" class="g3_72" />
<path fill-rule="evenodd" d="M394.4,364.9H846.2v-.8H394.4v.8Z" class="g3_72" />
<path fill-rule="evenodd" d="M88,399.3H284.8v-.7H88v.7Z" class="g3_72" />
<path fill-rule="evenodd" d="M284.8,399.3h.7v-.7h-.7v.7Z" class="g3_72" />
<path fill-rule="evenodd" d="M285.5,399.3H393.7v-.7H285.5v.7Z" class="g3_72" />
<path fill-rule="evenodd" d="M393.7,399.3h.7v-.7h-.7v.7Z" class="g3_72" />
<path fill-rule="evenodd" d="M394.4,399.3H846.2v-.7H394.4v.7Z" class="g3_72" />
<path fill-rule="evenodd" d="M88,433.8H284.8v-.7H88v.7Z" class="g3_72" />
<path fill-rule="evenodd" d="M284.8,433.8h.7v-.7h-.7v.7Z" class="g3_72" />
<path fill-rule="evenodd" d="M285.5,433.8H393.7v-.7H285.5v.7Z" class="g3_72" />
<path fill-rule="evenodd" d="M393.7,433.8h.7v-.7h-.7v.7Z" class="g3_72" />
<path fill-rule="evenodd" d="M394.4,433.8H846.2v-.7H394.4v.7Z" class="g3_72" />
<path fill-rule="evenodd" d="M88,468.5H284.8v-.7H88v.7Z" class="g3_72" />
<path fill-rule="evenodd" d="M284.8,468.5h.7v-.7h-.7v.7Z" class="g3_72" />
<path fill-rule="evenodd" d="M285.5,468.5H393.7v-.7H285.5v.7Z" class="g3_72" />
<path fill-rule="evenodd" d="M393.7,468.5h.7v-.7h-.7v.7Z" class="g3_72" />
<path fill-rule="evenodd" d="M394.4,468.5H846.2v-.7H394.4v.7Z" class="g3_72" />
<path fill-rule="evenodd" d="M88,503H284.8v-.8H88v.8Z" class="g3_72" />
<path fill-rule="evenodd" d="M284.8,503h.7v-.8h-.7v.8Z" class="g3_72" />
<path fill-rule="evenodd" d="M285.5,503H393.7v-.8H285.5v.8Z" class="g3_72" />
<path fill-rule="evenodd" d="M393.7,503h.7v-.8h-.7v.8Z" class="g3_72" />
<path fill-rule="evenodd" d="M394.4,503H846.2v-.8H394.4v.8Z" class="g3_72" />
<path fill-rule="evenodd" d="M88,537.4H284.8v-.7H88v.7Z" class="g3_72" />
<path fill-rule="evenodd" d="M284.8,537.4h.7v-.7h-.7v.7Z" class="g3_72" />
<path fill-rule="evenodd" d="M285.5,537.4H393.7v-.7H285.5v.7Z" class="g3_72" />
<path fill-rule="evenodd" d="M393.7,537.4h.7v-.7h-.7v.7Z" class="g3_72" />
<path fill-rule="evenodd" d="M394.4,537.4H846.2v-.7H394.4v.7Z" class="g3_72" />
<path fill-rule="evenodd" d="M88,571.9H284.8v-.7H88v.7Z" class="g3_72" />
<path fill-rule="evenodd" d="M284.8,571.9h.7v-.7h-.7v.7Z" class="g3_72" />
<path fill-rule="evenodd" d="M285.5,571.9H393.7v-.7H285.5v.7Z" class="g3_72" />
<path fill-rule="evenodd" d="M393.7,571.9h.7v-.7h-.7v.7Z" class="g3_72" />
<path fill-rule="evenodd" d="M394.4,571.9H846.2v-.7H394.4v.7Z" class="g3_72" />
<path fill-rule="evenodd" d="M88,606.5H284.8v-.7H88v.7Z" class="g3_72" />
<path fill-rule="evenodd" d="M284.8,606.5h.7v-.7h-.7v.7Z" class="g3_72" />
<path fill-rule="evenodd" d="M285.5,606.5H393.7v-.7H285.5v.7Z" class="g3_72" />
<path fill-rule="evenodd" d="M393.7,606.5h.7v-.7h-.7v.7Z" class="g3_72" />
<path fill-rule="evenodd" d="M394.4,606.5H846.2v-.7H394.4v.7Z" class="g3_72" />
<path fill-rule="evenodd" d="M88,641H284.8v-.7H88v.7Z" class="g3_72" />
<path fill-rule="evenodd" d="M284.8,641h.7v-.7h-.7v.7Z" class="g3_72" />
<path fill-rule="evenodd" d="M285.5,641H393.7v-.7H285.5v.7Z" class="g3_72" />
<path fill-rule="evenodd" d="M393.7,641h.7v-.7h-.7v.7Z" class="g3_72" />
<path fill-rule="evenodd" d="M394.4,641H846.2v-.7H394.4v.7Z" class="g3_72" />
<path fill-rule="evenodd" d="M88,675.5H284.8v-.8H88v.8Z" class="g3_72" />
<path fill-rule="evenodd" d="M284.8,675.5h.7v-.8h-.7v.8Z" class="g3_72" />
<path fill-rule="evenodd" d="M285.5,675.5H393.7v-.8H285.5v.8Z" class="g3_72" />
<path fill-rule="evenodd" d="M393.7,675.5h.7v-.8h-.7v.8Z" class="g3_72" />
<path fill-rule="evenodd" d="M394.4,675.5H846.2v-.8H394.4v.8Z" class="g3_72" />
<path fill-rule="evenodd" d="M88,710H284.8v-.8H88v.8Z" class="g3_72" />
<path fill-rule="evenodd" d="M284.8,710h.7v-.8h-.7v.8Z" class="g3_72" />
<path fill-rule="evenodd" d="M285.5,710H393.7v-.8H285.5v.8Z" class="g3_72" />
<path fill-rule="evenodd" d="M393.7,710h.7v-.8h-.7v.8Z" class="g3_72" />
<path fill-rule="evenodd" d="M394.4,710H846.2v-.8H394.4v.8Z" class="g3_72" />
<path fill-rule="evenodd" d="M88,744.4H284.8v-.7H88v.7Z" class="g3_72" />
<path fill-rule="evenodd" d="M284.8,744.4h.7v-.7h-.7v.7Z" class="g3_72" />
<path fill-rule="evenodd" d="M285.5,744.4H393.7v-.7H285.5v.7Z" class="g3_72" />
<path fill-rule="evenodd" d="M393.7,744.4h.7v-.7h-.7v.7Z" class="g3_72" />
<path fill-rule="evenodd" d="M394.4,744.4H846.2v-.7H394.4v.7Z" class="g3_72" />
<path fill-rule="evenodd" d="M88,779.1H284.8v-.7H88v.7Z" class="g3_72" />
<path fill-rule="evenodd" d="M284.8,779.1h.7v-.7h-.7v.7Z" class="g3_72" />
<path fill-rule="evenodd" d="M285.5,779.1H393.7v-.7H285.5v.7Z" class="g3_72" />
<path fill-rule="evenodd" d="M393.7,779.1h.7v-.7h-.7v.7Z" class="g3_72" />
<path fill-rule="evenodd" d="M394.4,779.1H846.2v-.7H394.4v.7Z" class="g3_72" />
<path fill-rule="evenodd" d="M86.9,813.6H284.8v-.8H86.9v.8Z" class="g3_72" />
<path fill-rule="evenodd" d="M283.6,813.6h.8v-.8h-.8v.8Z" class="g3_72" />
<path fill-rule="evenodd" d="M284.4,813.6H393.7v-.8H284.4v.8Z" class="g3_72" />
<path fill-rule="evenodd" d="M392.6,813.6h.7v-.8h-.7v.8Z" class="g3_72" />
<path fill-rule="evenodd" d="M393.3,813.6H846.2v-.8H393.3v.8Z" class="g3_72" />
<path fill-rule="evenodd" d="M88,981.3H361.4v-4.6H88v4.6Z" class="g3_72" />
<path fill-rule="evenodd" d="M361.4,981.3H366v-4.6h-4.6v4.6Z" class="g3_72" />
<path fill-rule="evenodd" d="M366,981.3h66v-4.6H366v4.6Z" class="g3_72" />
<path fill-rule="evenodd" d="M432,981.3h4.6v-4.6H432v4.6Z" class="g3_72" />
<path fill-rule="evenodd" d="M436.6,981.3H846.2v-4.6H436.6v4.6Z" class="g3_72" />
<path fill-rule="evenodd" d="M88,1015.8H361.4v-.7H88v.7Z" class="g3_72" />
<path fill-rule="evenodd" d="M361.4,1015.8h.8v-.7h-.8v.7Z" class="g3_72" />
<path fill-rule="evenodd" d="M362.2,1015.8H432v-.7H362.2v.7Z" class="g3_72" />
<path fill-rule="evenodd" d="M432,1015.8h.7v-.7H432v.7Z" class="g3_72" />
<path fill-rule="evenodd" d="M432.7,1015.8H846.2v-.7H432.7v.7Z" class="g3_72" />
<path fill-rule="evenodd" d="M440.6,1073.8H586v-1H440.6v1Z" class="g4_72" />
<path fill-rule="evenodd" d="M88,1050.3H361.4v-.7H88v.7Z" class="g3_72" />
<path fill-rule="evenodd" d="M361.4,1050.3h.8v-.7h-.8v.7Z" class="g3_72" />
<path fill-rule="evenodd" d="M362.2,1050.3H432v-.7H362.2v.7Z" class="g3_72" />
<path fill-rule="evenodd" d="M432,1050.3h.7v-.7H432v.7Z" class="g3_72" />
<path fill-rule="evenodd" d="M432.7,1050.3H846.2v-.7H432.7v.7Z" class="g3_72" />
<path fill-rule="evenodd" d="M88,1084.8H361.4v-.8H88v.8Z" class="g3_72" />
<path fill-rule="evenodd" d="M361.4,1084.8h.8v-.8h-.8v.8Z" class="g3_72" />
<path fill-rule="evenodd" d="M362.2,1084.8H432v-.8H362.2v.8Z" class="g3_72" />
<path fill-rule="evenodd" d="M432,1084.8h.7v-.8H432v.8Z" class="g3_72" />
<path fill-rule="evenodd" d="M432.7,1084.8H846.2v-.8H432.7v.8Z" class="g3_72" />
<path fill-rule="evenodd" d="M86.9,1119.4H361.4v-.7H86.9v.7Z" class="g3_72" />
<path fill-rule="evenodd" d="M360.3,1119.4h.8v-.7h-.8v.7Z" class="g3_72" />
<path fill-rule="evenodd" d="M361.1,1119.4H432v-.7H361.1v.7Z" class="g3_72" />
<path fill-rule="evenodd" d="M430.9,1119.4h.7v-.7h-.7v.7Z" class="g3_72" />
<path fill-rule="evenodd" d="M431.6,1119.4H846.2v-.7H431.6v.7Z" class="g3_72" />
</svg>