<?xml version="1.0" encoding="UTF-8" standalone="no"?>
<!DOCTYPE svg PUBLIC "-//W3C//DTD SVG 1.1//EN"
"http://www.w3.org/Graphics/SVG/1.1/DTD/svg11.dtd">
<svg viewBox="0 0 909 1286" version="1.1" xmlns="http://www.w3.org/2000/svg" xmlns:xlink="http://www.w3.org/1999/xlink">
<defs>
<style type="text/css"><![CDATA[
.g0_3{
fill: #D3D3D3;
}
.g1_3{
fill: #F8F8F8;
}
]]></style>
</defs>
<image preserveAspectRatio="none" x="130" y="1222" width="83" height="28" xlink:href="img/1.png" />
<image preserveAspectRatio="none" x="323" y="86" width="329" height="296" xlink:href="img/2.png" />
<path fill-rule="evenodd" d="M127.8,651.8H847v-.3H127.8v.3Z" class="g0_3" />
<path fill-rule="evenodd" d="M163.6,718.6H847V692.9H163.6v25.7Z" class="g1_3" />
<path fill-rule="evenodd" d="M160.3,692.9H847v-.7H160.3v.7Z" class="g0_3" />
<path fill-rule="evenodd" d="M847,692.9h.7v-.7H847v.7Z" class="g0_3" />
<path fill-rule="evenodd" d="M847,692.9h.7v-.7H847v.7Z" class="g0_3" />
<path fill-rule="evenodd" d="M160.3,718.6h3.3V692.9h-3.3v25.7Z" class="g0_3" />
<path fill-rule="evenodd" d="M847,718.6h.7V692.9H847v25.7Z" class="g0_3" />
<path fill-rule="evenodd" d="M163.6,735.1H847V718.6H163.6v16.5Z" class="g1_3" />
<path fill-rule="evenodd" d="M160.3,735.1h3.3V718.6h-3.3v16.5Z" class="g0_3" />
<path fill-rule="evenodd" d="M847,735.1h.7V718.6H847v16.5Z" class="g0_3" />
<path fill-rule="evenodd" d="M163.6,751.4H847V735.1H163.6v16.3Z" class="g1_3" />
<path fill-rule="evenodd" d="M160.3,751.4h3.3V735.1h-3.3v16.3Z" class="g0_3" />
<path fill-rule="evenodd" d="M847,751.4h.7V735.1H847v16.3Z" class="g0_3" />
<path fill-rule="evenodd" d="M163.6,767.9H847V751.4H163.6v16.5Z" class="g1_3" />
<path fill-rule="evenodd" d="M160.3,767.9h3.3V751.4h-3.3v16.5Z" class="g0_3" />
<path fill-rule="evenodd" d="M847,767.9h.7V751.4H847v16.5Z" class="g0_3" />
<path fill-rule="evenodd" d="M163.6,784.4H847V767.9H163.6v16.5Z" class="g1_3" />
<path fill-rule="evenodd" d="M160.3,784.4h3.3V767.9h-3.3v16.5Z" class="g0_3" />
<path fill-rule="evenodd" d="M847,784.4h.7V767.9H847v16.5Z" class="g0_3" />
<path fill-rule="evenodd" d="M163.6,800.9H847V784.4H163.6v16.5Z" class="g1_3" />
<path fill-rule="evenodd" d="M160.3,800.9h3.3V784.4h-3.3v16.5Z" class="g0_3" />
<path fill-rule="evenodd" d="M847,800.9h.7V784.4H847v16.5Z" class="g0_3" />
<path fill-rule="evenodd" d="M163.6,817.4H847V800.9H163.6v16.5Z" class="g1_3" />
<path fill-rule="evenodd" d="M160.3,817.4h3.3V800.9h-3.3v16.5Z" class="g0_3" />
<path fill-rule="evenodd" d="M847,817.4h.7V800.9H847v16.5Z" class="g0_3" />
<path fill-rule="evenodd" d="M163.6,833.9H847V817.4H163.6v16.5Z" class="g1_3" />
<path fill-rule="evenodd" d="M160.3,833.9h3.3V817.4h-3.3v16.5Z" class="g0_3" />
<path fill-rule="evenodd" d="M847,833.9h.7V817.4H847v16.5Z" class="g0_3" />
<path fill-rule="evenodd" d="M163.6,850.2H847V833.9H163.6v16.3Z" class="g1_3" />
<path fill-rule="evenodd" d="M160.3,850.2h3.3V833.9h-3.3v16.3Z" class="g0_3" />
<path fill-rule="evenodd" d="M847,850.2h.7V833.9H847v16.3Z" class="g0_3" />
<path fill-rule="evenodd" d="M163.6,866.7H847V850.2H163.6v16.5Z" class="g1_3" />
<path fill-rule="evenodd" d="M160.3,866.7h3.3V850.2h-3.3v16.5Z" class="g0_3" />
<path fill-rule="evenodd" d="M847,866.7h.7V850.2H847v16.5Z" class="g0_3" />
<path fill-rule="evenodd" d="M163.6,883.2H847V866.7H163.6v16.5Z" class="g1_3" />
<path fill-rule="evenodd" d="M160.3,883.2h3.3V866.7h-3.3v16.5Z" class="g0_3" />
<path fill-rule="evenodd" d="M847,883.2h.7V866.7H847v16.5Z" class="g0_3" />
<path fill-rule="evenodd" d="M163.6,899.7H847V883.2H163.6v16.5Z" class="g1_3" />
<path fill-rule="evenodd" d="M160.3,899.7h3.3V883.2h-3.3v16.5Z" class="g0_3" />
<path fill-rule="evenodd" d="M847,899.7h.7V883.2H847v16.5Z" class="g0_3" />
<path fill-rule="evenodd" d="M163.6,916.2H847V899.7H163.6v16.5Z" class="g1_3" />
<path fill-rule="evenodd" d="M160.3,916.2h3.3V899.7h-3.3v16.5Z" class="g0_3" />
<path fill-rule="evenodd" d="M847,916.2h.7V899.7H847v16.5Z" class="g0_3" />
<path fill-rule="evenodd" d="M163.6,932.7H847V916.2H163.6v16.5Z" class="g1_3" />
<path fill-rule="evenodd" d="M160.3,932.7h3.3V916.2h-3.3v16.5Z" class="g0_3" />
<path fill-rule="evenodd" d="M847,932.7h.7V916.2H847v16.5Z" class="g0_3" />
<path fill-rule="evenodd" d="M163.6,949H847V932.7H163.6V949Z" class="g1_3" />
<path fill-rule="evenodd" d="M160.3,949h3.3V932.7h-3.3V949Z" class="g0_3" />
<path fill-rule="evenodd" d="M847,949h.7V932.7H847V949Z" class="g0_3" />
<path fill-rule="evenodd" d="M163.6,965.5H847V949H163.6v16.5Z" class="g1_3" />
<path fill-rule="evenodd" d="M160.3,965.5h3.3V949h-3.3v16.5Z" class="g0_3" />
<path fill-rule="evenodd" d="M847,965.5h.7V949H847v16.5Z" class="g0_3" />
<path fill-rule="evenodd" d="M163.6,982H847V965.5H163.6V982Z" class="g1_3" />
<path fill-rule="evenodd" d="M160.3,982h3.3V965.5h-3.3V982Z" class="g0_3" />
<path fill-rule="evenodd" d="M847,982h.7V965.5H847V982Z" class="g0_3" />
<path fill-rule="evenodd" d="M163.6,998.6H847V982H163.6v16.6Z" class="g1_3" />
<path fill-rule="evenodd" d="M160.3,998.6h3.3V982h-3.3v16.6Z" class="g0_3" />
<path fill-rule="evenodd" d="M847,998.6h.7V982H847v16.6Z" class="g0_3" />
<path fill-rule="evenodd" d="M163.6,1015.1H847V998.6H163.6v16.5Z" class="g1_3" />
<path fill-rule="evenodd" d="M160.3,1015.1h3.3V998.6h-3.3v16.5Z" class="g0_3" />
<path fill-rule="evenodd" d="M847,1015.1h.7V998.6H847v16.5Z" class="g0_3" />
<path fill-rule="evenodd" d="M163.6,1031.6H847v-16.5H163.6v16.5Z" class="g1_3" />
<path fill-rule="evenodd" d="M160.3,1031.6h3.3v-16.5h-3.3v16.5Z" class="g0_3" />
<path fill-rule="evenodd" d="M847,1031.6h.7v-16.5H847v16.5Z" class="g0_3" />
<path fill-rule="evenodd" d="M163.6,1057.3H847v-25.7H163.6v25.7Z" class="g1_3" />
<path fill-rule="evenodd" d="M160.3,1058H847v-.7H160.3v.7Z" class="g0_3" />
<path fill-rule="evenodd" d="M847,1058h.7v-.7H847v.7Z" class="g0_3" />
<path fill-rule="evenodd" d="M847,1058h.7v-.7H847v.7Z" class="g0_3" />
<path fill-rule="evenodd" d="M160.3,1057.3h3.3v-25.7h-3.3v25.7Z" class="g0_3" />
<path fill-rule="evenodd" d="M847,1057.3h.7v-25.7H847v25.7Z" class="g0_3" />
</svg>