<?xml version="1.0" encoding="UTF-8" standalone="no"?>
<!DOCTYPE svg PUBLIC "-//W3C//DTD SVG 1.1//EN"
"http://www.w3.org/Graphics/SVG/1.1/DTD/svg11.dtd">
<svg viewBox="0 0 909 1286" version="1.1" xmlns="http://www.w3.org/2000/svg" xmlns:xlink="http://www.w3.org/1999/xlink">
<defs>
<clipPath id="c0_32"><path d="M96.4,1201.4v-15.5h33v15.5Z" /></clipPath>
<style type="text/css"><![CDATA[
.g0_32{
fill: none;
stroke: #000000;
stroke-width: 4.201389;
stroke-linecap: butt;
stroke-linejoin: round;
}
.g1_32{
fill: #5EB28E;
fill-opacity: 0.6;
}
.g2_32{
fill: #FFFFFF;
}
.g3_32{
}
.g4_32{
fill: #F1F1F1;
}
]]></style>
</defs>
<path d="M841.2,1171.7H796.5" class="g0_32" />
<path fill-rule="evenodd" d="M111.9,1174c-11.5,0,-20.8,9.3,-20.8,20.8c0,11.5,9.3,20.8,20.8,20.8c11.5,0,20.8,-9.3,20.8,-20.8c0,-11.5,-9.3,-20.8,-20.8,-20.8Z" class="g1_32" />
<path d="M116.9,1199.3c0,.1,.2,.3,.4,.3q1.9,0,1.9,0c.1,0,.3,-.2,.3,-.3q0,-.7,0,-.7q0,-.1,0,-.1q0,-7.1,0,-7.1q0,-.1,0,-.1q0,-.7,0,-.7c0,-.2,-.2,-.4,-.3,-.4q-1.9,0,-1.9,0c-.2,0,-.4,.2,-.4,.4q0,.5,0,.5q0,7.6,0,7.6v.6Z" class="g2_32" />
<g clip-path="url(#c0_32)">
<path d="M115.7,1195.4q0,-4.8,0,-4.8c0,-.2,-.1,-.4,-.3,-.4q-2,0,-2,0c-.1,0,-.2,.2,-.2,.4q0,4.4,0,4.4c0,1.7,-1,2.5,-2,2.4c-1,.1,-2,-.7,-1.9,-2.4q0,-4.4,0,-4.4c0,-.2,-.1,-.4,-.3,-.4q-1.9,0,-1.9,0c-.2,0,-.3,.2,-.3,.4q0,3.6,0,3.6c-.4,-2.4,-2.6,-4.2,-5.2,-4.2c-2.9,0,-5.2,2.2,-5.2,5c0,2.7,2.3,4.9,5.2,4.9c.2,0,.8,0,.9,0q2.1,1.4,2.1,1.4c.2,.1,.4,.1,.4,-.2q0,-2.4,0,-2.4c.9,-.7,1.6,-1.8,1.8,-3.1c.1,2.9,2.3,4.3,4.4,4.2c2.2,.1,4.5,-1.4,4.5,-4.4Zm-14.1,2.2c-1.5,0,-2.8,-1.2,-2.8,-2.6c0,-1.5,1.3,-2.7,2.8,-2.7c1.5,0,2.8,1.2,2.8,2.7c0,1.4,-1.3,2.6,-2.8,2.6Z" class="g2_32" />
</g>
<path d="M118.2,1186.7c-.8,0,-1.4,.6,-1.4,1.4c0,.7,.6,1.3,1.4,1.3c.8,0,1.4,-.6,1.4,-1.3c0,-.8,-.6,-1.4,-1.4,-1.4Z" class="g2_32" />
<path d="M129.3,1199q-3.4,-4.4,-3.4,-4.4q3,-3.8,3,-3.8c.1,-.1,.1,-.5,-.1,-.6c-.5,0,-1.3,0,-2.2,0c-.1,0,-.2,.1,-.4,.3q-2.9,3.7,-2.9,3.7c0,-2.7,0,-5.4,0,-8c0,-.2,-.2,-.2,-.3,-.1c-.7,.4,-1.3,.9,-2,1.3c-.2,.1,-.2,.3,-.2,.5q0,.6,0,.6q0,.7,0,.7q0,.1,0,.1q0,9.2,0,9.2q0,.1,0,.1q0,.7,0,.7c0,.1,.1,.3,.2,.3q2,0,2,0c.1,0,.3,-.2,.3,-.3q0,-.6,0,-.6q0,-3.5,0,-3.5q3.2,4.2,3.2,4.2c.1,.2,.2,.2,.4,.2c.8,0,1.8,0,2.2,0c.3,-.1,.3,-.5,.2,-.6Z" class="g2_32" />
<path fill-rule="evenodd" d="M108.9,651.3h4.6V627.1h-4.6v24.2Z" class="g3_32" />
<path fill-rule="evenodd" d="M108.9,675.5h4.6V651.3h-4.6v24.2Z" class="g3_32" />
<path fill-rule="evenodd" d="M108.9,699.5h4.6v-24h-4.6v24Z" class="g3_32" />
<path fill-rule="evenodd" d="M133.7,809.9H845.9V785.5H133.7v24.4Z" class="g4_32" />
<path fill-rule="evenodd" d="M124.5,785.5h9.2v-9.2h-9.2v9.2Z" class="g4_32" />
<path fill-rule="evenodd" d="M124.5,785.5h9.2v-9.2h-9.2v9.2Z" class="g4_32" />
<path fill-rule="evenodd" d="M133.7,785.5H845.9v-9.2H133.7v9.2Z" class="g4_32" />
<path fill-rule="evenodd" d="M124.5,809.9h9.2V785.5h-9.2v24.4Z" class="g4_32" />
<path fill-rule="evenodd" d="M133.7,832.8H845.9V809.9H133.7v22.9Z" class="g4_32" />
<path fill-rule="evenodd" d="M124.5,832.8h9.2V809.9h-9.2v22.9Z" class="g4_32" />
<path fill-rule="evenodd" d="M133.7,855.7H845.9V832.8H133.7v22.9Z" class="g4_32" />
<path fill-rule="evenodd" d="M124.5,855.7h9.2V832.8h-9.2v22.9Z" class="g4_32" />
<path fill-rule="evenodd" d="M133.7,878.6H845.9V855.7H133.7v22.9Z" class="g4_32" />
<path fill-rule="evenodd" d="M124.5,878.6h9.2V855.7h-9.2v22.9Z" class="g4_32" />
<path fill-rule="evenodd" d="M133.7,901.6H845.9v-23H133.7v23Z" class="g4_32" />
<path fill-rule="evenodd" d="M124.5,901.6h9.2v-23h-9.2v23Z" class="g4_32" />
<path fill-rule="evenodd" d="M133.7,924.5H845.9V901.6H133.7v22.9Z" class="g4_32" />
<path fill-rule="evenodd" d="M124.5,924.5h9.2V901.6h-9.2v22.9Z" class="g4_32" />
<path fill-rule="evenodd" d="M133.7,947.4H845.9V924.5H133.7v22.9Z" class="g4_32" />
<path fill-rule="evenodd" d="M124.5,947.4h9.2V924.5h-9.2v22.9Z" class="g4_32" />
<path fill-rule="evenodd" d="M133.7,970.3H845.9V947.4H133.7v22.9Z" class="g4_32" />
<path fill-rule="evenodd" d="M124.5,970.3h9.2V947.4h-9.2v22.9Z" class="g4_32" />
<path fill-rule="evenodd" d="M133.7,993.3H845.9v-23H133.7v23Z" class="g4_32" />
<path fill-rule="evenodd" d="M124.5,993.3h9.2v-23h-9.2v23Z" class="g4_32" />
<path fill-rule="evenodd" d="M133.7,1016.2H845.9V993.3H133.7v22.9Z" class="g4_32" />
<path fill-rule="evenodd" d="M124.5,1016.2h9.2V993.3h-9.2v22.9Z" class="g4_32" />
<path fill-rule="evenodd" d="M133.7,1039.1H845.9v-22.9H133.7v22.9Z" class="g4_32" />
<path fill-rule="evenodd" d="M124.5,1039.1h9.2v-22.9h-9.2v22.9Z" class="g4_32" />
<path fill-rule="evenodd" d="M133.7,1063.5H845.9v-24.4H133.7v24.4Z" class="g4_32" />
<path fill-rule="evenodd" d="M124.5,1072.7h9.2v-9.2h-9.2v9.2Z" class="g4_32" />
<path fill-rule="evenodd" d="M124.5,1072.7h9.2v-9.2h-9.2v9.2Z" class="g4_32" />
<path fill-rule="evenodd" d="M133.7,1072.7H845.9v-9.2H133.7v9.2Z" class="g4_32" />
<path fill-rule="evenodd" d="M124.5,1063.5h9.2v-24.4h-9.2v24.4Z" class="g4_32" />
</svg>