<?xml version="1.0" encoding="UTF-8" standalone="no"?>
<!DOCTYPE svg PUBLIC "-//W3C//DTD SVG 1.1//EN"
"http://www.w3.org/Graphics/SVG/1.1/DTD/svg11.dtd">
<svg viewBox="0 0 909 1286" version="1.1" xmlns="http://www.w3.org/2000/svg" xmlns:xlink="http://www.w3.org/1999/xlink">
<defs>
<style type="text/css"><![CDATA[
.g0_5{
fill: #F8F8F8;
}
.g1_5{
fill: #D3D3D3;
}
]]></style>
</defs>
<image preserveAspectRatio="none" x="130" y="1222" width="83" height="28" xlink:href="img/1.png" />
<path fill-rule="evenodd" d="M163.6,113.1H847V87.3H163.6v25.8Z" class="g0_5" />
<path fill-rule="evenodd" d="M160.3,87.3H847v-.8H160.3v.8Z" class="g1_5" />
<path fill-rule="evenodd" d="M847,87.3h.7v-.8H847v.8Z" class="g1_5" />
<path fill-rule="evenodd" d="M847,87.3h.7v-.8H847v.8Z" class="g1_5" />
<path fill-rule="evenodd" d="M160.3,113.1h3.3V87.3h-3.3v25.8Z" class="g1_5" />
<path fill-rule="evenodd" d="M847,113.1h.7V87.3H847v25.8Z" class="g1_5" />
<path fill-rule="evenodd" d="M163.6,129.4H847V113.1H163.6v16.3Z" class="g0_5" />
<path fill-rule="evenodd" d="M160.3,129.4h3.3V113.1h-3.3v16.3Z" class="g1_5" />
<path fill-rule="evenodd" d="M847,129.4h.7V113.1H847v16.3Z" class="g1_5" />
<path fill-rule="evenodd" d="M163.6,146H847V129.4H163.6V146Z" class="g0_5" />
<path fill-rule="evenodd" d="M160.3,146h3.3V129.4h-3.3V146Z" class="g1_5" />
<path fill-rule="evenodd" d="M847,146h.7V129.4H847V146Z" class="g1_5" />
<path fill-rule="evenodd" d="M163.6,162.5H847V146H163.6v16.5Z" class="g0_5" />
<path fill-rule="evenodd" d="M160.3,162.5h3.3V146h-3.3v16.5Z" class="g1_5" />
<path fill-rule="evenodd" d="M847,162.5h.7V146H847v16.5Z" class="g1_5" />
<path fill-rule="evenodd" d="M163.6,179H847V162.5H163.6V179Z" class="g0_5" />
<path fill-rule="evenodd" d="M160.3,179h3.3V162.5h-3.3V179Z" class="g1_5" />
<path fill-rule="evenodd" d="M847,179h.7V162.5H847V179Z" class="g1_5" />
<path fill-rule="evenodd" d="M163.6,195.5H847V179H163.6v16.5Z" class="g0_5" />
<path fill-rule="evenodd" d="M160.3,195.5h3.3V179h-3.3v16.5Z" class="g1_5" />
<path fill-rule="evenodd" d="M847,195.5h.7V179H847v16.5Z" class="g1_5" />
<path fill-rule="evenodd" d="M163.6,212H847V195.5H163.6V212Z" class="g0_5" />
<path fill-rule="evenodd" d="M160.3,212h3.3V195.5h-3.3V212Z" class="g1_5" />
<path fill-rule="evenodd" d="M847,212h.7V195.5H847V212Z" class="g1_5" />
<path fill-rule="evenodd" d="M163.6,228.3H847V212H163.6v16.3Z" class="g0_5" />
<path fill-rule="evenodd" d="M160.3,228.3h3.3V212h-3.3v16.3Z" class="g1_5" />
<path fill-rule="evenodd" d="M847,228.3h.7V212H847v16.3Z" class="g1_5" />
<path fill-rule="evenodd" d="M163.6,244.8H847V228.3H163.6v16.5Z" class="g0_5" />
<path fill-rule="evenodd" d="M160.3,244.8h3.3V228.3h-3.3v16.5Z" class="g1_5" />
<path fill-rule="evenodd" d="M847,244.8h.7V228.3H847v16.5Z" class="g1_5" />
<path fill-rule="evenodd" d="M163.6,261.3H847V244.8H163.6v16.5Z" class="g0_5" />
<path fill-rule="evenodd" d="M160.3,261.3h3.3V244.8h-3.3v16.5Z" class="g1_5" />
<path fill-rule="evenodd" d="M847,261.3h.7V244.8H847v16.5Z" class="g1_5" />
<path fill-rule="evenodd" d="M163.6,277.8H847V261.3H163.6v16.5Z" class="g0_5" />
<path fill-rule="evenodd" d="M160.3,277.8h3.3V261.3h-3.3v16.5Z" class="g1_5" />
<path fill-rule="evenodd" d="M847,277.8h.7V261.3H847v16.5Z" class="g1_5" />
<path fill-rule="evenodd" d="M163.6,294.3H847V277.8H163.6v16.5Z" class="g0_5" />
<path fill-rule="evenodd" d="M160.3,294.3h3.3V277.8h-3.3v16.5Z" class="g1_5" />
<path fill-rule="evenodd" d="M847,294.3h.7V277.8H847v16.5Z" class="g1_5" />
<path fill-rule="evenodd" d="M163.6,310.8H847V294.3H163.6v16.5Z" class="g0_5" />
<path fill-rule="evenodd" d="M160.3,310.8h3.3V294.3h-3.3v16.5Z" class="g1_5" />
<path fill-rule="evenodd" d="M847,310.8h.7V294.3H847v16.5Z" class="g1_5" />
<path fill-rule="evenodd" d="M163.6,327.1H847V310.8H163.6v16.3Z" class="g0_5" />
<path fill-rule="evenodd" d="M160.3,327.1h3.3V310.8h-3.3v16.3Z" class="g1_5" />
<path fill-rule="evenodd" d="M847,327.1h.7V310.8H847v16.3Z" class="g1_5" />
<path fill-rule="evenodd" d="M163.6,343.6H847V327.1H163.6v16.5Z" class="g0_5" />
<path fill-rule="evenodd" d="M160.3,343.6h3.3V327.1h-3.3v16.5Z" class="g1_5" />
<path fill-rule="evenodd" d="M847,343.6h.7V327.1H847v16.5Z" class="g1_5" />
<path fill-rule="evenodd" d="M163.6,360.1H847V343.6H163.6v16.5Z" class="g0_5" />
<path fill-rule="evenodd" d="M160.3,360.1h3.3V343.6h-3.3v16.5Z" class="g1_5" />
<path fill-rule="evenodd" d="M847,360.1h.7V343.6H847v16.5Z" class="g1_5" />
<path fill-rule="evenodd" d="M163.6,376.6H847V360.1H163.6v16.5Z" class="g0_5" />
<path fill-rule="evenodd" d="M160.3,376.6h3.3V360.1h-3.3v16.5Z" class="g1_5" />
<path fill-rule="evenodd" d="M847,376.6h.7V360.1H847v16.5Z" class="g1_5" />
<path fill-rule="evenodd" d="M163.6,393.1H847V376.6H163.6v16.5Z" class="g0_5" />
<path fill-rule="evenodd" d="M160.3,393.1h3.3V376.6h-3.3v16.5Z" class="g1_5" />
<path fill-rule="evenodd" d="M847,393.1h.7V376.6H847v16.5Z" class="g1_5" />
<path fill-rule="evenodd" d="M163.6,409.6H847V393.1H163.6v16.5Z" class="g0_5" />
<path fill-rule="evenodd" d="M160.3,409.6h3.3V393.1h-3.3v16.5Z" class="g1_5" />
<path fill-rule="evenodd" d="M847,409.6h.7V393.1H847v16.5Z" class="g1_5" />
<path fill-rule="evenodd" d="M163.6,426H847V409.6H163.6V426Z" class="g0_5" />
<path fill-rule="evenodd" d="M160.3,426h3.3V409.6h-3.3V426Z" class="g1_5" />
<path fill-rule="evenodd" d="M847,426h.7V409.6H847V426Z" class="g1_5" />
<path fill-rule="evenodd" d="M163.6,442.5H847V426H163.6v16.5Z" class="g0_5" />
<path fill-rule="evenodd" d="M160.3,442.5h3.3V426h-3.3v16.5Z" class="g1_5" />
<path fill-rule="evenodd" d="M847,442.5h.7V426H847v16.5Z" class="g1_5" />
<path fill-rule="evenodd" d="M163.6,459H847V442.5H163.6V459Z" class="g0_5" />
<path fill-rule="evenodd" d="M160.3,459h3.3V442.5h-3.3V459Z" class="g1_5" />
<path fill-rule="evenodd" d="M847,459h.7V442.5H847V459Z" class="g1_5" />
<path fill-rule="evenodd" d="M163.6,475.5H847V459H163.6v16.5Z" class="g0_5" />
<path fill-rule="evenodd" d="M160.3,475.5h3.3V459h-3.3v16.5Z" class="g1_5" />
<path fill-rule="evenodd" d="M847,475.5h.7V459H847v16.5Z" class="g1_5" />
<path fill-rule="evenodd" d="M163.6,492H847V475.5H163.6V492Z" class="g0_5" />
<path fill-rule="evenodd" d="M160.3,492h3.3V475.5h-3.3V492Z" class="g1_5" />
<path fill-rule="evenodd" d="M847,492h.7V475.5H847V492Z" class="g1_5" />
<path fill-rule="evenodd" d="M163.6,508.5H847V492H163.6v16.5Z" class="g0_5" />
<path fill-rule="evenodd" d="M160.3,508.5h3.3V492h-3.3v16.5Z" class="g1_5" />
<path fill-rule="evenodd" d="M847,508.5h.7V492H847v16.5Z" class="g1_5" />
<path fill-rule="evenodd" d="M163.6,524.8H847V508.5H163.6v16.3Z" class="g0_5" />
<path fill-rule="evenodd" d="M160.3,524.8h3.3V508.5h-3.3v16.3Z" class="g1_5" />
<path fill-rule="evenodd" d="M847,524.8h.7V508.5H847v16.3Z" class="g1_5" />
<path fill-rule="evenodd" d="M163.6,541.3H847V524.8H163.6v16.5Z" class="g0_5" />
<path fill-rule="evenodd" d="M160.3,541.3h3.3V524.8h-3.3v16.5Z" class="g1_5" />
<path fill-rule="evenodd" d="M847,541.3h.7V524.8H847v16.5Z" class="g1_5" />
<path fill-rule="evenodd" d="M163.6,566.9H847V541.3H163.6v25.6Z" class="g0_5" />
<path fill-rule="evenodd" d="M160.3,567.7H847v-.8H160.3v.8Z" class="g1_5" />
<path fill-rule="evenodd" d="M847,567.7h.7v-.8H847v.8Z" class="g1_5" />
<path fill-rule="evenodd" d="M847,567.7h.7v-.8H847v.8Z" class="g1_5" />
<path fill-rule="evenodd" d="M160.3,566.9h3.3V541.3h-3.3v25.6Z" class="g1_5" />
<path fill-rule="evenodd" d="M847,566.9h.7V541.3H847v25.6Z" class="g1_5" />
<image preserveAspectRatio="none" x="233" y="586" width="509" height="552" xlink:href="img/2.png" />
</svg>