<?xml version="1.0" encoding="UTF-8" standalone="no"?>
<!DOCTYPE svg PUBLIC "-//W3C//DTD SVG 1.1//EN"
"http://www.w3.org/Graphics/SVG/1.1/DTD/svg11.dtd">
<svg viewBox="0 0 909 1286" version="1.1" xmlns="http://www.w3.org/2000/svg" xmlns:xlink="http://www.w3.org/1999/xlink">
<defs>
<style type="text/css"><![CDATA[
.g0_13{
fill: #F8F8F8;
}
.g1_13{
fill: #D3D3D3;
}
]]></style>
</defs>
<image preserveAspectRatio="none" x="130" y="1222" width="83" height="28" xlink:href="img/1.png" />
<path fill-rule="evenodd" d="M163.6,113.1H847V87.3H163.6v25.8Z" class="g0_13" />
<path fill-rule="evenodd" d="M160.3,87.3H847v-.8H160.3v.8Z" class="g1_13" />
<path fill-rule="evenodd" d="M847,87.3h.7v-.8H847v.8Z" class="g1_13" />
<path fill-rule="evenodd" d="M847,87.3h.7v-.8H847v.8Z" class="g1_13" />
<path fill-rule="evenodd" d="M160.3,113.1h3.3V87.3h-3.3v25.8Z" class="g1_13" />
<path fill-rule="evenodd" d="M847,113.1h.7V87.3H847v25.8Z" class="g1_13" />
<path fill-rule="evenodd" d="M163.6,129.4H847V113.1H163.6v16.3Z" class="g0_13" />
<path fill-rule="evenodd" d="M160.3,129.4h3.3V113.1h-3.3v16.3Z" class="g1_13" />
<path fill-rule="evenodd" d="M847,129.4h.7V113.1H847v16.3Z" class="g1_13" />
<path fill-rule="evenodd" d="M163.6,146H847V129.4H163.6V146Z" class="g0_13" />
<path fill-rule="evenodd" d="M160.3,146h3.3V129.4h-3.3V146Z" class="g1_13" />
<path fill-rule="evenodd" d="M847,146h.7V129.4H847V146Z" class="g1_13" />
<path fill-rule="evenodd" d="M163.6,162.5H847V146H163.6v16.5Z" class="g0_13" />
<path fill-rule="evenodd" d="M160.3,162.5h3.3V146h-3.3v16.5Z" class="g1_13" />
<path fill-rule="evenodd" d="M847,162.5h.7V146H847v16.5Z" class="g1_13" />
<path fill-rule="evenodd" d="M163.6,179H847V162.5H163.6V179Z" class="g0_13" />
<path fill-rule="evenodd" d="M160.3,179h3.3V162.5h-3.3V179Z" class="g1_13" />
<path fill-rule="evenodd" d="M847,179h.7V162.5H847V179Z" class="g1_13" />
<path fill-rule="evenodd" d="M163.6,195.5H847V179H163.6v16.5Z" class="g0_13" />
<path fill-rule="evenodd" d="M160.3,195.5h3.3V179h-3.3v16.5Z" class="g1_13" />
<path fill-rule="evenodd" d="M847,195.5h.7V179H847v16.5Z" class="g1_13" />
<path fill-rule="evenodd" d="M163.6,221.1H847V195.5H163.6v25.6Z" class="g0_13" />
<path fill-rule="evenodd" d="M160.3,221.9H847v-.8H160.3v.8Z" class="g1_13" />
<path fill-rule="evenodd" d="M847,221.9h.7v-.8H847v.8Z" class="g1_13" />
<path fill-rule="evenodd" d="M847,221.9h.7v-.8H847v.8Z" class="g1_13" />
<path fill-rule="evenodd" d="M160.3,221.1h3.3V195.5h-3.3v25.6Z" class="g1_13" />
<path fill-rule="evenodd" d="M847,221.1h.7V195.5H847v25.6Z" class="g1_13" />
<path fill-rule="evenodd" d="M127.8,270.8H847v-.4H127.8v.4Z" class="g1_13" />
<path fill-rule="evenodd" d="M163.6,337.5H847V311.9H163.6v25.6Z" class="g0_13" />
<path fill-rule="evenodd" d="M160.3,311.9H847v-.8H160.3v.8Z" class="g1_13" />
<path fill-rule="evenodd" d="M847,311.9h.7v-.8H847v.8Z" class="g1_13" />
<path fill-rule="evenodd" d="M847,311.9h.7v-.8H847v.8Z" class="g1_13" />
<path fill-rule="evenodd" d="M160.3,337.5h3.3V311.9h-3.3v25.6Z" class="g1_13" />
<path fill-rule="evenodd" d="M847,337.5h.7V311.9H847v25.6Z" class="g1_13" />
<path fill-rule="evenodd" d="M163.6,354H847V337.5H163.6V354Z" class="g0_13" />
<path fill-rule="evenodd" d="M160.3,354h3.3V337.5h-3.3V354Z" class="g1_13" />
<path fill-rule="evenodd" d="M847,354h.7V337.5H847V354Z" class="g1_13" />
<path fill-rule="evenodd" d="M163.6,370.5H847V354H163.6v16.5Z" class="g0_13" />
<path fill-rule="evenodd" d="M160.3,370.5h3.3V354h-3.3v16.5Z" class="g1_13" />
<path fill-rule="evenodd" d="M847,370.5h.7V354H847v16.5Z" class="g1_13" />
<path fill-rule="evenodd" d="M163.6,387H847V370.5H163.6V387Z" class="g0_13" />
<path fill-rule="evenodd" d="M160.3,387h3.3V370.5h-3.3V387Z" class="g1_13" />
<path fill-rule="evenodd" d="M847,387h.7V370.5H847V387Z" class="g1_13" />
<path fill-rule="evenodd" d="M163.6,403.4H847V387H163.6v16.4Z" class="g0_13" />
<path fill-rule="evenodd" d="M160.3,403.4h3.3V387h-3.3v16.4Z" class="g1_13" />
<path fill-rule="evenodd" d="M847,403.4h.7V387H847v16.4Z" class="g1_13" />
<path fill-rule="evenodd" d="M163.6,419.9H847V403.4H163.6v16.5Z" class="g0_13" />
<path fill-rule="evenodd" d="M160.3,419.9h3.3V403.4h-3.3v16.5Z" class="g1_13" />
<path fill-rule="evenodd" d="M847,419.9h.7V403.4H847v16.5Z" class="g1_13" />
<path fill-rule="evenodd" d="M163.6,436.4H847V419.9H163.6v16.5Z" class="g0_13" />
<path fill-rule="evenodd" d="M160.3,436.4h3.3V419.9h-3.3v16.5Z" class="g1_13" />
<path fill-rule="evenodd" d="M847,436.4h.7V419.9H847v16.5Z" class="g1_13" />
<path fill-rule="evenodd" d="M163.6,452.9H847V436.4H163.6v16.5Z" class="g0_13" />
<path fill-rule="evenodd" d="M160.3,452.9h3.3V436.4h-3.3v16.5Z" class="g1_13" />
<path fill-rule="evenodd" d="M847,452.9h.7V436.4H847v16.5Z" class="g1_13" />
<path fill-rule="evenodd" d="M163.6,469.4H847V452.9H163.6v16.5Z" class="g0_13" />
<path fill-rule="evenodd" d="M160.3,469.4h3.3V452.9h-3.3v16.5Z" class="g1_13" />
<path fill-rule="evenodd" d="M847,469.4h.7V452.9H847v16.5Z" class="g1_13" />
<path fill-rule="evenodd" d="M163.6,485.9H847V469.4H163.6v16.5Z" class="g0_13" />
<path fill-rule="evenodd" d="M160.3,485.9h3.3V469.4h-3.3v16.5Z" class="g1_13" />
<path fill-rule="evenodd" d="M847,485.9h.7V469.4H847v16.5Z" class="g1_13" />
<path fill-rule="evenodd" d="M163.6,502.2H847V485.9H163.6v16.3Z" class="g0_13" />
<path fill-rule="evenodd" d="M160.3,502.2h3.3V485.9h-3.3v16.3Z" class="g1_13" />
<path fill-rule="evenodd" d="M847,502.2h.7V485.9H847v16.3Z" class="g1_13" />
<path fill-rule="evenodd" d="M163.6,518.7H847V502.2H163.6v16.5Z" class="g0_13" />
<path fill-rule="evenodd" d="M160.3,518.7h3.3V502.2h-3.3v16.5Z" class="g1_13" />
<path fill-rule="evenodd" d="M847,518.7h.7V502.2H847v16.5Z" class="g1_13" />
<path fill-rule="evenodd" d="M163.6,535.2H847V518.7H163.6v16.5Z" class="g0_13" />
<path fill-rule="evenodd" d="M160.3,535.2h3.3V518.7h-3.3v16.5Z" class="g1_13" />
<path fill-rule="evenodd" d="M847,535.2h.7V518.7H847v16.5Z" class="g1_13" />
<path fill-rule="evenodd" d="M163.6,551.7H847V535.2H163.6v16.5Z" class="g0_13" />
<path fill-rule="evenodd" d="M160.3,551.7h3.3V535.2h-3.3v16.5Z" class="g1_13" />
<path fill-rule="evenodd" d="M847,551.7h.7V535.2H847v16.5Z" class="g1_13" />
<path fill-rule="evenodd" d="M163.6,568.2H847V551.7H163.6v16.5Z" class="g0_13" />
<path fill-rule="evenodd" d="M160.3,568.2h3.3V551.7h-3.3v16.5Z" class="g1_13" />
<path fill-rule="evenodd" d="M847,568.2h.7V551.7H847v16.5Z" class="g1_13" />
<path fill-rule="evenodd" d="M163.6,584.7H847V568.2H163.6v16.5Z" class="g0_13" />
<path fill-rule="evenodd" d="M160.3,584.7h3.3V568.2h-3.3v16.5Z" class="g1_13" />
<path fill-rule="evenodd" d="M847,584.7h.7V568.2H847v16.5Z" class="g1_13" />
<path fill-rule="evenodd" d="M163.6,601H847V584.7H163.6V601Z" class="g0_13" />
<path fill-rule="evenodd" d="M160.3,601h3.3V584.7h-3.3V601Z" class="g1_13" />
<path fill-rule="evenodd" d="M847,601h.7V584.7H847V601Z" class="g1_13" />
<path fill-rule="evenodd" d="M163.6,617.5H847V601H163.6v16.5Z" class="g0_13" />
<path fill-rule="evenodd" d="M160.3,617.5h3.3V601h-3.3v16.5Z" class="g1_13" />
<path fill-rule="evenodd" d="M847,617.5h.7V601H847v16.5Z" class="g1_13" />
<path fill-rule="evenodd" d="M163.6,634H847V617.5H163.6V634Z" class="g0_13" />
<path fill-rule="evenodd" d="M160.3,634h3.3V617.5h-3.3V634Z" class="g1_13" />
<path fill-rule="evenodd" d="M847,634h.7V617.5H847V634Z" class="g1_13" />
<path fill-rule="evenodd" d="M163.6,650.5H847V634H163.6v16.5Z" class="g0_13" />
<path fill-rule="evenodd" d="M160.3,650.5h3.3V634h-3.3v16.5Z" class="g1_13" />
<path fill-rule="evenodd" d="M847,650.5h.7V634H847v16.5Z" class="g1_13" />
<path fill-rule="evenodd" d="M163.6,667H847V650.5H163.6V667Z" class="g0_13" />
<path fill-rule="evenodd" d="M160.3,667h3.3V650.5h-3.3V667Z" class="g1_13" />
<path fill-rule="evenodd" d="M847,667h.7V650.5H847V667Z" class="g1_13" />
<path fill-rule="evenodd" d="M163.6,683.5H847V667H163.6v16.5Z" class="g0_13" />
<path fill-rule="evenodd" d="M160.3,683.5h3.3V667h-3.3v16.5Z" class="g1_13" />
<path fill-rule="evenodd" d="M847,683.5h.7V667H847v16.5Z" class="g1_13" />
<path fill-rule="evenodd" d="M163.6,709.2H847V683.5H163.6v25.7Z" class="g0_13" />
<path fill-rule="evenodd" d="M160.3,710H847v-.8H160.3v.8Z" class="g1_13" />
<path fill-rule="evenodd" d="M847,710h.7v-.8H847v.8Z" class="g1_13" />
<path fill-rule="evenodd" d="M847,710h.7v-.8H847v.8Z" class="g1_13" />
<path fill-rule="evenodd" d="M160.3,709.2h3.3V683.5h-3.3v25.7Z" class="g1_13" />
<path fill-rule="evenodd" d="M847,709.2h.7V683.5H847v25.7Z" class="g1_13" />
<path fill-rule="evenodd" d="M163.6,776.5H847V750.9H163.6v25.6Z" class="g0_13" />
<path fill-rule="evenodd" d="M160.3,750.9H847v-.8H160.3v.8Z" class="g1_13" />
<path fill-rule="evenodd" d="M847,750.9h.7v-.8H847v.8Z" class="g1_13" />
<path fill-rule="evenodd" d="M847,750.9h.7v-.8H847v.8Z" class="g1_13" />
<path fill-rule="evenodd" d="M160.3,776.5h3.3V750.9h-3.3v25.6Z" class="g1_13" />
<path fill-rule="evenodd" d="M847,776.5h.7V750.9H847v25.6Z" class="g1_13" />
<path fill-rule="evenodd" d="M163.6,793H847V776.5H163.6V793Z" class="g0_13" />
<path fill-rule="evenodd" d="M160.3,793h3.3V776.5h-3.3V793Z" class="g1_13" />
<path fill-rule="evenodd" d="M847,793h.7V776.5H847V793Z" class="g1_13" />
<path fill-rule="evenodd" d="M163.6,809.5H847V793H163.6v16.5Z" class="g0_13" />
<path fill-rule="evenodd" d="M160.3,809.5h3.3V793h-3.3v16.5Z" class="g1_13" />
<path fill-rule="evenodd" d="M847,809.5h.7V793H847v16.5Z" class="g1_13" />
<path fill-rule="evenodd" d="M163.6,826H847V809.5H163.6V826Z" class="g0_13" />
<path fill-rule="evenodd" d="M160.3,826h3.3V809.5h-3.3V826Z" class="g1_13" />
<path fill-rule="evenodd" d="M847,826h.7V809.5H847V826Z" class="g1_13" />
<path fill-rule="evenodd" d="M163.6,842.5H847V826H163.6v16.5Z" class="g0_13" />
<path fill-rule="evenodd" d="M160.3,842.5h3.3V826h-3.3v16.5Z" class="g1_13" />
<path fill-rule="evenodd" d="M847,842.5h.7V826H847v16.5Z" class="g1_13" />
<path fill-rule="evenodd" d="M163.6,859H847V842.5H163.6V859Z" class="g0_13" />
<path fill-rule="evenodd" d="M160.3,859h3.3V842.5h-3.3V859Z" class="g1_13" />
<path fill-rule="evenodd" d="M847,859h.7V842.5H847V859Z" class="g1_13" />
<path fill-rule="evenodd" d="M163.6,875.3H847V859H163.6v16.3Z" class="g0_13" />
<path fill-rule="evenodd" d="M160.3,875.3h3.3V859h-3.3v16.3Z" class="g1_13" />
<path fill-rule="evenodd" d="M847,875.3h.7V859H847v16.3Z" class="g1_13" />
<path fill-rule="evenodd" d="M163.6,891.8H847V875.3H163.6v16.5Z" class="g0_13" />
<path fill-rule="evenodd" d="M160.3,891.8h3.3V875.3h-3.3v16.5Z" class="g1_13" />
<path fill-rule="evenodd" d="M847,891.8h.7V875.3H847v16.5Z" class="g1_13" />
<path fill-rule="evenodd" d="M163.6,908.3H847V891.8H163.6v16.5Z" class="g0_13" />
<path fill-rule="evenodd" d="M160.3,908.3h3.3V891.8h-3.3v16.5Z" class="g1_13" />
<path fill-rule="evenodd" d="M847,908.3h.7V891.8H847v16.5Z" class="g1_13" />
<path fill-rule="evenodd" d="M163.6,924.8H847V908.3H163.6v16.5Z" class="g0_13" />
<path fill-rule="evenodd" d="M160.3,924.8h3.3V908.3h-3.3v16.5Z" class="g1_13" />
<path fill-rule="evenodd" d="M847,924.8h.7V908.3H847v16.5Z" class="g1_13" />
<path fill-rule="evenodd" d="M163.6,941.3H847V924.8H163.6v16.5Z" class="g0_13" />
<path fill-rule="evenodd" d="M160.3,941.3h3.3V924.8h-3.3v16.5Z" class="g1_13" />
<path fill-rule="evenodd" d="M847,941.3h.7V924.8H847v16.5Z" class="g1_13" />
<path fill-rule="evenodd" d="M163.6,957.8H847V941.3H163.6v16.5Z" class="g0_13" />
<path fill-rule="evenodd" d="M160.3,957.8h3.3V941.3h-3.3v16.5Z" class="g1_13" />
<path fill-rule="evenodd" d="M847,957.8h.7V941.3H847v16.5Z" class="g1_13" />
<path fill-rule="evenodd" d="M163.6,974.2H847V957.8H163.6v16.4Z" class="g0_13" />
<path fill-rule="evenodd" d="M160.3,974.2h3.3V957.8h-3.3v16.4Z" class="g1_13" />
<path fill-rule="evenodd" d="M847,974.2h.7V957.8H847v16.4Z" class="g1_13" />
<path fill-rule="evenodd" d="M163.6,990.7H847V974.2H163.6v16.5Z" class="g0_13" />
<path fill-rule="evenodd" d="M160.3,990.7h3.3V974.2h-3.3v16.5Z" class="g1_13" />
<path fill-rule="evenodd" d="M847,990.7h.7V974.2H847v16.5Z" class="g1_13" />
<path fill-rule="evenodd" d="M163.6,1007.2H847V990.7H163.6v16.5Z" class="g0_13" />
<path fill-rule="evenodd" d="M160.3,1007.2h3.3V990.7h-3.3v16.5Z" class="g1_13" />
<path fill-rule="evenodd" d="M847,1007.2h.7V990.7H847v16.5Z" class="g1_13" />
<path fill-rule="evenodd" d="M163.6,1023.7H847v-16.5H163.6v16.5Z" class="g0_13" />
<path fill-rule="evenodd" d="M160.3,1023.7h3.3v-16.5h-3.3v16.5Z" class="g1_13" />
<path fill-rule="evenodd" d="M847,1023.7h.7v-16.5H847v16.5Z" class="g1_13" />
<path fill-rule="evenodd" d="M163.6,1040.2H847v-16.5H163.6v16.5Z" class="g0_13" />
<path fill-rule="evenodd" d="M160.3,1040.2h3.3v-16.5h-3.3v16.5Z" class="g1_13" />
<path fill-rule="evenodd" d="M847,1040.2h.7v-16.5H847v16.5Z" class="g1_13" />
<path fill-rule="evenodd" d="M163.6,1056.7H847v-16.5H163.6v16.5Z" class="g0_13" />
<path fill-rule="evenodd" d="M160.3,1056.7h3.3v-16.5h-3.3v16.5Z" class="g1_13" />
<path fill-rule="evenodd" d="M847,1056.7h.7v-16.5H847v16.5Z" class="g1_13" />
<path fill-rule="evenodd" d="M163.6,1073H847v-16.3H163.6V1073Z" class="g0_13" />
<path fill-rule="evenodd" d="M160.3,1073h3.3v-16.3h-3.3V1073Z" class="g1_13" />
<path fill-rule="evenodd" d="M847,1073h.7v-16.3H847V1073Z" class="g1_13" />
<path fill-rule="evenodd" d="M163.6,1089.5H847V1073H163.6v16.5Z" class="g0_13" />
<path fill-rule="evenodd" d="M160.3,1089.5h3.3V1073h-3.3v16.5Z" class="g1_13" />
<path fill-rule="evenodd" d="M847,1089.5h.7V1073H847v16.5Z" class="g1_13" />
<path fill-rule="evenodd" d="M163.6,1106H847v-16.5H163.6V1106Z" class="g0_13" />
<path fill-rule="evenodd" d="M160.3,1106h3.3v-16.5h-3.3V1106Z" class="g1_13" />
<path fill-rule="evenodd" d="M847,1106h.7v-16.5H847V1106Z" class="g1_13" />
<path fill-rule="evenodd" d="M163.6,1122.5H847V1106H163.6v16.5Z" class="g0_13" />
<path fill-rule="evenodd" d="M160.3,1122.5h3.3V1106h-3.3v16.5Z" class="g1_13" />
<path fill-rule="evenodd" d="M847,1122.5h.7V1106H847v16.5Z" class="g1_13" />
<path fill-rule="evenodd" d="M163.6,1139H847v-16.5H163.6V1139Z" class="g0_13" />
<path fill-rule="evenodd" d="M160.3,1139h3.3v-16.5h-3.3V1139Z" class="g1_13" />
<path fill-rule="evenodd" d="M847,1139h.7v-16.5H847V1139Z" class="g1_13" />
<path fill-rule="evenodd" d="M163.6,1155.5H847V1139H163.6v16.5Z" class="g0_13" />
<path fill-rule="evenodd" d="M160.3,1155.5h3.3V1139h-3.3v16.5Z" class="g1_13" />
<path fill-rule="evenodd" d="M847,1155.5h.7V1139H847v16.5Z" class="g1_13" />
<path fill-rule="evenodd" d="M163.6,1181.2H847v-25.7H163.6v25.7Z" class="g0_13" />
<path fill-rule="evenodd" d="M160.3,1181.9H847v-.7H160.3v.7Z" class="g1_13" />
<path fill-rule="evenodd" d="M847,1181.9h.7v-.7H847v.7Z" class="g1_13" />
<path fill-rule="evenodd" d="M847,1181.9h.7v-.7H847v.7Z" class="g1_13" />
<path fill-rule="evenodd" d="M160.3,1181.2h3.3v-25.7h-3.3v25.7Z" class="g1_13" />
<path fill-rule="evenodd" d="M847,1181.2h.7v-25.7H847v25.7Z" class="g1_13" />
</svg>