<?xml version="1.0" encoding="UTF-8" standalone="no"?>
<!DOCTYPE svg PUBLIC "-//W3C//DTD SVG 1.1//EN"
"http://www.w3.org/Graphics/SVG/1.1/DTD/svg11.dtd">
<svg viewBox="0 0 909 1286" version="1.1" xmlns="http://www.w3.org/2000/svg" xmlns:xlink="http://www.w3.org/1999/xlink">
<defs>
<clipPath id="c0_34"><path d="M96.4,1201.4v-15.5h33v15.5Z" /></clipPath>
<style type="text/css"><![CDATA[
.g0_34{
fill: none;
stroke: #000000;
stroke-width: 4.201389;
stroke-linecap: butt;
stroke-linejoin: round;
}
.g1_34{
fill: #5EB28E;
fill-opacity: 0.6;
}
.g2_34{
fill: #FFFFFF;
}
.g3_34{
}
.g4_34{
fill: #16AAD3;
}
]]></style>
</defs>
<path d="M841.2,1171.7H796.5" class="g0_34" />
<path fill-rule="evenodd" d="M111.9,1174c-11.5,0,-20.8,9.3,-20.8,20.8c0,11.5,9.3,20.8,20.8,20.8c11.5,0,20.8,-9.3,20.8,-20.8c0,-11.5,-9.3,-20.8,-20.8,-20.8Z" class="g1_34" />
<path d="M116.9,1199.3c0,.1,.2,.3,.4,.3q1.9,0,1.9,0c.1,0,.3,-.2,.3,-.3q0,-.7,0,-.7q0,-.1,0,-.1q0,-7.1,0,-7.1q0,-.1,0,-.1q0,-.7,0,-.7c0,-.2,-.2,-.4,-.3,-.4q-1.9,0,-1.9,0c-.2,0,-.4,.2,-.4,.4q0,.5,0,.5q0,7.6,0,7.6v.6Z" class="g2_34" />
<g clip-path="url(#c0_34)">
<path d="M115.7,1195.4q0,-4.8,0,-4.8c0,-.2,-.1,-.4,-.3,-.4q-2,0,-2,0c-.1,0,-.2,.2,-.2,.4q0,4.4,0,4.4c0,1.7,-1,2.5,-2,2.4c-1,.1,-2,-.7,-1.9,-2.4q0,-4.4,0,-4.4c0,-.2,-.1,-.4,-.3,-.4q-1.9,0,-1.9,0c-.2,0,-.3,.2,-.3,.4q0,3.6,0,3.6c-.4,-2.4,-2.6,-4.2,-5.2,-4.2c-2.9,0,-5.2,2.2,-5.2,5c0,2.7,2.3,4.9,5.2,4.9c.2,0,.8,0,.9,0q2.1,1.4,2.1,1.4c.2,.1,.4,.1,.4,-.2q0,-2.4,0,-2.4c.9,-.7,1.6,-1.8,1.8,-3.1c.1,2.9,2.3,4.3,4.4,4.2c2.2,.1,4.5,-1.4,4.5,-4.4Zm-14.1,2.2c-1.5,0,-2.8,-1.2,-2.8,-2.6c0,-1.5,1.3,-2.7,2.8,-2.7c1.5,0,2.8,1.2,2.8,2.7c0,1.4,-1.3,2.6,-2.8,2.6Z" class="g2_34" />
</g>
<path d="M118.2,1186.7c-.8,0,-1.4,.6,-1.4,1.4c0,.7,.6,1.3,1.4,1.3c.8,0,1.4,-.6,1.4,-1.3c0,-.8,-.6,-1.4,-1.4,-1.4Z" class="g2_34" />
<path d="M129.3,1199q-3.4,-4.4,-3.4,-4.4q3,-3.8,3,-3.8c.1,-.1,.1,-.5,-.1,-.6c-.5,0,-1.3,0,-2.2,0c-.1,0,-.2,.1,-.4,.3q-2.9,3.7,-2.9,3.7c0,-2.7,0,-5.4,0,-8c0,-.2,-.2,-.2,-.3,-.1c-.7,.4,-1.3,.9,-2,1.3c-.2,.1,-.2,.3,-.2,.5q0,.6,0,.6q0,.7,0,.7q0,.1,0,.1q0,9.2,0,9.2q0,.1,0,.1q0,.7,0,.7c0,.1,.1,.3,.2,.3q2,0,2,0c.1,0,.3,-.2,.3,-.3q0,-.6,0,-.6q0,-3.5,0,-3.5q3.2,4.2,3.2,4.2c.1,.2,.2,.2,.4,.2c.8,0,1.8,0,2.2,0c.3,-.1,.3,-.5,.2,-.6Z" class="g2_34" />
<path fill-rule="evenodd" d="M88,224.2h92.6v-4.5H88v4.5Z" class="g3_34" />
<path fill-rule="evenodd" d="M180.6,224.2h4.6v-4.5h-4.6v4.5Z" class="g3_34" />
<path fill-rule="evenodd" d="M185.2,224.2h54.6v-4.5H185.2v4.5Z" class="g3_34" />
<path fill-rule="evenodd" d="M239.8,224.2h4.6v-4.5h-4.6v4.5Z" class="g3_34" />
<path fill-rule="evenodd" d="M244.4,224.2H846.2v-4.5H244.4v4.5Z" class="g3_34" />
<path fill-rule="evenodd" d="M88,359.9h92.6v-.7H88v.7Z" class="g3_34" />
<path fill-rule="evenodd" d="M180.6,359.9h.7v-.7h-.7v.7Z" class="g3_34" />
<path fill-rule="evenodd" d="M181.3,359.9h58.5v-.7H181.3v.7Z" class="g3_34" />
<path fill-rule="evenodd" d="M239.8,359.9h.8v-.7h-.8v.7Z" class="g3_34" />
<path fill-rule="evenodd" d="M240.6,359.9H846.2v-.7H240.6v.7Z" class="g3_34" />
<path fill-rule="evenodd" d="M88,436h92.6v-.7H88v.7Z" class="g3_34" />
<path fill-rule="evenodd" d="M180.6,436h.7v-.7h-.7v.7Z" class="g3_34" />
<path fill-rule="evenodd" d="M181.3,436h58.5v-.7H181.3v.7Z" class="g3_34" />
<path fill-rule="evenodd" d="M239.8,436h.8v-.7h-.8v.7Z" class="g3_34" />
<path fill-rule="evenodd" d="M240.6,436H846.2v-.7H240.6v.7Z" class="g3_34" />
<path fill-rule="evenodd" d="M88,511.9h92.6v-.7H88v.7Z" class="g3_34" />
<path fill-rule="evenodd" d="M180.6,511.9h.7v-.7h-.7v.7Z" class="g3_34" />
<path fill-rule="evenodd" d="M181.3,511.9h58.5v-.7H181.3v.7Z" class="g3_34" />
<path fill-rule="evenodd" d="M239.8,511.9h.8v-.7h-.8v.7Z" class="g3_34" />
<path fill-rule="evenodd" d="M240.6,511.9H846.2v-.7H240.6v.7Z" class="g3_34" />
<path fill-rule="evenodd" d="M86.9,580.3h93.7v-.7H86.9v.7Z" class="g3_34" />
<path fill-rule="evenodd" d="M179.5,580.3h.7v-.7h-.7v.7Z" class="g3_34" />
<path fill-rule="evenodd" d="M180.2,580.3h59.6v-.7H180.2v.7Z" class="g3_34" />
<path fill-rule="evenodd" d="M238.7,580.3h.8v-.7h-.8v.7Z" class="g3_34" />
<path fill-rule="evenodd" d="M239.5,580.3H846.2v-.7H239.5v.7Z" class="g3_34" />
<path fill-rule="evenodd" d="M322,693.4h97.9v-.9H322v.9Z" class="g4_34" />
<path fill-rule="evenodd" d="M277.8,716.8H421.6v-1H277.8v1Z" class="g4_34" />
<path fill-rule="evenodd" d="M225.9,991.4h43.4v-.9H225.9v.9Z" class="g4_34" />
</svg>