<?xml version="1.0" encoding="UTF-8" standalone="no"?>
<!DOCTYPE svg PUBLIC "-//W3C//DTD SVG 1.1//EN"
"http://www.w3.org/Graphics/SVG/1.1/DTD/svg11.dtd">
<svg viewBox="0 0 909 1286" version="1.1" xmlns="http://www.w3.org/2000/svg" xmlns:xlink="http://www.w3.org/1999/xlink">
<defs>
<clipPath id="c0_21"><path d="M96.4,1201.4v-15.5h33v15.5Z" /></clipPath>
<style type="text/css"><![CDATA[
.g0_21{
fill: none;
stroke: #000000;
stroke-width: 4.201389;
stroke-linecap: butt;
stroke-linejoin: round;
}
.g1_21{
fill: #5EB28E;
fill-opacity: 0.6;
}
.g2_21{
fill: #FFFFFF;
}
.g3_21{
fill: #16AAD3;
}
.g4_21{
}
]]></style>
</defs>
<path d="M841.2,1171.7H796.5" class="g0_21" />
<path fill-rule="evenodd" d="M111.9,1174c-11.5,0,-20.8,9.3,-20.8,20.8c0,11.5,9.3,20.8,20.8,20.8c11.5,0,20.8,-9.3,20.8,-20.8c0,-11.5,-9.3,-20.8,-20.8,-20.8Z" class="g1_21" />
<path d="M116.9,1199.3c0,.1,.2,.3,.4,.3q1.9,0,1.9,0c.1,0,.3,-.2,.3,-.3q0,-.7,0,-.7q0,-.1,0,-.1q0,-7.1,0,-7.1q0,-.1,0,-.1q0,-.7,0,-.7c0,-.2,-.2,-.4,-.3,-.4q-1.9,0,-1.9,0c-.2,0,-.4,.2,-.4,.4q0,.5,0,.5q0,7.6,0,7.6v.6Z" class="g2_21" />
<g clip-path="url(#c0_21)">
<path d="M115.7,1195.4q0,-4.8,0,-4.8c0,-.2,-.1,-.4,-.3,-.4q-2,0,-2,0c-.1,0,-.2,.2,-.2,.4q0,4.4,0,4.4c0,1.7,-1,2.5,-2,2.4c-1,.1,-2,-.7,-1.9,-2.4q0,-4.4,0,-4.4c0,-.2,-.1,-.4,-.3,-.4q-1.9,0,-1.9,0c-.2,0,-.3,.2,-.3,.4q0,3.6,0,3.6c-.4,-2.4,-2.6,-4.2,-5.2,-4.2c-2.9,0,-5.2,2.2,-5.2,5c0,2.7,2.3,4.9,5.2,4.9c.2,0,.8,0,.9,0q2.1,1.4,2.1,1.4c.2,.1,.4,.1,.4,-.2q0,-2.4,0,-2.4c.9,-.7,1.6,-1.8,1.8,-3.1c.1,2.9,2.3,4.3,4.4,4.2c2.2,.1,4.5,-1.4,4.5,-4.4Zm-14.1,2.2c-1.5,0,-2.8,-1.2,-2.8,-2.6c0,-1.5,1.3,-2.7,2.8,-2.7c1.5,0,2.8,1.2,2.8,2.7c0,1.4,-1.3,2.6,-2.8,2.6Z" class="g2_21" />
</g>
<path d="M118.2,1186.7c-.8,0,-1.4,.6,-1.4,1.4c0,.7,.6,1.3,1.4,1.3c.8,0,1.4,-.6,1.4,-1.3c0,-.8,-.6,-1.4,-1.4,-1.4Z" class="g2_21" />
<path d="M129.3,1199q-3.4,-4.4,-3.4,-4.4q3,-3.8,3,-3.8c.1,-.1,.1,-.5,-.1,-.6c-.5,0,-1.3,0,-2.2,0c-.1,0,-.2,.1,-.4,.3q-2.9,3.7,-2.9,3.7c0,-2.7,0,-5.4,0,-8c0,-.2,-.2,-.2,-.3,-.1c-.7,.4,-1.3,.9,-2,1.3c-.2,.1,-.2,.3,-.2,.5q0,.6,0,.6q0,.7,0,.7q0,.1,0,.1q0,9.2,0,9.2q0,.1,0,.1q0,.7,0,.7c0,.1,.1,.3,.2,.3q2,0,2,0c.1,0,.3,-.2,.3,-.3q0,-.6,0,-.6q0,-3.5,0,-3.5q3.2,4.2,3.2,4.2c.1,.2,.2,.2,.4,.2c.8,0,1.8,0,2.2,0c.3,-.1,.3,-.5,.2,-.6Z" class="g2_21" />
<path fill-rule="evenodd" d="M468.7,426.9H571V426H468.7v.9Z" class="g3_21" />
<path fill-rule="evenodd" d="M353.7,572.6h44.6v-.9H353.7v.9Z" class="g3_21" />
<path fill-rule="evenodd" d="M88,549.2H345.1v-4.6H88v4.6Z" class="g4_21" />
<path fill-rule="evenodd" d="M345.1,549.2h4.6v-4.6h-4.6v4.6Z" class="g4_21" />
<path fill-rule="evenodd" d="M349.7,549.2H846.2v-4.6H349.7v4.6Z" class="g4_21" />
<path fill-rule="evenodd" d="M353.7,607.1h46.4v-.9H353.7v.9Z" class="g3_21" />
<path fill-rule="evenodd" d="M88,583.6H345.1v-.7H88v.7Z" class="g4_21" />
<path fill-rule="evenodd" d="M345.1,583.6h.7v-.7h-.7v.7Z" class="g4_21" />
<path fill-rule="evenodd" d="M345.8,583.6H846.2v-.7H345.8v.7Z" class="g4_21" />
<path fill-rule="evenodd" d="M353.7,641.6h84.7v-1H353.7v1Z" class="g3_21" />
<path fill-rule="evenodd" d="M88,618.1H345.1v-.7H88v.7Z" class="g4_21" />
<path fill-rule="evenodd" d="M345.1,618.1h.7v-.7h-.7v.7Z" class="g4_21" />
<path fill-rule="evenodd" d="M345.8,618.1H846.2v-.7H345.8v.7Z" class="g4_21" />
<path fill-rule="evenodd" d="M353.7,676.2H453.8v-.9H353.7v.9Z" class="g3_21" />
<path fill-rule="evenodd" d="M88,652.6H345.1v-.8H88v.8Z" class="g4_21" />
<path fill-rule="evenodd" d="M345.1,652.6h.7v-.8h-.7v.8Z" class="g4_21" />
<path fill-rule="evenodd" d="M345.8,652.6H846.2v-.8H345.8v.8Z" class="g4_21" />
<path fill-rule="evenodd" d="M88,687.2H345.1v-.7H88v.7Z" class="g4_21" />
<path fill-rule="evenodd" d="M345.1,687.2h.7v-.7h-.7v.7Z" class="g4_21" />
<path fill-rule="evenodd" d="M345.8,687.2H846.2v-.7H345.8v.7Z" class="g4_21" />
<path fill-rule="evenodd" d="M353.7,745.2H496.2v-.9H353.7v.9Z" class="g3_21" />
<path fill-rule="evenodd" d="M88,721.7H345.1V721H88v.7Z" class="g4_21" />
<path fill-rule="evenodd" d="M345.1,721.7h.7V721h-.7v.7Z" class="g4_21" />
<path fill-rule="evenodd" d="M345.8,721.7H846.2V721H345.8v.7Z" class="g4_21" />
<path fill-rule="evenodd" d="M353.7,779.6H551.2v-.9H353.7v.9Z" class="g3_21" />
<path fill-rule="evenodd" d="M88,756.2H345.1v-.8H88v.8Z" class="g4_21" />
<path fill-rule="evenodd" d="M345.1,756.2h.7v-.8h-.7v.8Z" class="g4_21" />
<path fill-rule="evenodd" d="M345.8,756.2H846.2v-.8H345.8v.8Z" class="g4_21" />
<path fill-rule="evenodd" d="M353.7,814.1h43.5v-.9H353.7v.9Z" class="g3_21" />
<path fill-rule="evenodd" d="M88,790.6H345.1v-.7H88v.7Z" class="g4_21" />
<path fill-rule="evenodd" d="M345.1,790.6h.7v-.7h-.7v.7Z" class="g4_21" />
<path fill-rule="evenodd" d="M345.8,790.6H846.2v-.7H345.8v.7Z" class="g4_21" />
<path fill-rule="evenodd" d="M353.7,848.8H634.8v-1H353.7v1Z" class="g3_21" />
<path fill-rule="evenodd" d="M88,825.1H345.1v-.7H88v.7Z" class="g4_21" />
<path fill-rule="evenodd" d="M345.1,825.1h.7v-.7h-.7v.7Z" class="g4_21" />
<path fill-rule="evenodd" d="M345.8,825.1H846.2v-.7H345.8v.7Z" class="g4_21" />
<path fill-rule="evenodd" d="M353.7,883.2H583.8v-.9H353.7v.9Z" class="g3_21" />
<path fill-rule="evenodd" d="M88,859.8H345.1V859H88v.8Z" class="g4_21" />
<path fill-rule="evenodd" d="M345.1,859.8h.7V859h-.7v.8Z" class="g4_21" />
<path fill-rule="evenodd" d="M345.8,859.8H846.2V859H345.8v.8Z" class="g4_21" />
<path fill-rule="evenodd" d="M353.7,917.7H483v-.9H353.7v.9Z" class="g3_21" />
<path fill-rule="evenodd" d="M88,894.2H345.1v-.7H88v.7Z" class="g4_21" />
<path fill-rule="evenodd" d="M345.1,894.2h.7v-.7h-.7v.7Z" class="g4_21" />
<path fill-rule="evenodd" d="M345.8,894.2H846.2v-.7H345.8v.7Z" class="g4_21" />
<path fill-rule="evenodd" d="M353.7,952.2H520.8v-1H353.7v1Z" class="g3_21" />
<path fill-rule="evenodd" d="M88,928.7H345.1V928H88v.7Z" class="g4_21" />
<path fill-rule="evenodd" d="M345.1,928.7h.7V928h-.7v.7Z" class="g4_21" />
<path fill-rule="evenodd" d="M345.8,928.7H846.2V928H345.8v.7Z" class="g4_21" />
<path fill-rule="evenodd" d="M353.7,986.6h46.2v-.9H353.7v.9Z" class="g3_21" />
<path fill-rule="evenodd" d="M88,963.2H345.1v-.8H88v.8Z" class="g4_21" />
<path fill-rule="evenodd" d="M345.1,963.2h.7v-.8h-.7v.8Z" class="g4_21" />
<path fill-rule="evenodd" d="M345.8,963.2H846.2v-.8H345.8v.8Z" class="g4_21" />
<path fill-rule="evenodd" d="M353.7,1021.3h76.8v-.9H353.7v.9Z" class="g3_21" />
<path fill-rule="evenodd" d="M88,997.7H345.1v-.8H88v.8Z" class="g4_21" />
<path fill-rule="evenodd" d="M345.1,997.7h.7v-.8h-.7v.8Z" class="g4_21" />
<path fill-rule="evenodd" d="M345.8,997.7H846.2v-.8H345.8v.8Z" class="g4_21" />
<path fill-rule="evenodd" d="M353.7,1055.8H556.5v-.9H353.7v.9Z" class="g3_21" />
<path fill-rule="evenodd" d="M88,1032.3H345.1v-.7H88v.7Z" class="g4_21" />
<path fill-rule="evenodd" d="M345.1,1032.3h.7v-.7h-.7v.7Z" class="g4_21" />
<path fill-rule="evenodd" d="M345.8,1032.3H846.2v-.7H345.8v.7Z" class="g4_21" />
<path fill-rule="evenodd" d="M353.7,1090.3H506.5v-1H353.7v1Z" class="g3_21" />
<path fill-rule="evenodd" d="M88,1066.8H345.1v-.7H88v.7Z" class="g4_21" />
<path fill-rule="evenodd" d="M345.1,1066.8h.7v-.7h-.7v.7Z" class="g4_21" />
<path fill-rule="evenodd" d="M345.8,1066.8H846.2v-.7H345.8v.7Z" class="g4_21" />
<path fill-rule="evenodd" d="M353.7,1124.7H582.9v-.9H353.7v.9Z" class="g3_21" />
<path fill-rule="evenodd" d="M88,1101.3H345.1v-.8H88v.8Z" class="g4_21" />
<path fill-rule="evenodd" d="M345.1,1101.3h.7v-.8h-.7v.8Z" class="g4_21" />
<path fill-rule="evenodd" d="M345.8,1101.3H846.2v-.8H345.8v.8Z" class="g4_21" />
<path fill-rule="evenodd" d="M86.9,1135.7H345.1v-.7H86.9v.7Z" class="g4_21" />
<path fill-rule="evenodd" d="M344,1135.7h.7v-.7H344v.7Z" class="g4_21" />
<path fill-rule="evenodd" d="M344.7,1135.7H846.2v-.7H344.7v.7Z" class="g4_21" />
</svg>