<?xml version="1.0" encoding="UTF-8" standalone="no"?>
<!DOCTYPE svg PUBLIC "-//W3C//DTD SVG 1.1//EN"
"http://www.w3.org/Graphics/SVG/1.1/DTD/svg11.dtd">
<svg viewBox="0 0 909 1286" version="1.1" xmlns="http://www.w3.org/2000/svg" xmlns:xlink="http://www.w3.org/1999/xlink">
<defs>
<style type="text/css"><![CDATA[
.g0_12{
fill: #D3D3D3;
}
.g1_12{
fill: #F8F8F8;
}
]]></style>
</defs>
<image preserveAspectRatio="none" x="130" y="1222" width="83" height="28" xlink:href="img/1.png" />
<image preserveAspectRatio="none" x="157" y="86" width="661" height="557" xlink:href="img/2.png" />
<path fill-rule="evenodd" d="M127.8,697.1H847v-.4H127.8v.4Z" class="g0_12" />
<path fill-rule="evenodd" d="M163.6,860.9H847V835.2H163.6v25.7Z" class="g1_12" />
<path fill-rule="evenodd" d="M160.3,835.2H847v-.7H160.3v.7Z" class="g0_12" />
<path fill-rule="evenodd" d="M847,835.2h.7v-.7H847v.7Z" class="g0_12" />
<path fill-rule="evenodd" d="M847,835.2h.7v-.7H847v.7Z" class="g0_12" />
<path fill-rule="evenodd" d="M160.3,860.9h3.3V835.2h-3.3v25.7Z" class="g0_12" />
<path fill-rule="evenodd" d="M847,860.9h.7V835.2H847v25.7Z" class="g0_12" />
<path fill-rule="evenodd" d="M163.6,877.2H847V860.9H163.6v16.3Z" class="g1_12" />
<path fill-rule="evenodd" d="M160.3,877.2h3.3V860.9h-3.3v16.3Z" class="g0_12" />
<path fill-rule="evenodd" d="M847,877.2h.7V860.9H847v16.3Z" class="g0_12" />
<path fill-rule="evenodd" d="M163.6,893.7H847V877.2H163.6v16.5Z" class="g1_12" />
<path fill-rule="evenodd" d="M160.3,893.7h3.3V877.2h-3.3v16.5Z" class="g0_12" />
<path fill-rule="evenodd" d="M847,893.7h.7V877.2H847v16.5Z" class="g0_12" />
<path fill-rule="evenodd" d="M163.6,910.2H847V893.7H163.6v16.5Z" class="g1_12" />
<path fill-rule="evenodd" d="M160.3,910.2h3.3V893.7h-3.3v16.5Z" class="g0_12" />
<path fill-rule="evenodd" d="M847,910.2h.7V893.7H847v16.5Z" class="g0_12" />
<path fill-rule="evenodd" d="M163.6,926.7H847V910.2H163.6v16.5Z" class="g1_12" />
<path fill-rule="evenodd" d="M160.3,926.7h3.3V910.2h-3.3v16.5Z" class="g0_12" />
<path fill-rule="evenodd" d="M847,926.7h.7V910.2H847v16.5Z" class="g0_12" />
<path fill-rule="evenodd" d="M163.6,943.2H847V926.7H163.6v16.5Z" class="g1_12" />
<path fill-rule="evenodd" d="M160.3,943.2h3.3V926.7h-3.3v16.5Z" class="g0_12" />
<path fill-rule="evenodd" d="M847,943.2h.7V926.7H847v16.5Z" class="g0_12" />
<path fill-rule="evenodd" d="M163.6,959.7H847V943.2H163.6v16.5Z" class="g1_12" />
<path fill-rule="evenodd" d="M160.3,959.7h3.3V943.2h-3.3v16.5Z" class="g0_12" />
<path fill-rule="evenodd" d="M847,959.7h.7V943.2H847v16.5Z" class="g0_12" />
<path fill-rule="evenodd" d="M163.6,976H847V959.7H163.6V976Z" class="g1_12" />
<path fill-rule="evenodd" d="M160.3,976h3.3V959.7h-3.3V976Z" class="g0_12" />
<path fill-rule="evenodd" d="M847,976h.7V959.7H847V976Z" class="g0_12" />
<path fill-rule="evenodd" d="M163.6,992.5H847V976H163.6v16.5Z" class="g1_12" />
<path fill-rule="evenodd" d="M160.3,992.5h3.3V976h-3.3v16.5Z" class="g0_12" />
<path fill-rule="evenodd" d="M847,992.5h.7V976H847v16.5Z" class="g0_12" />
<path fill-rule="evenodd" d="M163.6,1009H847V992.5H163.6V1009Z" class="g1_12" />
<path fill-rule="evenodd" d="M160.3,1009h3.3V992.5h-3.3V1009Z" class="g0_12" />
<path fill-rule="evenodd" d="M847,1009h.7V992.5H847V1009Z" class="g0_12" />
<path fill-rule="evenodd" d="M163.6,1025.5H847V1009H163.6v16.5Z" class="g1_12" />
<path fill-rule="evenodd" d="M160.3,1025.5h3.3V1009h-3.3v16.5Z" class="g0_12" />
<path fill-rule="evenodd" d="M847,1025.5h.7V1009H847v16.5Z" class="g0_12" />
<path fill-rule="evenodd" d="M163.6,1042H847v-16.5H163.6V1042Z" class="g1_12" />
<path fill-rule="evenodd" d="M160.3,1042h3.3v-16.5h-3.3V1042Z" class="g0_12" />
<path fill-rule="evenodd" d="M847,1042h.7v-16.5H847V1042Z" class="g0_12" />
<path fill-rule="evenodd" d="M163.6,1058.5H847V1042H163.6v16.5Z" class="g1_12" />
<path fill-rule="evenodd" d="M160.3,1058.5h3.3V1042h-3.3v16.5Z" class="g0_12" />
<path fill-rule="evenodd" d="M847,1058.5h.7V1042H847v16.5Z" class="g0_12" />
<path fill-rule="evenodd" d="M163.6,1074.9H847v-16.4H163.6v16.4Z" class="g1_12" />
<path fill-rule="evenodd" d="M160.3,1074.9h3.3v-16.4h-3.3v16.4Z" class="g0_12" />
<path fill-rule="evenodd" d="M847,1074.9h.7v-16.4H847v16.4Z" class="g0_12" />
<path fill-rule="evenodd" d="M163.6,1091.4H847v-16.5H163.6v16.5Z" class="g1_12" />
<path fill-rule="evenodd" d="M160.3,1091.4h3.3v-16.5h-3.3v16.5Z" class="g0_12" />
<path fill-rule="evenodd" d="M847,1091.4h.7v-16.5H847v16.5Z" class="g0_12" />
<path fill-rule="evenodd" d="M163.6,1107.9H847v-16.5H163.6v16.5Z" class="g1_12" />
<path fill-rule="evenodd" d="M160.3,1107.9h3.3v-16.5h-3.3v16.5Z" class="g0_12" />
<path fill-rule="evenodd" d="M847,1107.9h.7v-16.5H847v16.5Z" class="g0_12" />
<path fill-rule="evenodd" d="M163.6,1124.4H847v-16.5H163.6v16.5Z" class="g1_12" />
<path fill-rule="evenodd" d="M160.3,1124.4h3.3v-16.5h-3.3v16.5Z" class="g0_12" />
<path fill-rule="evenodd" d="M847,1124.4h.7v-16.5H847v16.5Z" class="g0_12" />
<path fill-rule="evenodd" d="M163.6,1140.8H847v-16.5H163.6v16.5Z" class="g1_12" />
<path fill-rule="evenodd" d="M160.3,1140.8h3.3v-16.5h-3.3v16.5Z" class="g0_12" />
<path fill-rule="evenodd" d="M847,1140.8h.7v-16.5H847v16.5Z" class="g0_12" />
<path fill-rule="evenodd" d="M163.6,1157.3H847v-16.5H163.6v16.5Z" class="g1_12" />
<path fill-rule="evenodd" d="M160.3,1157.3h3.3v-16.5h-3.3v16.5Z" class="g0_12" />
<path fill-rule="evenodd" d="M847,1157.3h.7v-16.5H847v16.5Z" class="g0_12" />
<path fill-rule="evenodd" d="M163.6,1173.7H847v-16.4H163.6v16.4Z" class="g1_12" />
<path fill-rule="evenodd" d="M160.3,1173.7h3.3v-16.4h-3.3v16.4Z" class="g0_12" />
<path fill-rule="evenodd" d="M847,1173.7h.7v-16.4H847v16.4Z" class="g0_12" />
<path fill-rule="evenodd" d="M163.6,1199.3H847v-25.6H163.6v25.6Z" class="g1_12" />
<path fill-rule="evenodd" d="M160.3,1200.1H847v-.8H160.3v.8Z" class="g0_12" />
<path fill-rule="evenodd" d="M847,1200.1h.7v-.8H847v.8Z" class="g0_12" />
<path fill-rule="evenodd" d="M847,1200.1h.7v-.8H847v.8Z" class="g0_12" />
<path fill-rule="evenodd" d="M160.3,1199.3h3.3v-25.6h-3.3v25.6Z" class="g0_12" />
<path fill-rule="evenodd" d="M847,1199.3h.7v-25.6H847v25.6Z" class="g0_12" />
</svg>