<?xml version="1.0" encoding="UTF-8" standalone="no"?>
<!DOCTYPE svg PUBLIC "-//W3C//DTD SVG 1.1//EN"
"http://www.w3.org/Graphics/SVG/1.1/DTD/svg11.dtd">
<svg viewBox="0 0 909 1286" version="1.1" xmlns="http://www.w3.org/2000/svg" xmlns:xlink="http://www.w3.org/1999/xlink">
<defs>
<clipPath id="c0_16"><path d="M96.4,1201.4v-15.5h33v15.5Z" /></clipPath>
<style type="text/css"><![CDATA[
.g0_16{
fill: none;
stroke: #000000;
stroke-width: 4.201389;
stroke-linecap: butt;
stroke-linejoin: round;
}
.g1_16{
fill: #5EB28E;
fill-opacity: 0.6;
}
.g2_16{
fill: #FFFFFF;
}
.g3_16{
fill: #16AAD3;
}
.g4_16{
}
.g5_16{
fill: #F1F1F1;
}
]]></style>
</defs>
<path d="M841.2,1171.7H796.5" class="g0_16" />
<path fill-rule="evenodd" d="M111.9,1174c-11.5,0,-20.8,9.3,-20.8,20.8c0,11.5,9.3,20.8,20.8,20.8c11.5,0,20.8,-9.3,20.8,-20.8c0,-11.5,-9.3,-20.8,-20.8,-20.8Z" class="g1_16" />
<path d="M116.9,1199.3c0,.1,.2,.3,.4,.3q1.9,0,1.9,0c.1,0,.3,-.2,.3,-.3q0,-.7,0,-.7q0,-.1,0,-.1q0,-7.1,0,-7.1q0,-.1,0,-.1q0,-.7,0,-.7c0,-.2,-.2,-.4,-.3,-.4q-1.9,0,-1.9,0c-.2,0,-.4,.2,-.4,.4q0,.5,0,.5q0,7.6,0,7.6v.6Z" class="g2_16" />
<g clip-path="url(#c0_16)">
<path d="M115.7,1195.4q0,-4.8,0,-4.8c0,-.2,-.1,-.4,-.3,-.4q-2,0,-2,0c-.1,0,-.2,.2,-.2,.4q0,4.4,0,4.4c0,1.7,-1,2.5,-2,2.4c-1,.1,-2,-.7,-1.9,-2.4q0,-4.4,0,-4.4c0,-.2,-.1,-.4,-.3,-.4q-1.9,0,-1.9,0c-.2,0,-.3,.2,-.3,.4q0,3.6,0,3.6c-.4,-2.4,-2.6,-4.2,-5.2,-4.2c-2.9,0,-5.2,2.2,-5.2,5c0,2.7,2.3,4.9,5.2,4.9c.2,0,.8,0,.9,0q2.1,1.4,2.1,1.4c.2,.1,.4,.1,.4,-.2q0,-2.4,0,-2.4c.9,-.7,1.6,-1.8,1.8,-3.1c.1,2.9,2.3,4.3,4.4,4.2c2.2,.1,4.5,-1.4,4.5,-4.4Zm-14.1,2.2c-1.5,0,-2.8,-1.2,-2.8,-2.6c0,-1.5,1.3,-2.7,2.8,-2.7c1.5,0,2.8,1.2,2.8,2.7c0,1.4,-1.3,2.6,-2.8,2.6Z" class="g2_16" />
</g>
<path d="M118.2,1186.7c-.8,0,-1.4,.6,-1.4,1.4c0,.7,.6,1.3,1.4,1.3c.8,0,1.4,-.6,1.4,-1.3c0,-.8,-.6,-1.4,-1.4,-1.4Z" class="g2_16" />
<path d="M129.3,1199q-3.4,-4.4,-3.4,-4.4q3,-3.8,3,-3.8c.1,-.1,.1,-.5,-.1,-.6c-.5,0,-1.3,0,-2.2,0c-.1,0,-.2,.1,-.4,.3q-2.9,3.7,-2.9,3.7c0,-2.7,0,-5.4,0,-8c0,-.2,-.2,-.2,-.3,-.1c-.7,.4,-1.3,.9,-2,1.3c-.2,.1,-.2,.3,-.2,.5q0,.6,0,.6q0,.7,0,.7q0,.1,0,.1q0,9.2,0,9.2q0,.1,0,.1q0,.7,0,.7c0,.1,.1,.3,.2,.3q2,0,2,0c.1,0,.3,-.2,.3,-.3q0,-.6,0,-.6q0,-3.5,0,-3.5q3.2,4.2,3.2,4.2c.1,.2,.2,.2,.4,.2c.8,0,1.8,0,2.2,0c.3,-.1,.3,-.5,.2,-.6Z" class="g2_16" />
<path fill-rule="evenodd" d="M344.2,131.3H576.9v-.9H344.2v.9Z" class="g3_16" />
<path fill-rule="evenodd" d="M88,107.6H218.4V103H88v4.6Z" class="g4_16" />
<path fill-rule="evenodd" d="M218.4,107.6H223V103h-4.6v4.6Z" class="g4_16" />
<path fill-rule="evenodd" d="M223,107.6H335.6V103H223v4.6Z" class="g4_16" />
<path fill-rule="evenodd" d="M335.6,107.6h4.6V103h-4.6v4.6Z" class="g4_16" />
<path fill-rule="evenodd" d="M340.2,107.6h506V103h-506v4.6Z" class="g4_16" />
<path fill-rule="evenodd" d="M86.9,142.3H218.4v-.8H86.9v.8Z" class="g4_16" />
<path fill-rule="evenodd" d="M217.3,142.3h.7v-.8h-.7v.8Z" class="g4_16" />
<path fill-rule="evenodd" d="M218,142.3H335.6v-.8H218v.8Z" class="g4_16" />
<path fill-rule="evenodd" d="M334.5,142.3h.7v-.8h-.7v.8Z" class="g4_16" />
<path fill-rule="evenodd" d="M335.2,142.3h511v-.8h-511v.8Z" class="g4_16" />
<path fill-rule="evenodd" d="M344.2,507.4H558.4v-1H344.2v1Z" class="g3_16" />
<path fill-rule="evenodd" d="M88,483.7H218.4v-4.6H88v4.6Z" class="g4_16" />
<path fill-rule="evenodd" d="M218.4,483.7H223v-4.6h-4.6v4.6Z" class="g4_16" />
<path fill-rule="evenodd" d="M223,483.7H335.6v-4.6H223v4.6Z" class="g4_16" />
<path fill-rule="evenodd" d="M335.6,483.7h4.6v-4.6h-4.6v4.6Z" class="g4_16" />
<path fill-rule="evenodd" d="M340.2,483.7h506v-4.6h-506v4.6Z" class="g4_16" />
<path fill-rule="evenodd" d="M86.9,518.4H218.4v-.8H86.9v.8Z" class="g4_16" />
<path fill-rule="evenodd" d="M217.3,518.4h.7v-.8h-.7v.8Z" class="g4_16" />
<path fill-rule="evenodd" d="M218,518.4H335.6v-.8H218v.8Z" class="g4_16" />
<path fill-rule="evenodd" d="M334.5,518.4h.7v-.8h-.7v.8Z" class="g4_16" />
<path fill-rule="evenodd" d="M335.2,518.4h511v-.8h-511v.8Z" class="g4_16" />
<path fill-rule="evenodd" d="M88,752.3H218.4v-4.6H88v4.6Z" class="g4_16" />
<path fill-rule="evenodd" d="M218.4,752.3H223v-4.6h-4.6v4.6Z" class="g4_16" />
<path fill-rule="evenodd" d="M223,752.3H335.6v-4.6H223v4.6Z" class="g4_16" />
<path fill-rule="evenodd" d="M335.6,752.3h4.6v-4.6h-4.6v4.6Z" class="g4_16" />
<path fill-rule="evenodd" d="M340.2,752.3h506v-4.6h-506v4.6Z" class="g4_16" />
<path fill-rule="evenodd" d="M88,786.8H218.4v-.7H88v.7Z" class="g4_16" />
<path fill-rule="evenodd" d="M218.4,786.8h.7v-.7h-.7v.7Z" class="g4_16" />
<path fill-rule="evenodd" d="M219.1,786.8H335.6v-.7H219.1v.7Z" class="g4_16" />
<path fill-rule="evenodd" d="M335.6,786.8h.7v-.7h-.7v.7Z" class="g4_16" />
<path fill-rule="evenodd" d="M336.3,786.8H846.2v-.7H336.3v.7Z" class="g4_16" />
<path fill-rule="evenodd" d="M86.9,821.3H218.4v-.8H86.9v.8Z" class="g4_16" />
<path fill-rule="evenodd" d="M217.3,821.3h.7v-.8h-.7v.8Z" class="g4_16" />
<path fill-rule="evenodd" d="M218,821.3H335.6v-.8H218v.8Z" class="g4_16" />
<path fill-rule="evenodd" d="M334.5,821.3h.7v-.8h-.7v.8Z" class="g4_16" />
<path fill-rule="evenodd" d="M335.2,821.3h511v-.8h-511v.8Z" class="g4_16" />
<path fill-rule="evenodd" d="M108.9,883.8h4.6v-24h-4.6v24Z" class="g4_16" />
<path fill-rule="evenodd" d="M108.9,908h4.6V883.8h-4.6V908Z" class="g4_16" />
<path fill-rule="evenodd" d="M133.7,1018.2H845.9V993.8H133.7v24.4Z" class="g5_16" />
<path fill-rule="evenodd" d="M124.5,993.8h9.2v-9.2h-9.2v9.2Z" class="g5_16" />
<path fill-rule="evenodd" d="M124.5,993.8h9.2v-9.2h-9.2v9.2Z" class="g5_16" />
<path fill-rule="evenodd" d="M133.7,993.8H845.9v-9.2H133.7v9.2Z" class="g5_16" />
<path fill-rule="evenodd" d="M124.5,1018.2h9.2V993.8h-9.2v24.4Z" class="g5_16" />
<path fill-rule="evenodd" d="M133.7,1041.1H845.9v-22.9H133.7v22.9Z" class="g5_16" />
<path fill-rule="evenodd" d="M124.5,1041.1h9.2v-22.9h-9.2v22.9Z" class="g5_16" />
<path fill-rule="evenodd" d="M133.7,1064H845.9v-22.9H133.7V1064Z" class="g5_16" />
<path fill-rule="evenodd" d="M124.5,1064h9.2v-22.9h-9.2V1064Z" class="g5_16" />
<path fill-rule="evenodd" d="M133.7,1087H845.9v-23H133.7v23Z" class="g5_16" />
<path fill-rule="evenodd" d="M124.5,1087h9.2v-23h-9.2v23Z" class="g5_16" />
<path fill-rule="evenodd" d="M133.7,1109.9H845.9V1087H133.7v22.9Z" class="g5_16" />
<path fill-rule="evenodd" d="M124.5,1109.9h9.2V1087h-9.2v22.9Z" class="g5_16" />
<path fill-rule="evenodd" d="M133.7,1134.4H845.9v-24.5H133.7v24.5Z" class="g5_16" />
<path fill-rule="evenodd" d="M124.5,1143.6h9.2v-9.2h-9.2v9.2Z" class="g5_16" />
<path fill-rule="evenodd" d="M124.5,1143.6h9.2v-9.2h-9.2v9.2Z" class="g5_16" />
<path fill-rule="evenodd" d="M133.7,1143.6H845.9v-9.2H133.7v9.2Z" class="g5_16" />
<path fill-rule="evenodd" d="M124.5,1134.4h9.2v-24.5h-9.2v24.5Z" class="g5_16" />
</svg>