<?xml version="1.0" encoding="UTF-8" standalone="no"?>
<!DOCTYPE svg PUBLIC "-//W3C//DTD SVG 1.1//EN"
"http://www.w3.org/Graphics/SVG/1.1/DTD/svg11.dtd">
<svg viewBox="0 0 909 1286" version="1.1" xmlns="http://www.w3.org/2000/svg" xmlns:xlink="http://www.w3.org/1999/xlink">
<defs>
<style type="text/css"><![CDATA[
.g0_7{
fill: #D3D3D3;
}
.g1_7{
fill: #F8F8F8;
}
]]></style>
</defs>
<image preserveAspectRatio="none" x="130" y="1222" width="83" height="28" xlink:href="img/1.png" />
<path fill-rule="evenodd" d="M127.8,179.7H847v-.4H127.8v.4Z" class="g0_7" />
<path fill-rule="evenodd" d="M163.6,583.3H847V557.6H163.6v25.7Z" class="g1_7" />
<path fill-rule="evenodd" d="M160.3,557.6H847v-.7H160.3v.7Z" class="g0_7" />
<path fill-rule="evenodd" d="M847,557.6h.7v-.7H847v.7Z" class="g0_7" />
<path fill-rule="evenodd" d="M847,557.6h.7v-.7H847v.7Z" class="g0_7" />
<path fill-rule="evenodd" d="M160.3,583.3h3.3V557.6h-3.3v25.7Z" class="g0_7" />
<path fill-rule="evenodd" d="M847,583.3h.7V557.6H847v25.7Z" class="g0_7" />
<path fill-rule="evenodd" d="M163.6,599.8H847V583.3H163.6v16.5Z" class="g1_7" />
<path fill-rule="evenodd" d="M160.3,599.8h3.3V583.3h-3.3v16.5Z" class="g0_7" />
<path fill-rule="evenodd" d="M847,599.8h.7V583.3H847v16.5Z" class="g0_7" />
<path fill-rule="evenodd" d="M163.6,616.3H847V599.8H163.6v16.5Z" class="g1_7" />
<path fill-rule="evenodd" d="M160.3,616.3h3.3V599.8h-3.3v16.5Z" class="g0_7" />
<path fill-rule="evenodd" d="M847,616.3h.7V599.8H847v16.5Z" class="g0_7" />
<path fill-rule="evenodd" d="M163.6,632.6H847V616.3H163.6v16.3Z" class="g1_7" />
<path fill-rule="evenodd" d="M160.3,632.6h3.3V616.3h-3.3v16.3Z" class="g0_7" />
<path fill-rule="evenodd" d="M847,632.6h.7V616.3H847v16.3Z" class="g0_7" />
<path fill-rule="evenodd" d="M163.6,649.1H847V632.6H163.6v16.5Z" class="g1_7" />
<path fill-rule="evenodd" d="M160.3,649.1h3.3V632.6h-3.3v16.5Z" class="g0_7" />
<path fill-rule="evenodd" d="M847,649.1h.7V632.6H847v16.5Z" class="g0_7" />
<path fill-rule="evenodd" d="M163.6,665.6H847V649.1H163.6v16.5Z" class="g1_7" />
<path fill-rule="evenodd" d="M160.3,665.6h3.3V649.1h-3.3v16.5Z" class="g0_7" />
<path fill-rule="evenodd" d="M847,665.6h.7V649.1H847v16.5Z" class="g0_7" />
<path fill-rule="evenodd" d="M163.6,682.1H847V665.6H163.6v16.5Z" class="g1_7" />
<path fill-rule="evenodd" d="M160.3,682.1h3.3V665.6h-3.3v16.5Z" class="g0_7" />
<path fill-rule="evenodd" d="M847,682.1h.7V665.6H847v16.5Z" class="g0_7" />
<path fill-rule="evenodd" d="M163.6,698.6H847V682.1H163.6v16.5Z" class="g1_7" />
<path fill-rule="evenodd" d="M160.3,698.6h3.3V682.1h-3.3v16.5Z" class="g0_7" />
<path fill-rule="evenodd" d="M847,698.6h.7V682.1H847v16.5Z" class="g0_7" />
<path fill-rule="evenodd" d="M163.6,715.1H847V698.6H163.6v16.5Z" class="g1_7" />
<path fill-rule="evenodd" d="M160.3,715.1h3.3V698.6h-3.3v16.5Z" class="g0_7" />
<path fill-rule="evenodd" d="M847,715.1h.7V698.6H847v16.5Z" class="g0_7" />
<path fill-rule="evenodd" d="M163.6,731.4H847V715.1H163.6v16.3Z" class="g1_7" />
<path fill-rule="evenodd" d="M160.3,731.4h3.3V715.1h-3.3v16.3Z" class="g0_7" />
<path fill-rule="evenodd" d="M847,731.4h.7V715.1H847v16.3Z" class="g0_7" />
<path fill-rule="evenodd" d="M163.6,747.9H847V731.4H163.6v16.5Z" class="g1_7" />
<path fill-rule="evenodd" d="M160.3,747.9h3.3V731.4h-3.3v16.5Z" class="g0_7" />
<path fill-rule="evenodd" d="M847,747.9h.7V731.4H847v16.5Z" class="g0_7" />
<path fill-rule="evenodd" d="M163.6,764.4H847V747.9H163.6v16.5Z" class="g1_7" />
<path fill-rule="evenodd" d="M160.3,764.4h3.3V747.9h-3.3v16.5Z" class="g0_7" />
<path fill-rule="evenodd" d="M847,764.4h.7V747.9H847v16.5Z" class="g0_7" />
<path fill-rule="evenodd" d="M163.6,780.9H847V764.4H163.6v16.5Z" class="g1_7" />
<path fill-rule="evenodd" d="M160.3,780.9h3.3V764.4h-3.3v16.5Z" class="g0_7" />
<path fill-rule="evenodd" d="M847,780.9h.7V764.4H847v16.5Z" class="g0_7" />
<path fill-rule="evenodd" d="M163.6,797.4H847V780.9H163.6v16.5Z" class="g1_7" />
<path fill-rule="evenodd" d="M160.3,797.4h3.3V780.9h-3.3v16.5Z" class="g0_7" />
<path fill-rule="evenodd" d="M847,797.4h.7V780.9H847v16.5Z" class="g0_7" />
<path fill-rule="evenodd" d="M163.6,813.9H847V797.4H163.6v16.5Z" class="g1_7" />
<path fill-rule="evenodd" d="M160.3,813.9h3.3V797.4h-3.3v16.5Z" class="g0_7" />
<path fill-rule="evenodd" d="M847,813.9h.7V797.4H847v16.5Z" class="g0_7" />
<path fill-rule="evenodd" d="M163.6,830.2H847V813.9H163.6v16.3Z" class="g1_7" />
<path fill-rule="evenodd" d="M160.3,830.2h3.3V813.9h-3.3v16.3Z" class="g0_7" />
<path fill-rule="evenodd" d="M847,830.2h.7V813.9H847v16.3Z" class="g0_7" />
<path fill-rule="evenodd" d="M163.6,846.7H847V830.2H163.6v16.5Z" class="g1_7" />
<path fill-rule="evenodd" d="M160.3,846.7h3.3V830.2h-3.3v16.5Z" class="g0_7" />
<path fill-rule="evenodd" d="M847,846.7h.7V830.2H847v16.5Z" class="g0_7" />
<path fill-rule="evenodd" d="M163.6,863.2H847V846.7H163.6v16.5Z" class="g1_7" />
<path fill-rule="evenodd" d="M160.3,863.2h3.3V846.7h-3.3v16.5Z" class="g0_7" />
<path fill-rule="evenodd" d="M847,863.2h.7V846.7H847v16.5Z" class="g0_7" />
<path fill-rule="evenodd" d="M163.6,879.7H847V863.2H163.6v16.5Z" class="g1_7" />
<path fill-rule="evenodd" d="M160.3,879.7h3.3V863.2h-3.3v16.5Z" class="g0_7" />
<path fill-rule="evenodd" d="M847,879.7h.7V863.2H847v16.5Z" class="g0_7" />
<path fill-rule="evenodd" d="M163.6,896.2H847V879.7H163.6v16.5Z" class="g1_7" />
<path fill-rule="evenodd" d="M160.3,896.2h3.3V879.7h-3.3v16.5Z" class="g0_7" />
<path fill-rule="evenodd" d="M847,896.2h.7V879.7H847v16.5Z" class="g0_7" />
<path fill-rule="evenodd" d="M163.6,912.7H847V896.2H163.6v16.5Z" class="g1_7" />
<path fill-rule="evenodd" d="M160.3,912.7h3.3V896.2h-3.3v16.5Z" class="g0_7" />
<path fill-rule="evenodd" d="M847,912.7h.7V896.2H847v16.5Z" class="g0_7" />
<path fill-rule="evenodd" d="M163.6,929.1H847V912.7H163.6v16.4Z" class="g1_7" />
<path fill-rule="evenodd" d="M160.3,929.1h3.3V912.7h-3.3v16.4Z" class="g0_7" />
<path fill-rule="evenodd" d="M847,929.1h.7V912.7H847v16.4Z" class="g0_7" />
<path fill-rule="evenodd" d="M163.6,945.6H847V929.1H163.6v16.5Z" class="g1_7" />
<path fill-rule="evenodd" d="M160.3,945.6h3.3V929.1h-3.3v16.5Z" class="g0_7" />
<path fill-rule="evenodd" d="M847,945.6h.7V929.1H847v16.5Z" class="g0_7" />
<path fill-rule="evenodd" d="M163.6,962.1H847V945.6H163.6v16.5Z" class="g1_7" />
<path fill-rule="evenodd" d="M160.3,962.1h3.3V945.6h-3.3v16.5Z" class="g0_7" />
<path fill-rule="evenodd" d="M847,962.1h.7V945.6H847v16.5Z" class="g0_7" />
<path fill-rule="evenodd" d="M163.6,978.6H847V962.1H163.6v16.5Z" class="g1_7" />
<path fill-rule="evenodd" d="M160.3,978.6h3.3V962.1h-3.3v16.5Z" class="g0_7" />
<path fill-rule="evenodd" d="M847,978.6h.7V962.1H847v16.5Z" class="g0_7" />
<path fill-rule="evenodd" d="M163.6,995.1H847V978.6H163.6v16.5Z" class="g1_7" />
<path fill-rule="evenodd" d="M160.3,995.1h3.3V978.6h-3.3v16.5Z" class="g0_7" />
<path fill-rule="evenodd" d="M847,995.1h.7V978.6H847v16.5Z" class="g0_7" />
<path fill-rule="evenodd" d="M163.6,1011.6H847V995.1H163.6v16.5Z" class="g1_7" />
<path fill-rule="evenodd" d="M160.3,1011.6h3.3V995.1h-3.3v16.5Z" class="g0_7" />
<path fill-rule="evenodd" d="M847,1011.6h.7V995.1H847v16.5Z" class="g0_7" />
<path fill-rule="evenodd" d="M163.6,1027.9H847v-16.3H163.6v16.3Z" class="g1_7" />
<path fill-rule="evenodd" d="M160.3,1027.9h3.3v-16.3h-3.3v16.3Z" class="g0_7" />
<path fill-rule="evenodd" d="M847,1027.9h.7v-16.3H847v16.3Z" class="g0_7" />
<path fill-rule="evenodd" d="M163.6,1044.4H847v-16.5H163.6v16.5Z" class="g1_7" />
<path fill-rule="evenodd" d="M160.3,1044.4h3.3v-16.5h-3.3v16.5Z" class="g0_7" />
<path fill-rule="evenodd" d="M847,1044.4h.7v-16.5H847v16.5Z" class="g0_7" />
<path fill-rule="evenodd" d="M163.6,1060.9H847v-16.5H163.6v16.5Z" class="g1_7" />
<path fill-rule="evenodd" d="M160.3,1060.9h3.3v-16.5h-3.3v16.5Z" class="g0_7" />
<path fill-rule="evenodd" d="M847,1060.9h.7v-16.5H847v16.5Z" class="g0_7" />
<path fill-rule="evenodd" d="M163.6,1077.4H847v-16.5H163.6v16.5Z" class="g1_7" />
<path fill-rule="evenodd" d="M160.3,1077.4h3.3v-16.5h-3.3v16.5Z" class="g0_7" />
<path fill-rule="evenodd" d="M847,1077.4h.7v-16.5H847v16.5Z" class="g0_7" />
<path fill-rule="evenodd" d="M163.6,1093.9H847v-16.5H163.6v16.5Z" class="g1_7" />
<path fill-rule="evenodd" d="M160.3,1093.9h3.3v-16.5h-3.3v16.5Z" class="g0_7" />
<path fill-rule="evenodd" d="M847,1093.9h.7v-16.5H847v16.5Z" class="g0_7" />
<path fill-rule="evenodd" d="M163.6,1110.4H847v-16.5H163.6v16.5Z" class="g1_7" />
<path fill-rule="evenodd" d="M160.3,1110.4h3.3v-16.5h-3.3v16.5Z" class="g0_7" />
<path fill-rule="evenodd" d="M847,1110.4h.7v-16.5H847v16.5Z" class="g0_7" />
<path fill-rule="evenodd" d="M163.6,1126.7H847v-16.3H163.6v16.3Z" class="g1_7" />
<path fill-rule="evenodd" d="M160.3,1126.7h3.3v-16.3h-3.3v16.3Z" class="g0_7" />
<path fill-rule="evenodd" d="M847,1126.7h.7v-16.3H847v16.3Z" class="g0_7" />
<path fill-rule="evenodd" d="M163.6,1143.2H847v-16.5H163.6v16.5Z" class="g1_7" />
<path fill-rule="evenodd" d="M160.3,1143.2h3.3v-16.5h-3.3v16.5Z" class="g0_7" />
<path fill-rule="evenodd" d="M847,1143.2h.7v-16.5H847v16.5Z" class="g0_7" />
<path fill-rule="evenodd" d="M163.6,1159.7H847v-16.5H163.6v16.5Z" class="g1_7" />
<path fill-rule="evenodd" d="M160.3,1159.7h3.3v-16.5h-3.3v16.5Z" class="g0_7" />
<path fill-rule="evenodd" d="M847,1159.7h.7v-16.5H847v16.5Z" class="g0_7" />
<path fill-rule="evenodd" d="M163.6,1176.2H847v-16.5H163.6v16.5Z" class="g1_7" />
<path fill-rule="evenodd" d="M160.3,1176.2h3.3v-16.5h-3.3v16.5Z" class="g0_7" />
<path fill-rule="evenodd" d="M847,1176.2h.7v-16.5H847v16.5Z" class="g0_7" />
<path fill-rule="evenodd" d="M163.6,1201.9H847v-25.7H163.6v25.7Z" class="g1_7" />
<path fill-rule="evenodd" d="M160.3,1202.6H847v-.7H160.3v.7Z" class="g0_7" />
<path fill-rule="evenodd" d="M847,1202.6h.7v-.7H847v.7Z" class="g0_7" />
<path fill-rule="evenodd" d="M847,1202.6h.7v-.7H847v.7Z" class="g0_7" />
<path fill-rule="evenodd" d="M160.3,1201.9h3.3v-25.7h-3.3v25.7Z" class="g0_7" />
<path fill-rule="evenodd" d="M847,1201.9h.7v-25.7H847v25.7Z" class="g0_7" />
</svg>