<?xml version="1.0" encoding="UTF-8" standalone="no"?>
<!DOCTYPE svg PUBLIC "-//W3C//DTD SVG 1.1//EN"
"http://www.w3.org/Graphics/SVG/1.1/DTD/svg11.dtd">
<svg viewBox="0 0 909 1286" version="1.1" xmlns="http://www.w3.org/2000/svg" xmlns:xlink="http://www.w3.org/1999/xlink">
<defs>
<clipPath id="c0_109"><path d="M96.4,1201.4v-15.5h33v15.5Z" /></clipPath>
<style type="text/css"><![CDATA[
.g0_109{
fill: none;
stroke: #000000;
stroke-width: 4.201389;
stroke-linecap: butt;
stroke-linejoin: round;
}
.g1_109{
fill: #5EB28E;
fill-opacity: 0.6;
}
.g2_109{
fill: #FFFFFF;
}
.g3_109{
fill: #F1F1F1;
}
]]></style>
</defs>
<path d="M841.2,1171.7H796.5" class="g0_109" />
<path fill-rule="evenodd" d="M111.9,1174c-11.5,0,-20.8,9.3,-20.8,20.8c0,11.5,9.3,20.8,20.8,20.8c11.5,0,20.8,-9.3,20.8,-20.8c0,-11.5,-9.3,-20.8,-20.8,-20.8Z" class="g1_109" />
<path d="M116.9,1199.3c0,.1,.2,.3,.4,.3q1.9,0,1.9,0c.1,0,.3,-.2,.3,-.3q0,-.7,0,-.7q0,-.1,0,-.1q0,-7.1,0,-7.1q0,-.1,0,-.1q0,-.7,0,-.7c0,-.2,-.2,-.4,-.3,-.4q-1.9,0,-1.9,0c-.2,0,-.4,.2,-.4,.4q0,.5,0,.5q0,7.6,0,7.6v.6Z" class="g2_109" />
<g clip-path="url(#c0_109)">
<path d="M115.7,1195.4q0,-4.8,0,-4.8c0,-.2,-.1,-.4,-.3,-.4q-2,0,-2,0c-.1,0,-.2,.2,-.2,.4q0,4.4,0,4.4c0,1.7,-1,2.5,-2,2.4c-1,.1,-2,-.7,-1.9,-2.4q0,-4.4,0,-4.4c0,-.2,-.1,-.4,-.3,-.4q-1.9,0,-1.9,0c-.2,0,-.3,.2,-.3,.4q0,3.6,0,3.6c-.4,-2.4,-2.6,-4.2,-5.2,-4.2c-2.9,0,-5.2,2.2,-5.2,5c0,2.7,2.3,4.9,5.2,4.9c.2,0,.8,0,.9,0q2.1,1.4,2.1,1.4c.2,.1,.4,.1,.4,-.2q0,-2.4,0,-2.4c.9,-.7,1.6,-1.8,1.8,-3.1c.1,2.9,2.3,4.3,4.4,4.2c2.2,.1,4.5,-1.4,4.5,-4.4Zm-14.1,2.2c-1.5,0,-2.8,-1.2,-2.8,-2.6c0,-1.5,1.3,-2.7,2.8,-2.7c1.5,0,2.8,1.2,2.8,2.7c0,1.4,-1.3,2.6,-2.8,2.6Z" class="g2_109" />
</g>
<path d="M118.2,1186.7c-.8,0,-1.4,.6,-1.4,1.4c0,.7,.6,1.3,1.4,1.3c.8,0,1.4,-.6,1.4,-1.3c0,-.8,-.6,-1.4,-1.4,-1.4Z" class="g2_109" />
<path d="M129.3,1199q-3.4,-4.4,-3.4,-4.4q3,-3.8,3,-3.8c.1,-.1,.1,-.5,-.1,-.6c-.5,0,-1.3,0,-2.2,0c-.1,0,-.2,.1,-.4,.3q-2.9,3.7,-2.9,3.7c0,-2.7,0,-5.4,0,-8c0,-.2,-.2,-.2,-.3,-.1c-.7,.4,-1.3,.9,-2,1.3c-.2,.1,-.2,.3,-.2,.5q0,.6,0,.6q0,.7,0,.7q0,.1,0,.1q0,9.2,0,9.2q0,.1,0,.1q0,.7,0,.7c0,.1,.1,.3,.2,.3q2,0,2,0c.1,0,.3,-.2,.3,-.3q0,-.6,0,-.6q0,-3.5,0,-3.5q3.2,4.2,3.2,4.2c.1,.2,.2,.2,.4,.2c.8,0,1.8,0,2.2,0c.3,-.1,.3,-.5,.2,-.6Z" class="g2_109" />
<path fill-rule="evenodd" d="M133.7,216.4H845.9V192H133.7v24.4Z" class="g3_109" />
<path fill-rule="evenodd" d="M124.5,192h9.2v-9.2h-9.2V192Z" class="g3_109" />
<path fill-rule="evenodd" d="M124.5,192h9.2v-9.2h-9.2V192Z" class="g3_109" />
<path fill-rule="evenodd" d="M133.7,192H845.9v-9.2H133.7V192Z" class="g3_109" />
<path fill-rule="evenodd" d="M124.5,216.4h9.2V192h-9.2v24.4Z" class="g3_109" />
<path fill-rule="evenodd" d="M133.7,239.3H845.9V216.4H133.7v22.9Z" class="g3_109" />
<path fill-rule="evenodd" d="M124.5,239.3h9.2V216.4h-9.2v22.9Z" class="g3_109" />
<path fill-rule="evenodd" d="M133.7,262.2H845.9V239.3H133.7v22.9Z" class="g3_109" />
<path fill-rule="evenodd" d="M124.5,262.2h9.2V239.3h-9.2v22.9Z" class="g3_109" />
<path fill-rule="evenodd" d="M133.7,285.1H845.9V262.2H133.7v22.9Z" class="g3_109" />
<path fill-rule="evenodd" d="M124.5,285.1h9.2V262.2h-9.2v22.9Z" class="g3_109" />
<path fill-rule="evenodd" d="M133.7,308H845.9V285.1H133.7V308Z" class="g3_109" />
<path fill-rule="evenodd" d="M124.5,308h9.2V285.1h-9.2V308Z" class="g3_109" />
<path fill-rule="evenodd" d="M133.7,330.9H845.9V308H133.7v22.9Z" class="g3_109" />
<path fill-rule="evenodd" d="M124.5,330.9h9.2V308h-9.2v22.9Z" class="g3_109" />
<path fill-rule="evenodd" d="M133.7,353.9H845.9v-23H133.7v23Z" class="g3_109" />
<path fill-rule="evenodd" d="M124.5,353.9h9.2v-23h-9.2v23Z" class="g3_109" />
<path fill-rule="evenodd" d="M133.7,376.8H845.9V353.9H133.7v22.9Z" class="g3_109" />
<path fill-rule="evenodd" d="M124.5,376.8h9.2V353.9h-9.2v22.9Z" class="g3_109" />
<path fill-rule="evenodd" d="M133.7,399.7H845.9V376.8H133.7v22.9Z" class="g3_109" />
<path fill-rule="evenodd" d="M124.5,399.7h9.2V376.8h-9.2v22.9Z" class="g3_109" />
<path fill-rule="evenodd" d="M133.7,422.6H845.9V399.7H133.7v22.9Z" class="g3_109" />
<path fill-rule="evenodd" d="M124.5,422.6h9.2V399.7h-9.2v22.9Z" class="g3_109" />
<path fill-rule="evenodd" d="M133.7,445.6H845.9v-23H133.7v23Z" class="g3_109" />
<path fill-rule="evenodd" d="M124.5,445.6h9.2v-23h-9.2v23Z" class="g3_109" />
<path fill-rule="evenodd" d="M133.7,468.5H845.9V445.6H133.7v22.9Z" class="g3_109" />
<path fill-rule="evenodd" d="M124.5,468.5h9.2V445.6h-9.2v22.9Z" class="g3_109" />
<path fill-rule="evenodd" d="M133.7,491.4H845.9V468.5H133.7v22.9Z" class="g3_109" />
<path fill-rule="evenodd" d="M124.5,491.4h9.2V468.5h-9.2v22.9Z" class="g3_109" />
<path fill-rule="evenodd" d="M133.7,514.3H845.9V491.4H133.7v22.9Z" class="g3_109" />
<path fill-rule="evenodd" d="M124.5,514.3h9.2V491.4h-9.2v22.9Z" class="g3_109" />
<path fill-rule="evenodd" d="M133.7,537.2H845.9V514.3H133.7v22.9Z" class="g3_109" />
<path fill-rule="evenodd" d="M124.5,537.2h9.2V514.3h-9.2v22.9Z" class="g3_109" />
<path fill-rule="evenodd" d="M133.7,560.2H845.9v-23H133.7v23Z" class="g3_109" />
<path fill-rule="evenodd" d="M124.5,560.2h9.2v-23h-9.2v23Z" class="g3_109" />
<path fill-rule="evenodd" d="M133.7,583.1H845.9V560.2H133.7v22.9Z" class="g3_109" />
<path fill-rule="evenodd" d="M124.5,583.1h9.2V560.2h-9.2v22.9Z" class="g3_109" />
<path fill-rule="evenodd" d="M133.7,606H845.9V583.1H133.7V606Z" class="g3_109" />
<path fill-rule="evenodd" d="M124.5,606h9.2V583.1h-9.2V606Z" class="g3_109" />
<path fill-rule="evenodd" d="M133.7,628.9H845.9V606H133.7v22.9Z" class="g3_109" />
<path fill-rule="evenodd" d="M124.5,628.9h9.2V606h-9.2v22.9Z" class="g3_109" />
<path fill-rule="evenodd" d="M133.7,651.8H845.9V628.9H133.7v22.9Z" class="g3_109" />
<path fill-rule="evenodd" d="M124.5,651.8h9.2V628.9h-9.2v22.9Z" class="g3_109" />
<path fill-rule="evenodd" d="M133.7,674.7H845.9V651.8H133.7v22.9Z" class="g3_109" />
<path fill-rule="evenodd" d="M124.5,674.7h9.2V651.8h-9.2v22.9Z" class="g3_109" />
<path fill-rule="evenodd" d="M133.7,697.7H845.9v-23H133.7v23Z" class="g3_109" />
<path fill-rule="evenodd" d="M124.5,697.7h9.2v-23h-9.2v23Z" class="g3_109" />
<path fill-rule="evenodd" d="M133.7,720.6H845.9V697.7H133.7v22.9Z" class="g3_109" />
<path fill-rule="evenodd" d="M124.5,720.6h9.2V697.7h-9.2v22.9Z" class="g3_109" />
<path fill-rule="evenodd" d="M133.7,743.5H845.9V720.6H133.7v22.9Z" class="g3_109" />
<path fill-rule="evenodd" d="M124.5,743.5h9.2V720.6h-9.2v22.9Z" class="g3_109" />
<path fill-rule="evenodd" d="M133.7,766.4H845.9V743.5H133.7v22.9Z" class="g3_109" />
<path fill-rule="evenodd" d="M124.5,766.4h9.2V743.5h-9.2v22.9Z" class="g3_109" />
<path fill-rule="evenodd" d="M133.7,789.4H845.9v-23H133.7v23Z" class="g3_109" />
<path fill-rule="evenodd" d="M124.5,789.4h9.2v-23h-9.2v23Z" class="g3_109" />
<path fill-rule="evenodd" d="M133.7,812.3H845.9V789.4H133.7v22.9Z" class="g3_109" />
<path fill-rule="evenodd" d="M124.5,812.3h9.2V789.4h-9.2v22.9Z" class="g3_109" />
<path fill-rule="evenodd" d="M133.7,835.2H845.9V812.3H133.7v22.9Z" class="g3_109" />
<path fill-rule="evenodd" d="M124.5,835.2h9.2V812.3h-9.2v22.9Z" class="g3_109" />
<path fill-rule="evenodd" d="M133.7,858.1H845.9V835.2H133.7v22.9Z" class="g3_109" />
<path fill-rule="evenodd" d="M124.5,858.1h9.2V835.2h-9.2v22.9Z" class="g3_109" />
<path fill-rule="evenodd" d="M133.7,881H845.9V858.1H133.7V881Z" class="g3_109" />
<path fill-rule="evenodd" d="M124.5,881h9.2V858.1h-9.2V881Z" class="g3_109" />
<path fill-rule="evenodd" d="M133.7,903.9H845.9V881H133.7v22.9Z" class="g3_109" />
<path fill-rule="evenodd" d="M124.5,903.9h9.2V881h-9.2v22.9Z" class="g3_109" />
<path fill-rule="evenodd" d="M133.7,926.9H845.9v-23H133.7v23Z" class="g3_109" />
<path fill-rule="evenodd" d="M124.5,926.9h9.2v-23h-9.2v23Z" class="g3_109" />
<path fill-rule="evenodd" d="M133.7,949.8H845.9V926.9H133.7v22.9Z" class="g3_109" />
<path fill-rule="evenodd" d="M124.5,949.8h9.2V926.9h-9.2v22.9Z" class="g3_109" />
<path fill-rule="evenodd" d="M133.7,972.7H845.9V949.8H133.7v22.9Z" class="g3_109" />
<path fill-rule="evenodd" d="M124.5,972.7h9.2V949.8h-9.2v22.9Z" class="g3_109" />
<path fill-rule="evenodd" d="M133.7,995.7H845.9v-23H133.7v23Z" class="g3_109" />
<path fill-rule="evenodd" d="M124.5,995.7h9.2v-23h-9.2v23Z" class="g3_109" />
<path fill-rule="evenodd" d="M133.7,1018.6H845.9V995.7H133.7v22.9Z" class="g3_109" />
<path fill-rule="evenodd" d="M124.5,1018.6h9.2V995.7h-9.2v22.9Z" class="g3_109" />
<path fill-rule="evenodd" d="M133.7,1041.5H845.9v-22.9H133.7v22.9Z" class="g3_109" />
<path fill-rule="evenodd" d="M124.5,1041.5h9.2v-22.9h-9.2v22.9Z" class="g3_109" />
<path fill-rule="evenodd" d="M133.7,1064.4H845.9v-22.9H133.7v22.9Z" class="g3_109" />
<path fill-rule="evenodd" d="M124.5,1064.4h9.2v-22.9h-9.2v22.9Z" class="g3_109" />
<path fill-rule="evenodd" d="M133.7,1087.3H845.9v-22.9H133.7v22.9Z" class="g3_109" />
<path fill-rule="evenodd" d="M124.5,1087.3h9.2v-22.9h-9.2v22.9Z" class="g3_109" />
<path fill-rule="evenodd" d="M133.7,1110.2H845.9v-22.9H133.7v22.9Z" class="g3_109" />
<path fill-rule="evenodd" d="M124.5,1110.2h9.2v-22.9h-9.2v22.9Z" class="g3_109" />
<path fill-rule="evenodd" d="M133.7,1134.6H845.9v-24.4H133.7v24.4Z" class="g3_109" />
<path fill-rule="evenodd" d="M124.5,1143.8h9.2v-9.2h-9.2v9.2Z" class="g3_109" />
<path fill-rule="evenodd" d="M124.5,1143.8h9.2v-9.2h-9.2v9.2Z" class="g3_109" />
<path fill-rule="evenodd" d="M133.7,1143.8H845.9v-9.2H133.7v9.2Z" class="g3_109" />
<path fill-rule="evenodd" d="M124.5,1134.6h9.2v-24.4h-9.2v24.4Z" class="g3_109" />
</svg>